<?xml version="1.0" standalone="no"?>
<!DOCTYPE svg PUBLIC "-//W3C//DTD SVG 1.1//EN" "http://www.w3.org/Graphics/SVG/1.1/DTD/svg11.dtd" >
<svg xmlns="http://www.w3.org/2000/svg">
<metadata>
This is a custom SVG webfont generated by Font Squirrel.
Copyright   : Copyright c Imagos bv the Netherlands 2005 All rights reserved
Designer    : Imagos bv
Foundry     : Imagos bv the Netherlands
</metadata>
<defs>
<font id="webfontQUbl0ONs" horiz-adv-x="1138" >
<font-face units-per-em="2048" ascent="1638" descent="-410" />
<missing-glyph horiz-adv-x="483" />
<glyph unicode=" "  horiz-adv-x="483" />
<glyph unicode="&#x09;" horiz-adv-x="483" />
<glyph unicode="&#xa0;" horiz-adv-x="483" />
<glyph unicode="!" horiz-adv-x="569" d="M166 102q0 53 33.5 89t85.5 36q47 0 82.5 -36.5t35.5 -84.5q0 -47 -35.5 -79.5t-80.5 -32.5t-83 31.5t-38 76.5zM334 500q-47 -152 -88 2l-62 678q-10 96 -6 163q2 186 117 187q111 0 106 -160z" />
<glyph unicode="&#x22;" horiz-adv-x="759" d="M174 930l-68 401q-6 33 23 61.5t66 28.5t65.5 -28.5t22.5 -61.5l-68 -401h-41zM545 930l-68 401q-6 33 22.5 61.5t65.5 28.5t65.5 -28.5t22.5 -61.5l-67 -401h-41z" />
<glyph unicode="#" horiz-adv-x="1241" d="M1071 457h-223l-64 -457h-118l63 457h-274l-68 -457h-119l68 457h-219v116h237l43 283h-225v117h242l63 428h119l-64 -428h273l61 428h119l-61 -428h198v-117h-215l-41 -283h205v-116zM516 856l-43 -283h275l40 283h-272z" />
<glyph unicode="$" horiz-adv-x="1024" d="M457 608q-199 23 -281 76q-115 76 -115 254t107.5 290.5t288.5 135.5q-2 47 -8 133h92q-4 -49 -9 -127q221 -16 336 -84q4 -23 -4 -45q-23 -82 -18 -217h-66v86q0 55 -6 74q-16 49 -100 82q-68 27 -142 30v-532q213 -20 302 -74q131 -78 131 -264q0 -160 -100.5 -284 t-256.5 -156q-25 -6 -76 -17q4 -74 9 -205h-92q4 49 8 201q-188 0 -396 84q20 121 29 303h62q0 -70 2 -131q0 -18 4 -53q100 -121 299 -129v569zM532 41q111 10 191 98t80 211q0 125 -76 182q-61 49 -195 66v-557zM457 1290q-119 -8 -180.5 -85t-61.5 -195q0 -211 242 -234 v514z" />
<glyph unicode="%" horiz-adv-x="2048" d="M1477 41q61 0 97 28.5t53.5 71.5t22.5 94.5t5 96.5q0 43 -6.5 93t-24.5 91t-53 68.5t-94 27.5t-94 -27.5t-53.5 -68.5t-25 -91t-6.5 -93q0 -45 6.5 -96.5t25 -94.5t53.5 -71.5t94 -28.5zM1368 1434h105l-807 -1454h-105zM571 801q61 0 97.5 28.5t53.5 71.5t22.5 94.5 t5.5 96.5q0 43 -6.5 93t-25 91t-53 68.5t-94.5 27.5q-59 0 -94 -27.5t-53 -68.5t-24.5 -91t-6.5 -93q0 -45 6.5 -96.5t24.5 -94.5t53 -71.5t94 -28.5zM1477 -20q-166 0 -256.5 93t-90.5 253q0 78 28 141t75 109.5t109.5 72t134.5 25.5t134 -25.5t109 -72t75 -110t28 -140.5 q0 -160 -90 -253t-256 -93zM571 739q-166 0 -256 93.5t-90 252.5q0 78 28 141.5t75 109.5t109.5 72t133.5 26q72 0 134.5 -26t109.5 -72t75 -109.5t28 -141.5q0 -160 -90.5 -253t-256.5 -93z" />
<glyph unicode="&#x26;" horiz-adv-x="1705" d="M1522 872q-51 0 -88 -22.5t-65 -57t-49.5 -75.5l-43.5 -80q-14 -27 -41 -72l-56 -92l-58.5 -88t-49.5 -61q35 -39 76 -76t86 -65.5t91 -46t91 -17.5q49 0 95 20.5t87 73.5q0 2 1 2t1 2l31 -27q-25 -35 -58.5 -72.5t-73.5 -68.5t-84 -50t-91 -19q-115 0 -210 56t-173 138 q-100 -98 -209.5 -146t-261.5 -48q-72 0 -139.5 20t-119.5 60t-84 100.5t-32 140.5q0 96 38 171t100.5 135.5t141.5 107.5t161 86q-31 66 -51.5 137.5t-20.5 142.5q0 160 95 256.5t265 96.5q106 0 180 -58.5t74 -165.5q0 -61 -22.5 -111t-65.5 -94t-106.5 -87.5 t-143.5 -90.5q18 -43 51 -101t73 -120.5t83 -123t82 -107.5q25 31 58.5 81t64.5 106t52.5 111.5t21.5 98.5q0 59 -34 79.5t-87 20.5v41h418v-41zM305 406q0 -68 22.5 -125.5t62.5 -98.5t97.5 -64.5t124.5 -23.5q78 0 150 35t133 92q-49 49 -96 112.5t-90 133.5t-80 140 l-68 134q-53 -29 -99 -62.5t-81 -73.5t-55.5 -89t-20.5 -110zM963 1206q0 29 -7.5 58.5t-26 53t-49 39t-77.5 15.5q-82 0 -121 -56t-39 -124q0 -72 18.5 -148.5t53.5 -154.5q49 29 94 60.5t79 69.5t54.5 84t20.5 103z" />
<glyph unicode="'" horiz-adv-x="569" d="M221 1190q-4 35 -6 62.5t-2 52.5q0 37 15.5 72.5t56.5 35.5t56 -36t15 -72q0 -25 -2 -52.5t-6 -62.5l-29 -270q-4 -23 -10 -38.5t-24 -15.5t-24.5 15.5t-10.5 38.5z" />
<glyph unicode="(" horiz-adv-x="796" d="M717 1505q-123 -96 -198 -213.5t-116 -250t-55 -276.5t-14 -292q0 -143 18.5 -271t63.5 -243t117.5 -218t181.5 -198l-25 -32q-121 82 -222 187t-175 229t-115 264.5t-41 291.5q0 217 46 381t123 288t176.5 217t205.5 169z" />
<glyph unicode=")" horiz-adv-x="796" d="M82 -457q109 94 181.5 197.5t117.5 218.5t63.5 243t18.5 271q0 147 -14.5 291.5t-55.5 277t-115.5 250t-197.5 213.5l29 33q96 -68 193 -158t177 -215t130 -291.5t50 -390.5q0 -152 -40.5 -292t-114.5 -264t-175.5 -229.5t-222.5 -186.5z" />
<glyph unicode="*" horiz-adv-x="1024" d="M528 915q0 -45 9 -86q6 -25 11 -40t10 -26t11 -22.5t13 -31.5q4 -14 6 -26.5t2 -18.5q0 -37 -22.5 -61.5t-57.5 -24.5h-2q-37 0 -53.5 25.5t-16.5 58.5q0 25 9.5 51t19.5 59q14 31 22.5 66.5t6.5 76.5v54l-52 -29q-43 -29 -70 -59l-63 -70q-23 -31 -48 -46t-44 -15 q-35 0 -57.5 20.5t-22.5 54.5q0 41 32 61.5t69 24.5q53 10 99 22.5t93 37.5l45 24l-45 25q-47 25 -93 37t-99 22q-37 4 -69 24.5t-32 61.5q0 35 22.5 55.5t57.5 20.5q18 0 44 -15.5t48 -45.5l63 -70q28 -31 70 -59l52 -29v53q0 84 -27 144q-10 33 -19.5 59.5t-9.5 50.5 q0 35 17.5 59.5t54.5 24.5q35 0 57.5 -24.5t22.5 -61.5q0 -29 -15 -69l-26 -66q-10 -27 -16.5 -54.5t-6.5 -62.5v-53l54 29q43 29 70 59l63 70q23 31 48 46t44 15q35 0 57.5 -20.5t22.5 -55.5q0 -41 -32 -61.5t-69 -24.5q-53 -10 -99 -22.5t-93 -36.5l-45 -25l43 -24 q47 -25 93 -37t99 -23q37 -4 69 -24.5t32 -61.5q0 -35 -22.5 -55t-57.5 -20q-18 0 -44 15t-48 46l-63 70q-28 31 -70 59l-52 29v-54z" />
<glyph unicode="+" horiz-adv-x="1228" d="M563 467h-465v102h465v467h103v-467h464v-102h-464v-467h-103v467z" />
<glyph unicode="," horiz-adv-x="512" d="M252 207q39 0 70.5 -16.5t53 -44t34 -62.5t12.5 -72q0 -59 -19.5 -111.5t-53.5 -96.5t-79 -80.5t-94 -63.5l-20 31q31 18 62.5 43.5t59 58.5t45 70t17.5 74q0 33 -8 44t-23 11q-6 0 -14 -1t-19 -3q-10 -2 -19 -3t-19 -1q-41 0 -75 28.5t-34 71.5q0 53 34 88t89 35z" />
<glyph unicode="-" horiz-adv-x="681" d="M92 414v139h498v-139h-498z" />
<glyph unicode="." horiz-adv-x="512" d="M256 -16q-51 0 -86 34.5t-35 85.5t35 86t86 35t86 -34.5t35 -86.5q0 -51 -35 -85.5t-86 -34.5z" />
<glyph unicode="/" horiz-adv-x="569" d="M12 -33l443 1479h102l-442 -1479h-103z" />
<glyph unicode="0" horiz-adv-x="1024" d="M776 727q0 51 -1 119.5t-8 141.5t-23.5 143.5t-46 126t-74.5 90t-111 34.5t-111 -34.5t-74.5 -90t-46 -126t-23.5 -143.5t-8 -141.5t-1 -119.5q0 -70 1 -147.5t8 -155.5t23.5 -148.5t46 -125t74.5 -87t111 -32.5t111 32.5t74.5 87t46 125t23.5 148.5t8 155.5t1 147.5z M51 727q0 102 21.5 226t74 230.5t141.5 178.5t224 72t224 -72t141.5 -178.5t74 -230.5t21.5 -226q0 -123 -18.5 -256t-69.5 -241.5t-141.5 -179t-231.5 -70.5t-231.5 70.5t-141.5 179t-69.5 241.5t-18.5 256z" />
<glyph unicode="1" horiz-adv-x="1024" d="M160 41h41q72 0 115.5 7t68.5 27.5t34 56.5t9 93v879q0 47 -5 74.5t-14.5 42t-20.5 18.5t-23 4q-20 0 -51 -12t-63 -29l-62 -33q-30 -16 -50 -24l-20 39l235 129q117 66 226 143l16 -12v-1219q0 -57 9 -93t34 -56.5t70 -27.5t114 -7h41v-41h-704v41z" />
<glyph unicode="2" horiz-adv-x="1024" d="M39 35l280 313l159 182q69 82 116 156t71.5 140.5t24.5 136.5q0 150 -71.5 232.5t-225.5 82.5q-59 0 -109.5 -20.5t-90 -55.5t-69.5 -82t-46 -100l-45 8q16 90 54 165t97.5 128t138 83t173.5 30q174 0 274 -101.5t100 -273.5q0 -72 -24.5 -141.5t-73.5 -146.5 t-121.5 -163t-169.5 -188l-260 -281h455q53 0 92 6.5t68.5 22.5t54 48t47.5 83l39 -8l-117 -291h-821v35z" />
<glyph unicode="3" horiz-adv-x="1024" d="M307 748q63 4 127 28.5t115 66.5t83 99t32 125q0 106 -60.5 166.5t-165.5 60.5q-123 0 -198.5 -55t-133.5 -160l-36 27q66 154 172 241t280 87q55 0 110.5 -19.5t99.5 -53.5t71.5 -82t27.5 -108q0 -51 -17 -95t-45 -84t-64.5 -75.5t-77.5 -66.5q59 -20 111.5 -52t90 -76 t59 -99.5t21.5 -120.5q0 -131 -48 -228.5t-131 -163t-192.5 -98t-230.5 -32.5q-31 0 -75 6t-83.5 21.5t-68.5 42t-29 67.5q0 31 26.5 52t55.5 21q49 0 85 -21.5t70 -46t69.5 -46t84.5 -21.5q68 0 124.5 23.5t98.5 65.5t65.5 99.5t23.5 123.5q0 102 -37 167.5t-98.5 103.5 t-142.5 53.5t-169 15.5v41z" />
<glyph unicode="4" horiz-adv-x="1024" d="M606 1204h-4l-481 -710h485v710zM967 354h-193v-354h-168v354h-567v152l643 928h92v-940h193v-140z" />
<glyph unicode="5" horiz-adv-x="1024" d="M356 1413h410q47 0 74.5 14.5t50.5 47.5l29 -11l-91 -207h-469l-92 -204q113 -14 223.5 -52t198.5 -102.5t142.5 -160t54.5 -226.5q0 -135 -47 -234.5t-129 -166t-192.5 -99t-235.5 -32.5q-27 0 -66 6t-76 21.5t-62.5 40t-25.5 58.5q0 55 24.5 69.5t65.5 14.5 q47 0 77 -21.5t57.5 -46t61.5 -46t89 -21.5q35 0 88 14.5t104.5 54.5t87 108.5t35.5 179.5q0 94 -30.5 164.5t-82.5 121t-118 83t-136.5 54t-138 33t-122.5 19.5z" />
<glyph unicode="6" horiz-adv-x="1024" d="M592 913q96 0 164.5 -35.5t112.5 -95t65.5 -138.5t21.5 -165q0 -94 -24.5 -184t-75.5 -161t-129 -112.5t-186 -41.5q-127 0 -217.5 53t-147.5 140t-83.5 196.5t-26.5 222.5q0 223 99 402.5t275 305.5q104 76 218 112t243 52l8 -51q-119 -10 -226.5 -65.5t-192 -141.5 t-139 -194.5t-66.5 -223.5l4 -4q63 70 135 99.5t168 29.5zM508 811q-80 0 -129 -24.5t-74.5 -62.5t-34 -86t-8.5 -95q0 -72 9.5 -161t40 -167t87 -131t150.5 -53q70 0 114 30.5t69.5 78.5t34.5 106.5t9 113.5q0 70 -10 149t-39 146.5t-81 111.5t-138 44z" />
<glyph unicode="7" horiz-adv-x="1024" d="M156 1413h796l-489 -1433h-129l438 1265h-496q-37 0 -64.5 -7t-52 -26.5t-46 -54.5t-43.5 -88l-45 6z" />
<glyph unicode="8" horiz-adv-x="1024" d="M225 338q0 -143 85 -225t229 -82q53 0 100 18.5t83 52t56.5 79.5t20.5 100q0 109 -92.5 199.5t-276.5 207.5q-98 -51 -151.5 -146t-53.5 -204zM766 1130q0 117 -67.5 184.5t-184.5 67.5q-51 0 -97 -16t-81 -47t-55.5 -74t-20.5 -96q0 -43 17.5 -80t53.5 -75t93 -80 l137 -97q90 47 147.5 131t57.5 182zM70 328q0 74 26.5 133t70.5 106t101.5 83t118.5 63q-53 33 -102 69.5t-86 80.5t-59.5 96.5t-22.5 117.5q0 88 35.5 154.5t95 112t136.5 68t157 22.5q70 0 135 -19.5t117.5 -57.5t84 -94.5t31.5 -132.5q0 -111 -74.5 -185.5t-230.5 -153.5 q86 -53 150.5 -102.5t109.5 -101.5t67.5 -108.5t22.5 -126.5q0 -90 -37.5 -159.5t-101 -116.5t-143.5 -71.5t-164 -24.5q-80 0 -159 20t-141.5 63t-100 109t-37.5 156z" />
<glyph unicode="9" horiz-adv-x="1024" d="M954 872q0 -193 -69.5 -373t-204.5 -309q-119 -115 -260 -162.5t-303 -60.5v41q121 12 225 65.5t185 134.5t133.5 185.5t70.5 218.5l-4 4q-47 -59 -124 -84.5t-152 -25.5q-100 0 -172 40t-117 106.5t-65.5 150.5t-20.5 170q0 96 30.5 180t87 146.5t136.5 98.5t180 36 q123 0 208 -49.5t137 -129t75.5 -180.5t23.5 -203zM541 592q47 0 99 16.5t85 55.5q12 14 19.5 50t10.5 75.5t3 74.5v47q0 68 -9.5 151t-38 153.5t-83 118.5t-144.5 48q-74 0 -117.5 -35.5t-68.5 -91t-33 -120t-8 -119.5q0 -66 12.5 -140.5t45 -137t87 -104.5t140.5 -42z" />
<glyph unicode=":" horiz-adv-x="512" d="M256 -16q-51 0 -86 34.5t-35 85.5t35 86t86 35t86 -34.5t35 -86.5q0 -51 -35 -85.5t-86 -34.5zM256 741q-51 0 -86 35t-35 86t35 86t86 35t86 -35t35 -86t-35 -86t-86 -35z" />
<glyph unicode=";" horiz-adv-x="512" d="M252 207q39 0 70.5 -16.5t53 -44t34 -62.5t12.5 -72q0 -59 -19.5 -111.5t-53.5 -96.5t-79 -80.5t-94 -63.5l-20 31q31 18 62.5 43.5t59 58.5t45 70t17.5 74q0 33 -8 44t-23 11q-6 0 -14 -1t-19 -3q-10 -2 -19 -3t-19 -1q-41 0 -75 28.5t-34 71.5q0 53 34 88t89 35z M256 741q-51 0 -86 35t-35 86t35 86t86 35t86 -35t35 -86t-35 -86t-86 -35z" />
<glyph unicode="&#x3c;" horiz-adv-x="1228" d="M1133 -16l-1037 477v114l1037 478v-115l-918 -420l918 -420v-114z" />
<glyph unicode="=" horiz-adv-x="1228" d="M98 369h1032v-103h-1032v103zM98 770h1032v-102h-1032v102z" />
<glyph unicode="&#x3e;" horiz-adv-x="1228" d="M1014 518l-918 420v115l1037 -478v-114l-1037 -477v114z" />
<glyph unicode="?" horiz-adv-x="1024" d="M469 365q0 100 35 191t77 180t76.5 180.5t34.5 191.5q0 51 -13 100t-41 88t-70 63.5t-99 24.5q-37 0 -77 -12t-68.5 -33.5t-44 -50t-3.5 -63.5q12 -25 22.5 -41.5t19 -31.5t11.5 -31.5t3 -41.5q0 -41 -28 -61.5t-64 -20.5q-25 0 -43.5 13.5t-32.5 34t-21.5 44t-7.5 44.5 q0 76 34 134t88 98t123 60.5t136 20.5q68 0 135.5 -24.5t119.5 -68.5t85 -104.5t33 -134.5q0 -68 -15.5 -120t-43 -97t-65.5 -88l-81 -92q-66 -82 -111 -163t-53 -189h-51zM500 -16q-51 0 -86 34.5t-35 85.5t35 86t86 35t86 -34.5t35 -86.5q0 -51 -35 -85.5t-86 -34.5z" />
<glyph unicode="A" horiz-adv-x="1478" d="M938 455h-526l-93 -215q-33 -78 -32 -117q0 -33 28.5 -56.5t126.5 -29.5v-37h-426v37q84 14 111 39q49 49 113 194l477 1116h35l471 -1128q57 -135 103 -175t130 -46v-37h-534v37q80 4 108.5 26.5t28.5 57.5q0 43 -39 137zM909 528l-229 547l-238 -547h467z" />
<glyph unicode="B" horiz-adv-x="1366" d="M946 692q141 -31 211 -96q96 -92 96 -225q0 -100 -63.5 -192.5t-175 -135.5t-340.5 -43h-639v37h51q84 0 121 53q23 37 22 150v876q0 125 -28 160q-39 43 -115 43h-51v37h586q164 0 262 -25q150 -35 229.5 -127t79.5 -211q0 -100 -62.5 -181t-183.5 -120zM422 745 q37 -6 85 -10t103 -4q147 0 220 32t112 97.5t39 140.5q0 119 -96.5 203t-282.5 84q-100 0 -180 -20v-523zM422 98q117 -27 229 -26q180 0 275.5 80.5t95.5 201.5q0 78 -43 152t-140.5 116t-240.5 42q-61 0 -105 -2.5t-71 -8.5v-555z" />
<glyph unicode="C" horiz-adv-x="1366" d="M1233 1386l31 -460h-31q-61 207 -177 298t-276 91q-135 0 -244.5 -68.5t-172 -218t-62.5 -373.5q0 -184 59.5 -319t178 -207t270.5 -72q131 0 232.5 56.5t222.5 224.5l30 -21q-100 -180 -236 -264t-325 -84q-336 0 -520 250q-139 186 -139 438q0 203 91 373t250.5 263 t348.5 93q147 0 291 -71q41 -23 59 -23q27 0 47 21q27 27 37 73h35z" />
<glyph unicode="D" horiz-adv-x="1478" d="M35 0v37h51q86 0 123 55q20 33 20 148v876q0 127 -26 160q-39 43 -117 43h-51v37h553q303 0 461.5 -68.5t255 -229.5t96.5 -374q0 -283 -172 -471q-193 -213 -588 -213h-606zM422 98q127 -29 213 -28q231 0 385 162.5t154 443.5t-154 442.5t-393 161.5q-90 0 -205 -29 v-1153z" />
<glyph unicode="E" horiz-adv-x="1251" d="M428 1282v-537h297q117 0 156 35q53 47 57 162h39v-471h-39q-12 98 -27 127q-18 35 -59 55.5t-127 20.5h-297v-449q0 -90 8 -109.5t27.5 -30.5t77.5 -11h229q115 0 167 16t99 64q63 61 127 186h41l-117 -340h-1044v37h47q47 0 90 22q33 16 44.5 48t11.5 133v880 q0 129 -25 160q-37 39 -121 39h-47v37h1044l15 -297h-39q-20 106 -46 146t-77 63q-39 14 -139 14h-373z" />
<glyph unicode="F" d="M420 1282v-532h246q86 0 124.5 36.5t53.5 149.5h37v-461h-37q-2 80 -21.5 117t-54.5 55.5t-102 18.5h-246v-426q0 -102 12 -136q10 -25 41 -43q45 -25 92 -24h49v-37h-581v37h49q84 0 121 49q25 33 24 154v876q0 102 -14 135q-8 27 -41 43q-43 25 -90 25h-49v37h1009 l13 -297h-35q-27 94 -60.5 138t-85 64.5t-155.5 20.5h-299z" />
<glyph unicode="G" horiz-adv-x="1478" d="M1257 1386l35 -428h-35q-53 160 -137 242q-121 117 -311 117q-258 0 -393 -205q-115 -174 -115 -412q0 -195 76 -354.5t196.5 -234t249.5 -74.5q74 0 144.5 19.5t136.5 56.5v391q0 102 -16.5 134t-48 48t-113.5 16v37h524v-37h-25q-78 0 -106 -53q-20 -37 -21 -145v-416 q-115 -61 -227.5 -90t-249.5 -29q-393 0 -596 252q-154 188 -153 436q0 178 86 342q102 195 280 301q150 86 353 86q74 0 134 -11t171 -52q57 -23 75 -23t32 17.5t18 68.5h36z" />
<glyph unicode="H" horiz-adv-x="1478" d="M422 727h629v387q0 104 -13 137q-10 27 -43 43q-43 25 -90 25h-49v37h582v-37h-49q-47 0 -91 -23q-33 -16 -44 -49t-11 -133v-874q0 -102 12 -136q10 -25 41 -43q45 -25 93 -24h49v-37h-582v37h49q82 0 121 49q25 33 25 154v413h-629v-413q0 -102 12 -136q10 -25 41 -43 q43 -25 92 -24h49v-37h-581v37h49q84 0 121 49q25 33 24 154v874q0 104 -14 137q-8 27 -41 43q-43 25 -90 25h-49v37h581v-37h-49q-49 0 -92 -23q-31 -16 -42 -49t-11 -133v-387z" />
<glyph unicode="I" horiz-adv-x="681" d="M633 37v-37h-582v37h47q84 0 123 49q25 33 25 154v876q0 102 -15 135q-10 27 -41 43q-43 25 -92 25h-47v37h582v-37h-49q-84 0 -121 -49q-27 -33 -27 -154v-876q0 -102 15 -136q10 -25 41 -43q43 -25 92 -24h49z" />
<glyph unicode="J" horiz-adv-x="796" d="M205 1319v37h579v-37h-49q-82 0 -121 -49q-23 -33 -22 -154v-663q0 -154 -34 -248t-116 -165t-198 -71q-94 0 -147.5 46t-53.5 108q0 47 25 74q33 31 75 30q33 0 58.5 -21.5t64.5 -111.5q23 -53 60 -53q27 0 50 32.5t23 116.5v926q0 102 -14 135q-8 27 -41 43 q-43 25 -90 25h-49z" />
<glyph unicode="K" horiz-adv-x="1478" d="M612 752l500 -496q123 -125 210 -169t173 -50v-37h-643v37q57 0 83 19.5t26 43.5q0 25 -10.5 43.5t-61.5 69.5l-469 465v-438q0 -102 12 -136q10 -25 43 -43q43 -25 90 -24h47v-37h-577v37h47q84 0 123 49q23 33 22 154v876q0 102 -12 137q-10 25 -41 41q-45 25 -92 25 h-47v37h577v-37h-47q-47 0 -90 -23q-31 -16 -43 -47.5t-12 -132.5v-416q20 20 137 127q297 272 358 365q27 39 27 70q0 23 -20.5 40t-69.5 17h-33v37h500v-37q-45 0 -81 -11.5t-88 -43t-128 -101.5q-23 -20 -203 -205z" />
<glyph unicode="L" horiz-adv-x="1251" d="M1174 375l32 -6l-114 -369h-1051v37h51q86 0 123 55q20 33 21 150v874q0 127 -27 160q-39 43 -117 43h-51v37h614v-37h-18q-94 0 -133 -20q-43 -22 -59.5 -53.5t-16.5 -151.5v-852q0 -84 16 -115q12 -20 37 -30.5t156 -10.5h98q158 0 220.5 22.5t115 82t103.5 184.5z" />
<glyph unicode="M" horiz-adv-x="1820" d="M838 0l-525 1141v-905q0 -125 29 -156q37 -43 117 -43h47v-37h-471v37h47q86 0 123 51q20 33 20 148v884q0 90 -18 131q-14 29 -52 48.5t-120 19.5v37h383l491 -1061l486 1061h383v-37h-47q-86 0 -123 -51q-23 -33 -23 -148v-884q0 -125 29 -156q37 -43 117 -43h47v-37 h-576v37h47q88 0 123 51q23 33 23 148v905l-525 -1141h-32z" />
<glyph unicode="N" horiz-adv-x="1478" d="M-27 1356h369l827 -1016v780q0 125 -26 158q-37 41 -119 41h-45v37h471v-37h-47q-86 0 -123 -51q-23 -33 -23 -148v-1143h-34l-895 1092v-833q0 -125 26 -156q39 -43 117 -43h49v-37h-473v37h47q88 0 123 51q23 33 23 148v942q-59 70 -89 91t-90 42q-29 8 -88 8v37z" />
<glyph unicode="O" horiz-adv-x="1478" d="M750 1386q264 0 457.5 -200.5t193.5 -499.5q0 -309 -195.5 -513t-472.5 -204q-281 0 -471 199t-190 514q0 324 221 528q191 176 457 176zM729 1315q-180 0 -291 -135q-137 -168 -137 -494q0 -332 141 -510q111 -135 289 -135q190 0 315 148.5t125 469.5q0 348 -137 519 q-110 137 -305 137z" />
<glyph unicode="P" d="M420 635v-395q0 -127 29 -158q37 -45 114 -45h51v-37h-579v37h51q84 0 123 55q18 33 18 148v876q0 127 -26 160q-39 43 -115 43h-51v37h495q182 0 288 -38t177.5 -126t71.5 -211q0 -166 -109.5 -270.5t-310.5 -104.5q-49 0 -105 7.5t-122 21.5zM420 692q53 -10 94 -15 t70 -5q104 0 180 81t76 208q0 88 -36 163.5t-102.5 113.5t-150.5 38q-51 0 -131 -21v-563z" />
<glyph unicode="Q" horiz-adv-x="1478" d="M901 -14q102 -176 221 -259t271 -96v-32q-139 6 -296 56t-297.5 139t-242.5 192q-143 57 -227 123q-123 96 -190.5 237t-67.5 336q0 303 197.5 503.5t475.5 200.5q266 0 461 -201.5t195 -506.5q0 -250 -138.5 -438t-361.5 -254zM733 1311q-180 0 -293 -131 q-139 -162 -139 -498q0 -330 141 -508q111 -137 291 -137q188 0 303 137q135 162 135 477q0 244 -73 410q-57 129 -151.5 189.5t-213.5 60.5z" />
<glyph unicode="R" horiz-adv-x="1366" d="M1384 0h-362l-459 635q-51 -2 -84 -2h-27q-15 0 -30 2v-395q0 -127 27 -158q39 -45 114 -45h53v-37h-581v37h51q86 0 123 55q20 33 20 148v876q0 127 -26 160q-39 43 -117 43h-51v37h493q217 0 319.5 -32t174.5 -116t72 -200q0 -125 -82 -217.5t-252 -131.5l278 -389 q96 -133 166 -177t180 -56v-37zM422 696h33h22q195 0 293 84t98 213q0 127 -79.5 207t-210.5 80q-57 0 -156 -18v-566z" />
<glyph unicode="S" d="M938 1386v-468h-37q-16 135 -63 214.5t-133.5 127t-178.5 47.5q-102 0 -170.5 -63.5t-68.5 -143.5q0 -63 43 -115q61 -74 295 -199q190 -102 259.5 -156.5t106.5 -129t37 -154.5q0 -154 -118.5 -265.5t-307.5 -111.5q-59 0 -110 8q-31 6 -129.5 37t-122.5 31 q-27 0 -41.5 -14.5t-20.5 -61.5h-37v465h37q27 -145 71 -218t134 -121t199 -48q125 0 197.5 65.5t72.5 155.5q0 51 -27.5 102.5t-87.5 94.5q-39 31 -213 128t-246.5 155.5t-110.5 128t-38 153.5q0 145 111.5 250.5t283.5 105.5q109 0 230 -53q57 -25 80 -24q25 0 42 15 t25 62h37z" />
<glyph unicode="T" horiz-adv-x="1251" d="M1186 1356l14 -318h-39q-10 84 -28 119q-31 59 -83.5 87t-136.5 28h-190v-1036q0 -125 27 -156q39 -43 116 -43h47v-37h-573v37h47q86 0 123 51q20 33 20 148v1036h-161q-96 0 -136 -15q-53 -20 -90 -73.5t-43 -145.5h-39l17 318h1108z" />
<glyph unicode="U" horiz-adv-x="1478" d="M977 1319v37h479v-37h-49q-82 0 -125 -68q-20 -31 -20 -143v-551q0 -203 -40 -315.5t-159 -193.5t-324 -81q-221 0 -335.5 78t-163.5 207q-31 90 -31 334v530q0 125 -35 164t-113 39h-51v37h588v-37h-53q-84 0 -119 -53q-27 -35 -27 -150v-592q0 -78 14.5 -180 t53.5 -158.5t109.5 -94.5t175.5 -38q133 0 238.5 58.5t143 148.5t37.5 307v549q0 127 -26 160q-39 43 -117 43h-51z" />
<glyph unicode="V" horiz-adv-x="1478" d="M1454 1356v-37q-72 -12 -108 -45q-53 -49 -95 -152l-473 -1153h-37l-508 1170q-39 90 -55 108q-25 33 -61.5 50.5t-98.5 21.5v37h553v-37q-94 -8 -121.5 -31.5t-27.5 -58.5q0 -51 47 -158l344 -795l320 787q47 115 47 160q0 29 -29 55.5t-98 38.5q-4 0 -17 2v37h418z" />
<glyph unicode="W" horiz-adv-x="1933" d="M1917 1356v-37q-53 0 -86 -19.5t-64 -70.5q-18 -35 -61 -166l-379 -1094h-41l-307 867l-307 -867h-37l-404 1127q-45 125 -57 147q-18 39 -53 57.5t-94 18.5v37h501v-37h-22q-53 0 -82 -23.5t-29 -58.5t45 -162l267 -760l225 648l-39 112l-33 92q-20 49 -47 88 q-12 18 -33 31q-25 18 -49 27q-18 6 -59 6v37h526v-37h-35q-55 0 -81.5 -23.5t-26.5 -64.5q0 -51 45 -178l260 -738l258 748q45 123 45 172q0 23 -15.5 42t-35.5 28q-39 14 -101 14v37h406z" />
<glyph unicode="X" horiz-adv-x="1478" d="M836 752l290 -435q121 -180 180.5 -227t147.5 -53v-37h-582v37q59 2 86 12q23 8 36.5 26.5t13.5 39.5q0 23 -11 45q-6 16 -55 88l-229 348l-285 -365q-43 -57 -52 -76.5t-9 -39.5q0 -33 26.5 -53.5t102.5 -24.5v-37h-482v37q51 6 88 20q63 27 118.5 71t127.5 134l322 406 l-269 391q-109 158 -184.5 208t-173.5 52v37h627v-37q-80 -2 -110 -25.5t-30 -52.5q0 -37 48 -106l208 -312l240 305q43 53 52 74t9 41t-12 37q-14 20 -36.5 29.5t-96.5 9.5v37h481v-37q-57 -2 -92 -19q-53 -23 -98 -61.5t-127 -142.5z" />
<glyph unicode="Y" horiz-adv-x="1478" d="M977 1356h473v-37h-27q-27 0 -77 -22.5t-91 -65.5t-100 -141l-328 -515v-339q0 -125 29 -156q39 -43 121 -43h43v-37h-576v37h48q86 0 122 51q23 33 23 148v319l-373 569q-66 100 -89 125t-97 60q-20 10 -60 10v37h580v-37h-29q-47 0 -87 -21.5t-40 -66.5q0 -37 62 -129 l282 -438l267 417q59 94 59 142q0 27 -14.5 49t-41 34.5t-79.5 12.5v37z" />
<glyph unicode="Z" horiz-adv-x="1251" d="M1178 1356l-891 -1274h557q127 0 195.5 56.5t121.5 226.5l33 -7l-64 -358h-1103v37l870 1239h-434q-109 0 -158 -23.5t-73.5 -68.5t-47.5 -166h-37l27 338h1004z" />
<glyph unicode="[" horiz-adv-x="681" d="M180 -479v2003h441v-62h-64q-49 0 -88 -2t-65.5 -16t-41 -45t-14.5 -86v-1585q0 -55 14.5 -84t41 -43.5t65.5 -16.5t88 -2h64v-61h-441z" />
<glyph unicode="\" horiz-adv-x="1064" d="M936 -31h-119l-684 1374h121z" />
<glyph unicode="]" horiz-adv-x="681" d="M61 -479v61h64q49 0 88 2t65.5 16.5t41 45t14.5 86.5v1581q0 55 -14.5 86t-41 45t-65.5 16t-88 2h-64v62h441v-2003h-441z" />
<glyph unicode="^" horiz-adv-x="960" d="M924 668h-93l-350 585l-350 -585h-94l432 716h29z" />
<glyph unicode="_" d="M0 0v102h1139v-102h-1139z" />
<glyph unicode="`" horiz-adv-x="245" d="M33 1300q-16 29 -24.5 47.5t-8.5 41.5t18.5 40t53.5 17q41 0 58 -19.5t28 -66.5l84 -330h-52z" />
<glyph unicode="a" horiz-adv-x="909" d="M584 131q-141 -109 -178 -125q-53 -25 -115 -24q-94 0 -155.5 64.5t-61.5 170.5q0 68 28 117q41 68 142.5 127t339.5 145v37q0 137 -44 188.5t-126 51.5q-63 0 -101 -35q-39 -35 -39 -78l2 -57q0 -47 -23.5 -72t-59.5 -25q-37 0 -60.5 26t-23.5 71q0 86 88 157.5 t245 71.5q123 0 201 -41q59 -31 86 -96q18 -43 19 -176v-312q0 -131 5 -159.5t16 -38.5t28 -10q14 0 26 6q23 14 82 73v-57q-113 -150 -215 -149q-49 0 -77.5 33.5t-28.5 115.5zM584 197v350q-152 -61 -197 -86q-78 -43 -111.5 -91t-33.5 -106q0 -72 43 -120t98 -48 q76 1 201 101z" />
<glyph unicode="b" horiz-adv-x="1024" d="M315 758q133 184 287 184q141 0 245.5 -120t104.5 -328q0 -244 -161 -394q-139 -129 -310 -129q-80 0 -162.5 30t-168.5 87v948q0 158 -7.5 194t-24 48t-38.5 12q-29 0 -72 -14l-12 35l274 110h45v-663zM315 694v-549q51 -49 105.5 -74.5t111.5 -25.5q90 0 169 100.5 t79 290.5q0 176 -78.5 270.5t-179.5 94.5q-53 0 -104 -27q-42 -21 -103 -80z" />
<glyph unicode="c" horiz-adv-x="909" d="M842 348q-37 -180 -144.5 -278.5t-238.5 -98.5q-158 0 -273.5 131t-115.5 355q0 217 129 351t309 134q133 0 220 -70.5t87 -148.5q0 -39 -23.5 -61.5t-68.5 -22.5q-59 0 -88 37q-18 20 -23.5 79.5t-40.5 90.5t-98 31q-98 0 -160 -74q-82 -98 -82 -260q0 -164 81 -289 t218 -125q98 0 177 66q55 47 106 167z" />
<glyph unicode="d" horiz-adv-x="1024" d="M711 102q-68 -70 -131.5 -100.5t-137.5 -30.5q-150 0 -262 126t-112 323t123.5 360.5t320.5 163.5q121 0 199 -78v170q0 158 -7.5 194t-23.5 48t-39 12q-27 0 -70 -14l-14 35l274 110h46v-1059q0 -160 7 -195.5t23.5 -50t38.5 -14.5q27 0 72 19l10 -35l-270 -115h-47v131 zM711 172v473q-6 68 -36 124t-79 85t-96 29q-88 0 -158 -80q-90 -104 -90 -303q0 -203 87 -310.5t196 -107.5q92 0 176 90z" />
<glyph unicode="e" horiz-adv-x="909" d="M217 571q0 -205 100 -319q100 -117 236 -117q88 0 154.5 49t111.5 170l33 -20q-23 -137 -123 -250t-254 -113q-164 0 -281.5 129t-117.5 346q0 236 120.5 367t303.5 131q154 0 253 -101.5t99 -271.5h-635zM217 629h424q-4 88 -20 125q-25 55 -74 86.5t-105 31.5 q-82 0 -147.5 -64t-77.5 -179z" />
<glyph unicode="f" horiz-adv-x="681" d="M422 844v-602q0 -127 29 -162q37 -43 98 -43h84v-37h-547v37h41q39 0 71.5 19.5t45 53t12.5 132.5v602h-176v71h176v62q0 135 44 230.5t135 153.5t204 58q104 0 192 -67q59 -45 60 -101q0 -31 -26.5 -57.5t-55.5 -26.5q-25 0 -50.5 16.5t-62.5 72t-67 73.5q-31 18 -70 19 q-45 0 -76.5 -25t-46 -76t-14.5 -266v-66h235v-71h-235z" />
<glyph unicode="g" horiz-adv-x="1024" d="M309 334q-84 41 -129 114.5t-45 161.5q0 137 102.5 234.5t262.5 97.5q131 0 227 -63h195q43 0 50 -2.5t9 -8.5q6 -10 6 -32q0 -25 -6 -35q-2 -6 -9 -9.5t-50 -3.5h-119q55 -72 55 -184q0 -127 -98 -218t-262 -91q-70 0 -140 20q-45 -39 -60 -67.5t-15 -46.5t16 -33.5 t66 -24.5q27 -4 139 -6q207 -6 266 -14q94 -12 149.5 -68.5t55.5 -138.5q0 -113 -107 -213q-156 -145 -405 -145q-195 0 -328 88q-74 49 -74 102q0 25 11 49q16 37 69 103q8 10 103 108q-51 31 -72.5 55.5t-21.5 55.5q0 35 28.5 82t130.5 133zM483 895q-74 0 -124 -59.5 t-50 -180.5q0 -158 68 -245q51 -66 133 -66q76 0 124 57.5t48 178.5q0 160 -68 249q-51 66 -131 66zM299 0q-47 -51 -70.5 -95t-23.5 -81q0 -47 57 -84q100 -61 289 -62q180 0 265 63.5t85 135.5q0 51 -49 74q-53 23 -207 26q-225 7 -346 23z" />
<glyph unicode="h" horiz-adv-x="1024" d="M334 1421v-669q111 123 175 156.5t130 33.5q78 0 134 -43t83 -133q18 -66 18 -236v-323q0 -86 15 -119q10 -25 33.5 -38t89.5 -13v-37h-451v37h21q63 0 88.5 19.5t36.5 56.5q2 16 2 94v323q0 152 -15.5 198t-49.5 69.5t-83 23.5t-101 -25.5t-126 -105.5v-483 q0 -94 10 -116.5t39 -38t98 -15.5v-37h-454v37q61 0 96 18q20 10 32.5 38t12.5 114v829q0 158 -8 194t-23.5 48t-42.5 12q-20 0 -67 -14l-15 35l275 110h47z" />
<glyph unicode="i" horiz-adv-x="569" d="M297 1421q43 0 71.5 -28.5t28.5 -71.5q0 -41 -28.5 -71.5t-71.5 -30.5q-41 0 -71.5 30.5t-30.5 71.5q0 43 29.5 71.5t72.5 28.5zM381 942v-735q0 -86 12.5 -115t37 -42t87.5 -13v-37h-444v37q68 0 90 12t35.5 43t13.5 115v352q0 150 -8 195q-6 31 -21.5 44t-42.5 13 t-67 -16l-15 36l277 111h45z" />
<glyph unicode="j" horiz-adv-x="569" d="M297 1423q43 0 72.5 -29.5t29.5 -72.5t-29.5 -72.5t-72.5 -29.5t-72.5 29.5t-29.5 72.5t29.5 72.5t72.5 29.5zM383 942v-922q0 -233 -100.5 -347.5t-259.5 -114.5q-92 0 -136.5 32.5t-44.5 67.5q0 37 24.5 61.5t57.5 24.5q27 0 53 -12q18 -8 66.5 -51t81.5 -43 q25 0 47.5 18t33.5 61t11 189v651q0 152 -8 195q-8 33 -23.5 46t-40.5 13q-29 0 -67 -16l-15 36l277 111h43z" />
<glyph unicode="k" horiz-adv-x="1024" d="M336 1421v-911l231 213q74 68 86 86q8 12 9 25q0 20 -16.5 34.5t-53.5 16.5v30h397v-30q-82 -2 -136 -25.5t-120 -83.5l-235 -217l235 -297q98 -123 131 -156q49 -47 84 -61q27 -8 88 -8v-37h-444v37q37 0 50 10t13 31q0 23 -39 74l-280 358v-303q0 -90 12 -118t35 -40 t100 -12v-37h-467v37q70 0 107 16q20 10 31 33q16 35 16 115v833q0 160 -7 196t-23.5 49t-43.5 13q-20 0 -61 -16l-19 35l273 110h47z" />
<glyph unicode="l" horiz-adv-x="569" d="M379 1421v-1214q0 -86 12 -113.5t39 -42t96 -14.5v-37h-448v37q63 0 85.5 12t36 43t13.5 115v831q0 156 -7 192t-22.5 48t-40.5 12t-65 -14l-17 35l273 110h45z" />
<glyph unicode="m" horiz-adv-x="1593" d="M336 748q100 100 119 114q45 39 96 59.5t102 20.5q86 0 148.5 -49t83.5 -145q102 121 173.5 157.5t145.5 36.5t130.5 -37t88.5 -123q23 -57 23 -182v-393q0 -86 12 -119q10 -20 38 -35.5t87 -15.5v-37h-450v37h18q59 0 92 22q23 16 33 52q4 16 4 96v393q0 113 -27 160 q-39 63 -125 63q-53 0 -106 -26.5t-129 -98.5l-2 -12l2 -43v-436q0 -94 10 -116.5t39 -38t98 -15.5v-37h-462v37q76 0 104.5 17.5t40.5 54.5q4 16 4 98v393q0 113 -33 162q-45 63 -123 63q-55 0 -106 -28q-84 -43 -129 -99v-491q0 -90 12 -117t37 -40t100 -13v-37h-452v37 q61 0 86.5 13t38 43t12.5 114v350q0 152 -8 195q-6 33 -21.5 46t-42.5 13t-65 -16l-17 36l277 111h43v-194z" />
<glyph unicode="n" horiz-adv-x="1024" d="M332 750q160 193 307 192q74 0 128 -37t87 -123q20 -59 20 -184v-391q0 -86 15 -119q10 -25 34.5 -38t92.5 -13v-37h-455v37h21q63 0 88.5 19.5t36.5 56.5q4 16 4 94v375q0 125 -33 181t-111 56q-119 0 -235 -129v-483q0 -92 10 -115q14 -29 39 -42t98 -13v-37h-452v37 h20q70 0 94.5 34.5t24.5 135.5v340q0 166 -7 201.5t-22.5 49t-42.5 13.5q-29 0 -67 -16l-15 36l277 111h43v-192z" />
<glyph unicode="o" horiz-adv-x="1024" d="M512 942q209 0 334 -158q106 -135 106 -309q0 -123 -58 -249t-161.5 -190.5t-230.5 -64.5q-207 0 -330 166q-102 139 -102 312q0 127 62.5 250.5t163.5 183t216 59.5zM481 879q-53 0 -106 -32t-86 -111t-33 -204q0 -199 79 -344t210 -145q96 0 159.5 80t63.5 274 q0 244 -106 385q-70 97 -181 97z" />
<glyph unicode="p" horiz-adv-x="1024" d="M-2 825l283 113h36v-213q72 121 143.5 169t149.5 48q139 0 232 -106q113 -133 112 -344q0 -238 -137 -394q-111 -127 -280 -127q-74 0 -129 23q-39 14 -91 59v-278q0 -94 12.5 -120t40 -41t103.5 -15v-37h-479v37h24q55 0 95 20q18 12 28.5 37t10.5 125v864 q0 90 -8.5 113.5t-26 36t-45.5 12.5q-25 0 -62 -14zM317 666v-342q0 -111 11 -146q14 -57 68.5 -101t135.5 -44q100 0 162 78q82 102 82 286q0 209 -92 324q-63 78 -152 78q-49 0 -96 -25q-35 -18 -119 -108z" />
<glyph unicode="q" horiz-adv-x="1024" d="M874 942v-1178q0 -88 12.5 -112.5t38 -38.5t99.5 -14v-37h-463v37h21q55 0 84 16q20 10 32.5 39t12.5 110v396q-92 -109 -160 -149t-141 -40q-133 0 -237.5 121t-104.5 326q0 231 138 377.5t333 146.5q57 0 105 -15.5t85 -47.5q59 29 113 63h32zM711 221v430 q0 76 -19.5 119t-70 72.5t-113.5 29.5q-113 0 -192.5 -95t-79.5 -288q0 -184 81.5 -280t196.5 -96q59 0 105.5 25.5t91.5 82.5z" />
<glyph unicode="r" horiz-adv-x="681" d="M332 942v-205q115 205 235 205q55 0 91 -32.5t36 -78.5q0 -39 -25.5 -65.5t-62.5 -26.5q-35 0 -78 35t-63 35q-18 0 -39 -21q-45 -41 -94 -135v-440q0 -76 18 -115q14 -27 47 -44t95 -17v-37h-469v37q70 0 104 20q25 16 35 52q6 18 6 98v354q0 160 -7 190.5t-24.5 45 t-44.5 14.5q-31 0 -69 -16l-11 36l279 111h41z" />
<glyph unicode="s" horiz-adv-x="796" d="M655 942v-311h-32q-37 147 -96.5 200.5t-151.5 53.5q-72 0 -115 -37t-43 -82q0 -57 33 -96q31 -41 127 -88l145 -70q203 -100 203 -262q0 -125 -94 -202t-211 -77q-84 0 -193 31q-33 10 -55 10q-23 0 -35 -26h-33v327h33q29 -141 108 -211.5t177 -70.5q68 0 112 41t44 98 q0 68 -49.5 115t-194 118.5t-189.5 131.5q-45 57 -45 143q0 113 78 188.5t201 75.5q53 0 131 -22q49 -14 68 -15q16 0 24 7.5t21 29.5h32z" />
<glyph unicode="t" horiz-adv-x="569" d="M330 1217v-302h215v-69h-215v-594q0 -88 25.5 -120t66.5 -32q33 0 63.5 20.5t46.5 61.5h39q-35 -98 -98 -147t-131 -49q-47 0 -91 25.5t-64.5 72.5t-20.5 145v617h-146v33q55 23 112.5 75t103.5 123q23 39 63 140h31z" />
<glyph unicode="u" horiz-adv-x="1024" d="M866 915v-555q0 -158 8.5 -193.5t24.5 -50t39 -14.5q31 0 70 19l14 -35l-274 -115h-46v195q-119 -127 -180 -161t-131 -34q-78 0 -134 45t-77.5 115t-21.5 199v407q0 66 -14.5 91.5t-42.5 38.5q-24 12 -81 12h-18v36h322v-612q0 -129 44 -169t107 -40q43 0 97.5 28 t129.5 103v518q0 78 -28.5 106t-118.5 30v36h311z" />
<glyph unicode="v" horiz-adv-x="1024" d="M16 915h433v-36h-29q-39 0 -59.5 -18.5t-20.5 -51.5q0 -35 20 -84l213 -506l215 526q23 55 23 84q0 14 -8 25q-10 14 -27.5 19.5t-68.5 5.5v36h299v-36q-53 -4 -72 -21q-37 -31 -64 -100l-325 -787h-41l-328 774q-20 53 -40.5 77t-51.5 40q-16 8 -68 17v36z" />
<glyph unicode="w" horiz-adv-x="1478" d="M12 915h385v-36q-53 -4 -69.5 -18.5t-16.5 -43.5q0 -31 17 -76l196 -526l197 428l-51 135q-25 61 -64 84q-23 14 -82 17v36h437v-36q-72 -2 -103 -25q-20 -16 -20 -51q0 -20 8 -41l209 -526l192 505q20 55 21 86q0 20 -19.5 35t-77.5 17v36h289v-36q-88 -12 -129 -117 l-305 -791h-41l-229 586l-267 -586h-36l-295 770q-29 74 -56.5 99.5t-89.5 38.5v36z" />
<glyph unicode="x" horiz-adv-x="1024" d="M27 915h432v-36q-41 0 -57.5 -13.5t-16.5 -38.5q0 -23 35 -73q10 -16 33 -49l63 -105l76 105q72 98 72 124q0 20 -16.5 35t-55.5 15v36h309v-36q-47 -2 -84 -27q-49 -35 -135 -147l-125 -168l229 -328q84 -121 120 -145.5t93 -26.5v-37h-432v37q45 0 70 18q18 14 18 37 q0 25 -63 117l-133 197l-148 -197q-68 -90 -67 -109q0 -23 22.5 -42t67.5 -21v-37h-299v37q35 4 61 24q39 29 129 148l193 256l-174 252q-74 106 -115 134t-102 28v36z" />
<glyph unicode="y" horiz-adv-x="1024" d="M12 915h426v-36h-20q-45 0 -67.5 -19.5t-22.5 -48.5q0 -39 32 -109l224 -460l204 506q18 41 19 79q0 18 -8 27q-8 12 -24.5 18.5t-59.5 6.5v36h297v-36q-37 -4 -56.5 -15.5t-44.5 -46.5q-10 -12 -34 -76l-373 -913q-53 -133 -141.5 -201.5t-167.5 -68.5q-59 0 -97.5 33.5 t-38.5 78.5q0 41 28 66.5t75 25.5q33 0 90 -20q41 -16 49 -16q31 0 66.5 30.5t70.5 120.5l66 160l-330 690q-14 31 -47 78q-25 35 -41 47q-23 14 -74 27v36z" />
<glyph unicode="z" horiz-adv-x="909" d="M860 281l-10 -281h-809v37l608 809h-301q-96 0 -125.5 -12.5t-50.5 -47.5q-27 -51 -31 -124h-39l7 253h768v-36l-615 -811h334q104 0 142 17t61 60q16 33 26 136h35z" />
<glyph unicode="{" horiz-adv-x="681" d="M559 1497q-78 -23 -108.5 -88.5t-30.5 -181.5v-416q0 -59 -6 -105.5t-25.5 -81t-54.5 -59t-92 -39.5v-4q57 -14 92 -38.5t54.5 -59.5t25.5 -81t6 -105v-416q0 -117 30.5 -182.5t108.5 -88.5v-28q-74 0 -130 11t-96 45t-60.5 94.5t-20.5 160.5v436q0 109 -28.5 166.5 t-114.5 87.5q86 31 114.5 88.5t28.5 165.5v436q0 100 20.5 161t60.5 94.5t96 45t130 11.5v-29z" />
<glyph unicode="|" horiz-adv-x="454" d="M176 1446h103v-1479h-103v1479z" />
<glyph unicode="}" horiz-adv-x="681" d="M123 -449q78 23 108.5 88.5t30.5 182.5v416q0 59 6 105t25.5 81t54.5 59.5t92 38.5v4q-57 14 -92 39t-54.5 59.5t-25.5 81t-6 105.5v416q0 117 -30.5 182.5t-108.5 87.5v29q74 0 130 -11.5t96 -45t60.5 -94t20.5 -161.5v-436q0 -109 28.5 -166t114.5 -88 q-86 -31 -114.5 -88t-28.5 -166v-436q0 -100 -20.5 -160.5t-60.5 -94.5t-96 -45t-130 -11v28z" />
<glyph unicode="&#xa7;" horiz-adv-x="1024" d="M788 18q0 -63 -23.5 -111t-64.5 -80t-94 -48.5t-112 -16.5q-43 0 -92.5 12.5t-92.5 37t-70.5 62.5t-27.5 89q0 47 30.5 82t80.5 35q35 0 60.5 -25.5t25.5 -66.5q0 -23 -9.5 -39.5t-20.5 -28.5l-21 -22q-9 -10 -9 -21q0 -16 14.5 -29.5t37 -23.5t49 -15.5t49.5 -5.5 q31 0 61.5 9.5t55 27t40 44t15.5 61.5q0 70 -28 107.5t-73 78.5l-272 229q-66 61 -109 126t-43 159q0 47 14.5 93t42 81t68.5 56.5t92 21.5q29 0 54 -6l4 4l-71 60q-36 32 -65.5 68t-48 77t-18.5 88q0 59 23.5 106t62.5 81t90 52.5t107 18.5q49 0 97 -12.5t87 -39 t63.5 -66.5t24.5 -95q0 -47 -30.5 -73.5t-75.5 -26.5q-35 0 -63 26.5t-28 67.5q0 33 16.5 56.5t33.5 51.5q10 18 -1.5 31.5t-31 22t-43 12.5t-35.5 4q-33 0 -64.5 -10.5t-57 -29.5t-41 -47t-15.5 -65q0 -31 24.5 -66.5t61.5 -73.5t82 -76l86 -72l101 -88q50 -45 92 -92.5 t68 -98.5t28 -104q2 -55 -15.5 -106.5t-52.5 -89.5t-87 -56.5t-124 -10.5l-4 -4q37 -27 71.5 -57.5t61.5 -67t43 -79t16 -93.5zM623 360q61 0 99 45.5t38 104.5q0 49 -30 91t-62 75q-51 51 -90 85t-71 55.5t-57.5 30.5t-48.5 9q-61 0 -99 -45t-38 -104q0 -49 30 -91.5 t62 -74.5q102 -100 162 -140.5t105 -40.5z" />
<glyph unicode="&#xa8;" horiz-adv-x="720" d="M0 1214q0 43 29.5 73t72.5 30t73 -30t30 -73t-30 -72.5t-73 -29.5t-72.5 29.5t-29.5 72.5zM406 1214q0 43 29.5 73t72.5 30t72.5 -30t29.5 -73t-29.5 -72.5t-72.5 -29.5t-72.5 29.5t-29.5 72.5z" />
<glyph unicode="&#xab;" horiz-adv-x="1024" d="M868 840q33 35 50 34q6 0 12 -5t4 -13q-6 -31 -43 -84t-82 -110l-86 -107q-41 -49 -55 -72l71 -86q45 -55 88 -113.5t74 -106.5t31 -64q0 -20 -12 -21q-10 0 -25 10l-198 182l-197 175q-14 12 -17.5 16t-3.5 8q0 2 4 5.5t21 17.5l186 162q92 82 178 172zM479 840 q33 35 49 34q6 0 12.5 -5t4.5 -13q-6 -31 -43 -84t-82 -110l-86 -107q-41 -49 -55 -72l71 -86q45 -55 88 -113.5t74 -106.5t31 -64q0 -20 -13 -21q-10 0 -24 10l-198 182l-197 175q-14 12 -17.5 16t-3.5 8q0 2 4 5.5t21 17.5l186 162q92 82 178 172z" />
<glyph unicode="&#xad;" horiz-adv-x="681" d="M92 414v139h498v-139h-498z" />
<glyph unicode="&#xb2;" horiz-adv-x="665" d="M4 578l-6 38l266 279l55 63q29 33 52.5 67t39 67.5t15.5 66.5q0 78 -49 125t-148 47q-78 0 -130 -43t-74 -100l-31 4q20 111 99 176.5t202 65.5q117 0 183.5 -59.5t66.5 -157.5q0 -72 -38 -130.5t-85 -111.5q-47 -57 -97 -111l-98 -104l-77 -80h264q68 0 103.5 14.5 t66.5 63.5l24 -6l-76 -174h-528z" />
<glyph unicode="&#xb3;" horiz-adv-x="665" d="M190 1024q41 2 81 16.5t73 39t52.5 59.5t19.5 78q0 47 -38 80.5t-104 33.5q-78 0 -128 -29.5t-87 -76.5l-24 16q43 92 111.5 142.5t183.5 50.5q39 0 75.5 -11.5t65.5 -32t46.5 -48t17.5 -62.5q0 -66 -40 -113t-92 -84q78 -25 131.5 -77t53.5 -129q0 -78 -31 -137.5 t-85 -99.5t-126 -59.5t-156 -19.5q-20 0 -48.5 4t-55.5 13.5t-45 26t-18 40.5q0 18 17 31.5t36 13.5q33 0 56.5 -12t45 -26.5t45 -27t53.5 -12.5q86 0 139.5 52.5t53.5 130.5q0 59 -22.5 98t-61.5 61.5t-89 31.5t-106 9v29z" />
<glyph unicode="&#xb9;" horiz-adv-x="614" d="M94 618q59 0 93 3.5t50.5 12.5t21.5 27.5t5 47.5v520q0 16 -4 40.5t-33 24.5q-14 0 -33.5 -6t-40 -14t-39 -16.5t-30.5 -12.5l-16 37q72 31 147.5 70t134.5 82h33v-725q0 -29 5 -47.5t21.5 -27.5t49.5 -12.5t88 -3.5v-40h-453v40z" />
<glyph unicode="&#xbb;" horiz-adv-x="1024" d="M92 854q0 20 12 20q10 0 25 -10l198 -181l197 -175q14 -12 17.5 -16.5t3.5 -8.5q0 -2 -4 -5t-21 -17l-186 -162q-92 -82 -178 -172q-33 -35 -50 -35q-6 0 -12 5t-4 14q6 31 44 84l82 110l85 108q41 50 55 70l-71 86q-45 55 -88 113.5t-74 107t-31 64.5zM481 854 q0 20 13 20q10 0 24 -10l198 -181l197 -175q14 -12 17.5 -16.5t3.5 -8.5q0 -2 -4 -5t-21 -17l-186 -162q-92 -82 -178 -172q-33 -35 -49 -35q-6 0 -12.5 5t-4.5 14q6 31 44 84l82 110l85 108q41 50 55 70l-71 86q-45 55 -88 113.5t-74 107t-31 64.5z" />
<glyph unicode="&#x374;" horiz-adv-x="512" d="M322 1423l16 7l111 -54l4 -18l-340 -567l-11 -3l-24 13l-2 10z" />
<glyph unicode="&#x375;" horiz-adv-x="512" d="M266 385l17 6l110 -53l4 -21l-340 -565l-10 -2l-24 12l-3 11z" />
<glyph unicode="&#x37a;" horiz-adv-x="600" d="M383 -344q49 -12 57 -18q27 -12 43 -41q2 -2 2 -5q0 -8 -20 -16q-10 0 -27.5 -3t-44.5 -7q-18 0 -39.5 3t-46.5 7q-14 4 -29.5 11t-31.5 18v272q0 25 69 25q68 0 68 -25v-221z" />
<glyph unicode="&#x37e;" horiz-adv-x="512" d="M213 -199q39 31 72 60q74 70 75 108q-25 -8 -57 -2q-121 23 -121 115q0 72 62 102q33 18 67 19q61 0 103 -60q39 -53 39 -125q0 -29 -9 -51q-25 -84 -96 -131q-65 -41 -135 -35zM182 813q0 47 34 85t81 38q51 0 89 -37t38 -86q0 -45 -36 -80t-81 -35q-47 0 -86 35t-39 80 z" />
<glyph unicode="&#x384;" horiz-adv-x="417" d="M227 1438q12 43 68 47q100 0 106 -80q2 -14 -8 -37l-217 -319l-55 16z" />
<glyph unicode="&#x385;" horiz-adv-x="643" d="M258 1141q29 88 52.5 175l49.5 175q12 39 64 45q96 0 102 -76q0 -16 -8 -37l-207 -299zM596 1096q0 -39 -29.5 -67t-66.5 -28q-39 0 -69 28t-30 67t31 68.5t68 29.5t66.5 -29.5t29.5 -68.5zM18 1096q0 39 30 68.5t67 29.5q39 0 67.5 -29.5t28.5 -68.5t-28.5 -67 t-67.5 -28t-68 28t-29 67z" />
<glyph unicode="&#x386;" horiz-adv-x="1708" d="M270 1360q10 47 27.5 66.5t58.5 19.5q35 0 53.5 -17.5t18.5 -39.5q0 -23 -8 -41.5t-25 -47.5l-157 -270h-52zM512 551h537l-271 588zM39 41q45 2 74.5 12t51 31.5t40 54.5t41.5 80l581 1215h52l571 -1221q33 -70 81 -121t138 -51v-41h-604v41h20q43 0 72 8t44.5 21.5 t21.5 29t6 29.5q0 27 -17.5 72t-40 94t-47 95t-37.5 75h-616q-8 -25 -30 -73l-43 -100q-22 -52 -38 -97t-16 -68q0 -16 5 -31.5t20.5 -28t44 -19.5t78.5 -7h16v-41h-469v41z" />
<glyph unicode="&#x387;" horiz-adv-x="444" d="M223 707q53 0 91 -38t38 -91t-38 -91t-91 -38t-92 36.5t-39 92.5q0 53 39 91t92 38z" />
<glyph unicode="&#x388;" horiz-adv-x="1781" d="M348 41q61 0 103.5 8t69 29.5t37.5 60.5t11 103v929q0 63 -11 102.5t-37.5 61t-68.5 29.5t-104 8v41h1227l18 -309h-41q-16 129 -83.5 176t-196.5 47h-389q-35 0 -53.5 -6t-27.5 -21.5t-10 -43t-1 -72.5v-396h432q106 0 147 45.5t51 149.5h41v-475h-41q-10 102 -52 148 t-146 46h-432v-444q0 -96 16 -134t86 -38h432q139 0 225 76t127 198l39 -14l-110 -346h-1258v41zM84 1360q10 47 27.5 66.5t58.5 19.5q35 0 53.5 -17.5t18.5 -39.5q0 -23 -8.5 -41.5t-24.5 -47.5l-158 -270h-51z" />
<glyph unicode="&#x389;" horiz-adv-x="2007" d="M346 41q61 0 103.5 8t69 29.5t37.5 60.5t11 103v929q0 63 -11 102.5t-37.5 61t-68.5 29.5t-104 8v41h664v-41q-61 0 -103.5 -8t-69 -29.5t-38 -60.5t-11.5 -103v-383h732v383q0 63 -11.5 102.5t-38 61t-68.5 29.5t-104 8v41h664v-41q-61 0 -103 -8t-69 -29.5t-38 -60.5 t-11 -103v-929q0 -63 11 -102.5t38 -61t69 -29.5t103 -8v-41h-664v41q61 0 103.5 8t69 29.5t38 60.5t11.5 103v460h-732v-460q0 -63 11.5 -102.5t38 -61t68.5 -29.5t104 -8v-41h-664v41zM84 1360q10 47 27.5 66.5t58.5 19.5q35 0 53.5 -17.5t18.5 -39.5q0 -23 -8.5 -41.5 t-24.5 -47.5l-158 -270h-51z" />
<glyph unicode="&#x38a;" horiz-adv-x="1099" d="M371 41q61 0 103 8t68.5 29.5t38 60.5t11.5 103v929q0 63 -11.5 102.5t-38 61t-68.5 29.5t-103 8v41h663v-41q-61 0 -103 -8t-68.5 -29.5t-38 -60.5t-11.5 -103v-929q0 -63 11.5 -102.5t38 -61t68.5 -29.5t103 -8v-41h-663v41zM84 1360q10 47 27.5 66.5t58.5 19.5 q35 0 53.5 -17.5t18.5 -39.5q0 -23 -8.5 -41.5t-24.5 -47.5l-158 -270h-51z" />
<glyph unicode="&#x38c;" horiz-adv-x="1857" d="M1006 43q141 0 236 58.5t152.5 154.5t82 219t24.5 250t-28.5 243.5t-89 206t-153.5 142.5t-224 53t-225.5 -53t-155 -142.5t-89 -206t-28.5 -243.5t24.5 -250t82 -219t153 -154.5t238.5 -58.5zM1006 1446q162 0 298 -54.5t235 -153.5t155.5 -237.5t56.5 -306.5 q0 -162 -57.5 -295t-157.5 -229t-236.5 -149.5t-293.5 -53.5q-160 0 -296.5 53.5t-236.5 149.5t-157.5 229t-57.5 295q0 168 56.5 306.5t155.5 237.5t236.5 153.5t299.5 54.5zM84 1360q10 47 27.5 66.5t58.5 19.5q35 0 53.5 -17.5t18.5 -39.5q0 -23 -8.5 -41.5t-24.5 -47.5 l-158 -270h-51z" />
<glyph unicode="&#x38e;" horiz-adv-x="1896" d="M809 41q61 0 103 8t69 29.5t38 60.5t11 103v364l-463 643q-41 59 -100 91t-135 32v41h663v-41q-14 0 -42.5 -1t-57.5 -7t-51.5 -19.5t-22.5 -35.5q0 -23 18.5 -52.5t61.5 -89.5l305 -432l299 451q57 82 58 119q0 35 -34 49t-112 18v41h451v-41q-49 0 -87 -18.5t-74 -55 t-73 -91.5l-86 -128l-297 -450v-387q0 -63 11.5 -102.5t38 -61t68.5 -29.5t104 -8v-41h-664v41zM84 1360q10 47 27.5 66.5t58.5 19.5q35 0 53.5 -17.5t18.5 -39.5q0 -23 -8.5 -41.5t-24.5 -47.5l-158 -270h-51z" />
<glyph unicode="&#x38f;" horiz-adv-x="1857" d="M317 356h41q2 -23 6.5 -50t18.5 -52t42 -41t79 -16h319v131q-115 8 -213 55t-169.5 119.5t-112.5 166t-41 193.5q0 92 35.5 195.5t119.5 189.5t221.5 142.5t342.5 56.5q203 0 341 -56.5t221 -142.5t118.5 -189.5t35.5 -195.5q0 -100 -41 -193.5t-112.5 -166t-170 -119.5 t-212.5 -55v-131h319q51 0 79 16t42 41t18.5 52.5t6.5 49.5h41v-356h-582v385q106 20 176 70.5t112 116t58.5 142.5t16.5 148q0 133 -37 227.5t-100.5 155t-148.5 88t-181 27.5t-182.5 -27.5t-150 -88t-100 -155t-36.5 -227.5q0 -72 17 -148.5t58 -142t111 -115.5t176 -71 v-385h-582v356zM84 1360q10 47 27.5 66.5t58.5 19.5q35 0 53.5 -17.5t18.5 -39.5q0 -23 -8.5 -41.5t-24.5 -47.5l-158 -270h-51z" />
<glyph unicode="&#x390;" horiz-adv-x="569" d="M51 1130q-43 0 -72.5 30t-29.5 73t29.5 72.5t72.5 29.5t73 -29.5t30 -72.5t-30 -73t-73 -30zM305 154q0 -41 25.5 -70t68.5 -29q55 0 85 44t30 106v104h51v-71q0 -123 -47 -190.5t-174 -67.5q-100 0 -159.5 53t-59.5 192v738h180v-809zM264 1460q10 47 27.5 66.5 t58.5 19.5q35 0 53.5 -17.5t18.5 -39.5q0 -23 -8 -41t-25 -47l-158 -271h-51zM467 1130q-43 0 -72.5 30t-29.5 73t29.5 72.5t72.5 29.5t72.5 -29.5t29.5 -72.5t-29.5 -73t-72.5 -30z" />
<glyph unicode="&#x391;" horiz-adv-x="1708" d="M512 551h537l-271 588zM39 41q45 2 74.5 12t51 31.5t40 54.5t41.5 80l581 1215h52l571 -1221q33 -70 81 -121t138 -51v-41h-604v41h20q43 0 72 8t44.5 21.5t21.5 29t6 29.5q0 27 -17.5 72t-40 94t-47 95t-37.5 75h-616q-8 -25 -30 -73l-43 -100q-22 -52 -38 -97t-16 -68 q0 -16 5 -31.5t20.5 -28t44 -19.5t78.5 -7h16v-41h-469v41z" />
<glyph unicode="&#x392;" horiz-adv-x="1478" d="M662 770q76 0 143 13.5t119.5 45t83 88t30.5 142.5q0 102 -37.5 157.5t-97 83t-135.5 32.5t-150 5q-35 0 -59 -2t-40.5 -14t-24 -38t-7.5 -75v-438h175zM45 41q61 0 103 8t69 29.5t38 60.5t11 103v929q0 63 -11 102.5t-38 61t-69 29.5t-103 8v41h725q82 0 169 -17.5 t157.5 -57.5t117 -107.5t46.5 -165.5q0 -63 -24 -115.5t-63.5 -92.5t-92 -66.5t-111.5 -38.5l4 -4q74 -14 140.5 -41t115.5 -70t77.5 -104.5t28.5 -145.5q0 -106 -48 -180t-124 -120t-170 -66.5t-188 -20.5h-760v41zM487 186q0 -20 3.5 -40.5t15.5 -36t36.5 -24.5t67.5 -9 h103q80 0 147.5 16.5t117.5 53t78.5 97t28.5 148.5q0 84 -33.5 141.5t-90 93.5t-127 52t-144.5 16h-203v-508z" />
<glyph unicode="&#x393;" horiz-adv-x="1251" d="M45 41q61 0 103 8t69 29.5t38 60.5t11 103v929q0 63 -11 102.5t-38 61t-69 29.5t-103 8v41h1141l37 -362l-49 -9q-14 74 -35 127.5t-56.5 88t-91 52t-137.5 17.5h-242q-45 0 -70.5 -12t-37.5 -36t-14.5 -57.5t-2.5 -76.5v-903q0 -63 11.5 -102.5t38 -61t68.5 -29.5 t104 -8v-41h-664v41z" />
<glyph unicode="&#x394;" horiz-adv-x="1478" d="M719 1434h41l661 -1434h-1364zM672 1104l-467 -1018h934z" />
<glyph unicode="&#x395;" horiz-adv-x="1478" d="M45 41q61 0 103 8t69 29.5t38 60.5t11 103v929q0 63 -11 102.5t-38 61t-69 29.5t-103 8v41h1227l18 -309h-41q-16 129 -83.5 176t-196.5 47h-389q-35 0 -53.5 -6t-28 -21.5t-10.5 -43t-1 -72.5v-396h433q106 0 147 45.5t51 149.5h41v-475h-41q-10 102 -52 148t-146 46 h-433v-444q0 -96 16.5 -134t86.5 -38h432q139 0 225 76t127 198l39 -14l-110 -346h-1258v41z" />
<glyph unicode="&#x396;" horiz-adv-x="1478" d="M1042 1327h-456q-86 0 -157 -8t-124 -37t-85 -85t-42 -155h-45l29 371h1198v-29l-975 -1298h655q84 0 142.5 18.5t99.5 55.5t69.5 94t51.5 135h43l-74 -389h-1302l-7 29z" />
<glyph unicode="&#x397;" horiz-adv-x="1705" d="M45 41q61 0 103 8t69 29.5t38 60.5t11 103v929q0 63 -11 102.5t-38 61t-69 29.5t-103 8v41h664v-41q-61 0 -103.5 -8t-69 -29.5t-38 -60.5t-11.5 -103v-383h732v383q0 63 -11.5 102.5t-38 61t-68.5 29.5t-104 8v41h664v-41q-61 0 -103 -8t-69 -29.5t-38 -60.5t-11 -103 v-929q0 -63 11 -102.5t38 -61t68.5 -29.5t103.5 -8v-41h-664v41q61 0 103.5 8t69 29.5t38 60.5t11.5 103v460h-732v-460q0 -63 11.5 -102.5t38 -61t68.5 -29.5t104 -8v-41h-664v41z" />
<glyph unicode="&#x398;" horiz-adv-x="1705" d="M528 934h41q0 -23 3 -48.5t14.5 -47t31 -36t52.5 -14.5h366q33 0 52.5 14.5t30.5 36t14.5 47t3.5 48.5h41v-447h-41q0 23 -3.5 48.5t-14.5 47t-30.5 36t-52.5 14.5h-366q-33 0 -52.5 -14.5t-31 -36t-14.5 -47t-3 -48.5h-41v447zM854 43q141 0 236.5 58.5t152.5 154.5 t82 219t25 250t-29 243.5t-89.5 206t-153.5 142.5t-224 53t-225 -53t-154.5 -142.5t-89.5 -206t-29 -243.5t25 -250t82 -219t152.5 -154.5t238.5 -58.5zM854 1446q162 0 298 -54.5t235.5 -153.5t155.5 -237.5t56 -306.5q0 -162 -57 -295t-157.5 -229t-236.5 -149.5 t-294 -53.5q-160 0 -296 53.5t-236.5 149.5t-158 229t-57.5 295q0 168 56.5 306.5t156 237.5t236.5 153.5t299 54.5z" />
<glyph unicode="&#x399;" horiz-adv-x="796" d="M68 41q61 0 103 8t68.5 29.5t38 60.5t11.5 103v929q0 63 -11.5 102.5t-38 61t-68.5 29.5t-103 8v41h663v-41q-61 0 -103 -8t-69 -29.5t-38 -60.5t-11 -103v-929q0 -63 11 -102.5t38 -61t69 -29.5t103 -8v-41h-663v41z" />
<glyph unicode="&#x39a;" horiz-adv-x="1593" d="M59 41q57 4 96.5 12t64 28.5t35.5 57.5t11 99v938q0 61 -11 98t-35.5 57.5t-63.5 29.5t-97 11v41h631v-41q-61 -2 -100 -11t-62.5 -29.5t-32 -57.5t-8.5 -98v-441h33l432 434q53 53 72.5 81t19.5 50q0 27 -15 41.5t-36.5 21.5t-46 8t-43.5 1v41h555v-41 q-63 0 -119.5 -19.5t-109.5 -55t-108.5 -87l-119.5 -116.5l-286 -293l618 -617q70 -68 117 -100.5t109 -42.5v-41h-641v41q25 0 53 1t53 7t41 16.5t16 28.5q0 14 -10 32.5t-35 43.5l-508 504h-41v-436q0 -61 9.5 -99.5t33 -60t63.5 -28.5t103 -9v-41h-637v41z" />
<glyph unicode="&#x39b;" horiz-adv-x="1593" d="M25 41q18 4 37.5 7t37.5 13q29 14 57.5 56.5t54.5 92.5t46.5 100t34.5 81l475 1043h31l395 -875l97 -215q48 -106 110 -211q27 -43 71 -67.5t97 -24.5v-41h-608v41q23 0 51 1t56 9t46.5 23.5t18.5 46.5q0 10 -19 56l-40 98l-41 96q-19 43 -21 49l-297 672l-357 -789 q-25 -63 -40 -109.5t-15 -78.5q0 -66 156 -74v-41h-434v41z" />
<glyph unicode="&#x39c;" horiz-adv-x="1933" d="M47 1413h410l508 -1077l505 1077h416v-41q-61 0 -101 -9t-64.5 -31.5t-35 -62.5t-10.5 -100v-882q0 -66 5.5 -112t25.5 -74.5t63 -43t117 -16.5v-41h-620v41q72 0 111.5 16.5t59 48t23.5 77.5t4 104v907h-4l-540 -1194h-35l-545 1147h-4v-819q0 -78 3 -131.5t21.5 -87 t58.5 -50t113 -18.5v-41h-485v41q74 2 114 18.5t58.5 50t21.5 87t3 131.5v778q0 70 -4 120t-23.5 82.5t-59.5 48t-110 15.5v41z" />
<glyph unicode="&#x39d;" horiz-adv-x="1593" d="M29 1413h362l862 -1007v679q0 78 -4 131.5t-23.5 86t-60.5 49t-114 20.5v41h497v-41q-74 -4 -114.5 -20.5t-60 -49t-23.5 -86t-4 -131.5v-1085h-35l-971 1133v-805q0 -78 4 -131.5t23.5 -86t60.5 -49t115 -20.5v-41h-498v41q74 4 115 20.5t60.5 49t23.5 86t4 131.5v872 q-4 23 -22.5 51.5t-47 55t-66.5 45t-83 20.5v41z" />
<glyph unicode="&#x39e;" horiz-adv-x="1366" d="M115 385h41q0 -94 32.5 -141t133.5 -47h722q51 0 83 12t50.5 35.5t25.5 58.5t7 82h41v-385h-1136v385zM115 1413h1136v-385h-41q0 47 -7 82t-25.5 58.5t-50 36t-83.5 12.5h-722q-100 0 -133 -47.5t-33 -141.5h-41v385zM358 934h41q0 -23 3.5 -48.5t14.5 -47t30.5 -36 t52.5 -14.5h366q33 0 52.5 14.5t31 36t14.5 47t3 48.5h41v-447h-41q0 23 -3 48.5t-14.5 47t-31 36t-52.5 14.5h-366q-33 0 -52.5 -14.5t-30.5 -36t-14.5 -47t-3.5 -48.5h-41v447z" />
<glyph unicode="&#x39f;" horiz-adv-x="1705" d="M854 43q141 0 236.5 58.5t152.5 154.5t82 219t25 250t-29 243.5t-89.5 206t-153.5 142.5t-224 53t-225 -53t-154.5 -142.5t-89.5 -206t-29 -243.5t25 -250t82 -219t152.5 -154.5t238.5 -58.5zM854 1446q162 0 298 -54.5t235.5 -153.5t155.5 -237.5t56 -306.5 q0 -162 -57 -295t-157.5 -229t-236.5 -149.5t-294 -53.5q-160 0 -296 53.5t-236.5 149.5t-158 229t-57.5 295q0 168 56.5 306.5t156 237.5t236.5 153.5t299 54.5z" />
<glyph unicode="&#x3a0;" horiz-adv-x="1705" d="M61 41q68 2 111 11t67.5 34t34 70t9.5 118v897q0 63 -11.5 102.5t-38 61t-68.5 29.5t-104 8v41h1584v-41q-61 0 -103.5 -8t-69 -29.5t-38 -60.5t-11.5 -103v-897q0 -74 9.5 -118.5t34 -69.5t67.5 -34t111 -11v-41h-662v41q66 2 108 11t66.5 34t34.5 67t10 109v955 q0 53 -17.5 81.5t-66.5 28.5h-530q-49 0 -66.5 -28.5t-17.5 -81.5v-955q0 -68 10 -109.5t34.5 -66.5t66.5 -34t108 -11v-41h-662v41z" />
<glyph unicode="&#x3a1;" horiz-adv-x="1251" d="M45 41q61 0 103 8t69 29.5t38 60.5t11 103v929q0 63 -11 102.5t-38 61t-69 29.5t-103 8v41h543q96 0 205.5 -9t201.5 -46t153.5 -110.5t61.5 -203.5q0 -111 -48 -188.5t-126 -124.5t-173 -68.5t-191 -21.5h-185v-399q0 -63 11.5 -102.5t38 -61t68.5 -29.5t104 -8v-41 h-664v41zM487 717h86q80 0 151 16.5t123 54t83 99t31 151.5q0 143 -86.5 221t-227.5 78q-57 0 -90 -3t-48 -18.5t-18.5 -46t-3.5 -85.5v-467z" />
<glyph unicode="&#x3a3;" horiz-adv-x="1251" d="M29 57l692 631l-678 684v41h1171v-389h-40q-8 92 -38 150.5t-79 92t-118 47t-153 13.5h-440l555 -592l-594 -538h748q43 0 67.5 18t36.5 48t16.5 66t6.5 68h41v-397h-1194v57z" />
<glyph unicode="&#x3a4;" horiz-adv-x="1366" d="M348 41q72 2 116 10t68.5 33t32.5 69t8 117v967q0 29 -2 48.5t-13 30.5t-34.5 16t-66.5 5q-104 0 -171 -7t-108 -36.5t-64.5 -86t-41.5 -154.5h-41l12 360h1282l12 -360h-41q-18 98 -41.5 154.5t-64.5 86t-107.5 36.5t-171.5 7q-43 0 -67.5 -5t-34.5 -16t-12 -30.5 t-2 -48.5v-967q0 -74 8 -117.5t32.5 -68.5t68.5 -33t116 -10v-41h-672v41z" />
<glyph unicode="&#x3a5;" horiz-adv-x="1593" d="M506 41q61 0 103 8t69 29.5t38 60.5t11 103v364l-463 643q-41 59 -100.5 91t-134.5 32v41h663v-41q-14 0 -42.5 -1t-57.5 -7t-51.5 -19.5t-22.5 -35.5q0 -23 18.5 -52.5t61.5 -89.5l305 -432l299 451q57 82 58 119q0 35 -34 49t-112 18v41h451v-41q-49 0 -87 -18.5 t-74 -55t-73 -91.5l-86 -128l-297 -450v-387q0 -63 11.5 -102.5t38 -61t68.5 -29.5t103 -8v-41h-663v41z" />
<glyph unicode="&#x3a6;" horiz-adv-x="1708" d="M522 41q113 0 167 38t54 148v23q-113 0 -225 24.5t-201.5 80t-144.5 143.5t-55 215t55 215t144.5 143t202 80t224.5 25v10q0 111 -54 148.5t-167 37.5v41h332h332v-41q-113 0 -167 -38t-54 -148v-10q113 0 225.5 -25t201.5 -80t144 -143t55 -215t-55 -215t-144 -143.5 t-202 -80t-225 -24.5v-23q0 -111 54 -148.5t167 -37.5v-41h-332h-332v41zM743 1114q-184 0 -288.5 -103.5t-104.5 -297.5q0 -195 104.5 -298.5t288.5 -103.5v803zM965 311q184 0 288.5 103.5t104.5 298.5t-104.5 298t-288.5 103v-803z" />
<glyph unicode="&#x3a7;" horiz-adv-x="1593" d="M47 1413h649v-41q-27 0 -54.5 -1t-50 -6t-37.5 -15.5t-15 -30.5q0 -33 34 -81l89 -120l180 -244l108 123l83 99q40 47 71 88t49 73.5t18 53.5q0 23 -18 35t-43 18t-50.5 7t-39.5 1v41h516v-41h-14q-49 0 -87 -11t-73 -36t-71 -62.5t-81 -91.5l-319 -372l383 -518l77 -101 q36 -45 69.5 -75.5t69.5 -47t79 -16.5v-41h-639v41q80 4 125 17.5t45 50.5q0 10 -13.5 35.5t-35 59.5t-50.5 75l-59 83l-192 269l-261 -316l-64 -79q-26 -33 -41 -56.5t-22.5 -40t-7.5 -33.5q0 -39 46 -52t112 -13v-41h-487v41q41 4 73.5 16.5t66.5 37t69 63.5l81 92 l377 446l-299 414q-59 84 -101 135t-79 79t-75 38t-91 10v41z" />
<glyph unicode="&#x3a8;" horiz-adv-x="1822" d="M582 41q68 2 109.5 11t66 34t34 70t9.5 118v166q-100 0 -206 20.5t-191 70t-139 131t-54 204.5v308q0 68 -7 107.5t-20.5 60t-32 26.5t-40.5 6q-23 0 -36 -3l-30 -7v49l45 8q23 4 45 4q82 0 138.5 -15t92 -52t51 -99.5t15.5 -158.5v-197q0 -88 10.5 -161.5t48 -127 t111.5 -83t199 -29.5v637q0 74 -9.5 119t-34 69.5t-66.5 33.5t-109 11v41h659v-41q-68 -2 -109.5 -11t-66.5 -33.5t-34 -70t-9 -118.5v-637q125 0 198.5 29.5t111.5 83t48.5 127t10.5 161.5v197q0 96 16 158.5t51 99.5t91.5 52t138.5 15q23 0 45 -4l45 -8v-49l-30 7 q-13 3 -36 3t-41 -6t-31.5 -26.5t-20.5 -60.5t-7 -107v-308q0 -123 -54.5 -204.5t-139.5 -131t-189.5 -70t-206.5 -20.5v-166q0 -74 9 -118.5t34 -69.5t67 -34t109 -11v-41h-659v41z" />
<glyph unicode="&#x3a9;" horiz-adv-x="1705" d="M166 356h41q2 -23 6 -50t18.5 -52t42 -41t78.5 -16h320v131q-115 8 -213.5 55t-170 119.5t-112.5 166t-41 193.5q0 92 36 195.5t120 189.5t221 142.5t342 56.5q203 0 341 -56.5t221 -142.5t119 -189.5t36 -195.5q0 -100 -41 -193.5t-112.5 -166t-170 -119.5t-213.5 -55 v-131h320q51 0 78.5 16t42 41t18.5 52.5t6 49.5h41v-356h-582v385q106 20 176 70.5t112 116t58.5 142.5t16.5 148q0 133 -37 227.5t-100.5 155t-148.5 88t-181 27.5t-182 -27.5t-149.5 -88t-100.5 -155t-37 -227.5q0 -72 17.5 -148.5t58.5 -142t110.5 -115.5t176.5 -71v-385 h-582v356z" />
<glyph unicode="&#x3aa;" horiz-adv-x="796" d="M94 1634q0 43 30 73t73 30t72.5 -30t29.5 -73t-29.5 -72.5t-72.5 -29.5t-73 29.5t-30 72.5zM500 1634q0 43 29.5 73t72.5 30t73 -30t30 -73t-30 -72.5t-73 -29.5t-72.5 29.5t-29.5 72.5zM68 41q61 0 103 8t68.5 29.5t38 60.5t11.5 103v929q0 63 -11.5 102.5t-38 61 t-68.5 29.5t-103 8v41h663v-41q-61 0 -103 -8t-69 -29.5t-38 -60.5t-11 -103v-929q0 -63 11 -102.5t38 -61t69 -29.5t103 -8v-41h-663v41z" />
<glyph unicode="&#x3ab;" horiz-adv-x="1593" d="M543 1634q0 43 29.5 73t72.5 30t73 -30t30 -73t-30 -72.5t-73 -29.5t-72.5 29.5t-29.5 72.5zM948 1634q0 43 30 73t73 30t72.5 -30t29.5 -73t-29.5 -72.5t-72.5 -29.5t-73 29.5t-30 72.5zM506 41q61 0 103 8t69 29.5t38 60.5t11 103v364l-463 643q-41 59 -100.5 91 t-134.5 32v41h663v-41q-14 0 -42.5 -1t-57.5 -7t-51.5 -19.5t-22.5 -35.5q0 -23 18.5 -52.5t61.5 -89.5l305 -432l299 451q57 82 58 119q0 35 -34 49t-112 18v41h451v-41q-49 0 -87 -18.5t-74 -55t-73 -91.5l-86 -128l-297 -450v-387q0 -63 11.5 -102.5t38 -61t68.5 -29.5 t103 -8v-41h-663v41z" />
<glyph unicode="&#x3ac;" horiz-adv-x="1251" d="M285 440q0 -61 12 -130.5t41 -129t78 -99.5t125 -40q80 0 131 49t80.5 120t42 149.5t12.5 138.5q0 61 -13.5 136t-44 138.5t-82 106.5t-128.5 43q-80 0 -130.5 -52.5t-78 -128t-36.5 -158t-9 -143.5zM1098 963q-23 -135 -54.5 -259t-66.5 -247q-2 -12 -9 -32l-16 -40 q-8 -20 -13 -38.5t-5 -24.5q0 -14 11 -45t29.5 -63t43 -55.5t51.5 -23.5q41 0 60.5 30t19.5 62h41q0 -37 -4 -80t-16.5 -80.5t-36 -62t-64.5 -24.5q-49 0 -80 27.5t-49 68.5t-29 89l-18 87h-4q-18 -45 -52 -94t-82 -88t-110.5 -64.5t-136.5 -25.5q-100 0 -178 41.5 t-132.5 111.5t-82 158t-27.5 180q0 94 31 186.5t87 164t138 116.5t184 45q78 0 133.5 -32.5t94.5 -85t60.5 -117t31.5 -127.5h4l68 342h178zM678 1460q10 47 27.5 66.5t58.5 19.5q35 0 53.5 -17.5t18.5 -39.5q0 -23 -8.5 -41t-24.5 -47l-158 -271h-51z" />
<glyph unicode="&#x3ad;" horiz-adv-x="909" d="M852 229q-53 -139 -153.5 -194t-247.5 -55q-68 0 -133.5 17t-116.5 52t-82 88t-31 125q0 53 22.5 96t57.5 76t81 53.5t91 26.5v4q-39 4 -82 19.5t-77 42t-56.5 63.5t-22.5 82q0 72 35 121t88.5 79.5t117 44t120.5 13.5q66 0 127 -10t109.5 -31.5t77 -55.5t28.5 -79 q0 -35 -20.5 -57.5t-55.5 -22.5q-47 0 -68.5 32t-42 70.5t-50 70.5t-95.5 32q-84 0 -129 -55.5t-45 -157.5q0 -33 9 -64.5t26.5 -57.5t44.5 -42t61 -16q33 0 55.5 8t41 17t36 16.5t37.5 7.5q31 0 50.5 -18.5t19.5 -51.5q0 -35 -21.5 -52t-50.5 -17q-27 0 -46 6t-35.5 13 t-33 13t-36.5 6q-80 0 -126 -56t-46 -134q0 -111 61.5 -176.5t173.5 -65.5q111 0 174.5 50.5t104.5 148.5zM489 1460q10 47 28 66.5t58 19.5q35 0 53.5 -17.5t18.5 -39.5q0 -23 -8 -41t-25 -47l-157 -271h-51z" />
<glyph unicode="&#x3ae;" d="M252 766q0 68 -14.5 99.5t-55.5 31.5q-33 0 -50 -26.5t-26.5 -62.5t-11.5 -72t-2 -54h-51q0 45 6 97t25.5 97.5t58.5 76t105 30.5q68 0 104.5 -28.5t55 -77t23.5 -112t7 -132.5h6q10 51 31.5 111.5t58.5 113.5t90.5 89t128.5 36q68 0 118 -18.5t85 -60.5t52.5 -110.5 t17.5 -168.5v-1102h-180v1173q0 109 -36 160t-96 51q-76 0 -128 -61.5t-83.5 -146.5t-45 -172t-13.5 -138v-389h-180v766zM627 1460q10 47 27.5 66.5t58.5 19.5q35 0 53 -17.5t18 -39.5q0 -23 -8 -41t-24 -47l-158 -271h-51z" />
<glyph unicode="&#x3af;" horiz-adv-x="569" d="M305 154q0 -41 25.5 -70t68.5 -29q55 0 85 44t30 106v104h51v-71q0 -123 -47 -190.5t-174 -67.5q-100 0 -159.5 53t-59.5 192v738h180v-809zM260 1460q10 47 27.5 66.5t58.5 19.5q35 0 53.5 -17.5t18.5 -39.5q0 -23 -8.5 -41t-24.5 -47l-158 -271h-51z" />
<glyph unicode="&#x3b0;" d="M356 1130q-43 0 -72.5 30t-29.5 73t29.5 72.5t72.5 29.5t73 -29.5t30 -72.5t-30 -73t-73 -30zM569 1460q10 47 27.5 66.5t58.5 19.5q35 0 53.5 -17.5t18.5 -39.5q0 -23 -8 -41t-25 -47l-157 -271h-52zM41 711q0 53 7 102t28.5 87t61.5 60.5t104 22.5q100 0 153.5 -81 t53.5 -197q0 -25 -2.5 -70l-5.5 -99l-6 -114q-3 -59 -3 -115q0 -133 45 -192.5t139 -59.5q45 0 94.5 21.5t91.5 65.5t68.5 110.5t26.5 159.5q0 63 -20.5 122.5t-45 116t-45 112.5t-20.5 114q0 39 21.5 72.5t68.5 33.5q29 0 53.5 -14.5t42 -51t27.5 -101t10 -165.5 q0 -61 -5 -136t-20.5 -149.5t-43 -144t-73.5 -123t-112.5 -86t-159.5 -32.5q-150 0 -236.5 90t-86.5 252q0 109 3 186.5t6 132.5l5 89t2 54q0 61 -19.5 92t-53.5 31q-33 0 -52.5 -19.5t-31 -49t-15.5 -64.5t-4 -63h-51zM772 1130q-43 0 -72.5 30t-29.5 73t29.5 72.5 t72.5 29.5t72.5 -29.5t29.5 -72.5t-29.5 -73t-72.5 -30z" />
<glyph unicode="&#x3b1;" horiz-adv-x="1251" d="M285 440q0 -61 12 -130.5t41 -129t78 -99.5t125 -40q80 0 131 49t80.5 120t42 149.5t12.5 138.5q0 61 -13.5 136t-44 138.5t-82 106.5t-128.5 43q-80 0 -130.5 -52.5t-78 -128t-36.5 -158t-9 -143.5zM1098 963q-23 -135 -54.5 -259t-66.5 -247q-2 -12 -9 -32l-16 -40 q-8 -20 -13 -38.5t-5 -24.5q0 -14 11 -45t29.5 -63t43 -55.5t51.5 -23.5q41 0 60.5 30t19.5 62h41q0 -37 -4 -80t-16.5 -80.5t-36 -62t-64.5 -24.5q-49 0 -80 27.5t-49 68.5t-29 89l-18 87h-4q-18 -45 -52 -94t-82 -88t-110.5 -64.5t-136.5 -25.5q-100 0 -178 41.5 t-132.5 111.5t-82 158t-27.5 180q0 94 31 186.5t87 164t138 116.5t184 45q78 0 133.5 -32.5t94.5 -85t60.5 -117t31.5 -127.5h4l68 342h178z" />
<glyph unicode="&#x3b2;" d="M125 881q0 301 115.5 461.5t328.5 160.5q78 0 147.5 -20.5t122 -60.5t82 -99t29.5 -137q0 -70 -25.5 -122t-68.5 -91t-97 -66.5t-112 -48.5v-4q88 -12 162 -44t128 -84t84 -126t30 -168t-28 -177t-82 -144.5t-132 -96t-178 -34.5q-45 0 -90 12t-82 36.5t-62.5 61.5 t-31.5 86h61q0 -25 16.5 -51.5t43 -47t60.5 -33.5t70 -13q68 0 114 40t73.5 98t39 128t11.5 127q0 61 -15.5 132t-46 129t-77.5 97t-111 39q-45 0 -73.5 -18.5t-57.5 -18.5q-37 0 -52 19.5t-15 54.5q0 29 19 47.5t48 18.5q37 0 73 -20.5t62 -20.5q63 0 112.5 75.5 t49.5 208.5q0 45 -12.5 93.5t-39 88.5t-68.5 66.5t-103 26.5q-74 0 -121 -32t-73.5 -87t-37 -129t-10.5 -156v-1515h-180v1358z" />
<glyph unicode="&#x3b3;" horiz-adv-x="1024" d="M41 651q0 51 4 109.5t20.5 108t48 82t87.5 32.5q49 0 90 -38t74.5 -100.5t61.5 -144.5t51 -170l45 -176l40 -166h4q39 84 70 158t56.5 153t45 169t33.5 202q6 45 41 79t82 34q41 0 64.5 -29.5t23.5 -76.5q0 -35 -29.5 -102.5t-74.5 -149.5l-97 -168l-96 -159l-75 -123 q-30 -50 -29 -60q0 -12 8 -50t18 -98q10 -59 18.5 -133t8.5 -160q0 -72 -28.5 -111.5t-82.5 -39.5q-29 0 -48 15.5t-30.5 37t-16.5 47t-5 43.5q0 86 16.5 162t36.5 137q20 59 36.5 101.5t16.5 54.5t-13 66.5t-36.5 128t-55.5 156.5t-71 152.5t-83 115.5t-91 46 q-29 0 -47 -13t-29.5 -33.5t-16.5 -44t-5 -44.5h-41z" />
<glyph unicode="&#x3b4;" d="M778 1243q-16 43 -44.5 81t-64.5 66.5t-78 45t-89 16.5q-53 0 -98.5 -28.5t-45.5 -90.5q0 -43 51.5 -85t127.5 -90l164 -107q89 -59 165 -138t127 -183.5t51 -242.5q0 -106 -33.5 -198t-96 -161t-150.5 -108.5t-199 -39.5q-106 0 -193 36.5t-148.5 103t-95.5 156 t-34 193.5q0 92 34 172t93.5 139.5t138 93t170.5 33.5q72 0 129 -18l5 4q-49 35 -120 70.5t-134.5 81t-108.5 101.5t-45 130q0 109 66.5 168t171.5 59q57 0 110 -19.5t98.5 -55t79 -83t52.5 -102.5h-56zM291 514q0 -70 13 -152.5t47 -153.5t91.5 -119t147.5 -48q80 0 131 37 t78.5 95t38 130t10.5 141q0 74 -15.5 147t-50 129t-89 91t-134.5 35q-74 0 -125 -27.5t-83 -74t-46 -107t-14 -123.5z" />
<glyph unicode="&#x3b5;" horiz-adv-x="909" d="M852 229q-53 -139 -153.5 -194t-247.5 -55q-68 0 -133.5 17t-116.5 52t-82 88t-31 125q0 53 22.5 96t57.5 76t81 53.5t91 26.5v4q-39 4 -82 19.5t-77 42t-56.5 63.5t-22.5 82q0 72 35 121t88.5 79.5t117 44t120.5 13.5q66 0 127 -10t109.5 -31.5t77 -55.5t28.5 -79 q0 -35 -20.5 -57.5t-55.5 -22.5q-47 0 -68.5 32t-42 70.5t-50 70.5t-95.5 32q-84 0 -129 -55.5t-45 -157.5q0 -33 9 -64.5t26.5 -57.5t44.5 -42t61 -16q33 0 55.5 8t41 17t36 16.5t37.5 7.5q31 0 50.5 -18.5t19.5 -51.5q0 -35 -21.5 -52t-50.5 -17q-27 0 -46 6t-35.5 13 t-33 13t-36.5 6q-80 0 -126 -56t-46 -134q0 -111 61.5 -176.5t173.5 -65.5q111 0 174.5 50.5t104.5 148.5z" />
<glyph unicode="&#x3b6;" horiz-adv-x="1024" d="M438 1460q-31 6 -61 6q-57 0 -101.5 -35.5t-44.5 -103.5q0 -35 18.5 -64.5t47.5 -53t62.5 -39t64.5 -19.5q61 59 135 97t189 38q47 0 81.5 -18.5t34.5 -53.5q0 -37 -27.5 -60.5t-67.5 -37.5t-84 -20t-75 -6q-47 0 -92 2t-78 8q-33 -33 -67.5 -89.5t-63 -133t-48 -173 t-19.5 -210.5q0 -66 13 -123.5t43 -99.5t76 -66.5t111 -24.5h238q55 0 102 -10t81 -35.5t52.5 -71t18.5 -114.5q0 -78 -37 -136.5t-95.5 -99.5t-132 -61.5t-149.5 -20.5q-143 0 -143 80q0 37 27.5 49.5t56.5 12.5q23 0 42 -6l43 -14q24 -7 55.5 -13t76.5 -6q31 0 63.5 11 t58 30.5t42 48.5t16.5 63q0 41 -27.5 77t-89.5 36h-303q-98 0 -162.5 37t-102.5 96.5t-52 136t-14 158.5q0 193 55 361.5t178 320.5q-41 6 -92 23.5t-96 46t-76 67.5t-31 88q0 51 24.5 86t64.5 56.5t88 31t93 9.5q47 0 80 -7v-51z" />
<glyph unicode="&#x3b7;" d="M834 696q0 109 -36 160t-96 51q-76 0 -128 -61.5t-83.5 -146.5t-45 -172t-13.5 -138v-389h-180v766q0 68 -14.5 99.5t-55.5 31.5q-33 0 -50 -26.5t-26.5 -62.5t-11.5 -72t-2 -54h-51q0 45 6 97t25.5 97.5t58.5 76t105 30.5q68 0 104.5 -28.5t55 -77t23.5 -112t7 -132.5h6 q10 51 31.5 111.5t58.5 113.5t90.5 89t128.5 36q68 0 118 -18.5t85 -60.5t52.5 -110.5t17.5 -168.5v-1102h-180v1173z" />
<glyph unicode="&#x3b8;" d="M109 727q0 102 21.5 226t73.5 230.5t141 178.5t224 72t224.5 -72t141.5 -178.5t73.5 -230.5t21.5 -226q0 -123 -18.5 -256t-69.5 -241.5t-141 -179t-232 -70.5q-141 0 -231 70.5t-141.5 179t-69.5 241.5t-18 256zM834 764q0 53 -2.5 119.5t-10.5 135t-25.5 134.5t-46 117 t-72.5 81.5t-108 30.5q-63 0 -107 -30.5t-73 -81.5t-46 -117t-25.5 -134.5t-10.5 -135t-2 -119.5h529zM305 713q0 -104 5 -223t30 -221.5t78 -170t151 -67.5t151.5 67.5t78 170t30 221t5.5 223.5h-529z" />
<glyph unicode="&#x3b9;" horiz-adv-x="569" d="M305 154q0 -41 25.5 -70t68.5 -29q55 0 85 44t30 106v104h51v-71q0 -123 -47 -190.5t-174 -67.5q-100 0 -159.5 53t-59.5 192v738h180v-809z" />
<glyph unicode="&#x3bb;" horiz-adv-x="1024" d="M444 1008l-49 174q-20 70 -53 118t-100 48q-82 0 -111 -117h-41v39q0 49 10.5 91t30 73.5t50 50t73.5 18.5q49 0 82 -26.5t57.5 -73.5t42.5 -112l39 -138l213 -764q12 -45 26.5 -89t33 -78t44 -54.5t62.5 -20.5q43 0 69.5 41t28.5 88h41v-71q0 -125 -40 -175t-103 -50 q-86 0 -126 69.5t-71 190.5l-129 508h-4l-278 -748h-187z" />
<glyph unicode="&#x3bc;" d="M887 197q0 -68 14 -99.5t55 -31.5q33 0 50.5 26.5t26.5 62t11.5 71.5t2.5 55h51q0 -45 -6.5 -97.5t-25.5 -97.5t-58 -75.5t-105 -30.5q-68 0 -104.5 28.5t-55 76.5t-22.5 112l-8 133h-6q-10 -51 -32 -111.5t-58.5 -114t-90 -89t-129.5 -35.5q-100 0 -151 61t-76 149h-4 q0 -94 19.5 -177t43.5 -154l44 -133q19 -61 20 -115q0 -47 -24.5 -67.5t-65.5 -20.5q-49 0 -63.5 33.5t-14.5 81.5v1325h180v-697q0 -109 36 -160t95 -51q78 0 129 61.5t83 146.5t45.5 172t13.5 138v390h180v-766z" />
<glyph unicode="&#x3bd;" horiz-adv-x="1024" d="M33 707v43q0 51 9 94t30.5 73.5t58.5 48t92 17.5q74 0 112 -36t62 -107l213 -602q59 117 108.5 246.5t49.5 263.5q0 16 -4 40.5t-4 55.5q0 139 110 139q53 0 77 -26.5t24 -67.5q0 -25 -20.5 -80t-54.5 -129l-77 -161l-88 -177l-86 -178l-74 -164h-59l-289 803 q-14 37 -29.5 51t-41.5 14q-27 0 -47.5 -32.5t-20.5 -128.5h-51z" />
<glyph unicode="&#x3be;" horiz-adv-x="1024" d="M426 1460l-34 4q-17 2 -46 2q-78 0 -121 -32.5t-43 -85.5q0 -35 22.5 -64t54.5 -48t69 -31.5t65 -14.5q53 37 137 71.5t187 34.5q76 0 123 -20.5t47 -65.5q0 -47 -52.5 -70.5t-175.5 -23.5q-68 0 -141.5 7t-124.5 26q-55 -45 -92 -103.5t-37 -127.5q0 -39 14.5 -72 t35 -57.5t41 -39t32.5 -14.5q29 0 55 5l64 13q37 7 87 12t124 5q121 0 165 -21.5t44 -62.5q0 -55 -60.5 -75.5t-199.5 -20.5q-92 0 -166 13t-152 46q-29 -14 -59.5 -37.5t-56 -55.5t-42 -72t-16.5 -87q0 -63 22.5 -105t60.5 -66.5t88 -35t104 -10.5h233q57 0 109.5 -11 t92.5 -39t63.5 -73t23.5 -114q0 -94 -41 -159t-106.5 -103.5t-146.5 -56t-161 -17.5q-27 0 -55.5 5t-51 15.5t-37 26.5t-14.5 39q0 25 17.5 41t54.5 16q29 0 54 -9l53 -20q27 -10 57.5 -19t69.5 -9q41 0 82.5 12t74.5 35.5t53.5 58.5t20.5 80q0 57 -46 89t-114 32h-258 q-186 0 -282.5 87t-96.5 235q0 115 50.5 209t150.5 153q-49 43 -80 89t-31 114q0 82 42 151.5t108 118.5q-43 6 -93 23.5t-93 44t-71 61.5t-28 72q0 41 19.5 70.5t52.5 49t75 30t87 10.5q35 0 74.5 -4.5t72.5 -12.5z" />
<glyph unicode="&#x3bf;" d="M274 549q0 -74 16.5 -163t55.5 -166t102.5 -128t157.5 -51q68 0 117 35t81 87t46 114.5t14 119.5q0 82 -13 174.5t-49 170t-96.5 129t-152.5 51.5q-78 0 -131 -33t-86 -85t-47.5 -119.5t-14.5 -135.5zM1061 477q0 -104 -38 -195.5t-104.5 -158t-156.5 -105t-195 -38.5 q-106 0 -196 37.5t-155.5 104t-101.5 158t-36 197.5q0 104 37 195.5t103.5 161t155.5 109.5t193 40q117 0 209 -36t155.5 -101.5t96.5 -158.5t33 -210z" />
<glyph unicode="&#x3c0;" horiz-adv-x="1251" d="M446 688q0 -211 -13 -348t-39.5 -217t-66.5 -111.5t-96 -31.5q-63 0 -95 25.5t-45 66.5t-14 90t-3 96h51q0 -18 5 -39.5t15.5 -40t25.5 -31t38 -12.5q49 0 82 44t54.5 124t30.5 192.5t9 249.5v62h-109q-59 0 -90.5 -29.5t-42.5 -72.5h-51q10 68 26.5 115.5t51.5 79.5 t96.5 47.5t161.5 15.5q63 0 154.5 -2.5t183.5 -5.5t172 -6t119 -3q47 0 61.5 19.5t18.5 38.5h41q-2 -61 -12.5 -99.5t-31 -60t-50 -29.5t-68.5 -8h-105v-604q0 -70 18.5 -109t71.5 -39q35 0 57.5 27t35 64.5t17.5 82.5t5 82h51q0 -49 -6 -107.5t-29.5 -108.5t-67.5 -82.5 t-122 -32.5q-63 0 -104 22.5t-64.5 57t-33 77.5t-9.5 86v584h-285v-119z" />
<glyph unicode="&#x3c1;" d="M281 510q0 -68 16 -149.5t53 -152.5t95.5 -119t140.5 -48q74 0 122 37t74.5 92t36.5 121.5t10 126.5q0 74 -12 161t-45 163.5t-87 128t-138 51.5q-86 0 -138.5 -37t-81 -96.5t-37.5 -133t-9 -145.5zM807 -477q0 59 -36 75.5t-116 20.5l-98 6q-143 10 -229 63.5 t-138 176.5q-49 117 -75.5 253t-26.5 269q0 123 29.5 230.5t89 189.5t149.5 129t211 47q104 0 189.5 -36t146 -100.5t92 -153.5t31.5 -195q0 -109 -31.5 -203t-92 -165t-148.5 -110.5t-199 -39.5q-72 0 -137.5 22.5t-118.5 63t-91 98t-54 129.5h-4q0 -29 8 -80t20 -104 q33 -141 114 -230.5t228 -97.5l125 -6q121 -6 162 -74t41 -178h-41z" />
<glyph unicode="&#x3c2;" horiz-adv-x="909" d="M862 995q-10 -49 -24.5 -87t-37 -63.5t-57 -37.5t-88.5 -12q-39 0 -91 6t-97 6q-76 0 -133.5 -24.5t-96 -69.5t-58 -104.5t-19.5 -131.5q0 -137 66.5 -208.5t240.5 -84.5l119 -8q53 -4 97 -16.5t77 -39t50 -71.5t17 -117q0 -70 -29.5 -130t-87 -105t-138 -70.5 t-185.5 -25.5q-98 0 -136 25.5t-38 60.5t20.5 48t51.5 13q29 0 56.5 -9t58 -21.5t63.5 -21.5t69 -9q37 0 75 12t71 35.5t53.5 59.5t20.5 83q0 35 -10.5 58.5t-38 38t-74.5 20.5t-121 6q-117 0 -194.5 30.5t-126 89t-69 143.5t-20.5 192q0 123 28 217t76 158.5t111.5 98.5 t137.5 34q88 0 159.5 -8.5t116.5 -8.5q39 0 65.5 10.5t41.5 38.5h28z" />
<glyph unicode="&#x3c3;" d="M821 401q0 84 -12 175.5t-45 168t-91.5 127t-148.5 50.5q-119 0 -179 -99.5t-60 -265.5q0 -111 13 -205t46 -163.5t86 -108.5t133 -39q86 0 137.5 35t78 88t34.5 116.5t8 120.5zM1120 1022q-4 -78 -28.5 -128t-92.5 -50q-49 0 -95 4t-79 8l-4 -4q102 -78 149.5 -180.5 t47.5 -202.5q0 -98 -34 -187t-93.5 -157t-143 -106.5t-184.5 -38.5q-100 0 -187 36.5t-150.5 102t-100.5 156t-37 198.5q0 109 34 202t96.5 161.5t153.5 107.5t206 39q88 0 192 -12.5t209 -12.5q59 0 83.5 14.5t29.5 49.5h28z" />
<glyph unicode="&#x3c4;" horiz-adv-x="909" d="M338 803q-37 2 -75 3t-79 1q-57 0 -85.5 -20.5t-39.5 -75.5h-41q8 125 56.5 188.5t179.5 63.5q31 0 88 -2.5l125 -5.5t138.5 -5t129.5 -2q27 0 52.5 11.5t29.5 39.5h41q-2 -41 -12 -78.5t-30.5 -66.5t-52.5 -45t-79 -16q-88 0 -166 6v-580q0 -94 20.5 -129t73.5 -35 q37 0 61.5 19.5t38 54.5t18.5 81t5 99h51q0 -66 -7 -126t-30.5 -105t-68.5 -71.5t-121 -26.5q-45 0 -85 15t-70.5 41.5t-48 65.5t-17.5 84v617z" />
<glyph unicode="&#x3c5;" d="M41 711q0 53 7 102t28.5 87t61.5 60.5t104 22.5q100 0 153.5 -81t53.5 -197q0 -25 -2.5 -70l-5.5 -99l-6 -114q-3 -59 -3 -115q0 -133 45 -192.5t139 -59.5q45 0 94.5 21.5t91.5 65.5t68.5 110.5t26.5 159.5q0 63 -20.5 122.5t-45 116t-45 112.5t-20.5 114 q0 39 21.5 72.5t68.5 33.5q29 0 53.5 -14.5t42 -51t27.5 -101t10 -165.5q0 -61 -5 -136t-20.5 -149.5t-43 -144t-73.5 -123t-112.5 -86t-159.5 -32.5q-150 0 -236.5 90t-86.5 252q0 109 3 186.5t6 132.5l5 89t2 54q0 61 -19.5 92t-53.5 31q-33 0 -52.5 -19.5t-31 -49 t-15.5 -64.5t-4 -63h-51z" />
<glyph unicode="&#x3c6;" horiz-adv-x="1366" d="M625 -20q-115 6 -213.5 48t-171 112.5t-113.5 168t-41 213.5q0 78 18.5 160t59.5 148.5t104.5 109.5t151.5 43q156 0 237 -156l-36 -28q-12 18 -30 39.5t-38.5 40t-45 31t-50.5 12.5q-39 0 -72 -17.5t-55.5 -61.5t-34.5 -121t-12 -194q0 -98 11 -184t48 -150.5 t104.5 -105.5t178.5 -47v352q0 102 17 208t59 191t111 138t169 53q86 0 143.5 -38t92 -97.5t49 -133t14.5 -147.5q0 -139 -35 -246.5t-97.5 -181t-150.5 -113.5t-192 -46v-457h-180v457zM805 41q203 10 308.5 152.5t105.5 375.5q0 51 -10.5 112.5t-35 115t-67.5 89.5 t-109 36q-96 0 -144 -71t-48 -233v-577z" />
<glyph unicode="&#x3c7;" horiz-adv-x="1024" d="M455 377l-97 250q-33 88 -59.5 132t-91.5 44q-68 0 -90.5 -48t-24.5 -120h-41q-4 27 -7 55.5t-3 71.5t7 83t24.5 70.5t44 49t65.5 18.5q49 0 84 -23.5t59.5 -59.5t41.5 -79l30 -84l101 -297l262 523h184l-366 -732l96 -284q41 -125 79 -175.5t81 -50.5q55 0 77.5 53.5 t30.5 123.5h37q2 -16 3 -38t1 -50q0 -129 -27.5 -192.5t-117.5 -63.5q-39 0 -67 19t-50.5 58t-44 98.5t-47.5 141.5l-92 281l-285 -578h-191z" />
<glyph unicode="&#x3c8;" horiz-adv-x="1478" d="M745 -20q-211 6 -333.5 118.5t-122.5 309.5q0 100 4 195t4 173q0 121 -72 121q-63 0 -84.5 -57.5t-21.5 -204.5h-62v67q0 125 46.5 203t166.5 78q33 0 70 -14.5t67.5 -47t50 -85t19.5 -125.5q0 -82 -4 -182.5t-4 -206.5q0 -49 12.5 -98.5t43 -91.5t85 -69.5t140.5 -31.5 l49 1214h53l49 -1214q86 12 148.5 56t102.5 103.5t59.5 128t19.5 127.5q0 82 -17.5 144.5t-36.5 112.5l-37 95q-17 44 -18 89q0 39 28 67.5t62 28.5q41 0 69 -13.5t45 -49t25.5 -98t8.5 -160.5q0 -121 -27.5 -237t-85 -210t-142.5 -157.5t-200 -77.5l21 -457h-201z" />
<glyph unicode="&#x3c9;" horiz-adv-x="1478" d="M512 932q-70 -6 -114 -35t-69.5 -81t-34.5 -127t-9 -173q0 -63 3 -145t22.5 -156t61.5 -124t120 -50q63 0 101 34t59.5 81t28.5 98t7 88q0 68 -7 125t-16 102l-17 79q-7 34 -7 54q0 61 25.5 90t72.5 29t73 -28.5t26 -90.5q0 -20 -8 -54l-16 -79q-9 -45 -16 -102t-7 -125 q0 -37 7 -88t28.5 -98t59.5 -81t101 -34q78 0 120 50t61.5 124t22.5 156t3 145q0 98 -9 173t-35 127t-70 81t-113 35v51q94 -2 172 -40t134 -103.5t87 -154.5t31 -198q0 -94 -27 -185t-77 -162.5t-119.5 -115.5t-155.5 -44q-74 0 -123 27.5t-80 68.5t-45 90t-21 94h-8 q-6 -45 -20.5 -94t-45 -90t-79.5 -68.5t-123 -27.5q-86 0 -155.5 44t-120 115.5t-77 162.5t-26.5 185q0 109 31 198t87 154.5t134 103.5t172 40v-51z" />
<glyph unicode="&#x3ca;" horiz-adv-x="569" d="M305 154q0 -41 25.5 -70t68.5 -29q55 0 85 44t30 106v104h51v-71q0 -123 -47 -190.5t-174 -67.5q-100 0 -159.5 53t-59.5 192v738h180v-809zM-53 1233q0 43 29.5 72.5t72.5 29.5t73 -29.5t30 -72.5t-30 -73t-73 -30t-72.5 30t-29.5 73zM328 1233q0 43 29.5 72.5 t72.5 29.5t72.5 -29.5t29.5 -72.5t-29.5 -73t-72.5 -30t-72.5 30t-29.5 73z" />
<glyph unicode="&#x3cb;" d="M41 711q0 53 7 102t28.5 87t61.5 60.5t104 22.5q100 0 153.5 -81t53.5 -197q0 -25 -2.5 -70l-5.5 -99l-6 -114q-3 -59 -3 -115q0 -133 45 -192.5t139 -59.5q45 0 94.5 21.5t91.5 65.5t68.5 110.5t26.5 159.5q0 63 -20.5 122.5t-45 116t-45 112.5t-20.5 114 q0 39 21.5 72.5t68.5 33.5q29 0 53.5 -14.5t42 -51t27.5 -101t10 -165.5q0 -61 -5 -136t-20.5 -149.5t-43 -144t-73.5 -123t-112.5 -86t-159.5 -32.5q-150 0 -236.5 90t-86.5 252q0 109 3 186.5t6 132.5l5 89t2 54q0 61 -19.5 92t-53.5 31q-33 0 -52.5 -19.5t-31 -49 t-15.5 -64.5t-4 -63h-51zM264 1233q0 43 30 72.5t73 29.5t72.5 -29.5t29.5 -72.5t-29.5 -73t-72.5 -30t-73 30t-30 73zM670 1233q0 43 29.5 72.5t72.5 29.5t72.5 -29.5t29.5 -72.5t-29.5 -73t-72.5 -30t-72.5 30t-29.5 73z" />
<glyph unicode="&#x3cc;" d="M274 549q0 -74 16.5 -163t55.5 -166t102.5 -128t157.5 -51q68 0 117 35t81 87t46 114.5t14 119.5q0 82 -13 174.5t-49 170t-96.5 129t-152.5 51.5q-78 0 -131 -33t-86 -85t-47.5 -119.5t-14.5 -135.5zM78 477q0 104 37 195.5t103.5 161t155.5 109.5t193 40q117 0 209 -36 t155.5 -101.5t96.5 -158.5t33 -210q0 -104 -38 -195.5t-104.5 -158t-156.5 -105t-195 -38.5q-106 0 -198.5 37.5t-158 104t-101 158t-31.5 197.5zM604 1460q10 47 27.5 66.5t58.5 19.5q35 0 53.5 -17.5t18.5 -39.5q0 -23 -8.5 -41t-24.5 -47l-158 -271h-51z" />
<glyph unicode="&#x3cd;" d="M41 711q0 53 7 102t28.5 87t61.5 60.5t104 22.5q100 0 153.5 -81t53.5 -197q0 -25 -2.5 -70l-5.5 -99l-6 -114q-3 -59 -3 -115q0 -133 45 -192.5t139 -59.5q45 0 94.5 21.5t91.5 65.5t68.5 110.5t26.5 159.5q0 63 -20.5 122.5t-45 116t-45 112.5t-20.5 114 q0 39 21.5 72.5t68.5 33.5q29 0 53.5 -14.5t42 -51t27.5 -101t10 -165.5q0 -61 -5 -136t-20.5 -149.5t-43 -144t-73.5 -123t-112.5 -86t-159.5 -32.5q-150 0 -236.5 90t-86.5 252q0 109 3 186.5t6 132.5l5 89t2 54q0 61 -19.5 92t-53.5 31q-33 0 -52.5 -19.5t-31 -49 t-15.5 -64.5t-4 -63h-51zM604 1460q10 47 27.5 66.5t58.5 19.5q35 0 53.5 -17.5t18.5 -39.5q0 -23 -8.5 -41t-24.5 -47l-158 -271h-51z" />
<glyph unicode="&#x3ce;" horiz-adv-x="1478" d="M512 932q-70 -6 -114 -35t-69.5 -81t-34.5 -127t-9 -173q0 -63 3 -145t22.5 -156t61.5 -124t120 -50q63 0 101 34t59.5 81t28.5 98t7 88q0 68 -7 125t-16 102l-17 79q-7 34 -7 54q0 61 25.5 90t72.5 29t73 -28.5t26 -90.5q0 -20 -8 -54l-16 -79q-9 -45 -16 -102t-7 -125 q0 -37 7 -88t28.5 -98t59.5 -81t101 -34q78 0 120 50t61.5 124t22.5 156t3 145q0 98 -9 173t-35 127t-70 81t-113 35v51q94 -2 172 -40t134 -103.5t87 -154.5t31 -198q0 -94 -27 -185t-77 -162.5t-119.5 -115.5t-155.5 -44q-74 0 -123 27.5t-80 68.5t-45 90t-21 94h-8 q-6 -45 -20.5 -94t-45 -90t-79.5 -68.5t-123 -27.5q-86 0 -155.5 44t-120 115.5t-77 162.5t-26.5 185q0 109 31 198t87 154.5t134 103.5t172 40v-51zM774 1460q10 47 27.5 66.5t58.5 19.5q35 0 53.5 -17.5t18.5 -39.5q0 -23 -8.5 -41t-24.5 -47l-158 -271h-51z" />
<glyph unicode="&#x3d0;" d="M94 557q0 139 23.5 283.5t87.5 273.5q39 78 95 148.5t128 124t156 85t176 31.5q37 0 70.5 -8t60.5 -25.5t43 -45t16 -66.5q0 -88 -64.5 -144.5t-166 -91.5t-224.5 -56l-245 -42q-18 -39 -32.5 -93t-26 -111.5t-16.5 -111t-5 -92.5h4q25 61 62.5 113.5t90 92.5t117 62.5 t140.5 22.5q213 0 336.5 -113.5t123.5 -316.5q0 -106 -33.5 -197.5t-96 -158t-149.5 -104t-196 -37.5q-129 0 -220 48t-147.5 128t-82 184t-25.5 217zM874 1354q0 51 -35.5 69.5t-80.5 18.5q-76 0 -152 -30t-141.5 -79t-115.5 -112.5t-75 -133.5q109 18 216.5 39t192.5 51.5 t138 73t53 103.5zM281 420q0 -63 17 -131t53 -123t90.5 -90t129.5 -35q78 0 131.5 29.5t86 81t46 122t13.5 150.5q0 70 -10.5 144.5t-40 136t-85 101.5t-145.5 40t-146 -41t-87 -103.5t-42 -137t-11 -144.5z" />
<glyph unicode="&#x3d1;" horiz-adv-x="1251" d="M37 672q0 84 11 137t32.5 83t54.5 40t74 10q76 0 121 -38t69.5 -94t31.5 -124t7 -129v-264q0 -131 36 -196.5t132 -65.5q72 0 116 39t68.5 101t34 142t9.5 162v393h-96q-48 0 -95 9q-66 10 -123 37.5t-100 70.5t-68.5 101.5t-25.5 132.5q0 53 19.5 103t57 91t93 65.5 t127.5 24.5q111 0 182.5 -61.5t116.5 -150.5t68.5 -190.5t33.5 -180.5q115 0 152.5 -63.5t37.5 -170.5h-51q0 33 -5 65.5t-20.5 58.5t-43 42t-70.5 16q6 -74 6 -141q0 -72 -5 -156t-20.5 -166.5t-44 -159.5t-75.5 -136.5t-117 -94t-166 -34.5q-94 0 -159.5 26.5t-106.5 77.5 t-59.5 123t-18.5 164v313q0 55 -6 89t-18.5 52.5t-29 24.5t-34.5 6q-25 0 -41 -15.5t-25.5 -41t-12.5 -59t-3 -68.5h-51zM481 1210q0 -63 16.5 -111t44 -82t63.5 -54.5t75 -30.5q37 -10 74 -11t75 -1l-20 188q-8 74 -16.5 134.5t-25.5 105.5t-49 69.5t-87 24.5 q-39 0 -67.5 -10.5t-47 -36t-27 -70.5t-8.5 -115z" />
<glyph unicode="&#x3d5;" horiz-adv-x="1366" d="M614 -20q-102 6 -196 36.5t-167 91t-116 152.5t-43 221q0 115 45 205t120 154.5t174 100.5t208 42l12 430h64l12 -430q109 -6 208 -42t175 -100.5t120 -154.5t44 -205q0 -129 -43 -221t-116 -152.5t-167 -91t-196 -36.5l6 -457h-150zM635 922q-94 -8 -161.5 -48 t-113 -100.5t-67 -136.5t-21.5 -156q0 -82 25 -158.5t69 -137t107.5 -99.5t142.5 -45zM750 41q80 6 143 45t107 99.5t69 137t25 158.5q0 80 -21.5 156t-65.5 136.5t-113 100t-163 48.5z" />
<glyph unicode="&#x3db;" d="M1069 1317q-14 -51 -31.5 -92t-48.5 -69t-77 -42t-115 -14q-49 0 -119 7t-129 7q-98 0 -174 -25.5t-128 -70.5t-79 -107.5t-27 -136.5q0 -100 37 -161.5t109.5 -96.5t177 -47t240.5 -12h313l-92 -572h-150l60 387h-232q-154 0 -256 33t-165.5 94.5t-90 149.5t-26.5 201 q0 129 35.5 228t99 166.5t147.5 102.5t180 35q117 0 211.5 -7t153.5 -7q49 0 84 10t51 39h41z" />
<glyph unicode="&#x3dc;" horiz-adv-x="1060" d="M1081 848h-561q-31 -160 -68.5 -318.5t-80.5 -316.5h469v-102h-492q-35 -139 -80 -283l-94 -305h-194q113 371 210 724t162 716h729v-115z" />
<glyph unicode="&#x3df;" horiz-adv-x="1024" d="M76 406l313 1007h109l-269 -860h711l-313 -1006h-109l266 859h-708z" />
<glyph unicode="&#x3e1;" horiz-adv-x="1740" d="M942 905q-168 158 -382 265.5t-478 148.5v94q328 -33 609.5 -176t488 -384t323.5 -570.5t113 -735.5h-92q-10 248 -72.5 485.5t-181.5 448.5l-439 -360l-65 80l451 370q-43 72 -93.5 136.5t-107.5 123.5l-459 -374l-65 80z" />
<glyph unicode="&#x3f0;" d="M70 651v62q0 125 43 197.5t129 72.5q66 0 103.5 -39t57 -97.5t24.5 -124t5 -118.5v-29q0 -18 -1 -39l-2 -42q-1 -20 -1 -33l64 54l72 60l77 62l74 57q4 27 13 75t28.5 96t49.5 83t73 35q49 0 69.5 -31.5t20.5 -60.5q0 -51 -17.5 -98.5t-46 -90.5t-64.5 -78.5t-71 -64.5 q0 -41 -1 -80t-1 -94q0 -43 5 -84t20.5 -72.5t42 -50t67.5 -18.5q59 0 88 47t37 112h41v-34q0 -170 -41 -237.5t-137 -67.5q-63 0 -100 36.5t-55.5 91t-23.5 115t-5 105.5q0 49 1 92t3 90l-65 -50l-83 -67l-83 -68q-40 -34 -64 -61q-8 -41 -19.5 -91t-31 -93t-48 -71.5 t-71.5 -28.5q-41 0 -63.5 31.5t-22.5 76.5q0 55 20.5 103.5t51 88t67.5 73.5l68 63q2 43 3 85t1 89q0 225 -133 225q-37 0 -61.5 -15.5t-39 -40t-20.5 -53t-6 -55.5h-41z" />
<glyph unicode="&#x1f00;" horiz-adv-x="1251" d="M285 440q0 -61 12 -130.5t41 -129t78 -99.5t125 -40q80 0 131 49t80.5 120t42 149.5t12.5 138.5q0 61 -13.5 136t-44 138.5t-82 106.5t-128.5 43q-80 0 -130.5 -52.5t-78 -128t-36.5 -158t-9 -143.5zM1098 963q-23 -135 -54.5 -259t-66.5 -247q-2 -12 -9 -32l-16 -40 q-8 -20 -13 -38.5t-5 -24.5q0 -14 11 -45t29.5 -63t43 -55.5t51.5 -23.5q41 0 60.5 30t19.5 62h41q0 -37 -4 -80t-16.5 -80.5t-36 -62t-64.5 -24.5q-49 0 -80 27.5t-49 68.5t-29 89l-18 87h-4q-18 -45 -52 -94t-82 -88t-110.5 -64.5t-136.5 -25.5q-100 0 -178 41.5 t-132.5 111.5t-82 158t-27.5 180q0 94 31 186.5t87 164t138 116.5t184 45q78 0 133.5 -32.5t94.5 -85t60.5 -117t31.5 -127.5h4l68 342h178zM461 1210q25 -10 52.5 -14t64.5 -4q49 0 91 36t42 95q0 96 -84 96q-23 0 -36 -5t-40 -5q-100 0 -100 88q0 49 35.5 70.5t76.5 21.5 q111 0 175.5 -62.5t64.5 -172.5q0 -45 -17.5 -85t-46 -71t-68.5 -49.5t-85 -18.5q-37 0 -73 6.5t-71 22.5z" />
<glyph unicode="&#x1f01;" horiz-adv-x="1251" d="M285 440q0 -61 12 -130.5t41 -129t78 -99.5t125 -40q80 0 131 49t80.5 120t42 149.5t12.5 138.5q0 61 -13.5 136t-44 138.5t-82 106.5t-128.5 43q-80 0 -130.5 -52.5t-78 -128t-36.5 -158t-9 -143.5zM1098 963q-23 -135 -54.5 -259t-66.5 -247q-2 -12 -9 -32l-16 -40 q-8 -20 -13 -38.5t-5 -24.5q0 -14 11 -45t29.5 -63t43 -55.5t51.5 -23.5q41 0 60.5 30t19.5 62h41q0 -37 -4 -80t-16.5 -80.5t-36 -62t-64.5 -24.5q-49 0 -80 27.5t-49 68.5t-29 89l-18 87h-4q-18 -45 -52 -94t-82 -88t-110.5 -64.5t-136.5 -25.5q-100 0 -178 41.5 t-132.5 111.5t-82 158t-27.5 180q0 94 31 186.5t87 164t138 116.5t184 45q78 0 133.5 -32.5t94.5 -85t60.5 -117t31.5 -127.5h4l68 342h178zM803 1159q-35 -16 -71 -22.5t-73 -6.5q-45 0 -84.5 18.5t-68.5 49.5t-46.5 71t-17.5 85q0 111 64.5 173t175.5 62q41 0 77 -21.5 t36 -70.5q0 -88 -101 -88q-27 0 -40 5t-36 5q-84 0 -83 -96q0 -59 41.5 -95t91.5 -36q37 0 64.5 4t51.5 14z" />
<glyph unicode="&#x1f02;" horiz-adv-x="1251" d="M285 440q0 -61 12 -130.5t41 -129t78 -99.5t125 -40q80 0 131 49t80.5 120t42 149.5t12.5 138.5q0 61 -13.5 136t-44 138.5t-82 106.5t-128.5 43q-80 0 -130.5 -52.5t-78 -128t-36.5 -158t-9 -143.5zM1098 963q-23 -135 -54.5 -259t-66.5 -247q-2 -12 -9 -32l-16 -40 q-8 -20 -13 -38.5t-5 -24.5q0 -14 11 -45t29.5 -63t43 -55.5t51.5 -23.5q41 0 60.5 30t19.5 62h41q0 -37 -4 -80t-16.5 -80.5t-36 -62t-64.5 -24.5q-49 0 -80 27.5t-49 68.5t-29 89l-18 87h-4q-18 -45 -52 -94t-82 -88t-110.5 -64.5t-136.5 -25.5q-100 0 -178 41.5 t-132.5 111.5t-82 158t-27.5 180q0 94 31 186.5t87 164t138 116.5t184 45q78 0 133.5 -32.5t94.5 -85t60.5 -117t31.5 -127.5h4l68 342h178zM719 1401q-16 29 -24.5 47t-8.5 41t18.5 40t53.5 17q41 0 58.5 -19.5t27.5 -66.5l84 -330h-51zM383 1192q31 0 61.5 5t55 17.5 t39 36t14.5 60.5t-16.5 58.5t-53.5 21.5h-51q-47 0 -60.5 22.5t-13.5 59.5q0 43 25 58t66 15q47 0 80.5 -17.5t56 -47t33 -66.5t10.5 -74q0 -117 -65.5 -164t-186.5 -47z" />
<glyph unicode="&#x1f03;" horiz-adv-x="1251" d="M285 440q0 -61 12 -130.5t41 -129t78 -99.5t125 -40q80 0 131 49t80.5 120t42 149.5t12.5 138.5q0 61 -13.5 136t-44 138.5t-82 106.5t-128.5 43q-80 0 -130.5 -52.5t-78 -128t-36.5 -158t-9 -143.5zM1098 963q-23 -135 -54.5 -259t-66.5 -247q-2 -12 -9 -32l-16 -40 q-8 -20 -13 -38.5t-5 -24.5q0 -14 11 -45t29.5 -63t43 -55.5t51.5 -23.5q41 0 60.5 30t19.5 62h41q0 -37 -4 -80t-16.5 -80.5t-36 -62t-64.5 -24.5q-49 0 -80 27.5t-49 68.5t-29 89l-18 87h-4q-18 -45 -52 -94t-82 -88t-110.5 -64.5t-136.5 -25.5q-100 0 -178 41.5 t-132.5 111.5t-82 158t-27.5 180q0 94 31 186.5t87 164t138 116.5t184 45q78 0 133.5 -32.5t94.5 -85t60.5 -117t31.5 -127.5h4l68 342h178zM653 1157q-59 -27 -129 -27q-41 0 -77.5 16.5t-64.5 44.5t-44 64.5t-16 77.5q0 100 60 156.5t161 56.5q39 0 71.5 -19.5t32.5 -64.5 q0 -84 -92 -84q-23 0 -35 5.5t-33 5.5q-74 0 -73 -86q0 -53 35.5 -82t80.5 -29q35 0 59.5 4t47.5 14zM748 1401q-16 29 -24.5 47t-8.5 41t18.5 40t52.5 17q41 0 58.5 -19.5t27.5 -66.5l84 -330h-51z" />
<glyph unicode="&#x1f04;" horiz-adv-x="1251" d="M285 440q0 -61 12 -130.5t41 -129t78 -99.5t125 -40q80 0 131 49t80.5 120t42 149.5t12.5 138.5q0 61 -13.5 136t-44 138.5t-82 106.5t-128.5 43q-80 0 -130.5 -52.5t-78 -128t-36.5 -158t-9 -143.5zM1098 963q-23 -135 -54.5 -259t-66.5 -247q-2 -12 -9 -32l-16 -40 q-8 -20 -13 -38.5t-5 -24.5q0 -14 11 -45t29.5 -63t43 -55.5t51.5 -23.5q41 0 60.5 30t19.5 62h41q0 -37 -4 -80t-16.5 -80.5t-36 -62t-64.5 -24.5q-49 0 -80 27.5t-49 68.5t-29 89l-18 87h-4q-18 -45 -52 -94t-82 -88t-110.5 -64.5t-136.5 -25.5q-100 0 -178 41.5 t-132.5 111.5t-82 158t-27.5 180q0 94 31 186.5t87 164t138 116.5t184 45q78 0 133.5 -32.5t94.5 -85t60.5 -117t31.5 -127.5h4l68 342h178zM444 1192q31 0 62 5t55.5 17.5t38.5 36t14 60.5t-16 58.5t-53 21.5h-51q-47 0 -60.5 22.5t-13.5 59.5q0 43 24.5 58t65.5 15 q47 0 81 -17.5t56.5 -47t32.5 -66.5t10 -74q0 -117 -65.5 -164t-186.5 -47zM831 1460q10 47 28 66.5t59 19.5q35 0 53 -17.5t18 -39.5q0 -23 -8 -41t-25 -47l-157 -271h-51z" />
<glyph unicode="&#x1f05;" horiz-adv-x="1251" d="M285 440q0 -61 12 -130.5t41 -129t78 -99.5t125 -40q80 0 131 49t80.5 120t42 149.5t12.5 138.5q0 61 -13.5 136t-44 138.5t-82 106.5t-128.5 43q-80 0 -130.5 -52.5t-78 -128t-36.5 -158t-9 -143.5zM1098 963q-23 -135 -54.5 -259t-66.5 -247q-2 -12 -9 -32l-16 -40 q-8 -20 -13 -38.5t-5 -24.5q0 -14 11 -45t29.5 -63t43 -55.5t51.5 -23.5q41 0 60.5 30t19.5 62h41q0 -37 -4 -80t-16.5 -80.5t-36 -62t-64.5 -24.5q-49 0 -80 27.5t-49 68.5t-29 89l-18 87h-4q-18 -45 -52 -94t-82 -88t-110.5 -64.5t-136.5 -25.5q-100 0 -178 41.5 t-132.5 111.5t-82 158t-27.5 180q0 94 31 186.5t87 164t138 116.5t184 45q78 0 133.5 -32.5t94.5 -85t60.5 -117t31.5 -127.5h4l68 342h178zM854 1460q10 47 27.5 66.5t58.5 19.5q35 0 53.5 -17.5t18.5 -39.5q0 -23 -8.5 -41t-24.5 -47l-158 -271h-51zM694 1157 q-59 -27 -129 -27q-41 0 -77.5 16.5t-64.5 44.5t-44.5 64.5t-16.5 77.5q0 100 60.5 156.5t161.5 56.5q39 0 71.5 -19.5t32.5 -64.5q0 -84 -92 -84q-23 0 -35 5.5t-33 5.5q-74 0 -73 -86q0 -53 35.5 -82t80.5 -29q35 0 59.5 4t47.5 14z" />
<glyph unicode="&#x1f06;" horiz-adv-x="1251" d="M285 440q0 -61 12 -130.5t41 -129t78 -99.5t125 -40q80 0 131 49t80.5 120t42 149.5t12.5 138.5q0 61 -13.5 136t-44 138.5t-82 106.5t-128.5 43q-80 0 -130.5 -52.5t-78 -128t-36.5 -158t-9 -143.5zM1098 963q-23 -135 -54.5 -259t-66.5 -247q-2 -12 -9 -32l-16 -40 q-8 -20 -13 -38.5t-5 -24.5q0 -14 11 -45t29.5 -63t43 -55.5t51.5 -23.5q41 0 60.5 30t19.5 62h41q0 -37 -4 -80t-16.5 -80.5t-36 -62t-64.5 -24.5q-49 0 -80 27.5t-49 68.5t-29 89l-18 87h-4q-18 -45 -52 -94t-82 -88t-110.5 -64.5t-136.5 -25.5q-100 0 -178 41.5 t-132.5 111.5t-82 158t-27.5 180q0 94 31 186.5t87 164t138 116.5t184 45q78 0 133.5 -32.5t94.5 -85t60.5 -117t31.5 -127.5h4l68 342h178zM502 1196q35 -14 90 -14q39 0 69.5 25.5t30.5 72.5q0 74 -63 74q-16 0 -26.5 -4t-31.5 -4q-78 0 -77 67q0 39 27.5 55.5t60.5 16.5 q86 0 136 -48t50 -134q0 -70 -49 -121.5t-121 -51.5q-63 0 -111 23zM285 1536q16 88 72.5 147.5t150.5 59.5q41 0 74.5 -14.5l68.5 -30.5q35 -18 69 -32.5t73 -14.5q41 0 69.5 31.5t38.5 60.5h60q-8 -39 -24.5 -76t-43.5 -66.5t-63.5 -47t-84.5 -17.5q-47 0 -84.5 14.5 t-72.5 32.5l-65 31q-30 14 -64 14q-47 0 -73 -25.5t-42 -66.5h-59z" />
<glyph unicode="&#x1f07;" horiz-adv-x="1251" d="M285 440q0 -61 12 -130.5t41 -129t78 -99.5t125 -40q80 0 131 49t80.5 120t42 149.5t12.5 138.5q0 61 -13.5 136t-44 138.5t-82 106.5t-128.5 43q-80 0 -130.5 -52.5t-78 -128t-36.5 -158t-9 -143.5zM1098 963q-23 -135 -54.5 -259t-66.5 -247q-2 -12 -9 -32l-16 -40 q-8 -20 -13 -38.5t-5 -24.5q0 -14 11 -45t29.5 -63t43 -55.5t51.5 -23.5q41 0 60.5 30t19.5 62h41q0 -37 -4 -80t-16.5 -80.5t-36 -62t-64.5 -24.5q-49 0 -80 27.5t-49 68.5t-29 89l-18 87h-4q-18 -45 -52 -94t-82 -88t-110.5 -64.5t-136.5 -25.5q-100 0 -178 41.5 t-132.5 111.5t-82 158t-27.5 180q0 94 31 186.5t87 164t138 116.5t184 45q78 0 133.5 -32.5t94.5 -85t60.5 -117t31.5 -127.5h4l68 342h178zM799 1153q-47 -23 -111 -23q-72 0 -121 51.5t-49 121.5q0 86 50 134t137 48q33 0 60.5 -16.5t27.5 -55.5q0 -68 -78 -67 q-20 0 -30.5 4t-27.5 4q-63 0 -63 -74q0 -47 30.5 -72.5t69.5 -25.5q55 0 90 14zM326 1536q16 88 72.5 147.5t150.5 59.5q41 0 74.5 -14.5l68.5 -30.5q35 -18 69 -32.5t73 -14.5q41 0 69.5 31.5t38.5 60.5h59q-8 -39 -24 -76t-43 -66.5t-63.5 -47t-84.5 -17.5 q-47 0 -84.5 14.5t-72.5 32.5l-65 31q-30 14 -64 14q-47 0 -73 -25.5t-42 -66.5h-59z" />
<glyph unicode="&#x1f10;" horiz-adv-x="909" d="M852 229q-53 -139 -153.5 -194t-247.5 -55q-68 0 -133.5 17t-116.5 52t-82 88t-31 125q0 53 22.5 96t57.5 76t81 53.5t91 26.5v4q-39 4 -82 19.5t-77 42t-56.5 63.5t-22.5 82q0 72 35 121t88.5 79.5t117 44t120.5 13.5q66 0 127 -10t109.5 -31.5t77 -55.5t28.5 -79 q0 -35 -20.5 -57.5t-55.5 -22.5q-47 0 -68.5 32t-42 70.5t-50 70.5t-95.5 32q-84 0 -129 -55.5t-45 -157.5q0 -33 9 -64.5t26.5 -57.5t44.5 -42t61 -16q33 0 55.5 8t41 17t36 16.5t37.5 7.5q31 0 50.5 -18.5t19.5 -51.5q0 -35 -21.5 -52t-50.5 -17q-27 0 -46 6t-35.5 13 t-33 13t-36.5 6q-80 0 -126 -56t-46 -134q0 -111 61.5 -176.5t173.5 -65.5q111 0 174.5 50.5t104.5 148.5zM272 1210q25 -10 52.5 -14t64.5 -4q49 0 91 36t42 95q0 96 -84 96q-23 0 -36 -5t-40 -5q-100 0 -100 88q0 49 36 70.5t77 21.5q111 0 175 -62.5t64 -172.5 q0 -45 -17 -85t-46 -71t-69 -49.5t-85 -18.5q-37 0 -72.5 6.5t-70.5 22.5z" />
<glyph unicode="&#x1f11;" horiz-adv-x="909" d="M852 229q-53 -139 -153.5 -194t-247.5 -55q-68 0 -133.5 17t-116.5 52t-82 88t-31 125q0 53 22.5 96t57.5 76t81 53.5t91 26.5v4q-39 4 -82 19.5t-77 42t-56.5 63.5t-22.5 82q0 72 35 121t88.5 79.5t117 44t120.5 13.5q66 0 127 -10t109.5 -31.5t77 -55.5t28.5 -79 q0 -35 -20.5 -57.5t-55.5 -22.5q-47 0 -68.5 32t-42 70.5t-50 70.5t-95.5 32q-84 0 -129 -55.5t-45 -157.5q0 -33 9 -64.5t26.5 -57.5t44.5 -42t61 -16q33 0 55.5 8t41 17t36 16.5t37.5 7.5q31 0 50.5 -18.5t19.5 -51.5q0 -35 -21.5 -52t-50.5 -17q-27 0 -46 6t-35.5 13 t-33 13t-36.5 6q-80 0 -126 -56t-46 -134q0 -111 61.5 -176.5t173.5 -65.5q111 0 174.5 50.5t104.5 148.5zM614 1159q-35 -16 -70.5 -22.5t-72.5 -6.5q-45 0 -85 18.5t-68.5 49.5t-46 71t-17.5 85q0 111 64.5 173t175.5 62q41 0 76.5 -21.5t35.5 -70.5q0 -88 -100 -88 q-27 0 -40 5t-36 5q-84 0 -84 -96q0 -59 42 -95t91 -36q37 0 64.5 4t52.5 14z" />
<glyph unicode="&#x1f12;" horiz-adv-x="909" d="M852 229q-53 -139 -153.5 -194t-247.5 -55q-68 0 -133.5 17t-116.5 52t-82 88t-31 125q0 53 22.5 96t57.5 76t81 53.5t91 26.5v4q-39 4 -82 19.5t-77 42t-56.5 63.5t-22.5 82q0 72 35 121t88.5 79.5t117 44t120.5 13.5q66 0 127 -10t109.5 -31.5t77 -55.5t28.5 -79 q0 -35 -20.5 -57.5t-55.5 -22.5q-47 0 -68.5 32t-42 70.5t-50 70.5t-95.5 32q-84 0 -129 -55.5t-45 -157.5q0 -33 9 -64.5t26.5 -57.5t44.5 -42t61 -16q33 0 55.5 8t41 17t36 16.5t37.5 7.5q31 0 50.5 -18.5t19.5 -51.5q0 -35 -21.5 -52t-50.5 -17q-27 0 -46 6t-35.5 13 t-33 13t-36.5 6q-80 0 -126 -56t-46 -134q0 -111 61.5 -176.5t173.5 -65.5q111 0 174.5 50.5t104.5 148.5zM557 1401q-16 29 -24.5 47t-8.5 41t18.5 40t53.5 17q41 0 58.5 -19.5t27.5 -66.5l84 -330h-51zM133 1210q23 -10 47.5 -14t59.5 -4q45 0 80.5 28.5t35.5 82.5 q0 86 -73 86q-20 0 -32.5 -5.5t-35.5 -5.5q-92 0 -92 84q0 45 32.5 64.5t71.5 19.5q100 0 161 -56t61 -157q0 -41 -16.5 -77.5t-44.5 -64.5t-64.5 -44.5t-77.5 -16.5q-70 0 -129 27z" />
<glyph unicode="&#x1f13;" horiz-adv-x="909" d="M852 229q-53 -139 -153.5 -194t-247.5 -55q-68 0 -133.5 17t-116.5 52t-82 88t-31 125q0 53 22.5 96t57.5 76t81 53.5t91 26.5v4q-39 4 -82 19.5t-77 42t-56.5 63.5t-22.5 82q0 72 35 121t88.5 79.5t117 44t120.5 13.5q66 0 127 -10t109.5 -31.5t77 -55.5t28.5 -79 q0 -35 -20.5 -57.5t-55.5 -22.5q-47 0 -68.5 32t-42 70.5t-50 70.5t-95.5 32q-84 0 -129 -55.5t-45 -157.5q0 -33 9 -64.5t26.5 -57.5t44.5 -42t61 -16q33 0 55.5 8t41 17t36 16.5t37.5 7.5q31 0 50.5 -18.5t19.5 -51.5q0 -35 -21.5 -52t-50.5 -17q-27 0 -46 6t-35.5 13 t-33 13t-36.5 6q-80 0 -126 -56t-46 -134q0 -111 61.5 -176.5t173.5 -65.5q111 0 174.5 50.5t104.5 148.5zM461 1157q-59 -27 -129 -27q-41 0 -78 16.5t-64.5 44.5t-44 64.5t-16.5 77.5q0 100 60.5 156.5t160.5 56.5q39 0 72 -19.5t33 -64.5q0 -84 -93 -84q-23 0 -35 5.5 t-32 5.5q-74 0 -74 -86q0 -53 36 -82t81 -29q35 0 59.5 4t46.5 14zM555 1401q-16 29 -24.5 47t-8.5 41t18.5 40t53.5 17q41 0 58.5 -19.5t27.5 -66.5l84 -330h-51z" />
<glyph unicode="&#x1f14;" horiz-adv-x="909" d="M852 229q-53 -139 -153.5 -194t-247.5 -55q-68 0 -133.5 17t-116.5 52t-82 88t-31 125q0 53 22.5 96t57.5 76t81 53.5t91 26.5v4q-39 4 -82 19.5t-77 42t-56.5 63.5t-22.5 82q0 72 35 121t88.5 79.5t117 44t120.5 13.5q66 0 127 -10t109.5 -31.5t77 -55.5t28.5 -79 q0 -35 -20.5 -57.5t-55.5 -22.5q-47 0 -68.5 32t-42 70.5t-50 70.5t-95.5 32q-84 0 -129 -55.5t-45 -157.5q0 -33 9 -64.5t26.5 -57.5t44.5 -42t61 -16q33 0 55.5 8t41 17t36 16.5t37.5 7.5q31 0 50.5 -18.5t19.5 -51.5q0 -35 -21.5 -52t-50.5 -17q-27 0 -46 6t-35.5 13 t-33 13t-36.5 6q-80 0 -126 -56t-46 -134q0 -111 61.5 -176.5t173.5 -65.5q111 0 174.5 50.5t104.5 148.5zM207 1210q23 -10 47.5 -14t58.5 -4q45 0 81 28.5t36 82.5q0 86 -74 86q-20 0 -32.5 -5.5t-34.5 -5.5q-92 0 -92 84q0 45 32.5 64.5t71.5 19.5q100 0 160.5 -56 t60.5 -157q0 -41 -16.5 -77.5t-44 -64.5t-64.5 -44.5t-78 -16.5q-70 0 -129 27zM682 1460q10 47 27.5 66.5t58.5 19.5q35 0 53.5 -17.5t18.5 -39.5q0 -23 -8.5 -41t-24.5 -47l-158 -271h-51z" />
<glyph unicode="&#x1f15;" horiz-adv-x="909" d="M852 229q-53 -139 -153.5 -194t-247.5 -55q-68 0 -133.5 17t-116.5 52t-82 88t-31 125q0 53 22.5 96t57.5 76t81 53.5t91 26.5v4q-39 4 -82 19.5t-77 42t-56.5 63.5t-22.5 82q0 72 35 121t88.5 79.5t117 44t120.5 13.5q66 0 127 -10t109.5 -31.5t77 -55.5t28.5 -79 q0 -35 -20.5 -57.5t-55.5 -22.5q-47 0 -68.5 32t-42 70.5t-50 70.5t-95.5 32q-84 0 -129 -55.5t-45 -157.5q0 -33 9 -64.5t26.5 -57.5t44.5 -42t61 -16q33 0 55.5 8t41 17t36 16.5t37.5 7.5q31 0 50.5 -18.5t19.5 -51.5q0 -35 -21.5 -52t-50.5 -17q-27 0 -46 6t-35.5 13 t-33 13t-36.5 6q-80 0 -126 -56t-46 -134q0 -111 61.5 -176.5t173.5 -65.5q111 0 174.5 50.5t104.5 148.5zM668 1460q10 47 27.5 66.5t58.5 19.5q35 0 53 -17.5t18 -39.5q0 -23 -8 -41t-24 -47l-158 -271h-51zM508 1157q-59 -27 -129 -27q-41 0 -78 16.5t-64.5 44.5 t-44 64.5t-16.5 77.5q0 100 60.5 156.5t160.5 56.5q39 0 72 -19.5t33 -64.5q0 -84 -92 -84q-23 0 -35.5 5.5t-32.5 5.5q-74 0 -74 -86q0 -53 36 -82t81 -29q35 0 59.5 4t47.5 14z" />
<glyph unicode="&#x1f20;" d="M252 766q0 68 -14.5 99.5t-55.5 31.5q-33 0 -50 -26.5t-26.5 -62.5t-11.5 -72t-2 -54h-51q0 45 6 97t25.5 97.5t58.5 76t105 30.5q68 0 104.5 -28.5t55 -77t23.5 -112t7 -132.5h6q10 51 31.5 111.5t58.5 113.5t90.5 89t128.5 36q68 0 118 -18.5t85 -60.5t52.5 -110.5 t17.5 -168.5v-1102h-180v1173q0 109 -36 160t-96 51q-76 0 -128 -61.5t-83.5 -146.5t-45 -172t-13.5 -138v-389h-180v766zM430 1210q25 -10 52.5 -14t64.5 -4q49 0 91 36t42 95q0 96 -84 96q-23 0 -36 -5t-40 -5q-100 0 -100 88q0 49 36 70.5t76 21.5q111 0 175.5 -62.5 t64.5 -172.5q0 -45 -17.5 -85t-46 -71t-68.5 -49.5t-85 -18.5q-37 0 -73 6.5t-70 22.5z" />
<glyph unicode="&#x1f21;" d="M252 766q0 68 -14.5 99.5t-55.5 31.5q-33 0 -50 -26.5t-26.5 -62.5t-11.5 -72t-2 -54h-51q0 45 6 97t25.5 97.5t58.5 76t105 30.5q68 0 104.5 -28.5t55 -77t23.5 -112t7 -132.5h6q10 51 31.5 111.5t58.5 113.5t90.5 89t128.5 36q68 0 118 -18.5t85 -60.5t52.5 -110.5 t17.5 -168.5v-1102h-180v1173q0 109 -36 160t-96 51q-76 0 -128 -61.5t-83.5 -146.5t-45 -172t-13.5 -138v-389h-180v766zM772 1159q-35 -16 -70.5 -22.5t-72.5 -6.5q-45 0 -85 18.5t-69 49.5t-46 71t-17 85q0 111 64.5 173t174.5 62q41 0 77 -21.5t36 -70.5q0 -88 -100 -88 q-27 0 -40.5 5t-35.5 5q-84 0 -84 -96q0 -59 42 -95t91 -36q37 0 64.5 4t52.5 14z" />
<glyph unicode="&#x1f22;" d="M252 766q0 68 -14.5 99.5t-55.5 31.5q-33 0 -50 -26.5t-26.5 -62.5t-11.5 -72t-2 -54h-51q0 45 6 97t25.5 97.5t58.5 76t105 30.5q68 0 104.5 -28.5t55 -77t23.5 -112t7 -132.5h6q10 51 31.5 111.5t58.5 113.5t90.5 89t128.5 36q68 0 118 -18.5t85 -60.5t52.5 -110.5 t17.5 -168.5v-1102h-180v1173q0 109 -36 160t-96 51q-76 0 -128 -61.5t-83.5 -146.5t-45 -172t-13.5 -138v-389h-180v766zM672 1401q-16 29 -24.5 47t-8.5 41t18.5 40t53.5 17q41 0 58 -19.5t28 -66.5l84 -330h-52zM248 1210q23 -10 47 -14t59 -4q45 0 81 28.5t36 82.5 q0 86 -74 86q-20 0 -32.5 -5.5t-34.5 -5.5q-92 0 -92 84q0 45 32.5 64.5t71.5 19.5q100 0 160.5 -56t60.5 -157q0 -41 -16.5 -77.5t-44 -64.5t-64.5 -44.5t-78 -16.5q-70 0 -129 27z" />
<glyph unicode="&#x1f23;" d="M252 766q0 68 -14.5 99.5t-55.5 31.5q-33 0 -50 -26.5t-26.5 -62.5t-11.5 -72t-2 -54h-51q0 45 6 97t25.5 97.5t58.5 76t105 30.5q68 0 104.5 -28.5t55 -77t23.5 -112t7 -132.5h6q10 51 31.5 111.5t58.5 113.5t90.5 89t128.5 36q68 0 118 -18.5t85 -60.5t52.5 -110.5 t17.5 -168.5v-1102h-180v1173q0 109 -36 160t-96 51q-76 0 -128 -61.5t-83.5 -146.5t-45 -172t-13.5 -138v-389h-180v766zM578 1157q-59 -27 -129 -27q-41 0 -78 16.5t-64.5 44.5t-44 64.5t-16.5 77.5q0 100 60.5 156.5t160.5 56.5q39 0 71.5 -19.5t32.5 -64.5 q0 -84 -92 -84q-23 0 -35 5.5t-32 5.5q-74 0 -74 -86q0 -53 36 -82t81 -29q35 0 59.5 4t46.5 14zM672 1401q-16 29 -24.5 47t-8.5 41t18.5 40t53.5 17q41 0 58 -19.5t28 -66.5l84 -330h-52z" />
<glyph unicode="&#x1f24;" d="M252 766q0 68 -14.5 99.5t-55.5 31.5q-33 0 -50 -26.5t-26.5 -62.5t-11.5 -72t-2 -54h-51q0 45 6 97t25.5 97.5t58.5 76t105 30.5q68 0 104.5 -28.5t55 -77t23.5 -112t7 -132.5h6q10 51 31.5 111.5t58.5 113.5t90.5 89t128.5 36q68 0 118 -18.5t85 -60.5t52.5 -110.5 t17.5 -168.5v-1102h-180v1173q0 109 -36 160t-96 51q-76 0 -128 -61.5t-83.5 -146.5t-45 -172t-13.5 -138v-389h-180v766zM311 1210q23 -10 47.5 -14t59.5 -4q45 0 81 28.5t36 82.5q0 86 -74 86q-20 0 -32.5 -5.5t-35.5 -5.5q-92 0 -92 84q0 45 33 64.5t72 19.5 q100 0 160.5 -56t60.5 -157q0 -41 -16.5 -77.5t-44 -64.5t-64.5 -44.5t-78 -16.5q-70 0 -129 27zM786 1460q10 47 27.5 66.5t58.5 19.5q35 0 53.5 -17.5t18.5 -39.5q0 -23 -8 -41t-25 -47l-157 -271h-52z" />
<glyph unicode="&#x1f25;" d="M252 766q0 68 -14.5 99.5t-55.5 31.5q-33 0 -50 -26.5t-26.5 -62.5t-11.5 -72t-2 -54h-51q0 45 6 97t25.5 97.5t58.5 76t105 30.5q68 0 104.5 -28.5t55 -77t23.5 -112t7 -132.5h6q10 51 31.5 111.5t58.5 113.5t90.5 89t128.5 36q68 0 118 -18.5t85 -60.5t52.5 -110.5 t17.5 -168.5v-1102h-180v1173q0 109 -36 160t-96 51q-76 0 -128 -61.5t-83.5 -146.5t-45 -172t-13.5 -138v-389h-180v766zM772 1460q10 47 27.5 66.5t58.5 19.5q35 0 53.5 -17.5t18.5 -39.5q0 -23 -8.5 -41t-24.5 -47l-158 -271h-51zM612 1157q-59 -27 -129 -27 q-41 0 -77.5 16.5t-64.5 44.5t-44 64.5t-16 77.5q0 100 60 156.5t161 56.5q39 0 71.5 -19.5t32.5 -64.5q0 -84 -92 -84q-23 0 -35 5.5t-33 5.5q-74 0 -73 -86q0 -53 35.5 -82t80.5 -29q35 0 59.5 4t47.5 14z" />
<glyph unicode="&#x1f26;" d="M252 766q0 68 -14.5 99.5t-55.5 31.5q-33 0 -50 -26.5t-26.5 -62.5t-11.5 -72t-2 -54h-51q0 45 6 97t25.5 97.5t58.5 76t105 30.5q68 0 104.5 -28.5t55 -77t23.5 -112t7 -132.5h6q10 51 31.5 111.5t58.5 113.5t90.5 89t128.5 36q68 0 118 -18.5t85 -60.5t52.5 -110.5 t17.5 -168.5v-1102h-180v1173q0 109 -36 160t-96 51q-76 0 -128 -61.5t-83.5 -146.5t-45 -172t-13.5 -138v-389h-180v766zM471 1196q35 -14 90 -14q39 0 70 25.5t31 72.5q0 74 -64 74q-16 0 -26.5 -4t-30.5 -4q-78 0 -78 67q0 39 27.5 55.5t60.5 16.5q86 0 136 -48t50 -134 q0 -70 -49 -121.5t-121 -51.5q-63 0 -110 23zM254 1536q16 88 72.5 147.5t150.5 59.5q41 0 75 -14.5l69 -30.5q35 -18 68.5 -32.5t72.5 -14.5q41 0 69.5 31.5t38.5 60.5h60q-8 -39 -24.5 -76t-43 -66.5t-63.5 -47t-84 -17.5t-85 14.5t-73 32.5l-64 31q-30 14 -65 14 q-47 0 -72.5 -25.5t-42.5 -66.5h-59z" />
<glyph unicode="&#x1f27;" d="M252 766q0 68 -14.5 99.5t-55.5 31.5q-33 0 -50 -26.5t-26.5 -62.5t-11.5 -72t-2 -54h-51q0 45 6 97t25.5 97.5t58.5 76t105 30.5q68 0 104.5 -28.5t55 -77t23.5 -112t7 -132.5h6q10 51 31.5 111.5t58.5 113.5t90.5 89t128.5 36q68 0 118 -18.5t85 -60.5t52.5 -110.5 t17.5 -168.5v-1102h-180v1173q0 109 -36 160t-96 51q-76 0 -128 -61.5t-83.5 -146.5t-45 -172t-13.5 -138v-389h-180v766zM727 1153q-47 -23 -111 -23q-72 0 -121 51.5t-49 121.5q0 86 50.5 134t136.5 48q33 0 60.5 -16.5t27.5 -55.5q0 -68 -78 -67q-20 0 -30.5 4t-26.5 4 q-63 0 -64 -74q0 -47 31 -72.5t70 -25.5q55 0 90 14zM254 1536q16 88 72.5 147.5t150.5 59.5q41 0 75 -14.5l69 -30.5q35 -18 68.5 -32.5t72.5 -14.5q41 0 69.5 31.5t38.5 60.5h60q-8 -39 -24.5 -76t-43 -66.5t-63.5 -47t-84 -17.5t-85 14.5t-73 32.5l-64 31q-30 14 -65 14 q-47 0 -72.5 -25.5t-42.5 -66.5h-59z" />
<glyph unicode="&#x1f30;" horiz-adv-x="569" d="M305 154q0 -41 25.5 -70t68.5 -29q55 0 85 44t30 106v104h51v-71q0 -123 -47 -190.5t-174 -67.5q-100 0 -159.5 53t-59.5 192v738h180v-809zM84 1210q25 -10 52.5 -14t64.5 -4q49 0 91 36t42 95q0 96 -84 96q-23 0 -36 -5t-40 -5q-100 0 -100 88q0 49 35.5 70.5 t76.5 21.5q111 0 175.5 -62.5t64.5 -172.5q0 -45 -17.5 -85t-46 -71t-68.5 -49.5t-85 -18.5q-37 0 -73 6.5t-70 22.5z" />
<glyph unicode="&#x1f31;" horiz-adv-x="569" d="M305 154q0 -41 25.5 -70t68.5 -29q55 0 85 44t30 106v104h51v-71q0 -123 -47 -190.5t-174 -67.5q-100 0 -159.5 53t-59.5 192v738h180v-809zM418 1159q-35 -16 -71 -22.5t-73 -6.5q-45 0 -84.5 18.5t-68.5 49.5t-46.5 71t-17.5 85q0 111 64.5 173t175.5 62q41 0 77 -21.5 t36 -70.5q0 -88 -101 -88q-27 0 -40 5t-36 5q-84 0 -83 -96q0 -59 41.5 -95t91.5 -36q37 0 64.5 4t51.5 14z" />
<glyph unicode="&#x1f32;" horiz-adv-x="569" d="M305 154q0 -41 25.5 -70t68.5 -29q55 0 85 44t30 106v104h51v-71q0 -123 -47 -190.5t-174 -67.5q-100 0 -159.5 53t-59.5 192v738h180v-809zM403 1401q-16 29 -24 47t-8 41t18.5 40t52.5 17q41 0 58.5 -19.5t27.5 -66.5l84 -330h-51zM-20 1210q23 -10 47 -14t59 -4 q45 0 81 28.5t36 82.5q0 86 -74 86q-20 0 -32.5 -5.5t-35.5 -5.5q-92 0 -92 84q0 45 33 64.5t72 19.5q100 0 160.5 -56t60.5 -157q0 -41 -16.5 -77.5t-44 -64.5t-64.5 -44.5t-78 -16.5q-70 0 -129 27z" />
<glyph unicode="&#x1f33;" horiz-adv-x="569" d="M305 154q0 -41 25.5 -70t68.5 -29q55 0 85 44t30 106v104h51v-71q0 -123 -47 -190.5t-174 -67.5q-100 0 -159.5 53t-59.5 192v738h180v-809zM264 1157q-59 -27 -129 -27q-41 0 -78 16.5t-64.5 44.5t-44 64.5t-16.5 77.5q0 100 60.5 156.5t161.5 56.5q39 0 71.5 -19.5 t32.5 -64.5q0 -84 -92 -84q-23 0 -35 5.5t-33 5.5q-74 0 -73 -86q0 -53 35.5 -82t80.5 -29q35 0 59.5 4t47.5 14zM358 1401q-16 29 -24 47t-8 41t18 40t53 17q41 0 58.5 -19.5t27.5 -66.5l84 -330h-51z" />
<glyph unicode="&#x1f34;" horiz-adv-x="569" d="M305 154q0 -41 25.5 -70t68.5 -29q55 0 85 44t30 106v104h51v-71q0 -123 -47 -190.5t-174 -67.5q-100 0 -159.5 53t-59.5 192v738h180v-809zM-20 1210q23 -10 47 -14t59 -4q45 0 81 28.5t36 82.5q0 86 -74 86q-20 0 -32.5 -5.5t-35.5 -5.5q-92 0 -92 84q0 45 33 64.5 t72 19.5q100 0 160.5 -56t60.5 -157q0 -41 -16.5 -77.5t-44 -64.5t-64.5 -44.5t-78 -16.5q-70 0 -129 27zM455 1460q10 47 27.5 66.5t58.5 19.5q35 0 53 -17.5t18 -39.5q0 -23 -8 -41t-24 -47l-158 -271h-51z" />
<glyph unicode="&#x1f35;" horiz-adv-x="569" d="M305 154q0 -41 25.5 -70t68.5 -29q55 0 85 44t30 106v104h51v-71q0 -123 -47 -190.5t-174 -67.5q-100 0 -159.5 53t-59.5 192v738h180v-809zM465 1460q10 47 27.5 66.5t58.5 19.5q35 0 53.5 -17.5t18.5 -39.5q0 -23 -8.5 -41t-24.5 -47l-158 -271h-51zM305 1157 q-59 -27 -129 -27q-41 0 -78 16.5t-64.5 44.5t-44 64.5t-16.5 77.5q0 100 60.5 156.5t161.5 56.5q39 0 71.5 -19.5t32.5 -64.5q0 -84 -92 -84q-23 0 -35 5.5t-33 5.5q-74 0 -73 -86q0 -53 35.5 -82t80.5 -29q35 0 59.5 4t47.5 14z" />
<glyph unicode="&#x1f36;" horiz-adv-x="569" d="M305 154q0 -41 25.5 -70t68.5 -29q55 0 85 44t30 106v104h51v-71q0 -123 -47 -190.5t-174 -67.5q-100 0 -159.5 53t-59.5 192v738h180v-809zM139 1196q35 -14 90 -14q39 0 70 25.5t31 72.5q0 74 -64 74q-16 0 -26.5 -4t-30.5 -4q-78 0 -78 67q0 39 27.5 55.5t60.5 16.5 q86 0 136.5 -48t50.5 -134q0 -70 -49.5 -121.5t-120.5 -51.5q-63 0 -111 23zM-78 1536q16 88 72.5 147.5t150.5 59.5q41 0 75 -14.5l69 -30.5q35 -18 68.5 -32.5t72.5 -14.5q41 0 69.5 31.5t39.5 60.5h59q-8 -39 -24.5 -76t-43 -66.5t-63.5 -47t-84 -17.5t-85 14.5t-73 32.5 l-64 31q-30 14 -65 14q-47 0 -72.5 -25.5t-41.5 -66.5h-60z" />
<glyph unicode="&#x1f37;" horiz-adv-x="569" d="M305 154q0 -41 25.5 -70t68.5 -29q55 0 85 44t30 106v104h51v-71q0 -123 -47 -190.5t-174 -67.5q-100 0 -159.5 53t-59.5 192v738h180v-809zM383 1153q-47 -23 -111 -23q-72 0 -121 51.5t-49 121.5q0 86 50.5 134t136.5 48q33 0 60.5 -16.5t27.5 -55.5q0 -68 -78 -67 q-20 0 -30.5 4t-26.5 4q-63 0 -64 -74q0 -47 31 -72.5t70 -25.5q55 0 90 14zM-90 1536q16 88 72.5 147.5t150.5 59.5q41 0 75 -14.5l68 -30.5q35 -18 69 -32.5t73 -14.5q41 0 69.5 31.5t38.5 60.5h60q-8 -39 -24.5 -76t-43 -66.5t-63.5 -47t-84 -17.5t-85 14.5t-73 32.5 l-65 31q-30 14 -64 14q-47 0 -72.5 -25.5t-42.5 -66.5h-59z" />
<glyph unicode="&#x1f40;" d="M274 549q0 -74 16.5 -163t55.5 -166t102.5 -128t157.5 -51q68 0 117 35t81 87t46 114.5t14 119.5q0 82 -13 174.5t-49 170t-96.5 129t-152.5 51.5q-78 0 -131 -33t-86 -85t-47.5 -119.5t-14.5 -135.5zM78 477q0 104 37 195.5t103.5 161t155.5 109.5t193 40q117 0 209 -36 t155.5 -101.5t96.5 -158.5t33 -210q0 -104 -38 -195.5t-104.5 -158t-156.5 -105t-195 -38.5q-106 0 -198.5 37.5t-158 104t-101 158t-31.5 197.5zM408 1210q25 -10 52 -14t64 -4q49 0 91 36t42 95q0 96 -84 96q-23 0 -36 -5t-39 -5q-100 0 -101 88q0 49 36 70.5t77 21.5 q111 0 175.5 -62.5t64.5 -172.5q0 -45 -17.5 -85t-46.5 -71t-68.5 -49.5t-85.5 -18.5q-37 0 -72.5 6.5t-70.5 22.5z" />
<glyph unicode="&#x1f41;" d="M274 549q0 -74 16.5 -163t55.5 -166t102.5 -128t157.5 -51q68 0 117 35t81 87t46 114.5t14 119.5q0 82 -13 174.5t-49 170t-96.5 129t-152.5 51.5q-78 0 -131 -33t-86 -85t-47.5 -119.5t-14.5 -135.5zM78 477q0 104 37 195.5t103.5 161t155.5 109.5t193 40q117 0 209 -36 t155.5 -101.5t96.5 -158.5t33 -210q0 -104 -38 -195.5t-104.5 -158t-156.5 -105t-195 -38.5q-106 0 -198.5 37.5t-158 104t-101 158t-31.5 197.5zM750 1159q-35 -16 -71 -22.5t-73 -6.5q-45 0 -85 18.5t-68.5 49.5t-46 71t-17.5 85q0 111 64.5 173t175.5 62q41 0 76.5 -21.5 t35.5 -70.5q0 -88 -100 -88q-27 0 -40 5t-36 5q-84 0 -84 -96q0 -59 42 -95t91 -36q37 0 65 4t52 14z" />
<glyph unicode="&#x1f42;" d="M274 549q0 -74 16.5 -163t55.5 -166t102.5 -128t157.5 -51q68 0 117 35t81 87t46 114.5t14 119.5q0 82 -13 174.5t-49 170t-96.5 129t-152.5 51.5q-78 0 -131 -33t-86 -85t-47.5 -119.5t-14.5 -135.5zM78 477q0 104 37 195.5t103.5 161t155.5 109.5t193 40q117 0 209 -36 t155.5 -101.5t96.5 -158.5t33 -210q0 -104 -38 -195.5t-104.5 -158t-156.5 -105t-195 -38.5q-106 0 -198.5 37.5t-158 104t-101 158t-31.5 197.5zM655 1401q-16 29 -24 47t-8 41t18 40t53 17q41 0 58.5 -19.5t27.5 -66.5l84 -330h-51zM231 1210q23 -10 47.5 -14t59.5 -4 q45 0 81 28.5t36 82.5q0 86 -74 86q-20 0 -32.5 -5.5t-35.5 -5.5q-92 0 -92 84q0 45 33 64.5t72 19.5q100 0 160.5 -56t60.5 -157q0 -41 -16.5 -77.5t-44 -64.5t-64.5 -44.5t-78 -16.5q-70 0 -129 27z" />
<glyph unicode="&#x1f43;" d="M274 549q0 -74 16.5 -163t55.5 -166t102.5 -128t157.5 -51q68 0 117 35t81 87t46 114.5t14 119.5q0 82 -13 174.5t-49 170t-96.5 129t-152.5 51.5q-78 0 -131 -33t-86 -85t-47.5 -119.5t-14.5 -135.5zM78 477q0 104 37 195.5t103.5 161t155.5 109.5t193 40q117 0 209 -36 t155.5 -101.5t96.5 -158.5t33 -210q0 -104 -38 -195.5t-104.5 -158t-156.5 -105t-195 -38.5q-106 0 -198.5 37.5t-158 104t-101 158t-31.5 197.5zM555 1157q-59 -27 -129 -27q-41 0 -78 16.5t-64.5 44.5t-44 64.5t-16.5 77.5q0 100 60.5 156.5t160.5 56.5q39 0 72 -19.5 t33 -64.5q0 -84 -92 -84q-23 0 -35 5.5t-33 5.5q-74 0 -74 -86q0 -53 36 -82t81 -29q35 0 59.5 4t47.5 14zM649 1401q-16 29 -24.5 47t-8.5 41t18.5 40t53.5 17q41 0 58.5 -19.5t27.5 -66.5l84 -330h-51z" />
<glyph unicode="&#x1f44;" d="M274 549q0 -74 16.5 -163t55.5 -166t102.5 -128t157.5 -51q68 0 117 35t81 87t46 114.5t14 119.5q0 82 -13 174.5t-49 170t-96.5 129t-152.5 51.5q-78 0 -131 -33t-86 -85t-47.5 -119.5t-14.5 -135.5zM78 477q0 104 37 195.5t103.5 161t155.5 109.5t193 40q117 0 209 -36 t155.5 -101.5t96.5 -158.5t33 -210q0 -104 -38 -195.5t-104.5 -158t-156.5 -105t-195 -38.5q-106 0 -198.5 37.5t-158 104t-101 158t-31.5 197.5zM281 1210q23 -10 47 -14t59 -4q45 0 81 28.5t36 82.5q0 86 -74 86q-20 0 -32.5 -5.5t-35.5 -5.5q-92 0 -92 84q0 45 33 64.5 t72 19.5q100 0 160.5 -56t60.5 -157q0 -41 -16.5 -77.5t-44 -64.5t-64.5 -44.5t-78 -16.5q-70 0 -129 27zM756 1460q10 47 27.5 66.5t58.5 19.5q35 0 53 -17.5t18 -39.5q0 -23 -8 -41t-24 -47l-158 -271h-51z" />
<glyph unicode="&#x1f45;" d="M274 549q0 -74 16.5 -163t55.5 -166t102.5 -128t157.5 -51q68 0 117 35t81 87t46 114.5t14 119.5q0 82 -13 174.5t-49 170t-96.5 129t-152.5 51.5q-78 0 -131 -33t-86 -85t-47.5 -119.5t-14.5 -135.5zM78 477q0 104 37 195.5t103.5 161t155.5 109.5t193 40q117 0 209 -36 t155.5 -101.5t96.5 -158.5t33 -210q0 -104 -38 -195.5t-104.5 -158t-156.5 -105t-195 -38.5q-106 0 -198.5 37.5t-158 104t-101 158t-31.5 197.5zM709 1460q10 47 27.5 66.5t58.5 19.5q35 0 53 -17.5t18 -39.5q0 -23 -8 -41t-24 -47l-158 -271h-51zM549 1157 q-59 -27 -129 -27q-41 0 -78 16.5t-64.5 44.5t-44 64.5t-16.5 77.5q0 100 60.5 156.5t160.5 56.5q39 0 72 -19.5t33 -64.5q0 -84 -92 -84q-23 0 -35.5 5.5t-32.5 5.5q-74 0 -74 -86q0 -53 36 -82t81 -29q35 0 59.5 4t46.5 14z" />
<glyph unicode="&#x1f50;" d="M41 711q0 53 7 102t28.5 87t61.5 60.5t104 22.5q100 0 153.5 -81t53.5 -197q0 -25 -2.5 -70l-5.5 -99l-6 -114q-3 -59 -3 -115q0 -133 45 -192.5t139 -59.5q45 0 94.5 21.5t91.5 65.5t68.5 110.5t26.5 159.5q0 63 -20.5 122.5t-45 116t-45 112.5t-20.5 114 q0 39 21.5 72.5t68.5 33.5q29 0 53.5 -14.5t42 -51t27.5 -101t10 -165.5q0 -61 -5 -136t-20.5 -149.5t-43 -144t-73.5 -123t-112.5 -86t-159.5 -32.5q-150 0 -236.5 90t-86.5 252q0 109 3 186.5t6 132.5l5 89t2 54q0 61 -19.5 92t-53.5 31q-33 0 -52.5 -19.5t-31 -49 t-15.5 -64.5t-4 -63h-51zM408 1210q25 -10 52 -14t64 -4q49 0 91 36t42 95q0 96 -84 96q-23 0 -36 -5t-39 -5q-100 0 -101 88q0 49 36 70.5t77 21.5q111 0 175.5 -62.5t64.5 -172.5q0 -45 -17.5 -85t-46.5 -71t-68.5 -49.5t-85.5 -18.5q-37 0 -72.5 6.5t-70.5 22.5z" />
<glyph unicode="&#x1f51;" d="M41 711q0 53 7 102t28.5 87t61.5 60.5t104 22.5q100 0 153.5 -81t53.5 -197q0 -25 -2.5 -70l-5.5 -99l-6 -114q-3 -59 -3 -115q0 -133 45 -192.5t139 -59.5q45 0 94.5 21.5t91.5 65.5t68.5 110.5t26.5 159.5q0 63 -20.5 122.5t-45 116t-45 112.5t-20.5 114 q0 39 21.5 72.5t68.5 33.5q29 0 53.5 -14.5t42 -51t27.5 -101t10 -165.5q0 -61 -5 -136t-20.5 -149.5t-43 -144t-73.5 -123t-112.5 -86t-159.5 -32.5q-150 0 -236.5 90t-86.5 252q0 109 3 186.5t6 132.5l5 89t2 54q0 61 -19.5 92t-53.5 31q-33 0 -52.5 -19.5t-31 -49 t-15.5 -64.5t-4 -63h-51zM750 1159q-35 -16 -71 -22.5t-73 -6.5q-45 0 -85 18.5t-68.5 49.5t-46 71t-17.5 85q0 111 64.5 173t175.5 62q41 0 76.5 -21.5t35.5 -70.5q0 -88 -100 -88q-27 0 -40 5t-36 5q-84 0 -84 -96q0 -59 42 -95t91 -36q37 0 65 4t52 14z" />
<glyph unicode="&#x1f52;" d="M41 711q0 53 7 102t28.5 87t61.5 60.5t104 22.5q100 0 153.5 -81t53.5 -197q0 -25 -2.5 -70l-5.5 -99l-6 -114q-3 -59 -3 -115q0 -133 45 -192.5t139 -59.5q45 0 94.5 21.5t91.5 65.5t68.5 110.5t26.5 159.5q0 63 -20.5 122.5t-45 116t-45 112.5t-20.5 114 q0 39 21.5 72.5t68.5 33.5q29 0 53.5 -14.5t42 -51t27.5 -101t10 -165.5q0 -61 -5 -136t-20.5 -149.5t-43 -144t-73.5 -123t-112.5 -86t-159.5 -32.5q-150 0 -236.5 90t-86.5 252q0 109 3 186.5t6 132.5l5 89t2 54q0 61 -19.5 92t-53.5 31q-33 0 -52.5 -19.5t-31 -49 t-15.5 -64.5t-4 -63h-51zM621 1401q-16 29 -24.5 47t-8.5 41t18.5 40t52.5 17q41 0 58.5 -19.5t27.5 -66.5l84 -330h-51zM197 1210q23 -10 47 -14t59 -4q45 0 81 28.5t36 82.5q0 86 -74 86q-20 0 -32.5 -5.5t-34.5 -5.5q-92 0 -93 84q0 45 33 64.5t72 19.5q100 0 160.5 -56 t60.5 -157q0 -41 -16.5 -77.5t-44 -64.5t-64.5 -44.5t-78 -16.5q-70 0 -129 27z" />
<glyph unicode="&#x1f53;" d="M41 711q0 53 7 102t28.5 87t61.5 60.5t104 22.5q100 0 153.5 -81t53.5 -197q0 -25 -2.5 -70l-5.5 -99l-6 -114q-3 -59 -3 -115q0 -133 45 -192.5t139 -59.5q45 0 94.5 21.5t91.5 65.5t68.5 110.5t26.5 159.5q0 63 -20.5 122.5t-45 116t-45 112.5t-20.5 114 q0 39 21.5 72.5t68.5 33.5q29 0 53.5 -14.5t42 -51t27.5 -101t10 -165.5q0 -61 -5 -136t-20.5 -149.5t-43 -144t-73.5 -123t-112.5 -86t-159.5 -32.5q-150 0 -236.5 90t-86.5 252q0 109 3 186.5t6 132.5l5 89t2 54q0 61 -19.5 92t-53.5 31q-33 0 -52.5 -19.5t-31 -49 t-15.5 -64.5t-4 -63h-51zM555 1157q-59 -27 -129 -27q-41 0 -78 16.5t-64.5 44.5t-44 64.5t-16.5 77.5q0 100 60.5 156.5t160.5 56.5q39 0 72 -19.5t33 -64.5q0 -84 -92 -84q-23 0 -35 5.5t-33 5.5q-74 0 -74 -86q0 -53 36 -82t81 -29q35 0 59.5 4t47.5 14zM649 1401 q-16 29 -24.5 47t-8.5 41t18.5 40t53.5 17q41 0 58.5 -19.5t27.5 -66.5l84 -330h-51z" />
<glyph unicode="&#x1f54;" d="M41 711q0 53 7 102t28.5 87t61.5 60.5t104 22.5q100 0 153.5 -81t53.5 -197q0 -25 -2.5 -70l-5.5 -99l-6 -114q-3 -59 -3 -115q0 -133 45 -192.5t139 -59.5q45 0 94.5 21.5t91.5 65.5t68.5 110.5t26.5 159.5q0 63 -20.5 122.5t-45 116t-45 112.5t-20.5 114 q0 39 21.5 72.5t68.5 33.5q29 0 53.5 -14.5t42 -51t27.5 -101t10 -165.5q0 -61 -5 -136t-20.5 -149.5t-43 -144t-73.5 -123t-112.5 -86t-159.5 -32.5q-150 0 -236.5 90t-86.5 252q0 109 3 186.5t6 132.5l5 89t2 54q0 61 -19.5 92t-53.5 31q-33 0 -52.5 -19.5t-31 -49 t-15.5 -64.5t-4 -63h-51zM309 1192q31 0 61.5 5t55.5 17.5t39 36t14 60.5t-16.5 58.5t-52.5 21.5h-52q-47 0 -60 22.5t-13 59.5q0 43 24.5 58t65.5 15q47 0 80.5 -17.5t56.5 -47t33 -66.5t10 -74q0 -117 -65.5 -164t-186.5 -47zM696 1460q10 47 27.5 66.5t58.5 19.5 q35 0 53.5 -17.5t18.5 -39.5q0 -23 -8 -41t-25 -47l-157 -271h-52z" />
<glyph unicode="&#x1f55;" d="M41 711q0 53 7 102t28.5 87t61.5 60.5t104 22.5q100 0 153.5 -81t53.5 -197q0 -25 -2.5 -70l-5.5 -99l-6 -114q-3 -59 -3 -115q0 -133 45 -192.5t139 -59.5q45 0 94.5 21.5t91.5 65.5t68.5 110.5t26.5 159.5q0 63 -20.5 122.5t-45 116t-45 112.5t-20.5 114 q0 39 21.5 72.5t68.5 33.5q29 0 53.5 -14.5t42 -51t27.5 -101t10 -165.5q0 -61 -5 -136t-20.5 -149.5t-43 -144t-73.5 -123t-112.5 -86t-159.5 -32.5q-150 0 -236.5 90t-86.5 252q0 109 3 186.5t6 132.5l5 89t2 54q0 61 -19.5 92t-53.5 31q-33 0 -52.5 -19.5t-31 -49 t-15.5 -64.5t-4 -63h-51zM735 1460q10 47 27.5 66.5t58.5 19.5q35 0 53.5 -17.5t18.5 -39.5q0 -23 -8 -41t-25 -47l-158 -271h-51zM575 1157q-59 -27 -129 -27q-41 0 -77.5 16.5t-64.5 44.5t-44 64.5t-16 77.5q0 100 60.5 156.5t160.5 56.5q39 0 71.5 -19.5t32.5 -64.5 q0 -84 -92 -84q-23 0 -35 5.5t-32 5.5q-74 0 -74 -86q0 -53 36 -82t81 -29q35 0 59.5 4t46.5 14z" />
<glyph unicode="&#x1f56;" d="M41 711q0 53 7 102t28.5 87t61.5 60.5t104 22.5q100 0 153.5 -81t53.5 -197q0 -25 -2.5 -70l-5.5 -99l-6 -114q-3 -59 -3 -115q0 -133 45 -192.5t139 -59.5q45 0 94.5 21.5t91.5 65.5t68.5 110.5t26.5 159.5q0 63 -20.5 122.5t-45 116t-45 112.5t-20.5 114 q0 39 21.5 72.5t68.5 33.5q29 0 53.5 -14.5t42 -51t27.5 -101t10 -165.5q0 -61 -5 -136t-20.5 -149.5t-43 -144t-73.5 -123t-112.5 -86t-159.5 -32.5q-150 0 -236.5 90t-86.5 252q0 109 3 186.5t6 132.5l5 89t2 54q0 61 -19.5 92t-53.5 31q-33 0 -52.5 -19.5t-31 -49 t-15.5 -64.5t-4 -63h-51zM449 1196q35 -14 90 -14q39 0 69.5 25.5t30.5 72.5q0 74 -64 74q-16 0 -26 -4t-31 -4q-78 0 -78 67q0 39 28 55.5t60 16.5q86 0 136.5 -48t50.5 -134q0 -70 -49.5 -121.5t-120.5 -51.5q-63 0 -111 23zM231 1536q16 88 72.5 147.5t151.5 59.5 q41 0 74.5 -14.5l68.5 -30.5q35 -18 68.5 -32.5t72.5 -14.5q41 0 70 31.5t39 60.5h59q-8 -39 -24.5 -76t-43 -66.5t-63.5 -47t-84 -17.5t-85 14.5t-72 32.5l-65 31q-30 14 -64 14q-47 0 -73 -25.5t-42 -66.5h-60z" />
<glyph unicode="&#x1f57;" d="M41 711q0 53 7 102t28.5 87t61.5 60.5t104 22.5q100 0 153.5 -81t53.5 -197q0 -25 -2.5 -70l-5.5 -99l-6 -114q-3 -59 -3 -115q0 -133 45 -192.5t139 -59.5q45 0 94.5 21.5t91.5 65.5t68.5 110.5t26.5 159.5q0 63 -20.5 122.5t-45 116t-45 112.5t-20.5 114 q0 39 21.5 72.5t68.5 33.5q29 0 53.5 -14.5t42 -51t27.5 -101t10 -165.5q0 -61 -5 -136t-20.5 -149.5t-43 -144t-73.5 -123t-112.5 -86t-159.5 -32.5q-150 0 -236.5 90t-86.5 252q0 109 3 186.5t6 132.5l5 89t2 54q0 61 -19.5 92t-53.5 31q-33 0 -52.5 -19.5t-31 -49 t-15.5 -64.5t-4 -63h-51zM705 1153q-47 -23 -111 -23q-72 0 -121 51.5t-49 121.5q0 86 50 134t136 48q33 0 60.5 -16.5t27.5 -55.5q0 -68 -77 -67q-20 0 -30.5 4t-27.5 4q-63 0 -63 -74q0 -47 30.5 -72.5t69.5 -25.5q55 0 90 14zM231 1536q16 88 72.5 147.5t151.5 59.5 q41 0 74.5 -14.5l68.5 -30.5q35 -18 68.5 -32.5t72.5 -14.5q41 0 70 31.5t39 60.5h59q-8 -39 -24.5 -76t-43 -66.5t-63.5 -47t-84 -17.5t-85 14.5t-72 32.5l-65 31q-30 14 -64 14q-47 0 -73 -25.5t-42 -66.5h-60z" />
<glyph unicode="&#x1f60;" horiz-adv-x="1478" d="M512 932q-70 -6 -114 -35t-69.5 -81t-34.5 -127t-9 -173q0 -63 3 -145t22.5 -156t61.5 -124t120 -50q63 0 101 34t59.5 81t28.5 98t7 88q0 68 -7 125t-16 102l-17 79q-7 34 -7 54q0 61 25.5 90t72.5 29t73 -28.5t26 -90.5q0 -20 -8 -54l-16 -79q-9 -45 -16 -102t-7 -125 q0 -37 7 -88t28.5 -98t59.5 -81t101 -34q78 0 120 50t61.5 124t22.5 156t3 145q0 98 -9 173t-35 127t-70 81t-113 35v51q94 -2 172 -40t134 -103.5t87 -154.5t31 -198q0 -94 -27 -185t-77 -162.5t-119.5 -115.5t-155.5 -44q-74 0 -123 27.5t-80 68.5t-45 90t-21 94h-8 q-6 -45 -20.5 -94t-45 -90t-79.5 -68.5t-123 -27.5q-86 0 -155.5 44t-120 115.5t-77 162.5t-26.5 185q0 109 31 198t87 154.5t134 103.5t172 40v-51zM578 1210q25 -10 52 -14t64 -4q49 0 91 36t42 95q0 96 -84 96q-23 0 -36 -5t-39 -5q-100 0 -101 88q0 49 36 70.5t77 21.5 q111 0 175.5 -62.5t64.5 -172.5q0 -45 -17.5 -85t-46.5 -71t-68.5 -49.5t-85.5 -18.5q-37 0 -72.5 6.5t-70.5 22.5z" />
<glyph unicode="&#x1f61;" horiz-adv-x="1478" d="M512 932q-70 -6 -114 -35t-69.5 -81t-34.5 -127t-9 -173q0 -63 3 -145t22.5 -156t61.5 -124t120 -50q63 0 101 34t59.5 81t28.5 98t7 88q0 68 -7 125t-16 102l-17 79q-7 34 -7 54q0 61 25.5 90t72.5 29t73 -28.5t26 -90.5q0 -20 -8 -54l-16 -79q-9 -45 -16 -102t-7 -125 q0 -37 7 -88t28.5 -98t59.5 -81t101 -34q78 0 120 50t61.5 124t22.5 156t3 145q0 98 -9 173t-35 127t-70 81t-113 35v51q94 -2 172 -40t134 -103.5t87 -154.5t31 -198q0 -94 -27 -185t-77 -162.5t-119.5 -115.5t-155.5 -44q-74 0 -123 27.5t-80 68.5t-45 90t-21 94h-8 q-6 -45 -20.5 -94t-45 -90t-79.5 -68.5t-123 -27.5q-86 0 -155.5 44t-120 115.5t-77 162.5t-26.5 185q0 109 31 198t87 154.5t134 103.5t172 40v-51zM920 1159q-35 -16 -71 -22.5t-73 -6.5q-45 0 -85 18.5t-68.5 49.5t-46 71t-17.5 85q0 111 64.5 173t175.5 62 q41 0 76.5 -21.5t35.5 -70.5q0 -88 -100 -88q-27 0 -40 5t-36 5q-84 0 -84 -96q0 -59 42 -95t91 -36q37 0 65 4t52 14z" />
<glyph unicode="&#x1f62;" horiz-adv-x="1478" d="M512 932q-70 -6 -114 -35t-69.5 -81t-34.5 -127t-9 -173q0 -63 3 -145t22.5 -156t61.5 -124t120 -50q63 0 101 34t59.5 81t28.5 98t7 88q0 68 -7 125t-16 102l-17 79q-7 34 -7 54q0 61 25.5 90t72.5 29t73 -28.5t26 -90.5q0 -20 -8 -54l-16 -79q-9 -45 -16 -102t-7 -125 q0 -37 7 -88t28.5 -98t59.5 -81t101 -34q78 0 120 50t61.5 124t22.5 156t3 145q0 98 -9 173t-35 127t-70 81t-113 35v51q94 -2 172 -40t134 -103.5t87 -154.5t31 -198q0 -94 -27 -185t-77 -162.5t-119.5 -115.5t-155.5 -44q-74 0 -123 27.5t-80 68.5t-45 90t-21 94h-8 q-6 -45 -20.5 -94t-45 -90t-79.5 -68.5t-123 -27.5q-86 0 -155.5 44t-120 115.5t-77 162.5t-26.5 185q0 109 31 198t87 154.5t134 103.5t172 40v-51zM817 1401q-16 29 -24.5 47t-8.5 41t18.5 40t53.5 17q41 0 58.5 -19.5t27.5 -66.5l84 -330h-51zM393 1210q23 -10 47.5 -14 t59.5 -4q45 0 80.5 28.5t35.5 82.5q0 86 -73 86q-20 0 -32.5 -5.5t-35.5 -5.5q-92 0 -92 84q0 45 33 64.5t71 19.5q100 0 161 -56t61 -157q0 -41 -16.5 -77.5t-44 -64.5t-64.5 -44.5t-78 -16.5q-70 0 -129 27z" />
<glyph unicode="&#x1f63;" horiz-adv-x="1478" d="M512 932q-70 -6 -114 -35t-69.5 -81t-34.5 -127t-9 -173q0 -63 3 -145t22.5 -156t61.5 -124t120 -50q63 0 101 34t59.5 81t28.5 98t7 88q0 68 -7 125t-16 102l-17 79q-7 34 -7 54q0 61 25.5 90t72.5 29t73 -28.5t26 -90.5q0 -20 -8 -54l-16 -79q-9 -45 -16 -102t-7 -125 q0 -37 7 -88t28.5 -98t59.5 -81t101 -34q78 0 120 50t61.5 124t22.5 156t3 145q0 98 -9 173t-35 127t-70 81t-113 35v51q94 -2 172 -40t134 -103.5t87 -154.5t31 -198q0 -94 -27 -185t-77 -162.5t-119.5 -115.5t-155.5 -44q-74 0 -123 27.5t-80 68.5t-45 90t-21 94h-8 q-6 -45 -20.5 -94t-45 -90t-79.5 -68.5t-123 -27.5q-86 0 -155.5 44t-120 115.5t-77 162.5t-26.5 185q0 109 31 198t87 154.5t134 103.5t172 40v-51zM725 1157q-59 -27 -129 -27q-41 0 -78 16.5t-64.5 44.5t-44 64.5t-16.5 77.5q0 100 60.5 156.5t160.5 56.5q39 0 72 -19.5 t33 -64.5q0 -84 -92 -84q-23 0 -35 5.5t-33 5.5q-74 0 -74 -86q0 -53 36 -82t81 -29q35 0 59.5 4t47.5 14zM819 1401q-16 29 -24.5 47t-8.5 41t18.5 40t53.5 17q41 0 58.5 -19.5t27.5 -66.5l84 -330h-51z" />
<glyph unicode="&#x1f64;" horiz-adv-x="1478" d="M512 932q-70 -6 -114 -35t-69.5 -81t-34.5 -127t-9 -173q0 -63 3 -145t22.5 -156t61.5 -124t120 -50q63 0 101 34t59.5 81t28.5 98t7 88q0 68 -7 125t-16 102l-17 79q-7 34 -7 54q0 61 25.5 90t72.5 29t73 -28.5t26 -90.5q0 -20 -8 -54l-16 -79q-9 -45 -16 -102t-7 -125 q0 -37 7 -88t28.5 -98t59.5 -81t101 -34q78 0 120 50t61.5 124t22.5 156t3 145q0 98 -9 173t-35 127t-70 81t-113 35v51q94 -2 172 -40t134 -103.5t87 -154.5t31 -198q0 -94 -27 -185t-77 -162.5t-119.5 -115.5t-155.5 -44q-74 0 -123 27.5t-80 68.5t-45 90t-21 94h-8 q-6 -45 -20.5 -94t-45 -90t-79.5 -68.5t-123 -27.5q-86 0 -155.5 44t-120 115.5t-77 162.5t-26.5 185q0 109 31 198t87 154.5t134 103.5t172 40v-51zM442 1210q23 -10 47.5 -14t59.5 -4q45 0 81 28.5t36 82.5q0 86 -74 86q-20 0 -32.5 -5.5t-35.5 -5.5q-92 0 -92 84 q0 45 33 64.5t72 19.5q100 0 160.5 -56t60.5 -157q0 -41 -16.5 -77.5t-44 -64.5t-64.5 -44.5t-78 -16.5q-70 0 -129 27zM918 1460q10 47 27.5 66.5t58.5 19.5q35 0 53 -17.5t18 -39.5q0 -23 -8 -41t-25 -47l-157 -271h-51z" />
<glyph unicode="&#x1f65;" horiz-adv-x="1478" d="M512 932q-70 -6 -114 -35t-69.5 -81t-34.5 -127t-9 -173q0 -63 3 -145t22.5 -156t61.5 -124t120 -50q63 0 101 34t59.5 81t28.5 98t7 88q0 68 -7 125t-16 102l-17 79q-7 34 -7 54q0 61 25.5 90t72.5 29t73 -28.5t26 -90.5q0 -20 -8 -54l-16 -79q-9 -45 -16 -102t-7 -125 q0 -37 7 -88t28.5 -98t59.5 -81t101 -34q78 0 120 50t61.5 124t22.5 156t3 145q0 98 -9 173t-35 127t-70 81t-113 35v51q94 -2 172 -40t134 -103.5t87 -154.5t31 -198q0 -94 -27 -185t-77 -162.5t-119.5 -115.5t-155.5 -44q-74 0 -123 27.5t-80 68.5t-45 90t-21 94h-8 q-6 -45 -20.5 -94t-45 -90t-79.5 -68.5t-123 -27.5q-86 0 -155.5 44t-120 115.5t-77 162.5t-26.5 185q0 109 31 198t87 154.5t134 103.5t172 40v-51zM885 1460q10 47 27.5 66.5t58.5 19.5q35 0 53 -17.5t18 -39.5q0 -23 -8 -41t-24 -47l-158 -271h-51zM725 1157 q-59 -27 -129 -27q-41 0 -78 16.5t-64.5 44.5t-44 64.5t-16.5 77.5q0 100 60.5 156.5t160.5 56.5q39 0 72 -19.5t33 -64.5q0 -84 -92 -84q-23 0 -35 5.5t-33 5.5q-74 0 -74 -86q0 -53 36 -82t81 -29q35 0 59.5 4t47.5 14z" />
<glyph unicode="&#x1f66;" horiz-adv-x="1478" d="M512 932q-70 -6 -114 -35t-69.5 -81t-34.5 -127t-9 -173q0 -63 3 -145t22.5 -156t61.5 -124t120 -50q63 0 101 34t59.5 81t28.5 98t7 88q0 68 -7 125t-16 102l-17 79q-7 34 -7 54q0 61 25.5 90t72.5 29t73 -28.5t26 -90.5q0 -20 -8 -54l-16 -79q-9 -45 -16 -102t-7 -125 q0 -37 7 -88t28.5 -98t59.5 -81t101 -34q78 0 120 50t61.5 124t22.5 156t3 145q0 98 -9 173t-35 127t-70 81t-113 35v51q94 -2 172 -40t134 -103.5t87 -154.5t31 -198q0 -94 -27 -185t-77 -162.5t-119.5 -115.5t-155.5 -44q-74 0 -123 27.5t-80 68.5t-45 90t-21 94h-8 q-6 -45 -20.5 -94t-45 -90t-79.5 -68.5t-123 -27.5q-86 0 -155.5 44t-120 115.5t-77 162.5t-26.5 185q0 109 31 198t87 154.5t134 103.5t172 40v-51zM618 1196q35 -14 91 -14q39 0 69.5 25.5t30.5 72.5q0 74 -64 74q-16 0 -26 -4t-31 -4q-78 0 -78 67q0 39 28 55.5t60 16.5 q86 0 136.5 -48t50.5 -134q0 -70 -49.5 -121.5t-120.5 -51.5q-63 0 -111 23zM401 1536q16 88 72.5 147.5t151.5 59.5q41 0 74.5 -14.5l68.5 -30.5q35 -18 68.5 -32.5t72.5 -14.5q41 0 70 31.5t39 60.5h59q-8 -39 -24.5 -76t-43 -66.5t-63.5 -47t-84 -17.5t-85 14.5t-72 32.5 l-65 31q-30 14 -65 14q-47 0 -72.5 -25.5t-41.5 -66.5h-60z" />
<glyph unicode="&#x1f67;" horiz-adv-x="1478" d="M512 932q-70 -6 -114 -35t-69.5 -81t-34.5 -127t-9 -173q0 -63 3 -145t22.5 -156t61.5 -124t120 -50q63 0 101 34t59.5 81t28.5 98t7 88q0 68 -7 125t-16 102l-17 79q-7 34 -7 54q0 61 25.5 90t72.5 29t73 -28.5t26 -90.5q0 -20 -8 -54l-16 -79q-9 -45 -16 -102t-7 -125 q0 -37 7 -88t28.5 -98t59.5 -81t101 -34q78 0 120 50t61.5 124t22.5 156t3 145q0 98 -9 173t-35 127t-70 81t-113 35v51q94 -2 172 -40t134 -103.5t87 -154.5t31 -198q0 -94 -27 -185t-77 -162.5t-119.5 -115.5t-155.5 -44q-74 0 -123 27.5t-80 68.5t-45 90t-21 94h-8 q-6 -45 -20.5 -94t-45 -90t-79.5 -68.5t-123 -27.5q-86 0 -155.5 44t-120 115.5t-77 162.5t-26.5 185q0 109 31 198t87 154.5t134 103.5t172 40v-51zM874 1153q-47 -23 -110 -23q-72 0 -121 51.5t-49 121.5q0 86 50 134t136 48q33 0 60.5 -16.5t27.5 -55.5q0 -68 -77 -67 q-20 0 -30.5 4t-27.5 4q-63 0 -63 -74q0 -47 30.5 -72.5t69.5 -25.5q55 0 90 14zM401 1536q16 88 72.5 147.5t151.5 59.5q41 0 74.5 -14.5l68.5 -30.5q35 -18 68.5 -32.5t72.5 -14.5q41 0 70 31.5t39 60.5h59q-8 -39 -24.5 -76t-43 -66.5t-63.5 -47t-84 -17.5t-85 14.5 t-72 32.5l-65 31q-30 14 -65 14q-47 0 -72.5 -25.5t-41.5 -66.5h-60z" />
<glyph unicode="&#x1f70;" horiz-adv-x="1251" d="M285 440q0 -61 12 -130.5t41 -129t78 -99.5t125 -40q80 0 131 49t80.5 120t42 149.5t12.5 138.5q0 61 -13.5 136t-44 138.5t-82 106.5t-128.5 43q-80 0 -130.5 -52.5t-78 -128t-36.5 -158t-9 -143.5zM1098 963q-23 -135 -54.5 -259t-66.5 -247q-2 -12 -9 -32l-16 -40 q-8 -20 -13 -38.5t-5 -24.5q0 -14 11 -45t29.5 -63t43 -55.5t51.5 -23.5q41 0 60.5 30t19.5 62h41q0 -37 -4 -80t-16.5 -80.5t-36 -62t-64.5 -24.5q-49 0 -80 27.5t-49 68.5t-29 89l-18 87h-4q-18 -45 -52 -94t-82 -88t-110.5 -64.5t-136.5 -25.5q-100 0 -178 41.5 t-132.5 111.5t-82 158t-27.5 180q0 94 31 186.5t87 164t138 116.5t184 45q78 0 133.5 -32.5t94.5 -85t60.5 -117t31.5 -127.5h4l68 342h178zM514 1401q-16 29 -24.5 47t-8.5 41t18.5 40t53.5 17q41 0 58.5 -19.5t27.5 -66.5l84 -330h-51z" />
<glyph unicode="&#x1f71;" horiz-adv-x="1251" d="M285 440q0 -61 12 -130.5t41 -129t78 -99.5t125 -40q80 0 131 49t80.5 120t42 149.5t12.5 138.5q0 61 -13.5 136t-44 138.5t-82 106.5t-128.5 43q-80 0 -130.5 -52.5t-78 -128t-36.5 -158t-9 -143.5zM1098 963q-23 -135 -54.5 -259t-66.5 -247q-2 -12 -9 -32l-16 -40 q-8 -20 -13 -38.5t-5 -24.5q0 -14 11 -45t29.5 -63t43 -55.5t51.5 -23.5q41 0 60.5 30t19.5 62h41q0 -37 -4 -80t-16.5 -80.5t-36 -62t-64.5 -24.5q-49 0 -80 27.5t-49 68.5t-29 89l-18 87h-4q-18 -45 -52 -94t-82 -88t-110.5 -64.5t-136.5 -25.5q-100 0 -178 41.5 t-132.5 111.5t-82 158t-27.5 180q0 94 31 186.5t87 164t138 116.5t184 45q78 0 133.5 -32.5t94.5 -85t60.5 -117t31.5 -127.5h4l68 342h178zM678 1460q10 47 27.5 66.5t58.5 19.5q35 0 53.5 -17.5t18.5 -39.5q0 -23 -8.5 -41t-24.5 -47l-158 -271h-51z" />
<glyph unicode="&#x1f72;" horiz-adv-x="909" d="M852 229q-53 -139 -153.5 -194t-247.5 -55q-68 0 -133.5 17t-116.5 52t-82 88t-31 125q0 53 22.5 96t57.5 76t81 53.5t91 26.5v4q-39 4 -82 19.5t-77 42t-56.5 63.5t-22.5 82q0 72 35 121t88.5 79.5t117 44t120.5 13.5q66 0 127 -10t109.5 -31.5t77 -55.5t28.5 -79 q0 -35 -20.5 -57.5t-55.5 -22.5q-47 0 -68.5 32t-42 70.5t-50 70.5t-95.5 32q-84 0 -129 -55.5t-45 -157.5q0 -33 9 -64.5t26.5 -57.5t44.5 -42t61 -16q33 0 55.5 8t41 17t36 16.5t37.5 7.5q31 0 50.5 -18.5t19.5 -51.5q0 -35 -21.5 -52t-50.5 -17q-27 0 -46 6t-35.5 13 t-33 13t-36.5 6q-80 0 -126 -56t-46 -134q0 -111 61.5 -176.5t173.5 -65.5q111 0 174.5 50.5t104.5 148.5zM356 1401q-16 29 -24 47t-8 41t18 40t53 17q41 0 58.5 -19.5t27.5 -66.5l84 -330h-51z" />
<glyph unicode="&#x1f73;" horiz-adv-x="909" d="M852 229q-53 -139 -153.5 -194t-247.5 -55q-68 0 -133.5 17t-116.5 52t-82 88t-31 125q0 53 22.5 96t57.5 76t81 53.5t91 26.5v4q-39 4 -82 19.5t-77 42t-56.5 63.5t-22.5 82q0 72 35 121t88.5 79.5t117 44t120.5 13.5q66 0 127 -10t109.5 -31.5t77 -55.5t28.5 -79 q0 -35 -20.5 -57.5t-55.5 -22.5q-47 0 -68.5 32t-42 70.5t-50 70.5t-95.5 32q-84 0 -129 -55.5t-45 -157.5q0 -33 9 -64.5t26.5 -57.5t44.5 -42t61 -16q33 0 55.5 8t41 17t36 16.5t37.5 7.5q31 0 50.5 -18.5t19.5 -51.5q0 -35 -21.5 -52t-50.5 -17q-27 0 -46 6t-35.5 13 t-33 13t-36.5 6q-80 0 -126 -56t-46 -134q0 -111 61.5 -176.5t173.5 -65.5q111 0 174.5 50.5t104.5 148.5zM489 1460q10 47 28 66.5t58 19.5q35 0 53.5 -17.5t18.5 -39.5q0 -23 -8 -41t-25 -47l-157 -271h-51z" />
<glyph unicode="&#x1f74;" d="M252 766q0 68 -14.5 99.5t-55.5 31.5q-33 0 -50 -26.5t-26.5 -62.5t-11.5 -72t-2 -54h-51q0 45 6 97t25.5 97.5t58.5 76t105 30.5q68 0 104.5 -28.5t55 -77t23.5 -112t7 -132.5h6q10 51 31.5 111.5t58.5 113.5t90.5 89t128.5 36q68 0 118 -18.5t85 -60.5t52.5 -110.5 t17.5 -168.5v-1102h-180v1173q0 109 -36 160t-96 51q-76 0 -128 -61.5t-83.5 -146.5t-45 -172t-13.5 -138v-389h-180v766zM422 1401q-16 29 -24.5 47t-8.5 41t18.5 40t53.5 17q41 0 58.5 -19.5t27.5 -66.5l84 -330h-51z" />
<glyph unicode="&#x1f75;" d="M252 766q0 68 -14.5 99.5t-55.5 31.5q-33 0 -50 -26.5t-26.5 -62.5t-11.5 -72t-2 -54h-51q0 45 6 97t25.5 97.5t58.5 76t105 30.5q68 0 104.5 -28.5t55 -77t23.5 -112t7 -132.5h6q10 51 31.5 111.5t58.5 113.5t90.5 89t128.5 36q68 0 118 -18.5t85 -60.5t52.5 -110.5 t17.5 -168.5v-1102h-180v1173q0 109 -36 160t-96 51q-76 0 -128 -61.5t-83.5 -146.5t-45 -172t-13.5 -138v-389h-180v766zM627 1460q10 47 27.5 66.5t58.5 19.5q35 0 53 -17.5t18 -39.5q0 -23 -8 -41t-24 -47l-158 -271h-51z" />
<glyph unicode="&#x1f76;" horiz-adv-x="569" d="M305 154q0 -41 25.5 -70t68.5 -29q55 0 85 44t30 106v104h51v-71q0 -123 -47 -190.5t-174 -67.5q-100 0 -159.5 53t-59.5 192v738h180v-809zM96 1401q-16 29 -24.5 47t-8.5 41t18.5 40t53.5 17q41 0 58.5 -19.5t27.5 -66.5l84 -330h-51z" />
<glyph unicode="&#x1f77;" horiz-adv-x="569" d="M305 154q0 -41 25.5 -70t68.5 -29q55 0 85 44t30 106v104h51v-71q0 -123 -47 -190.5t-174 -67.5q-100 0 -159.5 53t-59.5 192v738h180v-809zM260 1460q10 47 27.5 66.5t58.5 19.5q35 0 53.5 -17.5t18.5 -39.5q0 -23 -8.5 -41t-24.5 -47l-158 -271h-51z" />
<glyph unicode="&#x1f78;" d="M274 549q0 -74 16.5 -163t55.5 -166t102.5 -128t157.5 -51q68 0 117 35t81 87t46 114.5t14 119.5q0 82 -13 174.5t-49 170t-96.5 129t-152.5 51.5q-78 0 -131 -33t-86 -85t-47.5 -119.5t-14.5 -135.5zM78 477q0 104 37 195.5t103.5 161t155.5 109.5t193 40q117 0 209 -36 t155.5 -101.5t96.5 -158.5t33 -210q0 -104 -38 -195.5t-104.5 -158t-156.5 -105t-195 -38.5q-106 0 -198.5 37.5t-158 104t-101 158t-31.5 197.5zM399 1401q-16 29 -24 47t-8 41t18 40t53 17q41 0 58.5 -19.5t27.5 -66.5l84 -330h-51z" />
<glyph unicode="&#x1f79;" d="M274 549q0 -74 16.5 -163t55.5 -166t102.5 -128t157.5 -51q68 0 117 35t81 87t46 114.5t14 119.5q0 82 -13 174.5t-49 170t-96.5 129t-152.5 51.5q-78 0 -131 -33t-86 -85t-47.5 -119.5t-14.5 -135.5zM78 477q0 104 37 195.5t103.5 161t155.5 109.5t193 40q117 0 209 -36 t155.5 -101.5t96.5 -158.5t33 -210q0 -104 -38 -195.5t-104.5 -158t-156.5 -105t-195 -38.5q-106 0 -198.5 37.5t-158 104t-101 158t-31.5 197.5zM604 1460q10 47 27.5 66.5t58.5 19.5q35 0 53.5 -17.5t18.5 -39.5q0 -23 -8.5 -41t-24.5 -47l-158 -271h-51z" />
<glyph unicode="&#x1f7a;" d="M41 711q0 53 7 102t28.5 87t61.5 60.5t104 22.5q100 0 153.5 -81t53.5 -197q0 -25 -2.5 -70l-5.5 -99l-6 -114q-3 -59 -3 -115q0 -133 45 -192.5t139 -59.5q45 0 94.5 21.5t91.5 65.5t68.5 110.5t26.5 159.5q0 63 -20.5 122.5t-45 116t-45 112.5t-20.5 114 q0 39 21.5 72.5t68.5 33.5q29 0 53.5 -14.5t42 -51t27.5 -101t10 -165.5q0 -61 -5 -136t-20.5 -149.5t-43 -144t-73.5 -123t-112.5 -86t-159.5 -32.5q-150 0 -236.5 90t-86.5 252q0 109 3 186.5t6 132.5l5 89t2 54q0 61 -19.5 92t-53.5 31q-33 0 -52.5 -19.5t-31 -49 t-15.5 -64.5t-4 -63h-51zM420 1401q-16 29 -24.5 47t-8.5 41t18.5 40t53.5 17q41 0 58.5 -19.5t27.5 -66.5l84 -330h-51z" />
<glyph unicode="&#x1f7b;" d="M41 711q0 53 7 102t28.5 87t61.5 60.5t104 22.5q100 0 153.5 -81t53.5 -197q0 -25 -2.5 -70l-5.5 -99l-6 -114q-3 -59 -3 -115q0 -133 45 -192.5t139 -59.5q45 0 94.5 21.5t91.5 65.5t68.5 110.5t26.5 159.5q0 63 -20.5 122.5t-45 116t-45 112.5t-20.5 114 q0 39 21.5 72.5t68.5 33.5q29 0 53.5 -14.5t42 -51t27.5 -101t10 -165.5q0 -61 -5 -136t-20.5 -149.5t-43 -144t-73.5 -123t-112.5 -86t-159.5 -32.5q-150 0 -236.5 90t-86.5 252q0 109 3 186.5t6 132.5l5 89t2 54q0 61 -19.5 92t-53.5 31q-33 0 -52.5 -19.5t-31 -49 t-15.5 -64.5t-4 -63h-51zM604 1460q10 47 27.5 66.5t58.5 19.5q35 0 53.5 -17.5t18.5 -39.5q0 -23 -8.5 -41t-24.5 -47l-158 -271h-51z" />
<glyph unicode="&#x1f7c;" horiz-adv-x="1478" d="M512 932q-70 -6 -114 -35t-69.5 -81t-34.5 -127t-9 -173q0 -63 3 -145t22.5 -156t61.5 -124t120 -50q63 0 101 34t59.5 81t28.5 98t7 88q0 68 -7 125t-16 102l-17 79q-7 34 -7 54q0 61 25.5 90t72.5 29t73 -28.5t26 -90.5q0 -20 -8 -54l-16 -79q-9 -45 -16 -102t-7 -125 q0 -37 7 -88t28.5 -98t59.5 -81t101 -34q78 0 120 50t61.5 124t22.5 156t3 145q0 98 -9 173t-35 127t-70 81t-113 35v51q94 -2 172 -40t134 -103.5t87 -154.5t31 -198q0 -94 -27 -185t-77 -162.5t-119.5 -115.5t-155.5 -44q-74 0 -123 27.5t-80 68.5t-45 90t-21 94h-8 q-6 -45 -20.5 -94t-45 -90t-79.5 -68.5t-123 -27.5q-86 0 -155.5 44t-120 115.5t-77 162.5t-26.5 185q0 109 31 198t87 154.5t134 103.5t172 40v-51zM590 1401q-16 29 -24.5 47t-8.5 41t18.5 40t53.5 17q41 0 58.5 -19.5t27.5 -66.5l84 -330h-51z" />
<glyph unicode="&#x1f7d;" horiz-adv-x="1478" d="M512 932q-70 -6 -114 -35t-69.5 -81t-34.5 -127t-9 -173q0 -63 3 -145t22.5 -156t61.5 -124t120 -50q63 0 101 34t59.5 81t28.5 98t7 88q0 68 -7 125t-16 102l-17 79q-7 34 -7 54q0 61 25.5 90t72.5 29t73 -28.5t26 -90.5q0 -20 -8 -54l-16 -79q-9 -45 -16 -102t-7 -125 q0 -37 7 -88t28.5 -98t59.5 -81t101 -34q78 0 120 50t61.5 124t22.5 156t3 145q0 98 -9 173t-35 127t-70 81t-113 35v51q94 -2 172 -40t134 -103.5t87 -154.5t31 -198q0 -94 -27 -185t-77 -162.5t-119.5 -115.5t-155.5 -44q-74 0 -123 27.5t-80 68.5t-45 90t-21 94h-8 q-6 -45 -20.5 -94t-45 -90t-79.5 -68.5t-123 -27.5q-86 0 -155.5 44t-120 115.5t-77 162.5t-26.5 185q0 109 31 198t87 154.5t134 103.5t172 40v-51zM774 1460q10 47 27.5 66.5t58.5 19.5q35 0 53.5 -17.5t18.5 -39.5q0 -23 -8.5 -41t-24.5 -47l-158 -271h-51z" />
<glyph unicode="&#x1f80;" horiz-adv-x="1320" d="M694 -344q49 -12 58 -18q27 -12 43 -41q2 -2 2 -5q0 -8 -21 -16q-10 0 -27.5 -3t-43.5 -7q-18 0 -40 3t-47 7q-14 4 -29.5 11t-31.5 18v272q0 25 70 25q68 0 67 -25v-221zM487 1405q8 86 105 86q66 0 102 -76q18 -37 19 -92v-29q0 -18 -2 -41q-4 -25 -13.5 -48l-19.5 -46 q-12 -23 -37 -35l-35 -12q-29 -12 -37 -12q-41 6 -49 18q-10 27 -10 39q12 -4 59 31q23 23 38.5 40t25.5 32q14 16 -35 63q-6 6 -68 35q-43 14 -43 47zM285 440q0 61 9 143.5t36.5 158t78 128t130.5 52.5q78 0 129 -43t81.5 -106.5t44 -138.5t13.5 -136q0 -59 -12.5 -138 t-42 -150t-80.5 -120t-131 -49q-76 0 -125 40t-78 99.5t-41 129t-12 130.5zM920 963l-68 -342h-4q-10 63 -31.5 127.5t-60.5 117t-94.5 85t-133.5 32.5q-102 0 -184 -45t-138 -116.5t-87 -164t-31 -186.5q0 -92 27.5 -180t82 -158t132.5 -111.5t178 -41.5q74 0 136.5 25.5 t110.5 64.5t81.5 88t52.5 94h4l18 -87q10 -48 28.5 -89t49.5 -68.5t80 -27.5q41 0 64.5 24.5t36 62t16.5 80.5t4 80h-41q0 -33 -19.5 -62.5t-60.5 -29.5q-27 0 -51.5 23.5t-43 55.5t-29.5 62.5t-11 45.5q0 6 5 24.5t13 38.5l16 40q7 19 9 32q35 123 66.5 246.5t54.5 259.5 h-178z" />
<glyph unicode="&#x1f81;" horiz-adv-x="1320" d="M694 -344q49 -12 58 -18q27 -12 43 -41q2 -2 2 -5q0 -8 -21 -16q-10 0 -27.5 -3t-43.5 -7q-18 0 -40 3t-47 7q-14 4 -29.5 11t-31.5 18v272q0 25 70 25q68 0 67 -25v-221zM625 1356q-51 -16 -68 -33q-49 -47 -35 -63q10 -16 27 -34l37 -38q25 -25 59 -31q0 -14 -12 -39 q-10 -12 -49 -18q-8 0 -35 12l-35 12q-25 12 -37 35q-23 43 -33 94q-2 10 -2 27q0 18 -2 43q-2 106 68 150q27 18 55 18q92 0 103 -86q0 -37 -41 -49zM285 440q0 61 9 143.5t36.5 158t78 128t130.5 52.5q78 0 129 -43t81.5 -106.5t44 -138.5t13.5 -136q0 -59 -12.5 -138 t-42 -150t-80.5 -120t-131 -49q-76 0 -125 40t-78 99.5t-41 129t-12 130.5zM920 963l-68 -342h-4q-10 63 -31.5 127.5t-60.5 117t-94.5 85t-133.5 32.5q-102 0 -184 -45t-138 -116.5t-87 -164t-31 -186.5q0 -92 27.5 -180t82 -158t132.5 -111.5t178 -41.5q74 0 136.5 25.5 t110.5 64.5t81.5 88t52.5 94h4l18 -87q10 -48 28.5 -89t49.5 -68.5t80 -27.5q41 0 64.5 24.5t36 62t16.5 80.5t4 80h-41q0 -33 -19.5 -62.5t-60.5 -29.5q-27 0 -51.5 23.5t-43 55.5t-29.5 62.5t-11 45.5q0 6 5 24.5t13 38.5l16 40q7 19 9 32q35 123 66.5 246.5t54.5 259.5 h-178z" />
<glyph unicode="&#x1f82;" horiz-adv-x="1320" d="M694 -344q49 -12 58 -18q27 -12 43 -41q2 -2 2 -5q0 -8 -21 -16q-10 0 -27.5 -3t-43.5 -7q-18 0 -40 3t-47 7q-14 4 -29.5 11t-31.5 18v272q0 25 70 25q68 0 67 -25v-221zM244 1405q8 86 104 86q66 0 103 -76q18 -37 18 -92v-29q0 -18 -2 -41q-4 -25 -13.5 -48l-19.5 -46 q-12 -23 -37 -35l-35 -12q-29 -12 -36 -12q-41 6 -50 18q-10 27 -10 39q12 -4 60 31q23 23 38 40t25 32q14 16 -35 63q-6 6 -67 35q-43 14 -43 47zM590 1380q-10 18 -8 37q6 80 106 80q57 -2 68 -47l106 -373l-53 -16zM285 440q0 61 9 143.5t36.5 158t78 128t130.5 52.5 q78 0 129 -43t81.5 -106.5t44 -138.5t13.5 -136q0 -59 -12.5 -138t-42 -150t-80.5 -120t-131 -49q-76 0 -125 40t-78 99.5t-41 129t-12 130.5zM920 963l-68 -342h-4q-10 63 -31.5 127.5t-60.5 117t-94.5 85t-133.5 32.5q-102 0 -184 -45t-138 -116.5t-87 -164t-31 -186.5 q0 -92 27.5 -180t82 -158t132.5 -111.5t178 -41.5q74 0 136.5 25.5t110.5 64.5t81.5 88t52.5 94h4l18 -87q10 -48 28.5 -89t49.5 -68.5t80 -27.5q41 0 64.5 24.5t36 62t16.5 80.5t4 80h-41q0 -33 -19.5 -62.5t-60.5 -29.5q-27 0 -51.5 23.5t-43 55.5t-29.5 62.5t-11 45.5 q0 6 5 24.5t13 38.5l16 40q7 19 9 32q35 123 66.5 246.5t54.5 259.5h-178z" />
<glyph unicode="&#x1f83;" horiz-adv-x="1320" d="M694 -344q49 -12 58 -18q27 -12 43 -41q2 -2 2 -5q0 -8 -21 -16q-10 0 -27.5 -3t-43.5 -7q-18 0 -40 3t-47 7q-14 4 -29.5 11t-31.5 18v272q0 25 70 25q68 0 67 -25v-221zM586 1380q-10 18 -8 37q6 80 106 80q55 -2 68 -47l106 -373l-53 -16zM420 1356q-49 -16 -70 -33 q-47 -47 -34.5 -63.5t27.5 -34t36 -37.5q25 -25 61 -31q0 -14 -12 -39q-8 -12 -51 -18q-8 0 -35 12l-33 12q-27 12 -37 35q-27 49 -34 94q-2 10 -2 27q0 18 -3 43q0 106 70 150q27 18 53 18q94 0 105 -86q0 -37 -41 -49zM285 440q0 61 9 143.5t36.5 158t78 128t130.5 52.5 q78 0 129 -43t81.5 -106.5t44 -138.5t13.5 -136q0 -59 -12.5 -138t-42 -150t-80.5 -120t-131 -49q-76 0 -125 40t-78 99.5t-41 129t-12 130.5zM920 963l-68 -342h-4q-10 63 -31.5 127.5t-60.5 117t-94.5 85t-133.5 32.5q-102 0 -184 -45t-138 -116.5t-87 -164t-31 -186.5 q0 -92 27.5 -180t82 -158t132.5 -111.5t178 -41.5q74 0 136.5 25.5t110.5 64.5t81.5 88t52.5 94h4l18 -87q10 -48 28.5 -89t49.5 -68.5t80 -27.5q41 0 64.5 24.5t36 62t16.5 80.5t4 80h-41q0 -33 -19.5 -62.5t-60.5 -29.5q-27 0 -51.5 23.5t-43 55.5t-29.5 62.5t-11 45.5 q0 6 5 24.5t13 38.5l16 40q7 19 9 32q35 123 66.5 246.5t54.5 259.5h-178z" />
<glyph unicode="&#x1f84;" horiz-adv-x="1320" d="M694 -344q49 -12 58 -18q27 -12 43 -41q2 -2 2 -5q0 -8 -21 -16q-10 0 -27.5 -3t-43.5 -7q-18 0 -40 3t-47 7q-14 4 -29.5 11t-31.5 18v272q0 25 70 25q68 0 67 -25v-221zM336 1405q8 86 104 86q66 0 103 -76q18 -37 18 -92v-29q0 -18 -2 -41q-4 -25 -13 -48t-20 -46 q-12 -23 -37 -35l-34 -12q-29 -12 -37 -12q-41 6 -49 18q-10 27 -11 39q12 -4 60 31q23 23 38 40t25 32q14 16 -35 63q-6 6 -67 35q-43 14 -43 47zM762 1450q12 43 65 47q100 0 107 -80q2 -23 -6 -37l-219 -319l-56 16zM285 440q0 61 9 143.5t36.5 158t78 128t130.5 52.5 q78 0 129 -43t81.5 -106.5t44 -138.5t13.5 -136q0 -59 -12.5 -138t-42 -150t-80.5 -120t-131 -49q-76 0 -125 40t-78 99.5t-41 129t-12 130.5zM920 963l-68 -342h-4q-10 63 -31.5 127.5t-60.5 117t-94.5 85t-133.5 32.5q-102 0 -184 -45t-138 -116.5t-87 -164t-31 -186.5 q0 -92 27.5 -180t82 -158t132.5 -111.5t178 -41.5q74 0 136.5 25.5t110.5 64.5t81.5 88t52.5 94h4l18 -87q10 -48 28.5 -89t49.5 -68.5t80 -27.5q41 0 64.5 24.5t36 62t16.5 80.5t4 80h-41q0 -33 -19.5 -62.5t-60.5 -29.5q-27 0 -51.5 23.5t-43 55.5t-29.5 62.5t-11 45.5 q0 6 5 24.5t13 38.5l16 40q7 19 9 32q35 123 66.5 246.5t54.5 259.5h-178z" />
<glyph unicode="&#x1f85;" horiz-adv-x="1320" d="M694 -344q49 -12 58 -18q27 -12 43 -41q2 -2 2 -5q0 -8 -21 -16q-10 0 -27.5 -3t-43.5 -7q-18 0 -40 3t-47 7q-14 4 -29.5 11t-31.5 18v272q0 25 70 25q68 0 67 -25v-221zM809 1450q12 45 68 47q100 0 104 -80q2 -23 -6 -37l-219 -319l-54 16zM551 1356q-49 -16 -70 -33 q-47 -47 -34.5 -63.5t27.5 -34t36 -37.5q25 -25 61 -31q0 -14 -12 -39q-8 -12 -51 -18q-8 0 -35 12l-33 12q-27 12 -37 35q-27 49 -34 94q-2 10 -2 27q0 18 -2 43q0 106 69 150q27 18 53 18q94 0 105 -86q0 -37 -41 -49zM285 440q0 61 9 143.5t36.5 158t78 128t130.5 52.5 q78 0 129 -43t81.5 -106.5t44 -138.5t13.5 -136q0 -59 -12.5 -138t-42 -150t-80.5 -120t-131 -49q-76 0 -125 40t-78 99.5t-41 129t-12 130.5zM920 963l-68 -342h-4q-10 63 -31.5 127.5t-60.5 117t-94.5 85t-133.5 32.5q-102 0 -184 -45t-138 -116.5t-87 -164t-31 -186.5 q0 -92 27.5 -180t82 -158t132.5 -111.5t178 -41.5q74 0 136.5 25.5t110.5 64.5t81.5 88t52.5 94h4l18 -87q10 -48 28.5 -89t49.5 -68.5t80 -27.5q41 0 64.5 24.5t36 62t16.5 80.5t4 80h-41q0 -33 -19.5 -62.5t-60.5 -29.5q-27 0 -51.5 23.5t-43 55.5t-29.5 62.5t-11 45.5 q0 6 5 24.5t13 38.5l16 40q7 19 9 32q35 123 66.5 246.5t54.5 259.5h-178z" />
<glyph unicode="&#x1f86;" horiz-adv-x="1320" d="M694 -344q49 -12 58 -18q27 -12 43 -41q2 -2 2 -5q0 -8 -21 -16q-10 0 -27.5 -3t-43.5 -7q-18 0 -40 3t-47 7q-14 4 -29.5 11t-31.5 18v272q0 25 70 25q68 0 67 -25v-221zM520 1284q8 63 103 64q41 0 55 -15q14 -4 49 -37q18 -41 18 -114q-2 -8 -2 -21q0 -10 -2 -26 q-4 -10 -13 -23.5t-19 -34.5q-10 -23 -37 -35l-35 -10q-27 -14 -35 -14q-41 6 -49 20q-12 20 -12 37q12 -2 59 33q20 8 51 37q6 6 4 35q-2 23 -14 34q-20 20 -76 33q-45 19 -45 37zM1020 1460q-20 -55 -82 -94q-66 -41 -123 -41q-41 0 -149 64l-37 13l-47 17q-23 12 -45 13 q-117 0 -166 -103l-43 70q53 139 211 145q43 0 139 -57q104 -66 137 -68q51 0 98.5 32t65.5 79zM285 440q0 61 9 143.5t36.5 158t78 128t130.5 52.5q78 0 129 -43t81.5 -106.5t44 -138.5t13.5 -136q0 -59 -12.5 -138t-42 -150t-80.5 -120t-131 -49q-76 0 -125 40t-78 99.5 t-41 129t-12 130.5zM920 963l-68 -342h-4q-10 63 -31.5 127.5t-60.5 117t-94.5 85t-133.5 32.5q-102 0 -184 -45t-138 -116.5t-87 -164t-31 -186.5q0 -92 27.5 -180t82 -158t132.5 -111.5t178 -41.5q74 0 136.5 25.5t110.5 64.5t81.5 88t52.5 94h4l18 -87q10 -48 28.5 -89 t49.5 -68.5t80 -27.5q41 0 64.5 24.5t36 62t16.5 80.5t4 80h-41q0 -33 -19.5 -62.5t-60.5 -29.5q-27 0 -51.5 23.5t-43 55.5t-29.5 62.5t-11 45.5q0 6 5 24.5t13 38.5l16 40q7 19 9 32q35 123 66.5 246.5t54.5 259.5h-178z" />
<glyph unicode="&#x1f87;" horiz-adv-x="1320" d="M694 -344q49 -12 58 -18q27 -12 43 -41q2 -2 2 -5q0 -8 -21 -16q-10 0 -27.5 -3t-43.5 -7q-18 0 -40 3t-47 7q-14 4 -29.5 11t-31.5 18v272q0 25 70 25q68 0 67 -25v-221zM659 1247q-55 -12 -75 -33q-10 -10 -13 -34q-6 -37 23 -50q14 -6 31 -22q23 -27 59 -33 q0 -16 -12 -37q-8 -14 -49 -20q-8 0 -35 14l-35 10q-20 12 -37 35q-12 10 -33 58q-2 10 -2 22t-2 25q0 74 19 114q6 8 49 37q27 18 55 19q53 0 78 -29q12 -8 27 -39q-1 -19 -48 -37zM965 1460q-20 -55 -82 -94q-66 -41 -123 -41q-41 0 -150 64l-37 13l-47 17q-23 12 -45 13 q-117 0 -166 -103l-43 70q53 139 211 145q43 0 140 -57q104 -66 137 -68q51 0 98 32t66 79zM285 440q0 61 9 143.5t36.5 158t78 128t130.5 52.5q78 0 129 -43t81.5 -106.5t44 -138.5t13.5 -136q0 -59 -12.5 -138t-42 -150t-80.5 -120t-131 -49q-76 0 -125 40t-78 99.5 t-41 129t-12 130.5zM920 963l-68 -342h-4q-10 63 -31.5 127.5t-60.5 117t-94.5 85t-133.5 32.5q-102 0 -184 -45t-138 -116.5t-87 -164t-31 -186.5q0 -92 27.5 -180t82 -158t132.5 -111.5t178 -41.5q74 0 136.5 25.5t110.5 64.5t81.5 88t52.5 94h4l18 -87q10 -48 28.5 -89 t49.5 -68.5t80 -27.5q41 0 64.5 24.5t36 62t16.5 80.5t4 80h-41q0 -33 -19.5 -62.5t-60.5 -29.5q-27 0 -51.5 23.5t-43 55.5t-29.5 62.5t-11 45.5q0 6 5 24.5t13 38.5l16 40q7 19 9 32q35 123 66.5 246.5t54.5 259.5h-178z" />
<glyph unicode="&#x1f90;" horiz-adv-x="1087" d="M465 1401q8 86 104 86q66 0 103 -76q18 -37 18 -92v-29q0 -18 -2 -41q-4 -25 -13 -48t-20 -46q-12 -23 -37 -35l-34 -12q-29 -12 -37 -12q-41 6 -49 18q-10 27 -11 39q12 -4 60 31q23 23 38 40t25 31q14 16 -35 64q-6 6 -67 35q-43 14 -43 47zM252 0h180v389 q0 51 13.5 138t45 172t84 146.5t127.5 61.5q59 0 95.5 -51t36.5 -160v-1173h180v1102q0 100 -17.5 168.5t-52.5 110.5t-85 60.5t-118 18.5q-76 0 -129 -36t-90 -89t-58.5 -113.5t-31.5 -111.5h-6q-2 70 -7 133t-23.5 111.5t-55.5 77t-104 28.5q-66 0 -105 -30.5t-58.5 -76 t-25.5 -97.5t-6 -97h51q0 18 2 54t11.5 72t27 62.5t49.5 26.5q41 0 55.5 -31.5t14.5 -99.5v-766zM588 -326q47 -10 53 -16q27 -12 41 -39q2 -2 2 -4q0 -6 -18 -14q-10 0 -26.5 -3.5t-41.5 -7.5q-18 0 -38.5 3.5l-43.5 7.5q-14 4 -28.5 10t-28.5 16v256q0 25 65 25 q63 0 64 -25v-209z" />
<glyph unicode="&#x1f91;" horiz-adv-x="1087" d="M645 1356q-51 -16 -67 -33q-49 -47 -35 -63q10 -16 26 -34l37 -38q25 -25 60 -31q0 -14 -13 -39q-10 -12 -49 -18q-8 0 -35 12l-34 12q-25 12 -37 35q-23 43 -33 94q-2 10 -2 27q0 18 -2 43q-2 106 67 150q27 18 56 18q92 0 102 -86q0 -37 -41 -49zM252 0h180v389 q0 51 13.5 138t45 172t84 146.5t127.5 61.5q59 0 95.5 -51t36.5 -160v-1173h180v1102q0 100 -17.5 168.5t-52.5 110.5t-85 60.5t-118 18.5q-76 0 -129 -36t-90 -89t-58.5 -113.5t-31.5 -111.5h-6q-2 70 -7 133t-23.5 111.5t-55.5 77t-104 28.5q-66 0 -105 -30.5t-58.5 -76 t-25.5 -97.5t-6 -97h51q0 18 2 54t11.5 72t27 62.5t49.5 26.5q41 0 55.5 -31.5t14.5 -99.5v-766zM588 -326q47 -10 53 -16q27 -12 41 -39q2 -2 2 -4q0 -6 -18 -14q-10 0 -26.5 -3.5t-41.5 -7.5q-18 0 -38.5 3.5l-43.5 7.5q-14 4 -28.5 10t-28.5 16v256q0 25 65 25 q63 0 64 -25v-209z" />
<glyph unicode="&#x1f92;" horiz-adv-x="1087" d="M336 1405q8 86 104 86q66 0 103 -76q18 -37 18 -92v-29q0 -18 -2 -41q-4 -25 -13 -48t-20 -46q-12 -23 -37 -35l-34 -12q-29 -12 -37 -12q-41 6 -49 18q-10 27 -11 39q12 -4 60 31q23 23 38 40t25 32q14 16 -35 63q-6 6 -67 35q-43 14 -43 47zM682 1380q-10 18 -8 37 q6 80 106 80q57 -2 68 -47l106 -373l-53 -16zM252 0h180v389q0 51 13.5 138t45 172t84 146.5t127.5 61.5q59 0 95.5 -51t36.5 -160v-1173h180v1102q0 100 -17.5 168.5t-52.5 110.5t-85 60.5t-118 18.5q-76 0 -129 -36t-90 -89t-58.5 -113.5t-31.5 -111.5h-6q-2 70 -7 133 t-23.5 111.5t-55.5 77t-104 28.5q-66 0 -105 -30.5t-58.5 -76t-25.5 -97.5t-6 -97h51q0 18 2 54t11.5 72t27 62.5t49.5 26.5q41 0 55.5 -31.5t14.5 -99.5v-766zM588 -326q47 -10 53 -16q27 -12 41 -39q2 -2 2 -4q0 -6 -18 -14q-10 0 -26.5 -3.5t-41.5 -7.5q-18 0 -38.5 3.5 l-43.5 7.5q-14 4 -28.5 10t-28.5 16v256q0 25 65 25q63 0 64 -25v-209z" />
<glyph unicode="&#x1f93;" horiz-adv-x="1087" d="M641 1380q-10 18 -8 37q6 80 106 80q55 -2 68 -47l106 -373l-53 -16zM475 1356q-49 -16 -69 -33q-47 -47 -35 -63.5t27.5 -34t35.5 -37.5q25 -25 62 -31q0 -14 -13 -39q-8 -12 -51 -18q-8 0 -35 12l-32 12q-27 12 -37 35q-27 49 -35 94q-2 10 -2 27q0 18 -2 43 q0 106 69 150q27 18 54 18q94 0 104 -86q0 -37 -41 -49zM252 0h180v389q0 51 13.5 138t45 172t84 146.5t127.5 61.5q59 0 95.5 -51t36.5 -160v-1173h180v1102q0 100 -17.5 168.5t-52.5 110.5t-85 60.5t-118 18.5q-76 0 -129 -36t-90 -89t-58.5 -113.5t-31.5 -111.5h-6 q-2 70 -7 133t-23.5 111.5t-55.5 77t-104 28.5q-66 0 -105 -30.5t-58.5 -76t-25.5 -97.5t-6 -97h51q0 18 2 54t11.5 72t27 62.5t49.5 26.5q41 0 55.5 -31.5t14.5 -99.5v-766zM588 -326q47 -10 53 -16q27 -12 41 -39q2 -2 2 -4q0 -6 -18 -14q-10 0 -26.5 -3.5t-41.5 -7.5 q-18 0 -38.5 3.5l-43.5 7.5q-14 4 -28.5 10t-28.5 16v256q0 25 65 25q63 0 64 -25v-209z" />
<glyph unicode="&#x1f94;" horiz-adv-x="1087" d="M315 1405q8 86 105 86q66 0 102 -76q18 -37 19 -92v-29q0 -18 -2 -41q-4 -25 -13.5 -48l-19.5 -46q-12 -23 -37 -35l-35 -12q-29 -12 -37 -12q-41 6 -49 18q-10 27 -10 39q12 -4 59 31q23 23 38.5 40t25.5 32q14 16 -35 63q-6 6 -68 35q-43 14 -43 47zM741 1450 q12 43 66 47q100 0 106 -80q2 -23 -6 -37l-219 -319l-55 16zM252 0h180v389q0 51 13.5 138t45 172t84 146.5t127.5 61.5q59 0 95.5 -51t36.5 -160v-1173h180v1102q0 100 -17.5 168.5t-52.5 110.5t-85 60.5t-118 18.5q-76 0 -129 -36t-90 -89t-58.5 -113.5t-31.5 -111.5h-6 q-2 70 -7 133t-23.5 111.5t-55.5 77t-104 28.5q-66 0 -105 -30.5t-58.5 -76t-25.5 -97.5t-6 -97h51q0 18 2 54t11.5 72t27 62.5t49.5 26.5q41 0 55.5 -31.5t14.5 -99.5v-766zM588 -326q47 -10 53 -16q27 -12 41 -39q2 -2 2 -4q0 -6 -18 -14q-10 0 -26.5 -3.5t-41.5 -7.5 q-18 0 -38.5 3.5l-43.5 7.5q-14 4 -28.5 10t-28.5 16v256q0 25 65 25q63 0 64 -25v-209z" />
<glyph unicode="&#x1f95;" horiz-adv-x="1087" d="M799 1450q12 45 67 47q100 0 105 -80q2 -23 -6 -37l-220 -319l-53 16zM541 1356q-49 -16 -70 -33q-47 -47 -34.5 -63.5t27.5 -34t36 -37.5q25 -25 61 -31q0 -14 -12 -39q-8 -12 -51 -18q-8 0 -35 12l-33 12q-27 12 -37 35q-27 49 -35 94q-2 10 -2 27q0 18 -2 43 q0 106 70 150q27 18 53 18q94 0 105 -86q0 -37 -41 -49zM252 0h180v389q0 51 13.5 138t45 172t84 146.5t127.5 61.5q59 0 95.5 -51t36.5 -160v-1173h180v1102q0 100 -17.5 168.5t-52.5 110.5t-85 60.5t-118 18.5q-76 0 -129 -36t-90 -89t-58.5 -113.5t-31.5 -111.5h-6 q-2 70 -7 133t-23.5 111.5t-55.5 77t-104 28.5q-66 0 -105 -30.5t-58.5 -76t-25.5 -97.5t-6 -97h51q0 18 2 54t11.5 72t27 62.5t49.5 26.5q41 0 55.5 -31.5t14.5 -99.5v-766zM588 -326q47 -10 53 -16q27 -12 41 -39q2 -2 2 -4q0 -6 -18 -14q-10 0 -26.5 -3.5t-41.5 -7.5 q-18 0 -38.5 3.5l-43.5 7.5q-14 4 -28.5 10t-28.5 16v256q0 25 65 25q63 0 64 -25v-209z" />
<glyph unicode="&#x1f96;" horiz-adv-x="1087" d="M496 1284q8 63 102 64q41 0 55 -15q14 -4 49 -37q18 -41 19 -114q-2 -8 -2 -21q0 -10 -2 -26q-4 -10 -13.5 -23.5t-19.5 -34.5q-10 -23 -37 -35l-35 -10q-27 -14 -34 -14q-41 6 -50 20q-12 20 -12 37q12 -2 59 33q20 8 52 37q6 6 4 35q-2 23 -15 34q-20 20 -75 33 q-45 19 -45 37zM995 1460q-20 -55 -82 -94q-66 -41 -122 -41q-41 0 -150 64l-37 13l-47 17q-23 12 -45 13q-117 0 -166 -103l-43 70q53 139 211 145q43 0 139 -57q104 -66 138 -68q51 0 98 32t65 79zM252 0h180v389q0 51 13.5 138t45 172t84 146.5t127.5 61.5q59 0 95.5 -51 t36.5 -160v-1173h180v1102q0 100 -17.5 168.5t-52.5 110.5t-85 60.5t-118 18.5q-76 0 -129 -36t-90 -89t-58.5 -113.5t-31.5 -111.5h-6q-2 70 -7 133t-23.5 111.5t-55.5 77t-104 28.5q-66 0 -105 -30.5t-58.5 -76t-25.5 -97.5t-6 -97h51q0 18 2 54t11.5 72t27 62.5 t49.5 26.5q41 0 55.5 -31.5t14.5 -99.5v-766zM588 -326q47 -10 53 -16q27 -12 41 -39q2 -2 2 -4q0 -6 -18 -14q-10 0 -26.5 -3.5t-41.5 -7.5q-18 0 -38.5 3.5l-43.5 7.5q-14 4 -28.5 10t-28.5 16v256q0 25 65 25q63 0 64 -25v-209z" />
<glyph unicode="&#x1f97;" horiz-adv-x="1087" d="M618 1247q-55 -12 -75 -33q-10 -10 -13 -34q-6 -37 23 -50q14 -6 31 -22q23 -27 59 -33q0 -16 -12 -37q-8 -14 -49 -20q-8 0 -35 14l-35 10q-20 12 -37 35q-12 10 -33 58q-2 10 -2 22t-2 25q0 74 19 114q6 8 49 37q27 18 55 19q53 0 78 -29q12 -8 27 -39q-1 -19 -48 -37z M924 1460q-20 -55 -82 -94q-66 -41 -123 -41q-41 0 -150 64l-37 13l-47 17q-23 12 -45 13q-117 0 -166 -103l-43 70q53 139 211 145q43 0 140 -57q104 -66 137 -68q51 0 98 32t66 79zM252 0h180v389q0 51 13.5 138t45 172t84 146.5t127.5 61.5q59 0 95.5 -51t36.5 -160 v-1173h180v1102q0 100 -17.5 168.5t-52.5 110.5t-85 60.5t-118 18.5q-76 0 -129 -36t-90 -89t-58.5 -113.5t-31.5 -111.5h-6q-2 70 -7 133t-23.5 111.5t-55.5 77t-104 28.5q-66 0 -105 -30.5t-58.5 -76t-25.5 -97.5t-6 -97h51q0 18 2 54t11.5 72t27 62.5t49.5 26.5 q41 0 55.5 -31.5t14.5 -99.5v-766zM588 -326q47 -10 53 -16q27 -12 41 -39q2 -2 2 -4q0 -6 -18 -14q-10 0 -26.5 -3.5t-41.5 -7.5q-18 0 -38.5 3.5l-43.5 7.5q-14 4 -28.5 10t-28.5 16v256q0 25 65 25q63 0 64 -25v-209z" />
<glyph unicode="&#x1fa0;" horiz-adv-x="1689" d="M938 -326q45 -10 53 -16q27 -12 41 -39q2 -2 2 -4q0 -6 -18 -14q-10 0 -26.5 -3.5t-43.5 -7.5q-16 0 -36.5 3.5l-43.5 7.5q-14 4 -28.5 10t-28.5 16v256q0 25 65 25q63 0 64 -25v-209zM772 1325q8 82 98 82q63 0 99 -72q16 -35 16 -88v-26q0 -16 -2 -39q-4 -23 -12 -45.5 t-19 -42.5q-12 -23 -34 -33l-33 -12q-27 -10 -35 -11q-39 4 -45 17q-10 25 -10 37q10 -4 55 28l35 39l24 29q14 16 -32 59q-6 6 -64 33q-41 14 -41 45zM512 983q-94 -2 -172 -40t-134 -103.5t-87 -154.5t-31 -198q0 -94 26.5 -185t77 -162.5t120 -115.5t155.5 -44 q74 0 123 27.5t79.5 68.5t45 90t20.5 94h8q6 -45 20.5 -94t45.5 -90t80 -68.5t123 -27.5q86 0 155.5 44t119.5 115.5t77 162.5t27 185q0 109 -31 198t-87 154.5t-134 103.5t-172 40v-51q70 -6 113.5 -35t69.5 -81t35 -127t9 -173q0 -63 -3 -145t-22.5 -156t-61.5 -124 t-120 -50q-63 0 -101 34t-59.5 81t-28.5 98t-7 88q0 68 7 125t16 102l16 79q7 34 8 54q0 61 -26 90t-73 29t-72.5 -28.5t-25.5 -90.5q0 -20 7 -54l17 -79q9 -45 16 -102t7 -125q0 -37 -7 -88t-28.5 -98t-59.5 -81t-101 -34q-78 0 -120 50t-61.5 124t-22.5 156t-3 145 q0 98 9 173t34.5 127t69.5 81t114 35v51z" />
<glyph unicode="&#x1fa1;" horiz-adv-x="1689" d="M938 -326q45 -10 53 -16q27 -12 41 -39q2 -2 2 -4q0 -6 -18 -14q-10 0 -26.5 -3.5t-43.5 -7.5q-16 0 -36.5 3.5l-43.5 7.5q-14 4 -28.5 10t-28.5 16v256q0 25 65 25q63 0 64 -25v-209zM893 1280q-49 -16 -64 -33q-47 -43 -32 -59q10 -14 25 -31l34 -37q23 -23 55 -28 q0 -14 -10 -37q-10 -12 -47 -17q-8 0 -33 11l-33 12q-23 10 -34 33q-23 41 -31 88q-2 10 -2 26t-2 39q-2 102 63 142q27 18 54 18q86 0 96 -82q0 -35 -39 -45zM512 983q-94 -2 -172 -40t-134 -103.5t-87 -154.5t-31 -198q0 -94 26.5 -185t77 -162.5t120 -115.5t155.5 -44 q74 0 123 27.5t79.5 68.5t45 90t20.5 94h8q6 -45 20.5 -94t45.5 -90t80 -68.5t123 -27.5q86 0 155.5 44t119.5 115.5t77 162.5t27 185q0 109 -31 198t-87 154.5t-134 103.5t-172 40v-51q70 -6 113.5 -35t69.5 -81t35 -127t9 -173q0 -63 -3 -145t-22.5 -156t-61.5 -124 t-120 -50q-63 0 -101 34t-59.5 81t-28.5 98t-7 88q0 68 7 125t16 102l16 79q7 34 8 54q0 61 -26 90t-73 29t-72.5 -28.5t-25.5 -90.5q0 -20 7 -54l17 -79q9 -45 16 -102t7 -125q0 -37 -7 -88t-28.5 -98t-59.5 -81t-101 -34q-78 0 -120 50t-61.5 124t-22.5 156t-3 145 q0 98 9 173t34.5 127t69.5 81t114 35v51z" />
<glyph unicode="&#x1fa2;" horiz-adv-x="1691" d="M938 -326q45 -10 53 -16q27 -12 41 -39q2 -2 2 -4q0 -6 -18 -14q-10 0 -26.5 -3.5t-43.5 -7.5q-16 0 -36.5 3.5l-43.5 7.5q-14 4 -28.5 10t-28.5 16v256q0 25 65 25q63 0 64 -25v-209zM494 1325q8 82 98 82q61 0 96 -72q18 -35 19 -88v-26q0 -16 -2 -39q-4 -23 -14 -45 l-17 -43q-12 -23 -35 -33l-35 -12q-27 -10 -35 -11q-37 4 -45 17q-10 25 -10 37q12 -4 55 28q23 23 37 39l25 29q12 16 -33 59q-6 6 -63 33q-41 14 -41 45zM819 1303q-8 18 -8 34q6 74 100 74q55 -2 66 -43l98 -352l-49 -15zM512 983q-94 -2 -172 -40t-134 -103.5 t-87 -154.5t-31 -198q0 -94 26.5 -185t77 -162.5t120 -115.5t155.5 -44q74 0 123 27.5t79.5 68.5t45 90t20.5 94h8q6 -45 20.5 -94t45.5 -90t80 -68.5t123 -27.5q86 0 155.5 44t119.5 115.5t77 162.5t27 185q0 109 -31 198t-87 154.5t-134 103.5t-172 40v-51 q70 -6 113.5 -35t69.5 -81t35 -127t9 -173q0 -63 -3 -145t-22.5 -156t-61.5 -124t-120 -50q-63 0 -101 34t-59.5 81t-28.5 98t-7 88q0 68 7 125t16 102l16 79q7 34 8 54q0 61 -26 90t-73 29t-72.5 -28.5t-25.5 -90.5q0 -20 7 -54l17 -79q9 -45 16 -102t7 -125q0 -37 -7 -88 t-28.5 -98t-59.5 -81t-101 -34q-78 0 -120 50t-61.5 124t-22.5 156t-3 145q0 98 9 173t34.5 127t69.5 81t114 35v51z" />
<glyph unicode="&#x1fa3;" horiz-adv-x="1691" d="M938 -332q45 -10 53 -16q27 -12 41 -39q2 -2 2 -6t-18 -13q-10 0 -26.5 -3t-43.5 -7q-16 0 -36.5 3t-43.5 7q-14 4 -28.5 10.5t-28.5 16.5v256q0 25 65 25q63 0 64 -25v-209zM809 1303q-8 18 -6 34q6 74 98 74q53 -2 66 -43l100 -352l-51 -15zM653 1280q-47 -16 -65 -33 q-45 -43 -34 -58t27 -32l33 -37q23 -23 58 -28q0 -14 -10 -37q-8 -12 -50 -17q-8 0 -32 11l-31 12q-27 10 -35 33q-25 47 -33 88q-2 10 -2 26t-2 39q0 102 66 142q25 18 51 18q88 0 98 -82q0 -35 -39 -45zM512 983q-94 -2 -172 -40t-134 -103.5t-87 -154.5t-31 -198 q0 -94 26.5 -185t77 -162.5t120 -115.5t155.5 -44q74 0 123 27.5t79.5 68.5t45 90t20.5 94h8q6 -45 20.5 -94t45.5 -90t80 -68.5t123 -27.5q86 0 155.5 44t119.5 115.5t77 162.5t27 185q0 109 -31 198t-87 154.5t-134 103.5t-172 40v-51q70 -6 113.5 -35t69.5 -81t35 -127 t9 -173q0 -63 -3 -145t-22.5 -156t-61.5 -124t-120 -50q-63 0 -101 34t-59.5 81t-28.5 98t-7 88q0 68 7 125t16 102l16 79q7 34 8 54q0 61 -26 90t-73 29t-72.5 -28.5t-25.5 -90.5q0 -20 7 -54l17 -79q9 -45 16 -102t7 -125q0 -37 -7 -88t-28.5 -98t-59.5 -81t-101 -34 q-78 0 -120 50t-61.5 124t-22.5 156t-3 145q0 98 9 173t34.5 127t69.5 81t114 35v51z" />
<glyph unicode="&#x1fa4;" horiz-adv-x="1689" d="M938 -326q45 -10 53 -16q27 -12 41 -39q2 -2 2 -4q0 -6 -18 -14q-10 0 -26.5 -3.5t-43.5 -7.5q-16 0 -36.5 3.5l-43.5 7.5q-14 4 -28.5 10t-28.5 16v256q0 25 65 25q63 0 64 -25v-209zM537 1325q8 82 98 82q61 0 96 -72q18 -35 19 -88v-26q0 -16 -2 -39q-4 -23 -14 -45 l-17 -43q-12 -23 -35 -33l-33 -12q-27 -10 -35 -11q-39 4 -47 17q-10 25 -10 37q12 -4 57 28l35 39l25 29q12 16 -33 59q-6 6 -63 33q-41 14 -41 45zM938 1368q12 41 61 43q96 0 103 -74q2 -20 -6 -34l-207 -302l-53 15zM512 983q-94 -2 -172 -40t-134 -103.5t-87 -154.5 t-31 -198q0 -94 26.5 -185t77 -162.5t120 -115.5t155.5 -44q74 0 123 27.5t79.5 68.5t45 90t20.5 94h8q6 -45 20.5 -94t45.5 -90t80 -68.5t123 -27.5q86 0 155.5 44t119.5 115.5t77 162.5t27 185q0 109 -31 198t-87 154.5t-134 103.5t-172 40v-51q70 -6 113.5 -35t69.5 -81 t35 -127t9 -173q0 -63 -3 -145t-22.5 -156t-61.5 -124t-120 -50q-63 0 -101 34t-59.5 81t-28.5 98t-7 88q0 68 7 125t16 102l16 79q7 34 8 54q0 61 -26 90t-73 29t-72.5 -28.5t-25.5 -90.5q0 -20 7 -54l17 -79q9 -45 16 -102t7 -125q0 -37 -7 -88t-28.5 -98t-59.5 -81 t-101 -34q-78 0 -120 50t-61.5 124t-22.5 156t-3 145q0 98 9 173t34.5 127t69.5 81t114 35v51z" />
<glyph unicode="&#x1fa5;" horiz-adv-x="1689" d="M938 -326q45 -10 53 -16q27 -12 41 -39q2 -2 2 -4q0 -6 -18 -14q-10 0 -26.5 -3.5t-43.5 -7.5q-16 0 -36.5 3.5l-43.5 7.5q-14 4 -28.5 10t-28.5 16v256q0 25 65 25q63 0 64 -25v-209zM1040 1368q10 41 64 43q94 0 98 -74q2 -20 -6 -34l-207 -302l-51 15zM797 1280 q-47 -16 -66 -33q-45 -43 -33.5 -58t25.5 -31.5t35 -37.5q23 -23 57 -28q0 -14 -10 -37q-8 -12 -49 -17q-8 0 -33 11l-31 12q-25 10 -35 33q-25 47 -32 88q-2 10 -2 26t-2 39q0 102 65 142q25 18 49 18q90 0 101 -82q0 -35 -39 -45zM512 983q-94 -2 -172 -40t-134 -103.5 t-87 -154.5t-31 -198q0 -94 26.5 -185t77 -162.5t120 -115.5t155.5 -44q74 0 123 27.5t79.5 68.5t45 90t20.5 94h8q6 -45 20.5 -94t45.5 -90t80 -68.5t123 -27.5q86 0 155.5 44t119.5 115.5t77 162.5t27 185q0 109 -31 198t-87 154.5t-134 103.5t-172 40v-51 q70 -6 113.5 -35t69.5 -81t35 -127t9 -173q0 -63 -3 -145t-22.5 -156t-61.5 -124t-120 -50q-63 0 -101 34t-59.5 81t-28.5 98t-7 88q0 68 7 125t16 102l16 79q7 34 8 54q0 61 -26 90t-73 29t-72.5 -28.5t-25.5 -90.5q0 -20 7 -54l17 -79q9 -45 16 -102t7 -125q0 -37 -7 -88 t-28.5 -98t-59.5 -81t-101 -34q-78 0 -120 50t-61.5 124t-22.5 156t-3 145q0 98 9 173t34.5 127t69.5 81t114 35v51z" />
<glyph unicode="&#x1fa6;" horiz-adv-x="1689" d="M938 -326q45 -10 53 -16q27 -12 41 -39q2 -2 2 -4q0 -6 -18 -14q-10 0 -26.5 -3.5t-43.5 -7.5q-16 0 -36.5 3.5l-43.5 7.5q-14 4 -28.5 10t-28.5 16v256q0 25 65 25q63 0 64 -25v-209zM780 1210q8 61 99 62q37 0 51 -15q12 -4 47 -34q16 -39 16 -109q-2 -6 -2 -18 q0 -10 -2 -27q-4 -8 -12 -20.5t-19 -32.5q-10 -20 -34 -33l-33 -8q-25 -14 -33 -14q-39 6 -47 20q-10 18 -10 33q10 -2 55 30q20 8 49 35q4 6 2 33q0 23 -12 35q-18 18 -72 31q-43 16 -43 32zM1251 1378q-18 -53 -75 -90q-63 -39 -117 -39q-39 0 -141 62q-14 6 -34 12 t-44 16q-23 12 -43 13q-111 0 -156 -99l-43 68q51 129 201 135q41 0 131 -53q98 -61 129 -64q49 0 93 30t62 75zM512 983q-94 -2 -172 -40t-134 -103.5t-87 -154.5t-31 -198q0 -94 26.5 -185t77 -162.5t120 -115.5t155.5 -44q74 0 123 27.5t79.5 68.5t45 90t20.5 94h8 q6 -45 20.5 -94t45.5 -90t80 -68.5t123 -27.5q86 0 155.5 44t119.5 115.5t77 162.5t27 185q0 109 -31 198t-87 154.5t-134 103.5t-172 40v-51q70 -6 113.5 -35t69.5 -81t35 -127t9 -173q0 -63 -3 -145t-22.5 -156t-61.5 -124t-120 -50q-63 0 -101 34t-59.5 81t-28.5 98 t-7 88q0 68 7 125t16 102l16 79q7 34 8 54q0 61 -26 90t-73 29t-72.5 -28.5t-25.5 -90.5q0 -20 7 -54l17 -79q9 -45 16 -102t7 -125q0 -37 -7 -88t-28.5 -98t-59.5 -81t-101 -34q-78 0 -120 50t-61.5 124t-22.5 156t-3 145q0 98 9 173t34.5 127t69.5 81t114 35v51z" />
<glyph unicode="&#x1fa7;" horiz-adv-x="1689" d="M938 -326q45 -12 53 -16q27 -12 41 -41q2 -2 2 -6t-18 -12q-10 0 -26.5 -3.5t-43.5 -7.5q-16 0 -36.5 3t-43.5 8q-14 4 -28.5 10t-28.5 16v258q0 23 65 23q63 0 64 -23v-209zM913 1178q-51 -12 -71 -31q-8 -10 -11 -35q-6 -35 21 -45q14 -6 29 -23q20 -25 57 -30 q0 -14 -12 -33q-8 -14 -47 -20q-8 0 -33 14l-33 8q-18 12 -35 33q-10 10 -30 53q-2 10 -3 23q0 12 -2 22q0 70 19 109q6 8 47 34q25 18 51 19q49 0 74 -29q10 -8 24 -37q0 -16 -45 -32zM1202 1378q-20 -53 -78 -90q-61 -39 -114 -39q-39 0 -144 62q-14 6 -33.5 12t-44.5 16 q-20 12 -43 13q-109 0 -155 -99l-41 68q49 129 199 135q41 0 131 -53q100 -61 131 -64q47 0 92 30t61 75zM512 983q-94 -2 -172 -40t-134 -103.5t-87 -154.5t-31 -198q0 -94 26.5 -185t77 -162.5t120 -115.5t155.5 -44q74 0 123 27.5t79.5 68.5t45 90t20.5 94h8 q6 -45 20.5 -94t45.5 -90t80 -68.5t123 -27.5q86 0 155.5 44t119.5 115.5t77 162.5t27 185q0 109 -31 198t-87 154.5t-134 103.5t-172 40v-51q70 -6 113.5 -35t69.5 -81t35 -127t9 -173q0 -63 -3 -145t-22.5 -156t-61.5 -124t-120 -50q-63 0 -101 34t-59.5 81t-28.5 98 t-7 88q0 68 7 125t16 102l16 79q7 34 8 54q0 61 -26 90t-73 29t-72.5 -28.5t-25.5 -90.5q0 -20 7 -54l17 -79q9 -45 16 -102t7 -125q0 -37 -7 -88t-28.5 -98t-59.5 -81t-101 -34q-78 0 -120 50t-61.5 124t-22.5 156t-3 145q0 98 9 173t34.5 127t69.5 81t114 35v51z" />
<glyph unicode="&#x1fb2;" horiz-adv-x="1320" d="M694 -344q49 -12 58 -18q27 -12 43 -41q2 -2 2 -5q0 -8 -21 -16q-10 0 -27.5 -3t-43.5 -7q-18 0 -40 3t-47 7q-14 4 -29.5 11t-31.5 18v272q0 25 70 25q68 0 67 -25v-221zM354 1380q-10 18 -8 37q6 80 107 80q55 -2 67 -47l107 -373l-54 -16zM285 440q0 61 9 143.5 t36.5 158t78 128t130.5 52.5q78 0 129 -43t81.5 -106.5t44 -138.5t13.5 -136q0 -59 -12.5 -138t-42 -150t-80.5 -120t-131 -49q-76 0 -125 40t-78 99.5t-41 129t-12 130.5zM920 963l-68 -342h-4q-10 63 -31.5 127.5t-60.5 117t-94.5 85t-133.5 32.5q-102 0 -184 -45 t-138 -116.5t-87 -164t-31 -186.5q0 -92 27.5 -180t82 -158t132.5 -111.5t178 -41.5q74 0 136.5 25.5t110.5 64.5t81.5 88t52.5 94h4l18 -87q10 -48 28.5 -89t49.5 -68.5t80 -27.5q41 0 64.5 24.5t36 62t16.5 80.5t4 80h-41q0 -33 -19.5 -62.5t-60.5 -29.5q-27 0 -51.5 23.5 t-43 55.5t-29.5 62.5t-11 45.5q0 6 5 24.5t13 38.5l16 40q7 19 9 32q35 123 66.5 246.5t54.5 259.5h-178z" />
<glyph unicode="&#x1fb3;" horiz-adv-x="1320" d="M285 440q0 -61 12 -130.5t41 -129t78 -99.5t125 -40q80 0 131 49t80.5 120t42 149.5t12.5 138.5q0 61 -13.5 136t-44 138.5t-82 106.5t-128.5 43q-80 0 -130.5 -52.5t-78 -128t-36.5 -158t-9 -143.5zM1098 963q-23 -135 -54.5 -259t-66.5 -247q-2 -12 -9 -32l-16 -40 q-8 -20 -13 -38.5t-5 -24.5q0 -14 11 -45t29.5 -63t43 -55.5t51.5 -23.5q41 0 60.5 30t19.5 62h41q0 -37 -4 -80t-16.5 -80.5t-36 -62t-64.5 -24.5q-49 0 -80 27.5t-49 68.5t-29 89l-18 87h-4q-18 -45 -52 -94t-82 -88t-110.5 -64.5t-136.5 -25.5q-100 0 -178 41.5 t-132.5 111.5t-82 158t-27.5 180q0 94 31 186.5t87 164t138 116.5t184 45q78 0 133.5 -32.5t94.5 -85t60.5 -117t31.5 -127.5h4l68 342h178zM694 -344q49 -12 57 -18q27 -12 43 -41q2 -2 2 -5q0 -8 -20 -16q-10 0 -27.5 -3t-44.5 -7q-18 0 -39.5 3t-46.5 7q-14 4 -29.5 11 t-31.5 18v272q0 25 69 25q68 0 68 -25v-221z" />
<glyph unicode="&#x1fb4;" horiz-adv-x="1320" d="M694 -344q49 -12 58 -18q27 -12 43 -41q2 -2 2 -5q0 -8 -21 -16q-10 0 -27.5 -3t-43.5 -7q-18 0 -40 3t-47 7q-14 4 -29.5 11t-31.5 18v272q0 25 70 25q68 0 67 -25v-221zM680 1450q12 45 68 47q100 0 106 -80q2 -18 -8 -37l-217 -319l-56 16zM285 440q0 61 9 143.5 t36.5 158t78 128t130.5 52.5q78 0 129 -43t81.5 -106.5t44 -138.5t13.5 -136q0 -59 -12.5 -138t-42 -150t-80.5 -120t-131 -49q-76 0 -125 40t-78 99.5t-41 129t-12 130.5zM920 963l-68 -342h-4q-10 63 -31.5 127.5t-60.5 117t-94.5 85t-133.5 32.5q-102 0 -184 -45 t-138 -116.5t-87 -164t-31 -186.5q0 -92 27.5 -180t82 -158t132.5 -111.5t178 -41.5q74 0 136.5 25.5t110.5 64.5t81.5 88t52.5 94h4l18 -87q10 -48 28.5 -89t49.5 -68.5t80 -27.5q41 0 64.5 24.5t36 62t16.5 80.5t4 80h-41q0 -33 -19.5 -62.5t-60.5 -29.5q-27 0 -51.5 23.5 t-43 55.5t-29.5 62.5t-11 45.5q0 6 5 24.5t13 38.5l16 40q7 19 9 32q35 123 66.5 246.5t54.5 259.5h-178z" />
<glyph unicode="&#x1fb6;" horiz-adv-x="1251" d="M285 440q0 -61 12 -130.5t41 -129t78 -99.5t125 -40q80 0 131 49t80.5 120t42 149.5t12.5 138.5q0 61 -13.5 136t-44 138.5t-82 106.5t-128.5 43q-80 0 -130.5 -52.5t-78 -128t-36.5 -158t-9 -143.5zM1098 963q-23 -135 -54.5 -259t-66.5 -247q-2 -12 -9 -32l-16 -40 q-8 -20 -13 -38.5t-5 -24.5q0 -14 11 -45t29.5 -63t43 -55.5t51.5 -23.5q41 0 60.5 30t19.5 62h41q0 -37 -4 -80t-16.5 -80.5t-36 -62t-64.5 -24.5q-49 0 -80 27.5t-49 68.5t-29 89l-18 87h-4q-18 -45 -52 -94t-82 -88t-110.5 -64.5t-136.5 -25.5q-100 0 -178 41.5 t-132.5 111.5t-82 158t-27.5 180q0 94 31 186.5t87 164t138 116.5t184 45q78 0 133.5 -32.5t94.5 -85t60.5 -117t31.5 -127.5h4l68 342h178zM326 1130q16 88 72.5 147.5t150.5 59.5q41 0 74.5 -14t68.5 -31q35 -18 69 -32.5t73 -14.5q41 0 69.5 32t38.5 60h59 q-8 -39 -24 -75.5t-43 -66.5t-63.5 -47.5t-84.5 -17.5q-47 0 -84.5 14.5t-72.5 33.5l-65 30q-30 14 -64 15q-47 0 -73 -26t-42 -67h-59z" />
<glyph unicode="&#x1fb7;" horiz-adv-x="1245" d="M672 -326q47 -10 53 -16q27 -12 43 -39v-4q0 -6 -18 -14q-10 0 -26.5 -3.5t-41.5 -7.5q-16 0 -36.5 3.5l-45.5 7.5q-12 4 -27.5 10t-29.5 16v256q0 25 65 25q63 0 64 -25v-209zM883 1217q-23 -61 -76 -101.5t-117 -40.5q-39 0 -141 60q-94 55 -123 55q-111 0 -156 -98 l-41 75q51 131 199 138q37 0 133 -56q96 -57 129 -61q45 0 90 29.5t64 74.5zM285 440q0 61 9 143.5t36.5 158t78 128t130.5 52.5q78 0 129 -43t81.5 -106.5t44 -138.5t13.5 -136q0 -59 -12.5 -138t-42 -150t-80.5 -120t-131 -49q-76 0 -125 40t-78 99.5t-41 129t-12 130.5z M920 963l-68 -342h-4q-10 63 -31.5 127.5t-60.5 117t-94.5 85t-133.5 32.5q-102 0 -184 -45t-138 -116.5t-87 -164t-31 -186.5q0 -92 27.5 -180t82 -158t132.5 -111.5t178 -41.5q74 0 136.5 25.5t110.5 64.5t81.5 88t52.5 94h4l18 -87q10 -48 28.5 -89t49.5 -68.5t80 -27.5 q41 0 64.5 24.5t36 62t16.5 80.5t4 80h-41q0 -33 -19.5 -62.5t-60.5 -29.5q-27 0 -51.5 23.5t-43 55.5t-29.5 62.5t-11 45.5q0 6 5 24.5t13 38.5l16 40q7 19 9 32q35 123 66.5 246.5t54.5 259.5h-178z" />
<glyph unicode="&#x1fbb;" horiz-adv-x="1708" d="M270 1360q10 47 27.5 66.5t58.5 19.5q35 0 53.5 -17.5t18.5 -39.5q0 -23 -8 -41.5t-25 -47.5l-157 -270h-52zM512 551h537l-271 588zM39 41q45 2 74.5 12t51 31.5t40 54.5t41.5 80l581 1215h52l571 -1221q33 -70 81 -121t138 -51v-41h-604v41h20q43 0 72 8t44.5 21.5 t21.5 29t6 29.5q0 27 -17.5 72t-40 94t-47 95t-37.5 75h-616q-8 -25 -30 -73l-43 -100q-22 -52 -38 -97t-16 -68q0 -16 5 -31.5t20.5 -28t44 -19.5t78.5 -7h16v-41h-469v41z" />
<glyph unicode="&#x1fbd;" horiz-adv-x="378" d="M18 1067q25 -10 52.5 -14t64.5 -4q49 0 91 35.5t42 95.5q0 96 -84 96q-23 0 -36 -5t-39 -5q-100 0 -101 88q0 49 36 70.5t77 21.5q111 0 175 -62.5t64 -173.5q0 -45 -17 -85t-46 -70.5t-69 -49t-85 -18.5q-37 0 -72.5 6t-70.5 23z" />
<glyph unicode="&#x1fbe;" horiz-adv-x="0" d="M420 -299q0 -51 11 -76.5t44 -25.5q45 0 62.5 34.5t17.5 69.5h51q0 -92 -49 -136t-141 -44q-51 0 -82 16.5t-46.5 40t-19.5 52t-4 53.5v202h156v-186z" />
<glyph unicode="&#x1fc0;" horiz-adv-x="718" d="M0 1239q18 92 74 147q59 59 149 60q41 0 75 -14.5l69 -30.5q35 -18 68.5 -32.5t72.5 -14.5q41 0 69.5 31.5t38.5 60.5h60q-8 -39 -24.5 -76t-43 -66.5t-63.5 -47t-84 -17.5t-85 14.5t-73 32.5l-64 31q-30 14 -65 14q-47 0 -72.5 -25.5t-42.5 -66.5h-59z" />
<glyph unicode="&#x1fc2;" horiz-adv-x="1087" d="M393 1380q-10 18 -8 37q6 80 107 80q55 -2 67 -47l107 -373l-54 -16zM252 0h180v389q0 51 13.5 138t45 172t84 146.5t127.5 61.5q59 0 95.5 -51t36.5 -160v-1173h180v1102q0 100 -17.5 168.5t-52.5 110.5t-85 60.5t-118 18.5q-76 0 -129 -36t-90 -89t-58.5 -113.5 t-31.5 -111.5h-6q-2 70 -7 133t-23.5 111.5t-55.5 77t-104 28.5q-66 0 -105 -30.5t-58.5 -76t-25.5 -97.5t-6 -97h51q0 18 2 54t11.5 72t27 62.5t49.5 26.5q41 0 55.5 -31.5t14.5 -99.5v-766zM588 -326q47 -10 53 -16q27 -12 41 -39q2 -2 2 -4q0 -6 -18 -14 q-10 0 -26.5 -3.5t-41.5 -7.5q-18 0 -38.5 3.5l-43.5 7.5q-14 4 -28.5 10t-28.5 16v256q0 25 65 25q63 0 64 -25v-209z" />
<glyph unicode="&#x1fc3;" horiz-adv-x="1087" d="M834 696q0 109 -36 160t-96 51q-76 0 -128 -61.5t-83.5 -146.5t-45 -172t-13.5 -138v-389h-180v766q0 68 -14.5 99.5t-55.5 31.5q-33 0 -50 -26.5t-26.5 -62.5t-11.5 -72t-2 -54h-51q0 45 6 97t25.5 97.5t58.5 76t105 30.5q68 0 104.5 -28.5t55 -77t23.5 -112t7 -132.5h6 q10 51 31.5 111.5t58.5 113.5t90.5 89t128.5 36q68 0 118 -18.5t85 -60.5t52.5 -110.5t17.5 -168.5v-1102h-180v1173zM608 -344q49 -12 57 -18q27 -12 43 -41q2 -2 2 -5q0 -8 -20 -16q-10 0 -27.5 -3t-44.5 -7q-18 0 -39.5 3t-46.5 7q-14 4 -29.5 11t-31.5 18v272 q0 25 69 25q68 0 68 -25v-221z" />
<glyph unicode="&#x1fc4;" horiz-adv-x="1087" d="M664 1456q12 45 67 47q100 0 107 -80q2 -18 -9 -37l-217 -319l-55 16zM252 0h180v389q0 51 13.5 138t45 172t84 146.5t127.5 61.5q59 0 95.5 -51t36.5 -160v-1173h180v1102q0 100 -17.5 168.5t-52.5 110.5t-85 60.5t-118 18.5q-76 0 -129 -36t-90 -89t-58.5 -113.5 t-31.5 -111.5h-6q-2 70 -7 133t-23.5 111.5t-55.5 77t-104 28.5q-66 0 -105 -30.5t-58.5 -76t-25.5 -97.5t-6 -97h51q0 18 2 54t11.5 72t27 62.5t49.5 26.5q41 0 55.5 -31.5t14.5 -99.5v-766zM588 -326q47 -10 53 -16q27 -12 41 -39q2 -2 2 -4q0 -6 -18 -14 q-10 0 -26.5 -3.5t-41.5 -7.5q-18 0 -38.5 3.5l-43.5 7.5q-14 4 -28.5 10t-28.5 16v256q0 25 65 25q63 0 64 -25v-209z" />
<glyph unicode="&#x1fc6;" d="M252 766q0 68 -14.5 99.5t-55.5 31.5q-33 0 -50 -26.5t-26.5 -62.5t-11.5 -72t-2 -54h-51q0 45 6 97t25.5 97.5t58.5 76t105 30.5q68 0 104.5 -28.5t55 -77t23.5 -112t7 -132.5h6q10 51 31.5 111.5t58.5 113.5t90.5 89t128.5 36q68 0 118 -18.5t85 -60.5t52.5 -110.5 t17.5 -168.5v-1102h-180v1173q0 109 -36 160t-96 51q-76 0 -128 -61.5t-83.5 -146.5t-45 -172t-13.5 -138v-389h-180v766zM262 1130q16 88 72.5 147.5t150.5 59.5q41 0 75 -14t69 -31q35 -18 68.5 -32.5t72.5 -14.5q41 0 69.5 32t39.5 60h59q-8 -39 -24.5 -75.5t-43 -66.5 t-63.5 -47.5t-84 -17.5t-85 14.5t-73 33.5l-64 30q-30 14 -65 15q-47 0 -72.5 -26t-41.5 -67h-60z" />
<glyph unicode="&#x1fc7;" horiz-adv-x="1087" d="M924 1219q-25 -59 -77 -100.5t-118 -41.5q-39 0 -139 62q-96 53 -123 53q-113 0 -156 -96l-41 75q49 131 199 138q35 0 131 -58q96 -57 129 -61q47 0 91 29.5t63 74.5zM252 0h180v389q0 51 13.5 138t45 172t84 146.5t127.5 61.5q59 0 95.5 -51t36.5 -160v-1173h180v1102 q0 100 -17.5 168.5t-52.5 110.5t-85 60.5t-118 18.5q-76 0 -129 -36t-90 -89t-58.5 -113.5t-31.5 -111.5h-6q-2 70 -7 133t-23.5 111.5t-55.5 77t-104 28.5q-66 0 -105 -30.5t-58.5 -76t-25.5 -97.5t-6 -97h51q0 18 2 54t11.5 72t27 62.5t49.5 26.5q41 0 55.5 -31.5 t14.5 -99.5v-766zM588 -326q47 -10 53 -16q27 -12 41 -39q2 -2 2 -4q0 -6 -18 -14q-10 0 -26.5 -3.5t-41.5 -7.5q-18 0 -38.5 3.5l-43.5 7.5q-14 4 -28.5 10t-28.5 16v256q0 25 65 25q63 0 64 -25v-209z" />
<glyph unicode="&#x1fc9;" horiz-adv-x="1781" d="M348 41q61 0 103.5 8t69 29.5t37.5 60.5t11 103v929q0 63 -11 102.5t-37.5 61t-68.5 29.5t-104 8v41h1227l18 -309h-41q-16 129 -83.5 176t-196.5 47h-389q-35 0 -53.5 -6t-27.5 -21.5t-10 -43t-1 -72.5v-396h432q106 0 147 45.5t51 149.5h41v-475h-41q-10 102 -52 148 t-146 46h-432v-444q0 -96 16 -134t86 -38h432q139 0 225 76t127 198l39 -14l-110 -346h-1258v41zM84 1360q10 47 27.5 66.5t58.5 19.5q35 0 53.5 -17.5t18.5 -39.5q0 -23 -8.5 -41.5t-24.5 -47.5l-158 -270h-51z" />
<glyph unicode="&#x1fcb;" horiz-adv-x="2007" d="M346 41q61 0 103.5 8t69 29.5t37.5 60.5t11 103v929q0 63 -11 102.5t-37.5 61t-68.5 29.5t-104 8v41h664v-41q-61 0 -103.5 -8t-69 -29.5t-38 -60.5t-11.5 -103v-383h732v383q0 63 -11.5 102.5t-38 61t-68.5 29.5t-104 8v41h664v-41q-61 0 -103 -8t-69 -29.5t-38 -60.5 t-11 -103v-929q0 -63 11 -102.5t38 -61t69 -29.5t103 -8v-41h-664v41q61 0 103.5 8t69 29.5t38 60.5t11.5 103v460h-732v-460q0 -63 11.5 -102.5t38 -61t68.5 -29.5t104 -8v-41h-664v41zM84 1360q10 47 27.5 66.5t58.5 19.5q35 0 53.5 -17.5t18.5 -39.5q0 -23 -8.5 -41.5 t-24.5 -47.5l-158 -270h-51z" />
<glyph unicode="&#x1fcd;" horiz-adv-x="643" d="M440 1300q-16 29 -24 47.5t-8 41.5t18 40t53 17q41 0 58.5 -19.5t27.5 -66.5l84 -330h-51zM16 1110q23 -10 47.5 -14t59.5 -4q45 0 81 28.5t36 81.5q0 86 -74 86q-20 0 -32.5 -5t-35.5 -5q-92 0 -92 84q0 45 33 64.5t72 19.5q100 0 160.5 -56.5t60.5 -156.5 q0 -41 -16.5 -78t-44 -64.5t-64.5 -44t-78 -16.5q-70 0 -129 27z" />
<glyph unicode="&#x1fce;" horiz-adv-x="718" d="M16 1110q23 -10 47.5 -14t59.5 -4q45 0 81 28.5t36 81.5q0 86 -74 86q-20 0 -32.5 -5t-35.5 -5q-92 0 -92 84q0 45 33 64.5t72 19.5q100 0 160.5 -56.5t60.5 -156.5q0 -41 -16.5 -78t-44 -64.5t-64.5 -44t-78 -16.5q-70 0 -129 27zM492 1360q10 47 27.5 66.5t58.5 19.5 q35 0 53 -17.5t18 -39.5q0 -23 -8 -41.5t-25 -47.5l-157 -270h-51z" />
<glyph unicode="&#x1fcf;" horiz-adv-x="718" d="M217 899q35 -14 90 -14q39 0 70 25.5t31 72.5q0 74 -64 74q-16 0 -26.5 -4t-30.5 -4q-78 0 -78 67q0 39 27.5 55.5t60.5 16.5q86 0 136 -48t50 -134q0 -70 -49 -121t-121 -51q-63 0 -110 22zM0 1239q18 92 74 147q59 59 149 60q41 0 75 -14.5l69 -30.5q35 -18 68.5 -32.5 t72.5 -14.5q41 0 69.5 31.5t38.5 60.5h60q-8 -39 -24.5 -76t-43 -66.5t-63.5 -47t-84 -17.5t-85 14.5t-73 32.5l-64 31q-30 14 -65 14q-47 0 -72.5 -25.5t-42.5 -66.5h-59z" />
<glyph unicode="&#x1fd2;" horiz-adv-x="569" d="M61 1130q-43 0 -72.5 30t-29.5 73t29.5 72.5t72.5 29.5t73 -29.5t30 -72.5t-30 -73t-73 -30zM305 154q0 -41 25.5 -70t68.5 -29q55 0 85 44t30 106v104h51v-71q0 -123 -47 -190.5t-174 -67.5q-100 0 -159.5 53t-59.5 192v738h180v-809zM137 1401q-16 29 -24.5 47t-8.5 41 t18.5 40t53.5 17q41 0 58.5 -19.5t27.5 -66.5l84 -330h-51zM477 1130q-43 0 -72.5 30t-29.5 73t29.5 72.5t72.5 29.5t73 -29.5t30 -72.5t-30 -73t-73 -30z" />
<glyph unicode="&#x1fd6;" horiz-adv-x="569" d="M305 154q0 -41 25.5 -70t68.5 -29q55 0 85 44t30 106v104h51v-71q0 -123 -47 -190.5t-174 -67.5q-100 0 -159.5 53t-59.5 192v738h180v-809zM-78 1130q16 88 72.5 147.5t150.5 59.5q41 0 75 -14t69 -31q35 -18 68.5 -32.5t72.5 -14.5q41 0 69.5 32t39.5 60h59 q-8 -39 -24.5 -75.5t-43 -66.5t-63.5 -47.5t-84 -17.5t-85 14.5t-73 33.5l-64 30q-30 14 -65 15q-47 0 -72.5 -26t-41.5 -67h-60z" />
<glyph unicode="&#x1fdb;" horiz-adv-x="1099" d="M371 41q61 0 103 8t68.5 29.5t38 60.5t11.5 103v929q0 63 -11.5 102.5t-38 61t-68.5 29.5t-103 8v41h663v-41q-61 0 -103 -8t-68.5 -29.5t-38 -60.5t-11.5 -103v-929q0 -63 11.5 -102.5t38 -61t68.5 -29.5t103 -8v-41h-663v41zM84 1360q10 47 27.5 66.5t58.5 19.5 q35 0 53.5 -17.5t18.5 -39.5q0 -23 -8.5 -41.5t-24.5 -47.5l-158 -270h-51z" />
<glyph unicode="&#x1fdd;" horiz-adv-x="643" d="M332 1057q-59 -27 -129 -27q-41 0 -78 16.5t-64.5 44t-44 64.5t-16.5 78q0 100 60.5 156.5t160.5 56.5q39 0 72 -19.5t33 -64.5q0 -84 -93 -84q-23 0 -35 5t-32 5q-74 0 -74 -86q0 -53 36 -81.5t81 -28.5q35 0 59.5 4t46.5 14zM440 1300q-16 29 -24 47.5t-8 41.5t18 40 t53 17q41 0 58.5 -19.5t27.5 -66.5l84 -330h-51z" />
<glyph unicode="&#x1fde;" horiz-adv-x="718" d="M492 1360q10 47 27.5 66.5t58.5 19.5q35 0 53 -17.5t18 -39.5q0 -23 -8 -41.5t-25 -47.5l-157 -270h-51zM332 1057q-59 -27 -129 -27q-41 0 -78 16.5t-64.5 44t-44 64.5t-16.5 78q0 100 60.5 156.5t160.5 56.5q39 0 72 -19.5t33 -64.5q0 -84 -93 -84q-23 0 -35 5t-32 5 q-74 0 -74 -86q0 -53 36 -81.5t81 -28.5q35 0 59.5 4t46.5 14z" />
<glyph unicode="&#x1fdf;" horiz-adv-x="718" d="M473 856q-47 -23 -111 -22q-72 0 -120.5 51t-48.5 121q0 86 50 134t136 48q33 0 60.5 -16.5t27.5 -55.5q0 -68 -78 -67q-20 0 -30.5 4t-26.5 4q-63 0 -64 -74q0 -47 31 -72.5t70 -25.5q55 0 90 14zM0 1239q18 92 74 147q59 59 149 60q41 0 75 -14.5l69 -30.5 q35 -18 68.5 -32.5t72.5 -14.5q41 0 69.5 31.5t38.5 60.5h60q-8 -39 -24.5 -76t-43 -66.5t-63.5 -47t-84 -17.5t-85 14.5t-73 32.5l-64 31q-30 14 -65 14q-47 0 -72.5 -25.5t-42.5 -66.5h-59z" />
<glyph unicode="&#x1fe2;" d="M442 1401q-16 29 -24 47t-8 41t18 40t53 17q41 0 58.5 -19.5t27.5 -66.5l84 -330h-51zM782 1130q-43 0 -72.5 30t-29.5 73t29.5 72.5t72.5 29.5t73 -29.5t30 -72.5t-30 -73t-73 -30zM41 711q0 53 7 102t28.5 87t61.5 60.5t104 22.5q100 0 153.5 -81t53.5 -197 q0 -25 -2.5 -70l-5.5 -99l-6 -114q-3 -59 -3 -115q0 -133 45 -192.5t139 -59.5q45 0 94.5 21.5t91.5 65.5t68.5 110.5t26.5 159.5q0 63 -20.5 122.5t-45 116t-45 112.5t-20.5 114q0 39 21.5 72.5t68.5 33.5q29 0 53.5 -14.5t42 -51t27.5 -101t10 -165.5q0 -61 -5 -136 t-20.5 -149.5t-43 -144t-73.5 -123t-112.5 -86t-159.5 -32.5q-150 0 -236.5 90t-86.5 252q0 109 3 186.5t6 132.5l5 89t2 54q0 61 -19.5 92t-53.5 31q-33 0 -52.5 -19.5t-31 -49t-15.5 -64.5t-4 -63h-51zM367 1130q-43 0 -73 30t-30 73t30 72.5t73 29.5t72.5 -29.5 t29.5 -72.5t-29.5 -73t-72.5 -30z" />
<glyph unicode="&#x1fe4;" d="M281 510q0 -68 16 -149.5t53 -152.5t95.5 -119t140.5 -48q74 0 122 37t74.5 92t36.5 121.5t10 126.5q0 74 -12 161t-45 163.5t-87 128t-138 51.5q-86 0 -138.5 -37t-81 -96.5t-37.5 -133t-9 -145.5zM807 -477q0 59 -36 75.5t-116 20.5l-98 6q-143 10 -229 63.5 t-138 176.5q-49 117 -75.5 253t-26.5 269q0 123 29.5 230.5t89 189.5t149.5 129t211 47q104 0 189.5 -36t146 -100.5t92 -153.5t31.5 -195q0 -109 -31.5 -203t-92 -165t-148.5 -110.5t-199 -39.5q-72 0 -137.5 22.5t-118.5 63t-91 98t-54 129.5h-4q0 -29 8 -80t20 -104 q33 -141 114 -230.5t228 -97.5l125 -6q121 -6 162 -74t41 -178h-41zM395 1210q25 -10 52.5 -14t64.5 -4q49 0 91 36t42 95q0 96 -84 96q-23 0 -36 -5t-40 -5q-100 0 -100 88q0 49 36 70.5t77 21.5q111 0 175 -62.5t64 -172.5q0 -45 -17.5 -85t-46 -71t-68.5 -49.5t-85 -18.5 q-37 0 -72.5 6.5t-70.5 22.5z" />
<glyph unicode="&#x1fe5;" d="M281 510q0 -68 16 -149.5t53 -152.5t95.5 -119t140.5 -48q74 0 122 37t74.5 92t36.5 121.5t10 126.5q0 74 -12 161t-45 163.5t-87 128t-138 51.5q-86 0 -138.5 -37t-81 -96.5t-37.5 -133t-9 -145.5zM807 -477q0 59 -36 75.5t-116 20.5l-98 6q-143 10 -229 63.5 t-138 176.5q-49 117 -75.5 253t-26.5 269q0 123 29.5 230.5t89 189.5t149.5 129t211 47q104 0 189.5 -36t146 -100.5t92 -153.5t31.5 -195q0 -109 -31.5 -203t-92 -165t-148.5 -110.5t-199 -39.5q-72 0 -137.5 22.5t-118.5 63t-91 98t-54 129.5h-4q0 -29 8 -80t20 -104 q33 -141 114 -230.5t228 -97.5l125 -6q121 -6 162 -74t41 -178h-41zM737 1159q-35 -16 -70.5 -22.5t-72.5 -6.5q-45 0 -85 18.5t-68.5 49.5t-46 71t-17.5 85q0 111 64.5 173t174.5 62q41 0 77 -21.5t36 -70.5q0 -88 -100 -88q-27 0 -40.5 5t-35.5 5q-84 0 -84 -96 q0 -59 42 -95t91 -36q37 0 64.5 4t52.5 14z" />
<glyph unicode="&#x1fe6;" d="M41 711q0 53 7 102t28.5 87t61.5 60.5t104 22.5q100 0 153.5 -81t53.5 -197q0 -25 -2.5 -70l-5.5 -99l-6 -114q-3 -59 -3 -115q0 -133 45 -192.5t139 -59.5q45 0 94.5 21.5t91.5 65.5t68.5 110.5t26.5 159.5q0 63 -20.5 122.5t-45 116t-45 112.5t-20.5 114 q0 39 21.5 72.5t68.5 33.5q29 0 53.5 -14.5t42 -51t27.5 -101t10 -165.5q0 -61 -5 -136t-20.5 -149.5t-43 -144t-73.5 -123t-112.5 -86t-159.5 -32.5q-150 0 -236.5 90t-86.5 252q0 109 3 186.5t6 132.5l5 89t2 54q0 61 -19.5 92t-53.5 31q-33 0 -52.5 -19.5t-31 -49 t-15.5 -64.5t-4 -63h-51zM231 1130q16 88 72.5 147.5t151.5 59.5q41 0 74.5 -14t68.5 -31q35 -18 68.5 -32.5t72.5 -14.5q41 0 70 32t39 60h59q-8 -39 -24.5 -75.5t-43 -66.5t-63.5 -47.5t-84 -17.5t-85 14.5t-72 33.5l-65 30q-30 14 -64 15q-47 0 -73 -26t-42 -67h-60z" />
<glyph unicode="&#x1feb;" horiz-adv-x="1896" d="M809 41q61 0 103 8t69 29.5t38 60.5t11 103v364l-463 643q-41 59 -100 91t-135 32v41h663v-41q-14 0 -42.5 -1t-57.5 -7t-51.5 -19.5t-22.5 -35.5q0 -23 18.5 -52.5t61.5 -89.5l305 -432l299 451q57 82 58 119q0 35 -34 49t-112 18v41h451v-41q-49 0 -87 -18.5t-74 -55 t-73 -91.5l-86 -128l-297 -450v-387q0 -63 11.5 -102.5t38 -61t68.5 -29.5t104 -8v-41h-664v41zM84 1360q10 47 27.5 66.5t58.5 19.5q35 0 53.5 -17.5t18.5 -39.5q0 -23 -8.5 -41.5t-24.5 -47.5l-158 -270h-51z" />
<glyph unicode="&#x1fef;" horiz-adv-x="245" d="M33 1300q-16 29 -24.5 47.5t-8.5 41.5t18.5 40t53.5 17q41 0 58 -19.5t28 -66.5l84 -330h-52z" />
<glyph unicode="&#x1ff2;" horiz-adv-x="1689" d="M938 -326q45 -10 53 -16q27 -12 41 -39q2 -2 2 -4q0 -6 -18 -14q-10 0 -26.5 -3.5t-43.5 -7.5q-16 0 -36.5 3.5l-43.5 7.5q-14 4 -28.5 10t-28.5 16v256q0 25 65 25q63 0 64 -25v-209zM616 1303q-10 18 -8 34q6 74 101 74q53 -2 63 -43l100 -352l-49 -15zM512 983 q-94 -2 -172 -40t-134 -103.5t-87 -154.5t-31 -198q0 -94 26.5 -185t77 -162.5t120 -115.5t155.5 -44q74 0 123 27.5t79.5 68.5t45 90t20.5 94h8q6 -45 20.5 -94t45.5 -90t80 -68.5t123 -27.5q86 0 155.5 44t119.5 115.5t77 162.5t27 185q0 109 -31 198t-87 154.5 t-134 103.5t-172 40v-51q70 -6 113.5 -35t69.5 -81t35 -127t9 -173q0 -63 -3 -145t-22.5 -156t-61.5 -124t-120 -50q-63 0 -101 34t-59.5 81t-28.5 98t-7 88q0 68 7 125t16 102l16 79q7 34 8 54q0 61 -26 90t-73 29t-72.5 -28.5t-25.5 -90.5q0 -20 7 -54l17 -79 q9 -45 16 -102t7 -125q0 -37 -7 -88t-28.5 -98t-59.5 -81t-101 -34q-78 0 -120 50t-61.5 124t-22.5 156t-3 145q0 98 9 173t34.5 127t69.5 81t114 35v51z" />
<glyph unicode="&#x1ff3;" horiz-adv-x="1691" d="M938 -326q45 -10 53 -16q27 -12 41 -39q2 -2 2 -4q0 -6 -18 -14q-10 0 -26.5 -3.5t-43.5 -7.5q-16 0 -36.5 3.5l-43.5 7.5q-14 4 -28.5 10t-28.5 16v256q0 25 65 25q63 0 64 -25v-209zM512 932q-70 -6 -114 -35t-69.5 -81t-34.5 -127t-9 -173q0 -63 3 -145t22.5 -156 t61.5 -124t120 -50q63 0 101 34t59.5 81t28.5 98t7 88q0 68 -7 125t-16 102l-17 79q-7 34 -7 54q0 61 25.5 90t72.5 29t73 -28.5t26 -90.5q0 -20 -8 -54l-16 -79q-9 -45 -16 -102t-7 -125q0 -37 7 -88t28.5 -98t59.5 -81t101 -34q78 0 120 50t61.5 124t22.5 156t3 145 q0 98 -9 173t-35 127t-70 81t-113 35v51q94 -2 172 -40t134 -103.5t87 -154.5t31 -198q0 -94 -27 -185t-77 -162.5t-119.5 -115.5t-155.5 -44q-74 0 -123 27.5t-80 68.5t-45 90t-21 94h-8q-6 -45 -20.5 -94t-45 -90t-79.5 -68.5t-123 -27.5q-86 0 -155.5 44t-120 115.5 t-77 162.5t-26.5 185q0 109 31 198t87 154.5t134 103.5t172 40v-51z" />
<glyph unicode="&#x1ff4;" horiz-adv-x="1689" d="M938 -326q45 -10 53 -16q27 -12 41 -39q2 -2 2 -4q0 -6 -18 -14q-10 0 -26.5 -3.5t-43.5 -7.5q-16 0 -36.5 3.5l-43.5 7.5q-14 4 -28.5 10t-28.5 16v256q0 25 65 25q63 0 64 -25v-209zM932 1368q10 41 63 43q94 0 101 -74q2 -16 -9 -34l-204 -302l-52 15zM512 983 q-94 -2 -172 -40t-134 -103.5t-87 -154.5t-31 -198q0 -94 26.5 -185t77 -162.5t120 -115.5t155.5 -44q74 0 123 27.5t79.5 68.5t45 90t20.5 94h8q6 -45 20.5 -94t45.5 -90t80 -68.5t123 -27.5q86 0 155.5 44t119.5 115.5t77 162.5t27 185q0 109 -31 198t-87 154.5 t-134 103.5t-172 40v-51q70 -6 113.5 -35t69.5 -81t35 -127t9 -173q0 -63 -3 -145t-22.5 -156t-61.5 -124t-120 -50q-63 0 -101 34t-59.5 81t-28.5 98t-7 88q0 68 7 125t16 102l16 79q7 34 8 54q0 61 -26 90t-73 29t-72.5 -28.5t-25.5 -90.5q0 -20 7 -54l17 -79 q9 -45 16 -102t7 -125q0 -37 -7 -88t-28.5 -98t-59.5 -81t-101 -34q-78 0 -120 50t-61.5 124t-22.5 156t-3 145q0 98 9 173t34.5 127t69.5 81t114 35v51z" />
<glyph unicode="&#x1ff6;" horiz-adv-x="1478" d="M512 932q-70 -6 -114 -35t-69.5 -81t-34.5 -127t-9 -173q0 -63 3 -145t22.5 -156t61.5 -124t120 -50q63 0 101 34t59.5 81t28.5 98t7 88q0 68 -7 125t-16 102l-17 79q-7 34 -7 54q0 61 25.5 90t72.5 29t73 -28.5t26 -90.5q0 -20 -8 -54l-16 -79q-9 -45 -16 -102t-7 -125 q0 -37 7 -88t28.5 -98t59.5 -81t101 -34q78 0 120 50t61.5 124t22.5 156t3 145q0 98 -9 173t-35 127t-70 81t-113 35v51q94 -2 172 -40t134 -103.5t87 -154.5t31 -198q0 -94 -27 -185t-77 -162.5t-119.5 -115.5t-155.5 -44q-74 0 -123 27.5t-80 68.5t-45 90t-21 94h-8 q-6 -45 -20.5 -94t-45 -90t-79.5 -68.5t-123 -27.5q-86 0 -155.5 44t-120 115.5t-77 162.5t-26.5 185q0 109 31 198t87 154.5t134 103.5t172 40v-51zM401 1130q16 88 72.5 147.5t151.5 59.5q41 0 74.5 -14t68.5 -31q35 -18 68.5 -32.5t72.5 -14.5q41 0 70 32t39 60h59 q-8 -39 -24.5 -75.5t-43 -66.5t-63.5 -47.5t-84 -17.5t-85 14.5t-72 33.5l-65 30q-30 14 -65 15q-47 0 -72.5 -26t-41.5 -67h-60z" />
<glyph unicode="&#x1ff7;" horiz-adv-x="1689" d="M938 -326q45 -10 53 -16q27 -12 41 -39q2 -2 2 -4q0 -6 -18 -14q-10 0 -26.5 -3.5t-43.5 -7.5q-16 0 -36.5 3.5l-43.5 7.5q-14 4 -28.5 10t-28.5 16v256q0 25 65 25q63 0 64 -25v-209zM1202 1217q-23 -61 -76 -101.5t-116 -40.5q-39 0 -142 60q-94 55 -120 55 q-113 0 -156 -98l-41 75q49 131 199 138q35 0 131 -56q96 -57 129 -61q47 0 91 29.5t62 74.5zM512 983q-94 -2 -172 -40t-134 -103.5t-87 -154.5t-31 -198q0 -94 26.5 -185t77 -162.5t120 -115.5t155.5 -44q74 0 123 27.5t79.5 68.5t45 90t20.5 94h8q6 -45 20.5 -94 t45.5 -90t80 -68.5t123 -27.5q86 0 155.5 44t119.5 115.5t77 162.5t27 185q0 109 -31 198t-87 154.5t-134 103.5t-172 40v-51q70 -6 113.5 -35t69.5 -81t35 -127t9 -173q0 -63 -3 -145t-22.5 -156t-61.5 -124t-120 -50q-63 0 -101 34t-59.5 81t-28.5 98t-7 88q0 68 7 125 t16 102l16 79q7 34 8 54q0 61 -26 90t-73 29t-72.5 -28.5t-25.5 -90.5q0 -20 7 -54l17 -79q9 -45 16 -102t7 -125q0 -37 -7 -88t-28.5 -98t-59.5 -81t-101 -34q-78 0 -120 50t-61.5 124t-22.5 156t-3 145q0 98 9 173t34.5 127t69.5 81t114 35v51z" />
<glyph unicode="&#x1ff9;" horiz-adv-x="1857" d="M1006 43q141 0 236 58.5t152.5 154.5t82 219t24.5 250t-28.5 243.5t-89 206t-153.5 142.5t-224 53t-225.5 -53t-155 -142.5t-89 -206t-28.5 -243.5t24.5 -250t82 -219t153 -154.5t238.5 -58.5zM1006 1446q162 0 298 -54.5t235 -153.5t155.5 -237.5t56.5 -306.5 q0 -162 -57.5 -295t-157.5 -229t-236.5 -149.5t-293.5 -53.5q-160 0 -296.5 53.5t-236.5 149.5t-157.5 229t-57.5 295q0 168 56.5 306.5t155.5 237.5t236.5 153.5t299.5 54.5zM84 1360q10 47 27.5 66.5t58.5 19.5q35 0 53.5 -17.5t18.5 -39.5q0 -23 -8.5 -41.5t-24.5 -47.5 l-158 -270h-51z" />
<glyph unicode="&#x1ffb;" horiz-adv-x="1857" d="M317 356h41q2 -23 6.5 -50t18.5 -52t42 -41t79 -16h319v131q-115 8 -213 55t-169.5 119.5t-112.5 166t-41 193.5q0 92 35.5 195.5t119.5 189.5t221.5 142.5t342.5 56.5q203 0 341 -56.5t221 -142.5t118.5 -189.5t35.5 -195.5q0 -100 -41 -193.5t-112.5 -166t-170 -119.5 t-212.5 -55v-131h319q51 0 79 16t42 41t18.5 52.5t6.5 49.5h41v-356h-582v385q106 20 176 70.5t112 116t58.5 142.5t16.5 148q0 133 -37 227.5t-100.5 155t-148.5 88t-181 27.5t-182.5 -27.5t-150 -88t-100 -155t-36.5 -227.5q0 -72 17 -148.5t58 -142t111 -115.5t176 -71 v-385h-582v356zM84 1360q10 47 27.5 66.5t58.5 19.5q35 0 53.5 -17.5t18.5 -39.5q0 -23 -8.5 -41.5t-24.5 -47.5l-158 -270h-51z" />
<glyph unicode="&#x1ffd;" horiz-adv-x="303" d="M84 1360q10 47 27.5 66.5t58.5 19.5q35 0 53.5 -17.5t18.5 -39.5q0 -23 -8.5 -41.5t-24.5 -47.5l-158 -270h-51z" />
<glyph unicode="&#x1ffe;" horiz-adv-x="417" d="M360 1016q-35 -16 -70.5 -22.5t-72.5 -6.5q-45 0 -85 18.5t-68.5 49t-46 70.5t-17.5 85q0 111 64.5 173.5t175.5 62.5q41 0 76.5 -21.5t35.5 -70.5q0 -88 -100 -88q-27 0 -40 5t-36 5q-84 0 -84 -96q0 -59 42 -95t91 -36q37 0 64.5 4t52.5 14z" />
<glyph unicode="&#x2000;" horiz-adv-x="870" />
<glyph unicode="&#x2001;" horiz-adv-x="1742" />
<glyph unicode="&#x2002;" horiz-adv-x="870" />
<glyph unicode="&#x2003;" horiz-adv-x="1742" />
<glyph unicode="&#x2004;" horiz-adv-x="579" />
<glyph unicode="&#x2005;" horiz-adv-x="434" />
<glyph unicode="&#x2006;" horiz-adv-x="288" />
<glyph unicode="&#x2007;" horiz-adv-x="288" />
<glyph unicode="&#x2008;" horiz-adv-x="217" />
<glyph unicode="&#x2009;" horiz-adv-x="348" />
<glyph unicode="&#x200a;" horiz-adv-x="96" />
<glyph unicode="&#x2010;" horiz-adv-x="681" d="M92 414v139h498v-139h-498z" />
<glyph unicode="&#x2011;" horiz-adv-x="681" d="M92 414v139h498v-139h-498z" />
<glyph unicode="&#x2012;" horiz-adv-x="1024" d="M0 535h1024v-103h-1024v103z" />
<glyph unicode="&#x2013;" horiz-adv-x="1208" d="M92 414v139h1024v-139h-1024z" />
<glyph unicode="&#x2014;" horiz-adv-x="2048" d="M0 535h2048v-103h-2048v103z" />
<glyph unicode="&#x2018;" horiz-adv-x="569" d="M395 1415q-31 -18 -62.5 -43.5t-59 -58.5t-45 -70t-17.5 -74q0 -35 9 -45t26 -10q14 0 31.5 4t35.5 4q41 0 75 -28.5t34 -71.5q0 -53 -34 -88t-89 -35q-39 0 -70.5 16.5t-53 44t-34 62.5t-12.5 72q0 59 19.5 111t53.5 96.5t79 81t94 63.5z" />
<glyph unicode="&#x2019;" horiz-adv-x="569" d="M174 930q31 18 62.5 44.5t59.5 58.5t45 69t17 74q0 33 -8 44t-24 11q-14 0 -32 -4t-38 -4q-41 0 -75 28.5t-34 71.5q0 53 34 88t89 35q39 0 71 -16.5t53.5 -44t33.5 -62.5t12 -72q0 -59 -19.5 -111.5t-53 -96.5t-78.5 -79.5t-94 -64.5z" />
<glyph unicode="&#x201c;" d="M391 1415q-31 -18 -62.5 -43.5t-59 -58.5t-45 -70t-17.5 -74q0 -35 9 -45t26 -10q14 0 31.5 4t35.5 4q41 0 75 -28.5t34 -71.5q0 -53 -34 -88t-89 -35q-39 0 -70.5 16.5t-53 44t-34 62.5t-12.5 72q0 59 19.5 111t53 96.5t79 81t94.5 63.5zM854 1415q-31 -18 -62.5 -43.5 t-59 -58.5t-45 -70t-17.5 -74q0 -35 9 -45t26 -10q14 0 31.5 4t35.5 4q41 0 75 -28.5t34 -71.5q0 -53 -34 -88t-89 -35q-39 0 -71 16.5t-53.5 44t-33.5 62.5t-12 72q0 59 19.5 111t53 96.5t78.5 81t95 63.5z" />
<glyph unicode="&#x201d;" d="M170 930q31 18 62.5 44.5t59 58.5t45 69t17.5 74q0 33 -8 44t-24 11q-14 0 -32 -4t-38 -4q-41 0 -75 28.5t-34 71.5q0 53 34 88t89 35q39 0 71 -16.5t53.5 -44t33.5 -62.5t12 -72q0 -59 -19.5 -111.5t-53 -96.5t-78.5 -79.5t-95 -64.5zM633 930q31 18 62.5 44.5t59 58.5 t45 69t17.5 74q0 33 -8 44t-25 11q-14 0 -31.5 -4t-37.5 -4q-41 0 -75 28.5t-34 71.5q0 53 34 88t89 35q39 0 70.5 -16.5t53 -44t34 -62.5t12.5 -72q0 -59 -19.5 -111.5t-53 -96.5t-79 -79.5t-94.5 -64.5z" />
<glyph unicode="&#x2020;" horiz-adv-x="1024" d="M115 946q2 37 27.5 63.5t60.5 26.5q33 0 60 -11l61 -24q33 -12 71.5 -23t91.5 -11q0 61 -11 114.5t-25 98.5l-26 83q-11 38 -11 70q0 39 31.5 59.5t66.5 20.5t66.5 -20.5t31.5 -59.5q0 -33 -11 -70l-25 -83q-13 -45 -24 -98.5t-11 -114.5q53 0 92 11t70 23l60 24 q28 11 60 11q35 0 60.5 -26.5t27.5 -63.5q-2 -37 -27.5 -63.5t-60.5 -26.5q-33 0 -60 11l-60 24q-32 12 -70.5 23.5t-91.5 11.5q0 -47 1 -97.5t9 -99.5t25.5 -94t48.5 -84q-31 -86 -48.5 -193.5t-25.5 -219t-9 -221.5t-1 -200h-52q0 90 -2 200t-10 221.5t-25.5 219 t-48.5 193.5q33 39 50.5 84t25.5 94t9 99.5t1 97.5q-53 0 -92 -11.5t-71 -23.5l-61 -24q-28 -11 -60 -11q-35 0 -60.5 26.5t-27.5 63.5z" />
<glyph unicode="&#x2026;" horiz-adv-x="2048" d="M221 104q0 51 35 86t86 35t86 -34.5t35 -86.5q0 -51 -35 -85.5t-86 -34.5t-86 34.5t-35 85.5zM903 104q0 51 35 86t86 35t86 -34.5t35 -86.5q0 -51 -35 -85.5t-86 -34.5t-86 34.5t-35 85.5zM1585 104q0 51 35 86t86 35t86 -34.5t35 -86.5q0 -51 -35 -85.5t-86 -34.5 t-86 34.5t-35 85.5z" />
<glyph unicode="&#x202f;" horiz-adv-x="348" />
<glyph unicode="&#x205f;" horiz-adv-x="434" />
<glyph unicode="&#xe000;" horiz-adv-x="915" d="M0 915h915v-915h-915v915z" />
<glyph horiz-adv-x="1478" d="M662 770q76 0 143 13.5t119.5 45t83 88t30.5 142.5q0 102 -37.5 157.5t-97 83t-135.5 32.5t-150 5q-35 0 -59 -2t-40.5 -14t-24 -38t-7.5 -75v-438h175zM45 41q61 0 103 8t69 29.5t38 60.5t11 103v929q0 63 -11 102.5t-38 61t-69 29.5t-103 8v41h725q82 0 169 -17.5 t157.5 -57.5t117 -107.5t46.5 -165.5q0 -63 -24 -115.5t-63.5 -92.5t-92 -66.5t-111.5 -38.5l4 -4q74 -14 140.5 -41t115.5 -70t77.5 -104.5t28.5 -145.5q0 -106 -48 -180t-124 -120t-170 -66.5t-188 -20.5h-760v41zM487 186q0 -20 3.5 -40.5t15.5 -36t36.5 -24.5t67.5 -9 h103q80 0 147.5 16.5t117.5 53t78.5 97t28.5 148.5q0 84 -33.5 141.5t-90 93.5t-127 52t-144.5 16h-203v-508z" />
<glyph horiz-adv-x="1472" d="M1323 508v-473h-43q-18 80 -63 143q-182 -201 -467 -201q-287 0 -474 187q-184 186 -184 479q0 326 182 533q180 205 471 204q176 0 316 -77q100 -57 156 -123q20 41 33.5 85t17.5 91h45l10 -514h-43q-39 240 -152 354q-133 133 -344 133q-223 0 -342.5 -178t-119.5 -510 q0 -272 131 -440t346 -168q43 0 89 8t89 23.5t80 38t63 49.5q61 59 113 176q39 90 47 180h43z" />
<glyph horiz-adv-x="1556" d="M465 412q0 -94 1 -153.5t3 -82.5q2 -45 23 -78q31 -51 184 -51q86 0 153.5 9.5t121 31t93 54t74.5 79.5q117 166 117 430q0 145 -33 264t-95.5 206t-153.5 137.5t-208 60.5q-14 2 -43 2h-67q-53 0 -96 -1t-74 -3v-905zM436 1364q125 6 211 6q383 0 584 -170 q221 -188 221 -524q0 -268 -122 -434t-355 -217q-115 -25 -193 -25h-741v45h57q121 0 146 45q27 45 26 262v656q0 203 -24 245q-23 35 -72 43q-10 2 -86 2h-41v48z" />
<glyph horiz-adv-x="1280" d="M1217 422l-29 -422h-1122v45h26q123 0 149.5 45t26.5 262v666q0 209 -24 250q-23 43 -135 43h-17v45h971l31 -338h-47q-41 172 -103 227q-72 66 -211 66h-270v-570h143q133 0 168 33q37 33 37 154v16h47v-465h-47v19q0 125 -37 159q-35 35 -162 35h-149v-319 q0 -252 37 -291q33 -37 162 -37h100q176 0 264 88q96 100 143 289h48z" />
<glyph horiz-adv-x="1130" d="M1122 1018h-47q-14 115 -74 199q-45 68 -120 86q-33 8 -150 8h-264v-576h127q61 0 100 9.5t62.5 31t33 59t9.5 97.5v10h49v-477h-49v18q0 61 -9.5 101.5t-33 64t-62.5 32.5t-100 9h-127v-338q0 -217 25 -262q27 -45 149 -45h45v-45h-629v45h41q123 0 147.5 45t24.5 262 v666q0 207 -22 248q-23 35 -72 43q-8 2 -31 2h-57h-22v45h1044z" />
<glyph horiz-adv-x="1579" d="M1532 580v-50h-16q-121 0 -148 -45q-25 -47 -25 -260v-143q-10 2 -18 3t-18 1q-82 0 -232 -55q-156 -53 -291 -54q-293 0 -485.5 190.5t-192.5 483.5q0 74 14.5 150t42 145.5t65.5 132t85 111.5q184 190 488 190q266 0 440 -198q16 35 26.5 72.5t14.5 78.5h49v-454h-49 q-14 104 -55 188t-102.5 142.5t-141.5 90t-174 31.5q-63 0 -123.5 -17.5t-113 -48t-94.5 -73.5t-68 -96q-74 -147 -74 -410q0 -369 147 -524q125 -137 320 -137q117 0 205 44t118 119q23 55 23 136q0 109 -8 133q-20 63 -101 71q-10 2 -26 2h-35h-33v50h586z" />
<glyph horiz-adv-x="1642" d="M467 680v-328q0 -217 25 -262q27 -45 147 -45h35v-45h-611v45h35q123 0 147.5 45t24.5 262v666q0 209 -22 248q-23 35 -72 43q-8 2 -31 2h-57h-25v45h611v-45h-25h-57q-20 0 -31 -2q-47 -8 -69 -43q-25 -43 -25 -248v-268h709v268q0 207 -25 248q-23 35 -72 43 q-10 2 -86 2h-37v45h617v-45h-21h-57q-20 0 -31 -2q-51 -8 -69 -43q-25 -47 -25 -248v-666q0 -217 25 -262q27 -45 147 -45h31v-45h-617v45h48q121 0 145 45q27 45 27 262v328h-709z" />
<glyph horiz-adv-x="724" d="M53 1356h621v-45h-31h-57q-20 0 -31 -2q-47 -8 -70 -43q-25 -43 -24 -248v-666q0 -217 24 -262q27 -45 148 -45h41v-45h-621v45h39q121 0 146 45q27 45 26 262v666q0 209 -22 248q-23 35 -72 43q-8 2 -31 2h-57h-29v45z" />
<glyph horiz-adv-x="724" d="M702 1356v-45h-32h-58q-23 0 -30 -2q-53 -10 -72 -43q-23 -41 -23 -248v-885q0 -248 -38 -344q-49 -129 -167 -199.5t-274 -70.5q-154 0 -244 51t-90 143q0 45 30 76t73 31t72.5 -29t29.5 -72q0 -25 -12 -51q-10 -25 -10 -33q0 -70 131 -69q156 0 231 119q68 100 68 305 q2 10 2 141v887q0 207 -25 248q-23 35 -71 43q-10 2 -33 2h-56h-30v45h628z" />
<glyph horiz-adv-x="1599" d="M883 1038q143 129 143 185q0 82 -143 88v45h510v-45q-152 -4 -332 -172l-354 -328l616 -623q43 -41 78 -69.5t63 -42.5q55 -29 135 -31v-45h-702v45h27q168 0 168 66q0 45 -144 188l-383 387l-96 -86v-248q0 -217 25 -262q27 -45 147 -45h27v-45h-611v45h43q121 0 146 45 q27 45 26 262v666q0 207 -24 248q-23 35 -72 43q-10 2 -86 2h-14v45h600v-45h-25h-57q-23 0 -31 -2q-49 -8 -71 -43q-23 -41 -23 -248v-352z" />
<glyph horiz-adv-x="1236" d="M1210 0h-1153v45h41q121 0 146 45q27 45 26 262v666q0 207 -24 248q-23 35 -72 43q-10 2 -86 2h-31v45h652v-45h-60h-57q-20 0 -31 -2q-47 -8 -69 -43q-25 -43 -25 -248v-709v-108q0 -39 2 -54q2 -31 20 -55q35 -47 181 -47h104q102 0 154 10q72 18 125 80q55 63 116 252 l5 12h47z" />
<glyph horiz-adv-x="1898" d="M1444 1356h418v-45h-52h-57q-23 0 -31 -2q-53 -10 -71 -43q-23 -41 -23 -248v-666q0 -217 25 -262q27 -45 147 -45h62v-45h-650v45h48q121 0 145 45q27 45 27 262v865h-5l-532 -1217h-47l-537 1217h-4v-795q0 -86 2 -139.5t6 -77.5q10 -49 43 -88q51 -61 166 -72v-45 h-483v45q119 10 170 78q41 53 47 145q2 10 2 160v590q0 207 -24 248q-23 35 -70 43q-10 2 -33 2h-55h-37v45h412l497 -1123z" />
<glyph horiz-adv-x="1536" d="M307 1239h-4v-1006q0 -104 52.5 -145t185.5 -43v-45h-506v45q145 10 182 53t37 201v719q0 201 -29 248q-27 45 -162 45h-10v45h400l798 -1061h4v811q0 59 -11 98t-36.5 62.5t-70.5 34t-113 10.5v45h492v-45q-127 -10 -170 -56q-41 -45 -41 -163v-1121h-43z" />
<glyph horiz-adv-x="1591" d="M326 641q0 -256 84 -412q37 -66 102 -116q119 -90 305 -90q221 0 344 158.5t123 445.5q0 309 -123 468.5t-358 159.5q-236 0 -356.5 -157.5t-120.5 -456.5zM109 649q0 289 192 469q197 184 502 185q68 0 137.5 -11.5t134 -34t120.5 -54.5t103 -73q203 -180 203 -520 q0 -272 -196 -452q-195 -178 -490 -178q-317 0 -514 182q-192 182 -192 487z" />
<glyph horiz-adv-x="1153" d="M569 688q102 0 156 12q78 20 131 80q70 82 70 224q0 207 -140 278q-76 39 -221 39q-10 0 -33.5 -1t-60.5 -3v-629h98zM471 352q0 -217 25 -262q27 -45 147 -45h45v-45h-620v45h34q123 0 148 45q27 45 26 262v666q0 207 -24 248q-23 35 -72 43q-8 2 -30 2h-58h-24v45 l170 6q121 4 199.5 6t117.5 2q190 -4 290.5 -24.5t176.5 -83.5q115 -96 115 -254q0 -123 -59.5 -214.5t-164.5 -123.5q-98 -31 -292 -31h-150v-287z" />
<glyph horiz-adv-x="1685" d="M340 680q0 -279 88 -436q39 -72 111 -125q125 -94 321 -94q236 0 366 167.5t130 471.5q0 328 -129 497.5t-381 169.5q-248 0 -377 -167t-129 -484zM950 -23l-4 5q-16 -2 -37.5 -3.5t-48.5 -1.5q-338 0 -545 195q-205 193 -204 516q0 305 204 498q207 195 529 194 q74 0 147.5 -12t142 -35.5t129 -57.5t107.5 -77q215 -195 215 -551q0 -141 -63.5 -276t-167.5 -228q-98 -82 -236 -127l-6 -2l-299 -159l4 -5q23 2 35 3.5t16 1.5q41 0 82 -3.5t80 -7.5q150 -18 291 -69l117 -41q160 -57 291 -58q184 0 217 138h41q-45 -309 -377 -310 q-102 0 -213 47q-59 25 -180 103q-137 86 -226 119q-98 35 -174 34q-96 0 -186 -75q-59 -51 -84 -51q-35 0 -35 34q0 27 53 56l41 22l53 27q8 4 22.5 12t35.5 18q4 0 49 27z" />
<glyph horiz-adv-x="1492" d="M485 700l93 2q225 4 296 103q57 76 58 205q0 209 -133 274q-80 39 -250 39h-45q-20 0 -41 -2v-621h22zM1124 0q-49 33 -118 117q-66 76 -111 141l-68 98q-66 94 -119 160t-94 107q-35 31 -96 30h-55v-301q0 -217 24 -262q27 -45 148 -45h65v-45h-649v45h45q121 0 146 45 q27 45 26 262v666q0 207 -24 248q-23 35 -72 43q-8 2 -31 2h-57h-23v45l195 10q76 2 147 6l160 4q330 0 473 -119q115 -96 115 -231q0 -141 -103.5 -232.5t-283.5 -109.5v-4q39 -23 92 -74q37 -39 74 -83l74 -91l69 -92q145 -195 252 -254q66 -39 164 -41v-45h-365z" />
<glyph horiz-adv-x="1110" d="M117 451h51q39 -207 141 -316q106 -111 262 -110q129 0 213 73q86 76 86 191q0 180 -274 297l-92 39q-231 96 -309 206q-66 96 -66 211q0 147 100 242q102 96 254 96q182 0 318 -143q49 61 51 119h45v-355h-45q-39 156 -134 244t-224 88q-106 0 -170 -57t-64 -156 q0 -113 121 -196q57 -41 203 -105q176 -78 247 -121q63 -39 107 -94q76 -100 76 -250q0 -164 -121 -272q-121 -104 -305 -105q-223 0 -371 168q-31 -47 -49 -131h-51v437z" />
<glyph horiz-adv-x="1429" d="M53 1030l6 326h1315l8 -326h-43q-25 145 -75 213q-33 47 -105 64q-14 2 -46 3t-81 1h-217v-959q0 -217 25 -262q27 -45 147 -45h68v-45h-678v45h69q123 0 148 45q27 45 27 262v959h-283q-133 0 -182 -94q-39 -74 -58 -187h-45z" />
<glyph horiz-adv-x="1579" d="M1536 1356v-45q-106 -8 -152.5 -55.5t-46.5 -151.5v-635q0 -231 -116 -344q-152 -147 -428 -148q-340 0 -471 197q-72 106 -68 289l2 133v422q0 207 -25 248q-18 33 -71 43q-8 2 -31 2h-57h-31v45h618v-45h-26q-76 0 -86 -2q-49 -8 -72 -43q-25 -43 -24 -248v-547 q0 -266 137 -358q102 -70 252 -70q156 0 276 74q121 78 152 194q18 70 18 152q0 2 1 42t1 77v460q0 162 -39 209q-37 51 -168 60v45h455z" />
<glyph horiz-adv-x="1492" d="M735 -31l-467 1078l-14 34l-27 66q-41 96 -82 129q-37 31 -139 35v45h584v-45h-12q-98 0 -135 -16.5t-37 -59.5q0 -27 18 -70l29 -67l391 -901l311 749q80 193 80 244q0 115 -164 121v45h416v-45q-121 -6 -193 -166l-94 -219l-401 -957h-64z" />
<glyph horiz-adv-x="1941" d="M1368 -31l-410 1116h-4l-360 -1116h-47l-359 1157q-31 102 -66.5 141.5t-107.5 41.5l-14 2v45h508v-45q-2 -2 -12 -2q-76 -6 -103.5 -23.5t-27.5 -58.5q0 -33 18 -90l25 -80l239 -789h4l353 1088h55l397 -1088h4l230 805q16 55 16 107q0 131 -141 131v45h370v-45 q-90 -8 -131 -72q-33 -55 -92 -250l-299 -1020h-45z" />
<glyph horiz-adv-x="1579" d="M1200 326q170 -207 230 -246q45 -31 143 -35v-45h-674v45h12q170 0 170 78q0 41 -67 127l-45 57l-244 297l-213 -258l-51 -67q-70 -90 -70 -129q0 -98 156 -105v-45h-524v45q111 10 192 59q86 49 176 166l76 99l227 272l-356 428l-28 36q-15 19 -36 42q-76 92 -106 119 q-57 43 -145 45v45h579v-45h-20q-113 0 -113 -64q0 -43 51 -100l47 -55l248 -304l275 342q55 63 55 105q0 76 -160 76h-16v45h508v-45q-111 -4 -185 -54q-92 -61 -229 -235l-213 -270z" />
<glyph horiz-adv-x="1386" d="M1073 1098q31 49 31 100q0 113 -150 113h-10v45h442v-45q-90 -16 -151 -74q-55 -53 -141 -197l-303 -508v-180q0 -217 24 -262q27 -45 148 -45h18v-45h-578v45h21q123 0 147 45q27 45 27 262v168l-395 645q-55 88 -92 117q-31 25 -111 29v45h549v-45h-10q-143 0 -144 -70 q0 -31 51 -113l326 -534z" />
<glyph horiz-adv-x="1300" d="M61 35l877 1276h-422q-141 0 -180 -13q-37 -10 -78 -59q-63 -82 -98 -195h-43l43 312h1007v-45l-864 -1266h414q139 0 180 8q100 14 154 82q59 76 108 215h45l-45 -350h-1098v35z" />
<glyph horiz-adv-x="1708" d="M512 551h537l-271 588zM39 41q45 2 74.5 12t51 31.5t40 54.5t41.5 80l581 1215h52l571 -1221q33 -70 81 -121t138 -51v-41h-604v41h20q43 0 72 8t44.5 21.5t21.5 29t6 29.5q0 27 -17.5 72t-40 94t-47 95t-37.5 75h-616q-8 -25 -30 -73l-43 -100q-22 -52 -38 -97t-16 -68 q0 -16 5 -31.5t20.5 -28t44 -19.5t78.5 -7h16v-41h-469v41z" />
</font>
</defs>
</svg>
