<?xml version="1.0" standalone="no"?>
<!DOCTYPE svg PUBLIC "-//W3C//DTD SVG 1.1//EN" "http://www.w3.org/Graphics/SVG/1.1/DTD/svg11.dtd" >
<svg xmlns="http://www.w3.org/2000/svg">
<metadata>
This is a custom SVG webfont generated by Font Squirrel.
Copyright   :  Copyright 1997 Summer Institute of Linguistics 7500 W Camp Wisdom Road Dallas TX 752365699 V10000 RWE
</metadata>
<defs>
<font id="webfontHClZn4UF" horiz-adv-x="2" >
<font-face units-per-em="2048" ascent="1638" descent="-410" />
<missing-glyph horiz-adv-x="500" />
<glyph unicode="&#xe000;" horiz-adv-x="500" d="M0 0v0v0v0v0z" />
<glyph unicode="&#xf020;" horiz-adv-x="700" />
<glyph unicode="&#xf021;" horiz-adv-x="887" d="M502 1593l-76 -878h-98l-74 878q-1 14 -1 26q0 132 124 132q126 0 126 -132q0 -12 -1 -26zM504 461q0 -52 -37.5 -89.5t-89.5 -37.5t-88.5 37t-36.5 90q0 51 36.5 88t88.5 37t89.5 -37t37.5 -88z" />
<glyph unicode="&#xf022;" horiz-adv-x="946" d="M946 1280q0 -49 -47 -92l-342 -314h-141l260 394q62 94 147 94q123 0 123 -82zM530 1280q0 -49 -47 -92l-342 -314h-141l260 394q62 94 148 94q122 0 122 -82z" />
<glyph unicode="&#xf023;" horiz-adv-x="530" d="M530 1280q0 -49 -47 -92l-342 -314h-141l260 394q62 94 148 94q122 0 122 -82z" />
<glyph unicode="&#xf024;" d="M750 1638q0 -37 -28.5 -64.5t-66.5 -27.5t-65 27t-27 65q0 37 27 64t65 27t66.5 -27t28.5 -64z" />
<glyph unicode="&#xf025;" d="M903 1638q0 -38 -27.5 -65t-66.5 -27q-38 0 -64 27t-26 65t26 64.5t64 26.5t66 -27t28 -64zM596 1638q0 -38 -28 -65t-66 -27q-37 0 -63.5 27t-26.5 65q0 37 26.5 64t63.5 27q38 0 66 -27t28 -64z" />
<glyph unicode="&#xf026;" d="M985 1546h-655v115h655v-115zM0 1881z" />
<glyph unicode="&#xf027;" horiz-adv-x="1221" d="M1143 213q0 -96 -65 -177q-55 -69 -91 -69q-18 0 -18 29q0 4 13 24t13 35q0 49 -66 124l-102 102l-501 501q-56 -83 -56 -147q0 -87 123 -234.5t123 -234.5q0 -71 -54 -118.5t-132 -47.5h-267l11 51q131 17 131 88q0 35 -59.5 146.5t-59.5 179.5q0 157 190 366l-49 50 q-90 90 -121 148q-36 70 -36 169q0 96 63 177q54 69 90 69q19 0 19 -29q0 -3 -13.5 -23t-13.5 -34q0 -50 66 -124l102 -101l299 -299l143 180q-74 56 -99 105q-17 35 -17 91q0 97 71 172q57 62 97 62q18 0 18 -19q0 -4 -5 -9t-5 -19q0 -49 108 -127q129 -94 129 -238 q0 -100 -44 -154q-34 -42 -74 -42q-22 0 -40 34q-30 55 -83 101l-150 -187l252 -254q90 -91 122 -148q38 -70 38 -169z" />
<glyph unicode="&#xf028;" horiz-adv-x="1100" d="M834 754q0 -468 -167 -755q-191 -328 -579 -372v117q267 44 388 310q112 243 112 700q0 456 -112 700q-121 265 -388 309v117q387 -42 579 -371q167 -288 167 -755z" />
<glyph unicode="&#xf029;" horiz-adv-x="1100" d="M1012 -373q-388 44 -578 372q-166 287 -166 755t166 755q191 329 578 371v-117q-267 -44 -388 -309q-112 -244 -112 -700q0 -457 112 -700q121 -266 388 -310v-117z" />
<glyph unicode="&#xf02a;" horiz-adv-x="1032" d="M944 1315l-100 -127l-287 -17l-10 31l239 160zM598 1503l-76 -276h-33l-75 276l92 137zM776 797l-153 57l-103 266l25 21l225 -180zM467 1202l-10 -31l-289 17l-102 127l157 47zM492 1120l-103 -266l-153 -57l6 164l225 180z" />
<glyph unicode="&#xf02b;" d="M637 1839l-43 -55l-125 -6l-4 12l102 70zM487 1921l-32 -121h-15l-32 121l38 57zM563 1616l-65 22l-45 117l12 8l96 -77zM428 1790l-2 -12l-125 6l-45 55l70 21zM440 1755l-45 -117l-65 -22l4 70l96 77z" />
<glyph unicode="&#xf02c;" horiz-adv-x="432" d="M387 150q0 -83 -92 -188q-82 -93 -115 -93q-11 0 -15.5 4t-4.5 18q0 9 23.5 41t23.5 68q0 83 -162 154q56 34 115 94q56 58 73 96q154 -84 154 -194z" />
<glyph unicode="&#xf02d;" horiz-adv-x="952" d="M862 1188h-772v166h772v-166zM952 1881z" />
<glyph unicode="&#xf02e;" horiz-adv-x="592" d="M483 166q-120 -73 -188 -191q-68 118 -189 191q121 70 189 190q68 -120 188 -190z" />
<glyph unicode="&#xf02f;" horiz-adv-x="1026" d="M1024 1497l-891 -1599h-133l891 1599h133z" />
<glyph unicode="&#xf030;" horiz-adv-x="1135" d="M1057 678q0 -307 -121 -496q-132 -207 -369 -207q-236 0 -367 207q-120 189 -120 496q0 305 120 494q131 206 367 206q237 0 369 -206q121 -189 121 -494zM844 678q0 600 -277 600q-274 0 -274 -600q0 -602 274 -602q277 0 277 602z" />
<glyph unicode="&#xf031;" horiz-adv-x="1135" d="M901 0h-684v90l207 8q43 2 43 45v1063l-313 -53v90l436 135h76v-1235q0 -43 45 -45l190 -8v-90z" />
<glyph unicode="&#xf032;" horiz-adv-x="1135" d="M1040 0h-944v135q412 342 506 442q199 210 199 398q0 138 -86 219q-80 76 -203 76q-58 0 -116 -21l-54 -22v-226q-41 -32 -98 -32q-121 0 -121 116q0 126 133 211q130 82 311 82q199 0 325 -105.5t126 -279.5q0 -188 -219 -411q-110 -112 -492 -412h598l37 174h98v-344z " />
<glyph unicode="&#xf033;" horiz-adv-x="1135" d="M1040 385q0 -180 -152.5 -295t-375.5 -115q-189 0 -310 78q-106 68 -106 152q0 45 30.5 77.5t88.5 32.5q49 0 68 -14l61 -180q80 -43 174 -43q136 0 228 93q88 89 88 214q0 134 -102 202q-82 54 -202 54q-66 0 -122 -10v127q6 -2 51 -2q138 0 226 61q99 69 99 195 q0 120 -81 191q-75 65 -185 65q-99 0 -182 -49v-201q-53 -27 -90 -27q-44 0 -76 25q-41 32 -41 90q0 114 133 194q130 78 313 78q180 0 295 -90q119 -94 119 -250q0 -236 -309 -325q144 -7 243 -83q117 -90 117 -245z" />
<glyph unicode="&#xf034;" horiz-adv-x="1135" d="M1057 401h-172v-426h-191v426h-614v140l661 837h144v-839h172v-138zM694 539v581l-454 -581h454z" />
<glyph unicode="&#xf035;" horiz-adv-x="1135" d="M1044 438q0 -211 -145 -334q-152 -129 -424 -129q-152 0 -270 76q-113 72 -113 154q0 114 125 114q31 0 55 -8l78 -186q51 -51 156 -51q150 0 246 104q86 93 86 211q0 164 -99 252q-92 82 -245 82q-122 0 -324 -70v701h780v-170h-635v-383q-14 0 86.5 25.5t184.5 25.5 q212 0 335 -110t123 -304z" />
<glyph unicode="&#xf036;" horiz-adv-x="1135" d="M1057 463q0 -217 -144 -354q-139 -134 -348 -134q-219 0 -344 137q-141 154 -141 468q0 366 212 580q217 218 597 218v-125l-70 2q-197 6 -341 -127q-149 -139 -179 -374q148 129 338 129q188 0 304 -119t116 -301zM852 436q0 149 -76.5 232.5t-210.5 83.5t-272 -103 q-4 -43 -4 -110q0 -459 276 -459q140 0 217 103q70 95 70 253z" />
<glyph unicode="&#xf037;" horiz-adv-x="1135" d="M1053 1241l-664 -1198v-68h-213l666 1209h-623l-31 -187h-104v357h969v-113z" />
<glyph unicode="&#xf038;" horiz-adv-x="1135" d="M1055 369q0 -171 -139.5 -282.5t-348.5 -111.5q-221 0 -353 108t-132 282q0 229 287 335q-96 40 -159 111q-75 87 -75 197q0 171 119 272q118 98 313 98q185 0 307.5 -95.5t122.5 -242.5q0 -210 -243 -327q301 -110 301 -344zM813 1022q0 120 -73 189q-68 65 -173 65 q-102 0 -167.5 -64.5t-65.5 -156.5q0 -102 88 -177q77 -66 244 -128q147 106 147 272zM850 336q0 113 -106 184q-64 44 -295 135q-181 -99 -181 -276q0 -134 76 -212q79 -81 223 -81q128 0 207 73q76 71 76 177z" />
<glyph unicode="&#xf039;" horiz-adv-x="1135" d="M1057 774q0 -365 -214 -580q-217 -219 -597 -219v125l69 -2q197 -5 341 128q150 138 182 374q-149 -129 -338 -129q-188 0 -304 119t-116 301q0 217 142 354q139 133 347 133q221 0 346 -136q142 -154 142 -468zM848 815q0 459 -279 459q-139 0 -214 -102 q-70 -95 -70 -254q0 -148 75.5 -232t208.5 -84q137 0 275 103q4 43 4 110z" />
<glyph unicode="&#xf03a;" horiz-adv-x="813" d="M483 166q-120 -73 -188 -191q-68 118 -189 191q121 70 189 190q68 -120 188 -190zM483 846q-120 -70 -188 -191q-68 121 -189 191q118 68 189 190q71 -122 188 -190z" />
<glyph unicode="&#xf03b;" horiz-adv-x="592" d="M475 645q-116 -67 -186 -188q-69 119 -189 188q118 68 189 191q72 -125 186 -191zM442 147q0 -82 -91 -186q-81 -92 -113 -92q-23 0 -23 22q0 9 22.5 41t22.5 68q0 84 -160 154q57 34 114 93t75 97q153 -84 153 -197z" />
<glyph unicode="&#xf03c;" horiz-adv-x="917" d="M303 707q-104 -87 -104 -228q0 -108 67 -184t168 -76h43q115 0 191.5 72.5t76.5 177.5q0 124 -50 177q-58 61 -201 61h-191zM842 469q0 -218 -89 -346q-101 -146 -304 -146q-178 0 -267 120q-80 106 -80 292q0 213 105 318h-33q-62 0 -83 50q-13 33 -13 107q0 142 41 142 q7 0 19.5 -31t49.5 -31h330q324 0 324 -475z" />
<glyph unicode="&#xf03d;" d="M487 1593l-104 -49l-219 471l104 47z" />
<glyph unicode="&#xf03e;" horiz-adv-x="971" d="M489 471q0 -45 -31 -73q-27 -23 -61 -23h-190q-38 0 -60 -30t-28 -30q-10 0 -10 15q0 7 9 48t9 79q0 14 -4 45.5t-4 54.5q0 83 114 156h-36q-63 0 -84 50q-13 32 -13 107q0 142 41 142q8 0 20.5 -31t49.5 -31h319q174 0 248 -105q78 -109 78 -372q0 -273 -118 -379 q-104 -94 -351 -94h-299l117 238h289q254 0 254 235q0 240 -254 240h-213q-80 -74 -80 -111q0 -24 21 -31q15 -4 48 -4q14 0 51.5 3t75.5 3q35 0 62 -25q30 -30 30 -77z" />
<glyph unicode="&#xf03f;" horiz-adv-x="1071" d="M924 1413q0 -177 -141 -304q-89 -80 -263 -157v-233h-119v305q124 41 205 123q103 104 103 248q0 293 -301 293l-89 -218l-34 -2q-138 0 -138 115q0 84 82 142q92 67 254 67q191 0 314 -103q127 -106 127 -276zM596 457q0 -54 -39.5 -91.5t-93.5 -37.5t-91.5 38.5 t-37.5 92.5t37.5 92.5t91.5 38.5q55 0 94 -39t39 -94z" />
<glyph unicode="&#xf040;" horiz-adv-x="1331" d="M1229 1251h-103v107h103v-107zM1024 1251h-102v107h102v-107zM1229 1040h-103v107h103v-107zM819 1251h-102v107h102v-107zM1229 829h-103v107h103v-107zM614 1251h-102v107h102v-107zM1229 618h-103v107h103v-107zM410 1251h-103v107h103v-107zM1229 408h-103v106h103 v-106zM205 1251h-103v107h103v-107zM1229 199h-103v104h103v-104zM205 1040h-103v107h103v-107zM1229 0h-103v104h103v-104zM205 829h-103v107h103v-107zM1024 0h-102v104h102v-104zM205 618h-103v107h103v-107zM819 0h-102v104h102v-104zM614 0h-102v104h102v-104zM205 408 h-103v106h103v-106zM410 0h-103v104h103v-104zM205 199h-103v104h103v-104zM205 0h-103v104h103v-104z" />
<glyph unicode="&#xf041;" d="M737 -553q0 -40 -28 -68t-68 -28t-68 28t-28 68q0 53 88 285h-211v114h446v-114h-221q90 -238 90 -285z" />
<glyph unicode="&#xf042;" d="M475 -203l-219 -469l-104 49l219 469z" />
<glyph unicode="&#xf043;" d="M293 778q0 -40 -29 -68t-69 -28t-68.5 28t-28.5 68t28.5 68t68.5 28t69 -28t29 -68z" />
<glyph unicode="&#xf044;" d="M535 1952q0 -39 -28 -66.5t-67 -27.5q-37 0 -63.5 27.5t-26.5 66.5q0 37 26.5 63.5t63.5 26.5q39 0 67 -26.5t28 -63.5zM535 1638q0 -38 -28 -65t-67 -27q-37 0 -63.5 27t-26.5 65q0 37 26.5 64t63.5 27q39 0 67 -27t28 -64zM254 1546h-117v496h117v-496z" />
<glyph unicode="&#xf045;" d="M899 -244q0 -38 -27.5 -66t-64.5 -28q-38 0 -64 27.5t-26 66.5q0 38 26 64t64 26q37 0 64.5 -26.5t27.5 -63.5zM565 -244q0 -38 -28 -66t-66 -28q-37 0 -63.5 28t-26.5 66q0 37 26.5 63.5t63.5 26.5q38 0 66 -26.5t28 -63.5z" />
<glyph unicode="&#xf046;" d="M322 678q0 -40 -29.5 -68t-69.5 -28q-39 0 -67.5 28t-28.5 68q0 39 28.5 67.5t67.5 28.5q40 0 69.5 -28t29.5 -68z" />
<glyph unicode="&#xf047;" d="M782 678q0 -40 -29 -68t-69 -28q-39 0 -66.5 28t-27.5 68t27.5 68t66.5 28q40 0 69 -28t29 -68z" />
<glyph unicode="&#xf048;" horiz-adv-x="1430" d="M1321 1640q0 -38 -28.5 -66t-65.5 -28q-38 0 -65 28t-27 66q0 37 27 64t65 27q37 0 65.5 -27t28.5 -64zM1341 1145q0 -153 -87 -396q-36 -101 -171 -415q-102 -236 -120 -334h-734q-6 123 -79 365q-68 229 -68 358q0 164 65 305q-51 32 -66 78q-13 38 -13 129 q0 90 43 157q33 52 55 52q18 0 18 -21q0 -6 -3 -11.5t-3 -10.5q0 -25 139 -72q74 -25 97 -67q18 -34 18 -117q0 -82 -45 -166q-38 -70 -53 -70q-12 0 -12 17q0 3 2 5t2 11q0 14 -12.5 20t-100.5 35q-6 2 -16 7q-47 -109 -47 -211q0 -78 49 -230q47 -144 94 -223h21 q187 301 296 682q-56 31 -74 85q-14 39 -14 128q0 90 43 157q34 52 56 52q18 0 18 -21q0 -6 -2 -11.5t-2 -10.5q0 -25 137 -72q72 -24 95 -68q20 -35 20 -116q0 -82 -46 -166q-38 -70 -53 -70q-12 0 -12 17q0 3 2 5t2 11q0 13 -13 20q-9 4 -91 31q-116 -395 -267 -653h532 q25 65 179 331q119 205 119 298q0 21 -26 27q-83 19 -111 28q-70 23 -96 71q-23 44 -23 140q0 90 43 157q33 52 53 52q21 0 21 -21q0 -6 -3 -11.5t-3 -10.5q0 -25 139 -72q67 -23 91 -71q17 -37 17 -113z" />
<glyph unicode="&#xf049;" d="M805 96q0 -38 -29.5 -67t-68.5 -29q-40 0 -68.5 29t-28.5 67q0 40 28.5 68.5t68.5 28.5t69 -28.5t29 -68.5z" />
<glyph unicode="&#xf04a;" d="M717 741q0 -39 -29 -67.5t-70 -28.5q-39 0 -67.5 28t-28.5 68t28.5 68.5t67.5 28.5q41 0 70 -28.5t29 -68.5z" />
<glyph unicode="&#xf04b;" d="M952 678q0 -40 -29 -68t-69 -28t-68 28t-28 68t28 68t68 28t69 -28t29 -68z" />
<glyph unicode="&#xf04c;" d="M1010 678q0 -40 -29.5 -68t-69.5 -28t-68 28t-28 68t28 68t68 28t69.5 -28t29.5 -68z" />
<glyph unicode="&#xf04d;" d="M512 2015l-219 -471l-107 49l220 469z" />
<glyph unicode="&#xf04e;" horiz-adv-x="646" d="M526 1018h-168q-118 -134 -114 -264l12 -414h270v-340h-399v715q0 163 119 303q-73 3 -101 57q-26 50 -26 168q0 201 57 201q12 0 29.5 -43t70.5 -43h250v-340zM415 1536q0 -40 -29 -68.5t-69 -28.5t-68 28.5t-28 68.5t28 68t68 28t69 -28.5t29 -67.5z" />
<glyph unicode="&#xf04f;" d="M387 1640q0 -39 -29.5 -67.5t-68.5 -28.5q-40 0 -68 28.5t-28 67.5q0 40 28 68.5t68 28.5q39 0 68.5 -28.5t29.5 -68.5z" />
<glyph unicode="&#xf050;" d="M578 1544h-504v129h375v375h129v-504z" />
<glyph unicode="&#xf051;" d="M559 1546h-113v223q0 45 -32 77t-76 32q-46 0 -78.5 -32t-32.5 -77h-116q0 94 65.5 160t159.5 66q92 0 157.5 -66t65.5 -160v-223z" />
<glyph unicode="&#xf052;" d="M506 1548h-346l198 166h-198l198 164h-198l303 254h43l-203 -168h203l-199 -166h199l-199 -166h199v-84z" />
<glyph unicode="&#xf053;" horiz-adv-x="1430" d="M1341 1145q0 -153 -87 -396q-36 -101 -171 -415q-102 -236 -120 -334h-734q-6 123 -79 365q-68 229 -68 358q0 164 65 305q-51 32 -66 78q-13 38 -13 129q0 90 43 157q33 52 55 52q18 0 18 -21q0 -6 -3 -11.5t-3 -10.5q0 -25 139 -72q74 -25 97 -67q18 -34 18 -117 q0 -82 -45 -166q-38 -70 -53 -70q-12 0 -12 17q0 3 2 5t2 11q0 14 -12.5 20t-100.5 35q-6 2 -16 7q-47 -109 -47 -211q0 -78 49 -230q47 -144 94 -223h21q187 301 296 682q-56 31 -74 85q-14 39 -14 128q0 90 43 157q34 52 56 52q18 0 18 -21q0 -6 -2 -11.5t-2 -10.5 q0 -25 137 -72q72 -24 95 -68q20 -35 20 -116q0 -82 -46 -166q-38 -70 -53 -70q-12 0 -12 17q0 3 2 5t2 11q0 13 -13 20q-9 4 -91 31q-116 -395 -267 -653h532q25 65 179 331q119 205 119 298q0 21 -26 27q-83 19 -111 28q-70 23 -96 71q-23 44 -23 140q0 90 43 157 q33 52 53 52q21 0 21 -21q0 -6 -3 -11.5t-3 -10.5q0 -25 139 -72q67 -23 91 -71q17 -37 17 -113z" />
<glyph unicode="&#xf054;" d="M506 -203l-219 -469l-107 49l219 469zM238 -203l-220 -469l-106 49l219 469z" />
<glyph unicode="&#xf055;" d="M641 2015l-219 -471l-107 49l220 469zM371 2015l-217 -471l-109 49l219 469z" />
<glyph unicode="&#xf056;" horiz-adv-x="455" d="M430 1546h-115v223q0 45 -32 77t-76 32q-45 0 -77 -32t-32 -77h-116q0 94 65 160t158 66t159 -66t66 -160v-223z" />
<glyph unicode="&#xf057;" horiz-adv-x="1430" d="M373 1640q0 -38 -28 -66t-66 -28q-37 0 -64 28t-27 66q0 37 27 64t64 27q38 0 66 -27t28 -64zM1341 1145q0 -153 -87 -396q-36 -101 -171 -415q-102 -236 -120 -334h-734q-6 123 -79 365q-68 229 -68 358q0 164 65 305q-51 32 -66 78q-13 38 -13 129q0 90 43 157 q33 52 55 52q18 0 18 -21q0 -6 -3 -11.5t-3 -10.5q0 -25 139 -72q74 -25 97 -67q18 -34 18 -117q0 -82 -45 -166q-38 -70 -53 -70q-12 0 -12 17q0 3 2 5t2 11q0 14 -12.5 20t-100.5 35q-6 2 -16 7q-47 -109 -47 -211q0 -78 49 -230q47 -144 94 -223h21q187 301 296 682 q-56 31 -74 85q-14 39 -14 128q0 90 43 157q34 52 56 52q18 0 18 -21q0 -6 -2 -11.5t-2 -10.5q0 -25 137 -72q72 -24 95 -68q20 -35 20 -116q0 -82 -46 -166q-38 -70 -53 -70q-12 0 -12 17q0 3 2 5t2 11q0 13 -13 20q-9 4 -91 31q-116 -395 -267 -653h532q25 65 179 331 q119 205 119 298q0 21 -26 27q-83 19 -111 28q-70 23 -96 71q-23 44 -23 140q0 90 43 157q33 52 53 52q21 0 21 -21q0 -6 -3 -11.5t-3 -10.5q0 -25 139 -72q67 -23 91 -71q17 -37 17 -113z" />
<glyph unicode="&#xf058;" horiz-adv-x="1356" d="M1253 719q0 -150 -149 -719h-938q2 138 -22 329q-25 198 -25 316q0 200 121 381q-77 33 -103 82q-22 40 -22 127q0 90 44 157q35 52 56 52t21 -21q0 -6 -3.5 -11.5t-3.5 -10.5q0 -13 47 -28q86 -30 132 -50q69 -31 91.5 -65.5t22.5 -112.5q0 -82 -45 -166 q-38 -70 -53 -70q-12 0 -12 17q0 3 2 5t2 11q0 14 -117 57q-88 -152 -88 -258q0 -87 38 -220q41 -145 44 -181h805q76 231 76 328q0 172 -89 267q-79 85 -198 85q-110 0 -165 -87q-44 -68 -44 -169q0 -15 3 -45t3 -39q0 -18 -13 -36.5t-28 -18.5q-57 0 -57 141q0 63 42 195 q48 150 58 235q3 21 3 44q0 25 -4 61.5t-4 47.5q0 23 9 33q7 7 39 7q77 0 173 -31q121 -38 190 -105q100 -98 136 -207q27 -79 27 -204q0 -20 -1 -60.5t-1 -62.5z" />
<glyph unicode="&#xf059;" d="M545 -623l-107 -49l-219 469l107 49z" />
<glyph unicode="&#xf05a;" d="M739 -657h-501v131h372v372h129v-503z" />
<glyph unicode="&#xf05b;" horiz-adv-x="655" d="M481 -698h-411v43h262v2297h-262v44h411v-2384z" />
<glyph unicode="&#xf05c;" horiz-adv-x="1026" d="M1024 -102h-131l-893 1599h135z" />
<glyph unicode="&#xf05d;" horiz-adv-x="655" d="M586 -698h-412v2384h412v-44h-262v-2297h262v-43z" />
<glyph unicode="&#xf05e;" d="M477 -604q0 -78 -60 -138.5t-138 -60.5h-246v117h252q35 0 58 23q19 19 19 42q0 61 -88 78q-150 28 -165 35q-89 40 -89 158q0 77 61 136.5t140 59.5h244v-114h-252q-34 0 -54 -21.5t-20 -46.5q0 -61 88 -78q149 -27 163 -33q87 -40 87 -157z" />
<glyph unicode="&#xf05f;" d="M465 -203l-219 -469l-107 49l219 469zM205 -244q0 -38 -28 -66t-66 -28q-37 0 -64 28t-27 66q0 37 27 63.5t64 26.5q38 0 66 -26.5t28 -63.5z" />
<glyph unicode="&#xf060;" d="M473 -590l-67 -94l-379 264l379 266l67 -94l-244 -172z" />
<glyph unicode="&#xf061;" d="M864 -268h-448v114h448v-114zM0 1881z" />
<glyph unicode="&#xf062;" horiz-adv-x="1262" d="M1307 340l-179 -340h-1099l164 340h876l-16 567q-4 111 -172 111h-625q-79 0 -109 54q-28 50 -28 171q0 201 57 201q12 0 29.5 -43t70.5 -43h586q281 0 281 -297v-721h164z" />
<glyph unicode="&#xf063;" horiz-adv-x="1313" d="M1210 340q0 -81 -53 -215l-55 -125h-996l105 340h760q17 0 17 9q0 10 -17 20l-383 217q-117 66 -117 178v192q0 62 -55 62h-160q-79 0 -109 54q-28 50 -28 171q0 201 57 201q11 0 28.5 -43t71.5 -43h107q166 0 166 -205v-197q0 -143 104 -192l144 -68l137 303 q-115 52 -141.5 87.5t-26.5 134.5q0 91 37 158q28 53 47 53q18 0 18 -21q0 -6 -2 -12t-2 -10q0 -14 58 -30q120 -34 145 -42q68 -23 93 -63q22 -35 22 -109q0 -83 -33 -177q-29 -81 -41 -81q-21 0 -21 12v19q0 16 -100 61l-133 -311q238 -107 306 -179q50 -52 50 -149z" />
<glyph unicode="&#xf064;" horiz-adv-x="1380" d="M1280 1188q0 -72 -37.5 -119.5t-87.5 -50.5l39 -854q1 -22 -55 -93t-72 -71q-27 0 -27 43q0 112 37 975h-833q-79 0 -110 54q-28 50 -28 171q0 201 58 201q10 0 28.5 -43t71.5 -43h881q59 0 97 -47t38 -123z" />
<glyph unicode="&#xf065;" d="M899 -244q0 -38 -27.5 -66t-64.5 -28q-38 0 -64 27.5t-26 66.5q0 38 26 64t64 26q37 0 64.5 -26.5t27.5 -63.5zM565 -244q0 -38 -28 -66t-66 -28q-37 0 -63.5 28t-26.5 66q0 37 26.5 63.5t63.5 26.5q38 0 66 -26.5t28 -63.5zM733 -557q0 -37 -27.5 -64.5t-64.5 -27.5 q-38 0 -65 27.5t-27 64.5q0 38 26.5 64t63.5 26q39 0 66.5 -26t27.5 -64z" />
<glyph unicode="&#xf066;" d="M1146 -244q0 -38 -28 -66t-66 -28q-37 0 -64 28t-27 66q0 37 27 63.5t64 26.5q38 0 66 -26.5t28 -63.5zM1146 -557q0 -37 -28 -64.5t-66 -27.5q-37 0 -64 27.5t-27 64.5q0 38 26.5 64t64.5 26t66 -26t28 -64zM653 -244q0 -38 -28 -66t-66 -28q-37 0 -63.5 28t-26.5 66 q0 37 26.5 63.5t63.5 26.5q38 0 66 -26.5t28 -63.5zM319 -244q0 -38 -28 -66t-66 -28q-37 0 -63.5 28t-26.5 66q0 37 26.5 63.5t63.5 26.5q38 0 66 -26.5t28 -63.5zM487 -557q0 -37 -28 -64.5t-66 -27.5q-37 0 -63.5 27.5t-26.5 64.5q0 38 26.5 64t63.5 26q39 0 66.5 -26 t27.5 -64zM867 -649h-117v495h117v-495z" />
<glyph unicode="&#xf067;" horiz-adv-x="741" d="M686 248q0 -248 -29 -248q-20 0 -22 27q-5 47 -63 232q-54 169 -54 284q0 64 11.5 202.5t11.5 161.5q0 111 -185 111h-100q-79 0 -109 54q-28 50 -28 171q0 201 57 201q12 0 29.5 -43t70.5 -43h62q278 0 278 -297q0 -51 -10 -103.5t-10 -134.5q0 -59 45 -266.5t45 -308.5 zM545 340l-113 -340h-377l86 340h404z" />
<glyph unicode="&#xf068;" horiz-adv-x="1380" d="M1280 1188q0 -75 -39.5 -122.5t-91.5 -47.5h-8l53 -854q1 -22 -55 -93t-72 -71q-27 0 -27 43q0 176 21 975h-817q-79 0 -110 54q-28 50 -28 171q0 201 58 201q10 0 28.5 -43t71.5 -43h881q59 0 97 -47t38 -123zM330 319q0 -201 -31 -233q-21 -22 -69 -52q-53 -34 -74 -34 q-39 0 -39 41q0 25 15.5 52.5t32.5 54.5q23 54 23 163q0 35 -3 96t-3 117q0 65 41 136q39 67 66 67q26 0 26 -18q0 -8 -9 -38.5t-9 -68.5q0 -30 16.5 -109t16.5 -174z" />
<glyph unicode="&#xf069;" d="M733 -244q0 -38 -27.5 -66t-64.5 -28q-38 0 -65 28t-27 66q0 37 26.5 63.5t63.5 26.5q38 0 66 -26.5t28 -63.5z" />
<glyph unicode="&#xf06a;" d="M487 -219l-266 -381l-266 381l96 65l170 -243l170 243z" />
<glyph unicode="&#xf06b;" horiz-adv-x="1262" d="M1198 678q0 -392 -168 -544q-148 -134 -500 -134h-501l164 340h579q171 0 265 84q98 88 98 254q0 340 -363 340h-516q-79 0 -109 54q-28 50 -28 171q0 201 57 201q12 0 29.5 -43t70.5 -43h459q246 0 352 -150q111 -156 111 -530z" />
<glyph unicode="&#xf06c;" horiz-adv-x="1343" d="M1225 782q0 -222 -219 -381q-143 -103 -221 -218l-80 -148q-31 -55 -84 -55q-37 0 -64 27q-31 30 -31 77q0 69 67 149q84 102 241 168q199 86 263 176q42 59 42 168q0 119 -54 193q-56 78 -149 78h-633q-127 0 -172 50q-39 44 -39 159v321q0 117 41 200q26 54 76 102 q41 39 41 48q0 35 -79 58.5t-79 64.5q0 58 34 110q29 44 44 44q16 0 16 -10q0 -2 -2 -8.5t-2 -8.5q0 -9 44 -24q56 -19 82 -40q44 -35 44 -91q0 -30 -25 -67q-34 -49 -48 -91q-25 -77 -25 -207v-182q0 -48 13 -65q17 -21 69 -21h672q152 0 172 -127l37 -234q8 -52 8 -215z " />
<glyph unicode="&#xf06d;" horiz-adv-x="1329" d="M1229 719q0 -209 -125 -719h-655l75 340h574q37 143 37 301q0 166 -123 272.5t-318 106.5q-168 0 -297 -120t-129 -267q0 -96 18.5 -175t18.5 -139q0 -197 -33 -233q-78 -86 -116 -86q-39 0 -39 41q0 25 14 53q33 66 33 232q0 32 -5 122.5t-5 147.5q0 184 133 317 q17 18 69 58l-77 26q-31 15 -68 31q-51 32 -67 78q-13 38 -13 129q0 89 63 157q48 52 74 52q19 0 19 -21q0 -6 -2 -11.5t-2 -10.5q0 -25 137 -72q71 -24 96 -61t25 -123q0 -43 -13 -80l93 26q65 22 65 56q0 44 -13.5 113t-13.5 92q0 66 63 66q73 0 179 -44q119 -50 186 -123 q143 -153 143 -447q0 -18 -1 -47v-38z" />
<glyph unicode="&#xf06e;" horiz-adv-x="717" d="M662 272q0 -124 -41 -272h-566l62 340h407q-6 198 -6 293q0 63 11.5 157t11.5 117q0 111 -185 111h-100q-79 0 -109 54q-28 50 -28 171q0 201 57 201q12 0 29.5 -43t70.5 -43h62q278 0 278 -297q0 -51 -12 -116.5t-12 -147.5q0 -63 35 -252.5t35 -272.5z" />
<glyph unicode="&#xf06f;" d="M737 -553q0 -40 -28 -68t-68 -28t-68 28t-28 68q0 53 88 285h-211v114h446v-114h-221q90 -238 90 -285z" />
<glyph unicode="&#xf070;" horiz-adv-x="1262" d="M649 694q0 -65 -46 -105q-39 -34 -87 -34h-272q-55 0 -86 -43t-39 -43q-17 0 -17 20q0 11 13.5 69t13.5 112q0 20 -6 66t-6 77q0 104 135 205q-77 1 -107 56q-26 49 -26 169q0 201 57 201q12 0 29.5 -43t70.5 -43h463q258 0 357 -156q92 -145 92 -512v-377l-111 -313 h-1024l88 340h969v272q0 229 -61 303q-86 103 -373 103h-348q-95 -88 -95 -137q0 -36 36 -45q15 -5 65 -5q19 0 73.5 3.5t108.5 3.5q49 0 88 -37q45 -41 45 -107z" />
<glyph unicode="&#xf071;" horiz-adv-x="1247" d="M1184 758q0 -260 -86 -367q-70 -88 -303 -170q-151 -53 -233 -112q-41 -30 -82 -80q-25 -31 -54 -31q-43 0 -43 61q0 107 58 177q96 114 360 190q195 56 235 87q82 62 82 232q0 130 -67 203q-63 70 -166 70h-629q-79 0 -109 54q-28 50 -28 171q0 201 57 201 q12 0 29.5 -43t70.5 -43h574q165 0 237 -101q97 -135 97 -499zM307 756q0 -5 -40 -69.5t-40 -164.5q0 -188 37 -457.5t37 -383.5q0 -206 -39 -346q-35 -130 -80 -130q-63 0 -63 90q0 4 7 146.5t7 296.5q0 67 -12 378t-12 343q0 134 72 240q62 92 112 92q14 0 14 -35z" />
<glyph unicode="&#xf072;" horiz-adv-x="1331" d="M1221 164q0 -23 -57 -93.5t-72 -70.5q-25 0 -25 43q0 27 34 394.5t34 463.5q0 117 -179 117h-712q-79 0 -110 54q-28 50 -28 171q0 201 58 201q10 0 28.5 -43t71.5 -43h676q278 0 279 -297z" />
<glyph unicode="&#xf073;" horiz-adv-x="1274" d="M373 1018q-90 -74 -135 -185q-31 -79 -31 -143q0 -154 93 -260q97 -111 243 -111h209q162 0 272.5 104.5t110.5 254.5q0 176 -74 253q-83 87 -289 87h-399zM1198 678q0 -312 -127 -495q-145 -210 -434 -210q-255 0 -382 172q-114 152 -114 418q0 303 152 455h-49 q-79 0 -110 54q-28 50 -28 171q0 201 58 201q10 0 28.5 -43t71.5 -43h471q228 0 347 -178q116 -174 116 -502z" />
<glyph unicode="&#xf074;" horiz-adv-x="1348" d="M1245 164q2 -23 -42.5 -93.5t-59.5 -70.5q-25 0 -25 43q0 16 2 427t2 431q0 117 -190 117h-592q-92 -173 -92 -324q0 -86 97 -229t97 -209q0 -121 -46 -191q-43 -65 -109 -65h-264l59 340h154q-31 34 -59 126q-25 87 -25 142q0 118 25 203q21 72 89 207h-22 q-79 0 -110 54q-28 50 -28 171q0 201 58 201q10 0 28.5 -43t71.5 -43h649q256 0 275 -297z" />
<glyph unicode="&#xf075;" d="M530 -233q0 -34 -25 -59t-59 -25q-33 0 -57 25t-24 59q0 33 24 57t57 24q34 0 59 -24t25 -57zM725 -489q0 -34 -25 -59t-59 -25q-35 0 -59.5 24.5t-24.5 59.5q0 33 24 57t58 24q35 0 60.5 -24t25.5 -57zM918 -745q0 -34 -25 -58t-59 -24t-58 24t-24 58q0 33 24 57t58 24 t59 -24t25 -57z" />
<glyph unicode="&#xf076;" horiz-adv-x="1163" d="M1100 1133q0 -66 -41 -164q-63 -151 -86 -228q-29 -97 -44 -241q-15 -137 -28 -174q-35 -102 -85 -144q-74 -62 -255 -92l-543 -90l50 348l288 47q12 21 12 46q0 49 -82 196.5t-82 239.5q0 71 40 135q-83 22 -110 78q-19 40 -19 131q0 92 36 158q28 53 48 53q18 0 18 -21 q0 -6 -2 -12t-2 -10q0 -14 58 -30q120 -34 145 -42q68 -23 93 -63q21 -35 21 -109q0 -82 -33 -158q-27 -63 -40 -63q-23 0 -23 14v18q0 10 -41 18q-48 9 -96 17q-15 -30 -15 -64q0 -61 85 -194.5t85 -212.5q0 -55 -30 -108l153 18q136 16 184 48q45 30 79 120l63 170 q23 63 52 111q22 38 22 41q0 23 -54 44l-139 46t-95 72q-23 44 -23 139q0 91 43 158q34 53 55 53q18 0 18 -21q0 -6 -2 -12t-2 -10q0 -26 137 -72q187 -63 187 -184z" />
<glyph unicode="&#xf077;" horiz-adv-x="690" d="M567 164q0 -23 -56.5 -93.5t-72.5 -70.5q-24 0 -24 43q0 27 34.5 394.5t34.5 463.5q0 117 -127 117h-137q-79 0 -109 54q-28 50 -28 171q0 201 55 201q12 0 30 -43t71 -43h127q200 0 200 -297z" />
<glyph unicode="&#xf078;" horiz-adv-x="1380" d="M1280 1188q0 -75 -39.5 -122.5t-91.5 -47.5h-8l53 -854q1 -22 -55 -93t-72 -71q-27 0 -27 43q0 176 21 975h-717q-76 -71 -76 -219q0 -11 31 -196t31 -284q0 -201 -31 -233q-21 -22 -69 -52q-53 -34 -74 -34q-39 0 -39 41q0 25 14 53q33 66 33 232q0 33 -5 167.5 t-5 190.5q0 211 106 334h-16q-79 0 -110 54q-28 50 -28 171q0 201 58 201q10 0 28.5 -43t71.5 -43h881q59 0 97 -47t38 -123z" />
<glyph unicode="&#xf079;" horiz-adv-x="641" d="M580 1061q0 -147 -20 -262q-21 -121 -52 -121q-28 0 -33 15v32q0 6 10.5 68.5t10.5 107.5q0 117 -166 117h-99q-79 0 -110 54q-29 50 -29 171q0 201 60 201q10 0 28.5 -43t71.5 -43h59q267 0 269 -297z" />
<glyph unicode="&#xf07a;" horiz-adv-x="707" d="M637 1157q0 -86 -38 -159q-34 -64 -60 -64q-13 0 -13 16q0 4 2 6t2 13q0 32 -141 49q-49 -88 -49 -133q0 -28 46 -252.5t46 -253.5q0 -113 -44 -249q-43 -130 -73 -130q-22 0 -22 23q0 -2 16.5 49t16.5 88q0 21 -45 242t-45 257q0 185 94 365l-35 2q-122 7 -162.5 48 t-40.5 161q0 64 33.5 136.5t64.5 72.5q21 0 21 -21q0 -6 -3 -11.5t-3 -10.5q0 -28 198 -43q234 -18 234 -201z" />
<glyph unicode="&#xf07b;" horiz-adv-x="1278" d="M1120 524q-113 0 -162 -9q-92 -16 -141 -71q-53 -59 -68 -199q-6 -58 -6 -231q0 -224 -8 -291q-20 -155 -98 -247q-110 -131 -457 -131v125q199 0 269 88q47 60 59 195q4 50 4 251q0 306 74 416q84 125 278 176q-194 48 -278 172q-74 108 -74 416q0 203 -4 251 q-11 135 -59 195q-73 90 -269 90v123q348 0 457 -131q78 -93 98 -247q8 -69 8 -289q0 -173 6 -231q15 -140 68 -200q44 -49 118 -66q59 -14 185 -15v-140z" />
<glyph unicode="&#xf07c;" horiz-adv-x="586" d="M219 0h-117v1358h117v-1358z" />
<glyph unicode="&#xf07d;" horiz-adv-x="1278" d="M1098 -655q-347 0 -457 131q-78 92 -98 247q-8 67 -8 291q0 171 -7 231q-14 140 -67 199q-48 55 -141 71q-50 9 -162 9v140q126 1 185 15q75 18 118 66q53 60 67 200q7 60 7 231q0 220 8 289q20 154 98 247q109 131 457 131v-123q-194 0 -267 -90q-48 -60 -59 -195 q-4 -48 -4 -251q0 -305 -76 -416q-84 -124 -276 -172q193 -52 276 -176q76 -113 76 -416q0 -201 4 -251q12 -135 59 -195q70 -88 267 -88v-125z" />
<glyph unicode="&#xf07e;" d="M25 2046q87 0 150 -62.5t63 -150.5t-63 -150.5t-150 -62.5q-89 0 -151 62.5t-62 150.5t62 150.5t151 62.5zM25 1987q-65 0 -109.5 -45.5t-44.5 -108.5t44.5 -108.5t109.5 -45.5q62 0 106.5 45.5t44.5 108.5t-44.5 108.5t-106.5 45.5z" />
<glyph unicode="&#xf080;" d="M831 1901q-95 -56 -151 -152q-55 95 -150 152q93 55 150 153q57 -99 151 -153z" />
<glyph unicode="&#xf081;" d="M774 1952q0 -39 -28 -66.5t-66 -27.5q-37 0 -63.5 27.5t-26.5 66.5q0 37 26.5 63.5t63.5 26.5q38 0 66 -26.5t28 -63.5zM774 1638q0 -38 -27.5 -65t-66.5 -27q-37 0 -63.5 27t-26.5 65q0 37 26.5 64t63.5 27q38 0 66 -27t28 -64z" />
<glyph unicode="&#xf082;" d="M104 1950q0 -37 -27.5 -63.5t-64.5 -26.5q-38 0 -65 26.5t-27 63.5q0 38 27 65t65 27t65 -27t27 -65zM272 1636q0 -36 -28.5 -63t-65.5 -27q-38 0 -65 26.5t-27 63.5q0 39 27 66t65 27t66 -27.5t28 -65.5zM-63 1638q0 -38 -27.5 -65t-65.5 -27t-65 27t-27 65t27 65.5 t65 27.5q37 0 65 -28t28 -65z" />
<glyph unicode="&#xf083;" d="M125 1550l-31 -8l-61 232q-25 -5 -37 -5q-85 0 -145 60.5t-60 146.5q0 85 60 145t145 60q86 0 146.5 -60t60.5 -145q0 -66 -39.5 -120t-100.5 -74zM172 1976q0 73 -52 124.5t-124 51.5t-123 -51.5t-51 -124.5q0 -72 51 -124t123 -52t124 52t52 124z" />
<glyph unicode="&#xf084;" d="M750 1774l-62 -232l-29 8l62 232q-135 48 -135 194q0 85 60 145t145 60t145.5 -60t60.5 -145q0 -86 -60 -146.5t-146 -60.5q-13 0 -41 5zM967 1976q0 73 -51.5 124.5t-124.5 51.5t-125 -51.5t-52 -124.5q0 -72 52 -124t125 -52t124.5 52t51.5 124z" />
<glyph unicode="&#xf085;" d="M582 1976q0 -77 -50 -133l150 -149l149 149q-49 56 -49 133q0 85 59.5 145t145.5 60q85 0 146 -60t61 -145t-61 -146t-146 -61q-74 0 -135 52l-172 -170l-170 170q-61 -52 -135 -52q-86 0 -145.5 60.5t-59.5 146.5q0 85 59.5 145t145.5 60q84 0 145.5 -60t61.5 -145z M1163 1976q0 73 -52 124.5t-124 51.5t-124 -51.5t-52 -124.5q0 -72 52 -124t124 -52t124 52t52 124zM551 1976q0 73 -52 124.5t-124 51.5q-74 0 -125 -51.5t-51 -124.5q0 -72 51 -124t125 -52q72 0 124 52t52 124z" />
<glyph unicode="&#xf086;" d="M893 1659l-68 -96l-379 266l379 266l68 -96l-244 -170z" />
<glyph unicode="&#xf087;" d="M913 1743h-333v-195h-115v494h115v-182h333v-117z" />
<glyph unicode="&#xf088;" d="M895 1952q0 -39 -28 -66.5t-66 -27.5q-37 0 -63.5 27.5t-26.5 66.5q0 37 26.5 63.5t63.5 26.5q38 0 66 -26.5t28 -63.5zM895 1638q0 -38 -28 -65t-66 -27q-37 0 -63.5 27t-26.5 65q0 37 26.5 64t63.5 27q38 0 66 -27t28 -64zM612 1546h-114v496h114v-496z" />
<glyph unicode="&#xf089;" d="M848 1593l-107 -49l-219 471l107 47z" />
<glyph unicode="&#xf08a;" d="M872 2015l-219 -471l-106 49l219 469z" />
<glyph unicode="&#xf08b;" d="M999 2015l-219 -471l-104 49l219 469zM731 2015l-219 -471l-106 49l219 469z" />
<glyph unicode="&#xf08c;" d="M938 1544h-504v129h375v375h129v-504z" />
<glyph unicode="&#xf08d;" d="M920 1546h-113v223q0 45 -32.5 77t-78.5 32q-44 0 -76 -32t-32 -77h-117q0 94 65.5 160t157.5 66q94 0 160 -66t66 -160v-223z" />
<glyph unicode="&#xf08e;" d="M864 1548h-346l201 166h-201l201 164h-201l303 254h43l-200 -168h200l-196 -166h196l-196 -166h196v-84z" />
<glyph unicode="&#xf08f;" d="M136 1594l-104 -49l-219 471l104 47z" />
<glyph unicode="&#xf090;" d="M211 1546h-115v223q0 45 -32 77t-76 32q-46 0 -78.5 -32t-32.5 -77h-117q0 94 66 160t160 66q92 0 158.5 -66t66.5 -160v-223z" />
<glyph unicode="&#xf091;" horiz-adv-x="494" d="M387 1352q0 -83 -92 -187q-82 -94 -115 -94q-20 0 -20 25q0 7 23.5 38.5t23.5 67.5q0 80 -162 156q56 32 115 93q56 57 73 97q154 -84 154 -196z" />
<glyph unicode="&#xf092;" horiz-adv-x="494" d="M508 1264q-57 -35 -114 -94t-75 -99q-153 88 -153 197q0 82 91 187q81 93 114 93q22 0 22 -24q0 -9 -23.5 -39.5t-23.5 -67.5q0 -83 162 -153z" />
<glyph unicode="&#xf093;" horiz-adv-x="815" d="M770 150q0 -83 -91 -188q-81 -93 -114 -93q-11 0 -15.5 4t-4.5 18q0 9 22.5 41t22.5 68q0 83 -162 154q57 34 115 93t73 97q154 -82 154 -194zM387 150q0 -83 -92 -188q-82 -93 -115 -93q-11 0 -15.5 4t-4.5 18q0 9 23.5 41t23.5 68q0 83 -162 154q56 34 115 94 q56 58 73 96q154 -84 154 -194z" />
<glyph unicode="&#xf094;" horiz-adv-x="1057" d="M893 1264q-58 -35 -115.5 -94.5t-72.5 -98.5q-154 86 -154 197q0 82 91 187q81 93 114 93q20 0 20 -24q0 -9 -23.5 -39.5t-23.5 -67.5q0 -82 164 -153zM508 1264q-57 -35 -114 -94t-75 -99q-153 88 -153 197q0 82 91 187q81 93 114 93q22 0 22 -24q0 -9 -23.5 -39.5 t-23.5 -67.5q0 -83 162 -153z" />
<glyph unicode="&#xf095;" horiz-adv-x="109" d="M166 -649h-117v495h117v-495z" />
<glyph unicode="&#xf096;" horiz-adv-x="1311" d="M1311 541h-1311v180h1311v-180zM1311 1881z" />
<glyph unicode="&#xf097;" horiz-adv-x="2621" d="M2621 541h-2621v180h2621v-180zM2621 1881z" />
<glyph unicode="&#xf098;" d="M129 -590l-68 -94l-378 264l378 266l68 -94l-244 -172z" />
<glyph unicode="&#xf099;" d="M152 -203l-220 -469l-106 49l219 469zM-109 -244q0 -38 -27.5 -66t-66.5 -28q-37 0 -63.5 28t-26.5 66q0 37 26.5 63.5t63.5 26.5q39 0 66.5 -26.5t27.5 -63.5z" />
<glyph unicode="&#xf09a;" d="M113 -219l-267 -381l-266 381l96 65l170 -243l170 243z" />
<glyph unicode="&#xf09b;" d="M354 -623l-104 -49l-219 469l104 49z" />
<glyph unicode="&#xf09c;" d="M152 -203l-220 -469l-106 49l219 469z" />
<glyph unicode="&#xf09d;" d="M995 -203l-219 -469l-104 49l219 469zM727 -203l-219 -469l-107 49l220 469z" />
<glyph unicode="&#xf09e;" d="M451 -657h-504v131h375v372h129v-503z" />
<glyph unicode="&#xf09f;" horiz-adv-x="213" d="M408 -604q0 -79 -60.5 -139t-140.5 -60h-246v117h252q35 0 58 23q20 19 20 42q0 61 -88 78q-149 28 -164 35q-88 40 -88 158q0 77 60 136.5t139 59.5h243v-114h-250q-35 0 -57 -23q-18 -20 -18 -45q0 -61 88 -78q150 -27 163 -33q89 -40 89 -157z" />
<glyph unicode="&#xf0a0;" horiz-adv-x="700" />
<glyph unicode="&#xf0a1;" d="M618 -532l-96 -66l-170 242l-170 -242l-96 66l266 378z" />
<glyph unicode="&#xf0a2;" horiz-adv-x="1380" d="M1280 1188q0 -72 -37.5 -119.5t-87.5 -50.5l39 -1512q1 -21 -55 -91t-72 -70q-27 0 -27 43q0 52 15 738q16 738 22 892h-833q-79 0 -110 54q-28 50 -28 171q0 201 58 201q10 0 28.5 -43t71.5 -43h881q59 0 97 -47t38 -123z" />
<glyph unicode="&#xf0a3;" horiz-adv-x="1350" d="M358 1018q-118 -134 -114 -264l12 -414h877l-17 567q-2 69 -39 92q-30 19 -106 19h-613zM1231 0h-1104v715q0 163 119 303q-73 3 -101 57q-26 50 -26 168q0 201 57 201q12 0 29.5 -43t70.5 -43h676q279 0 279 -297v-1061z" />
<glyph unicode="&#xf0a4;" horiz-adv-x="752" d="M567 1106q0 -61 -72 -206q-70 -141 -65 -236l59 -1158q2 -21 -54.5 -91t-72.5 -70q-24 0 -24 43v1257q0 116 42 199t42 98q0 28 -62 45l-116 25q-84 21 -112 77q-19 40 -19 132q0 91 36 158q29 53 48 53q18 0 18 -21q0 -6 -2 -12t-2 -10q0 -13 83 -30q119 -25 171 -42 q64 -22 87 -82q15 -43 15 -129z" />
<glyph unicode="&#xf0a5;" horiz-adv-x="1262" d="M1182 -494q0 -21 -57 -91t-72 -70q-25 0 -25 43q0 27 35 722t35 791q0 117 -178 117h-592q-95 -88 -95 -137q0 -36 36 -45q15 -5 65 -5q19 0 73.5 3.5t108.5 3.5q49 0 88 -37q45 -41 45 -107q0 -65 -46 -105q-39 -34 -87 -34h-272q-55 0 -86 -43t-39 -43q-17 0 -17 20 q0 11 13.5 69t13.5 112q0 20 -6 66t-6 77q0 104 135 205q-77 1 -107 56q-26 49 -26 169q0 201 57 201q12 0 29.5 -43t70.5 -43h625q278 0 279 -297z" />
<glyph unicode="&#xf0a6;" horiz-adv-x="1210" d="M563 1106q0 -61 -72 -206q-70 -141 -65 -236l12 -248q67 158 183 330q106 157 200 251q-81 46 -109 77q-32 33 -32 78q0 31 16 91q24 89 73 155q40 54 56 52q21 -3 17 -25q-3 -5 -8 -20q-4 -19 176 -115q91 -48 91 -131q0 -24 -5 -57q-13 -82 -60 -170q-41 -76 -53 -74 q-21 4 -18 16q0 2 2 19t-72 63q-115 -115 -247 -336q-146 -245 -197 -440l43 -823q1 -21 -59.5 -91.5t-76.5 -70.5q-17 0 -22 14q-2 8 -2 27v1409q0 116 42 199t42 98q0 28 -62 45l-116 25q-84 21 -112 77q-19 40 -19 132q0 91 36 158q29 53 48 53q20 0 20 -21q0 -6 -3 -12 t-3 -10q0 -13 83 -30q119 -25 171 -42q64 -22 86 -82q16 -43 16 -129z" />
<glyph unicode="&#xf0a7;" horiz-adv-x="1380" d="M1280 1188q0 -72 -37.5 -119.5t-87.5 -50.5l39 -1512q1 -21 -55 -91t-72 -70q-27 0 -27 43q0 52 15 738q16 738 22 892h-833q-79 0 -110 54q-28 50 -28 171q0 201 58 201q10 0 28.5 -43t71.5 -43h881q59 0 97 -47t38 -123zM655 397q0 -40 -28.5 -69t-69.5 -29 q-40 0 -68 29t-28 69q0 28 88 283h-211v115h448v-115h-221q90 -238 90 -283z" />
<glyph unicode="&#xf0a8;" horiz-adv-x="752" d="M567 1106q0 -61 -72 -206q-70 -141 -65 -236l59 -1158q2 -21 -54.5 -91t-72.5 -70q-24 0 -24 43v1257q0 116 42 199t42 98q0 28 -62 45l-116 25q-84 21 -112 77q-19 40 -19 132q0 91 36 158q29 53 48 53q18 0 18 -21q0 -6 -2 -12t-2 -10q0 -13 83 -30q119 -25 171 -42 q64 -22 87 -82q15 -43 15 -129zM104 -553q0 -40 -28 -68t-68 -28t-69 28t-29 68q0 39 90 285h-213v114h449v-114h-222q90 -246 90 -285z" />
<glyph unicode="&#xf0a9;" horiz-adv-x="1262" d="M958 692q0 -38 -29 -67t-69 -29q-39 0 -67.5 28.5t-28.5 67.5q0 40 28 68t68 28t69 -28t29 -68zM1182 -494q0 -21 -57 -91t-72 -70q-25 0 -25 43q0 27 35 722t35 791q0 117 -178 117h-592q-95 -88 -95 -137q0 -36 36 -45q15 -5 65 -5q19 0 73.5 3.5t108.5 3.5 q49 0 88 -37q45 -41 45 -107q0 -65 -46 -105q-39 -34 -87 -34h-272q-55 0 -86 -43t-39 -43q-17 0 -17 20q0 11 13.5 69t13.5 112q0 20 -6 66t-6 77q0 104 135 205q-77 1 -107 56q-26 49 -26 169q0 201 57 201q12 0 29.5 -43t70.5 -43h625q278 0 279 -297z" />
<glyph unicode="&#xf0aa;" horiz-adv-x="1380" d="M723 678q0 -38 -27.5 -65t-64.5 -27q-39 0 -65.5 26.5t-26.5 65.5q0 37 27 63.5t65 26.5q37 0 64.5 -26.5t27.5 -63.5zM1280 1188q0 -72 -37.5 -119.5t-87.5 -50.5l39 -1512q1 -21 -55 -91t-72 -70q-27 0 -27 43q0 52 15 738q16 738 22 892h-833q-79 0 -110 54 q-28 50 -28 171q0 201 58 201q10 0 28.5 -43t71.5 -43h881q59 0 97 -47t38 -123zM723 365q0 -37 -27.5 -65t-64.5 -28q-38 0 -65 27.5t-27 65.5t26.5 65t65.5 27q37 0 64.5 -27t27.5 -65z" />
<glyph unicode="&#xf0ab;" horiz-adv-x="1159" d="M1061 524l-438 -356v184l303 277l-303 280v183l438 -357v-211zM541 524l-435 -356v184l302 277l-302 280v183l435 -357v-211z" />
<glyph unicode="&#xf0ac;" horiz-adv-x="1380" d="M727 678q0 -40 -28.5 -68t-67.5 -28q-40 0 -68 28t-28 68t28 68t68 28q39 0 67.5 -28.5t28.5 -67.5zM1280 1188q0 -72 -37.5 -119.5t-87.5 -50.5l39 -1512q1 -21 -55 -91t-72 -70q-27 0 -27 43q0 52 15 738q16 738 22 892h-833q-79 0 -110 54q-28 50 -28 171 q0 201 58 201q10 0 28.5 -43t71.5 -43h881q59 0 97 -47t38 -123z" />
<glyph unicode="&#xf0ad;" horiz-adv-x="1380" d="M727 678q0 -40 -28.5 -68t-67.5 -28q-40 0 -68 28t-28 68t28 68t68 28q39 0 67.5 -28.5t28.5 -67.5zM1280 1188q0 -72 -37.5 -119.5t-87.5 -50.5l39 -1512q1 -21 -55 -91t-72 -70q-27 0 -27 43q0 52 15 738q16 738 22 892h-833q-79 0 -110 54q-28 50 -28 171 q0 201 58 201q10 0 28.5 -43t71.5 -43h881q59 0 97 -47t38 -123zM725 -553q0 -40 -27 -68t-67 -28q-42 0 -70.5 28t-28.5 68q0 45 89 285h-211v114h448v-114h-221q88 -240 88 -285z" />
<glyph unicode="&#xf0ae;" d="M471 1901q-97 -59 -152 -152q-50 92 -149 152q97 58 149 153q56 -96 152 -153z" />
<glyph unicode="&#xf0af;" d="M414 1952q0 -39 -28 -66.5t-67 -27.5q-36 0 -63 27.5t-27 66.5q0 37 27 63.5t63 26.5q39 0 67 -26.5t28 -63.5zM414 1638q0 -38 -28 -65t-67 -27q-37 0 -63.5 27t-26.5 65q0 37 27 64t63 27q39 0 67 -27t28 -64z" />
<glyph unicode="&#xf0b0;" horiz-adv-x="700" />
<glyph unicode="&#xf0b1;" horiz-adv-x="698" d="M453 1950q0 -37 -28 -63.5t-67 -26.5q-36 0 -63 26.5t-27 63.5q0 38 26.5 65t63.5 27q39 0 67 -27t28 -65zM618 1636q0 -36 -27.5 -63t-66.5 -27q-37 0 -63.5 26.5t-26.5 63.5q0 39 26.5 66t63.5 27q39 0 66.5 -27t27.5 -66zM285 1638q0 -38 -28 -65t-67 -27 q-37 0 -63.5 27t-26.5 65q0 37 27 65t63 28q39 0 67 -28t28 -65z" />
<glyph unicode="&#xf0b2;" d="M770 1634q-72 -47 -115 -123q-39 75 -112 123q70 43 112 121q47 -79 115 -121z" />
<glyph unicode="&#xf0b3;" d="M770 -246q-72 -47 -115 -123q-39 75 -112 123q70 43 112 121q47 -79 115 -121z" />
<glyph unicode="&#xf0b4;" d="M967 1599l-596 230l596 227v-22l-537 -205l537 -205v-25z" />
<glyph unicode="&#xf0b5;" d="M596 1599l-596 230l596 227v-22l-537 -205l537 -205v-25z" />
<glyph unicode="&#xf0b6;" d="M324 1550l-29 -8l-62 232q-24 -5 -36 -5q-86 0 -145.5 60.5t-59.5 146.5q0 85 59.5 145t145.5 60q84 0 145 -60t61 -145q0 -67 -39.5 -120.5t-101.5 -73.5zM373 1976q0 73 -52 124.5t-124 51.5q-74 0 -125.5 -51.5t-51.5 -124.5q0 -72 51.5 -124t125.5 -52q72 0 124 52 t52 124z" />
<glyph unicode="&#xf0b7;" d="M197 678q0 -40 -30 -68t-71 -28q-38 0 -67 28t-29 68q0 39 29 67.5t67 28.5q41 0 71 -28.5t30 -67.5z" />
<glyph unicode="&#xf0b8;" d="M391 1774l-63 -232l-29 8l61 232q-135 48 -135 194q0 85 60.5 145t144.5 60q86 0 146.5 -60t60.5 -145q0 -86 -60.5 -146.5t-146.5 -60.5q-14 0 -39 5zM606 1976q0 73 -51.5 124.5t-124.5 51.5q-72 0 -123 -51.5t-51 -124.5q0 -72 51 -124t123 -52q73 0 124.5 52 t51.5 124z" />
<glyph unicode="&#xf0b9;" d="M221 1976q0 -77 -49 -133l150 -149l149 149q-49 56 -49 133q0 85 60 145t145 60q86 0 146.5 -60t60.5 -145q0 -86 -60.5 -146.5t-146.5 -60.5q-74 0 -135 52l-173 -170l-169 170q-62 -52 -136 -52q-85 0 -144.5 60.5t-59.5 146.5q0 85 59.5 145t144.5 60t146 -60t61 -145 zM803 1976q0 73 -52 124.5t-124 51.5t-123 -51.5t-51 -124.5q0 -72 51 -124t123 -52t124 52t52 124zM190 1976q0 73 -51.5 124.5t-124.5 51.5q-72 0 -124 -51.5t-52 -124.5q0 -72 52 -124t124 -52q73 0 124.5 52t51.5 124z" />
<glyph unicode="&#xf0ba;" d="M532 1659l-65 -96l-381 266l381 266l65 -96l-241 -170z" />
<glyph unicode="&#xf0bb;" horiz-adv-x="1159" d="M1053 168l-437 356v211l437 357v-187l-301 -274l301 -283v-180zM537 168l-437 356v211l437 357v-187l-304 -274l304 -283v-180z" />
<glyph unicode="&#xf0bc;" d="M553 1743h-334v-195h-115v494h115v-182h334v-117z" />
<glyph unicode="&#xf0bd;" d="M420 -649h-117v495h117v-495z" />
<glyph unicode="&#xf0be;" d="M569 -649h-114v495h114v-495z" />
<glyph unicode="&#xf0bf;" d="M739 -649h-114v495h114v-495z" />
<glyph unicode="&#xf0c0;" d="M762 -649h-115v495h115v-495z" />
<glyph unicode="&#xf0c1;" d="M1167 -649h-114v495h114v-495z" />
<glyph unicode="&#xf0c2;" d="M680 -268h-449v114h449v-114zM0 1881z" />
<glyph unicode="&#xf0c3;" d="M569 -553q0 -40 -28.5 -68t-69.5 -28q-40 0 -68 28t-28 68q0 39 90 285h-213v114h448v-114h-221q90 -246 90 -285z" />
<glyph unicode="&#xf0c4;" d="M569 -553q0 -40 -28.5 -68t-69.5 -28q-40 0 -68 28t-28 68q0 39 90 285h-213v114h448v-114h-221q90 -246 90 -285z" />
<glyph unicode="&#xf0c5;" d="M731 -246q0 -37 -27.5 -64.5t-64.5 -27.5q-38 0 -65 27.5t-27 64.5q0 39 27 65.5t65 26.5q37 0 64.5 -27t27.5 -65zM397 -246q0 -36 -28.5 -64t-65.5 -28q-38 0 -64 27.5t-26 64.5q0 39 26 65.5t64 26.5t66 -27t28 -65z" />
<glyph unicode="&#xf0c6;" d="M731 -246q0 -37 -27.5 -64.5t-64.5 -27.5q-38 0 -65 27.5t-27 64.5q0 39 27 65.5t65 26.5q37 0 64.5 -27t27.5 -65zM397 -246q0 -36 -28.5 -64t-65.5 -28q-38 0 -64 27.5t-26 64.5q0 39 26 65.5t64 26.5t66 -27t28 -65zM565 -557q0 -37 -28 -64.5t-66 -27.5t-64 27.5 t-26 64.5q0 38 26 64t64 26q39 0 66.5 -26t27.5 -64z" />
<glyph unicode="&#xf0c7;" d="M586 -244q0 -38 -28.5 -66t-65.5 -28q-39 0 -66 28t-27 66q0 37 27 63.5t66 26.5q37 0 65.5 -26.5t28.5 -63.5z" />
<glyph unicode="&#xf0c8;" d="M-12 1640q0 -39 -29 -67.5t-70 -28.5q-40 0 -68 28.5t-28 67.5q0 40 28 68.5t68 28.5q41 0 70 -28.5t29 -68.5z" />
<glyph unicode="&#xf0c9;" d="M344 -233q0 -34 -25.5 -59t-60.5 -25q-34 0 -58 25t-24 59q0 33 24 57t58 24q35 0 60.5 -24t25.5 -57zM537 -489q0 -34 -25.5 -59t-58.5 -25q-34 0 -58 25t-24 59q0 33 24 57t58 24t59 -24t25 -57zM729 -745q0 -34 -24.5 -58t-59.5 -24q-34 0 -58 24t-24 58q0 33 24 57 t58 24q35 0 59.5 -24t24.5 -57z" />
<glyph unicode="&#xf0ca;" horiz-adv-x="602" d="M541 1061q0 -147 -20 -262q-21 -121 -52 -121q-26 0 -31 15v32q0 6 9.5 68.5t9.5 107.5q0 117 -164 117h-100q-79 0 -110 54q-28 50 -28 171q0 201 58 201q10 0 28.5 -43t71.5 -43h61q265 0 267 -297zM1491 -244q0 -38 -27.5 -66t-64.5 -28q-38 0 -65 28t-27 66 q0 37 27 63.5t65 26.5q37 0 64.5 -26.5t27.5 -63.5zM1157 -244q0 -38 -27.5 -66t-64.5 -28q-38 0 -65 28t-27 66q0 37 27 63.5t65 26.5q37 0 64.5 -26.5t27.5 -63.5z" />
<glyph unicode="&#xf0cb;" horiz-adv-x="1343" d="M2243 -244q0 -38 -28 -66t-67 -28q-36 0 -63 28t-27 66q0 37 26.5 63.5t63.5 26.5q39 0 67 -26.5t28 -63.5zM1909 -244q0 -38 -28 -66t-66 -28q-37 0 -64 28t-27 66q0 37 27 63.5t64 26.5q38 0 66 -26.5t28 -63.5zM1280 1188q0 -75 -39.5 -122.5t-91.5 -47.5h-8l53 -854 q1 -22 -55 -93t-72 -71q-27 0 -27 43q0 176 21 975h-817q-79 0 -110 54q-28 50 -28 171q0 201 58 201q10 0 28.5 -43t71.5 -43h881q59 0 97 -47t38 -123zM330 319q0 -201 -31 -233q-21 -22 -69 -52q-53 -34 -74 -34q-39 0 -39 41q0 25 15.5 52.5t32.5 54.5q23 54 23 163 q0 35 -3 96t-3 117q0 65 41 136q39 67 66 67q26 0 26 -18q0 -8 -9 -38.5t-9 -68.5q0 -30 16.5 -109t16.5 -174z" />
<glyph unicode="&#xf0cc;" d="M575 -244q0 -38 -28.5 -66t-65.5 -28q-38 0 -65 28t-27 66q0 37 27 63.5t65 26.5t66 -26.5t28 -63.5zM575 -557q0 -37 -28.5 -64.5t-65.5 -27.5q-38 0 -65 27.5t-27 64.5q0 38 27 64t65 26t66 -26t28 -64z" />
<glyph unicode="&#xf0cd;" d="M465 -244q0 -38 -28 -66t-66 -28q-37 0 -63.5 28t-26.5 66q0 37 26.5 63.5t63.5 26.5q38 0 66 -26.5t28 -63.5zM465 -557q0 -37 -28 -64.5t-66 -27.5q-37 0 -63.5 27.5t-26.5 64.5q0 38 26 64t64 26t66 -26t28 -64z" />
<glyph unicode="&#xf0ce;" d="M801 -244q0 -38 -28 -66t-66 -28q-37 0 -64 28t-27 66q0 37 27 63.5t64 26.5q38 0 66 -26.5t28 -63.5zM801 -557q0 -37 -28 -64.5t-66 -27.5q-37 0 -64 27.5t-27 64.5q0 38 26.5 64t64.5 26t66 -26t28 -64zM465 -244q0 -38 -28 -66t-66 -28q-37 0 -63.5 28t-26.5 66 q0 37 26.5 63.5t63.5 26.5q38 0 66 -26.5t28 -63.5zM131 -244q0 -38 -28 -66t-66 -28q-37 0 -63.5 28t-26.5 66q0 37 26.5 63.5t63.5 26.5q38 0 66 -26.5t28 -63.5zM299 -557q0 -37 -28 -64.5t-66 -27.5q-37 0 -63.5 27.5t-26.5 64.5q0 38 26.5 64t63.5 26q39 0 66.5 -26 t27.5 -64z" />
<glyph unicode="&#xf0cf;" d="M743 -244q0 -38 -27.5 -66t-66.5 -28q-37 0 -63.5 28t-26.5 66q0 37 26.5 63.5t63.5 26.5q39 0 66.5 -26.5t27.5 -63.5zM743 -557q0 -37 -28 -64.5t-66 -27.5q-36 0 -63 27.5t-27 64.5q0 38 26.5 64t63.5 26q39 0 66.5 -26t27.5 -64zM449 -268h-449v114h449v-114z" />
<glyph unicode="&#xf0d0;" d="M731 678q0 -40 -29 -68t-69 -28t-67 28t-27 68t27 68t67 28t69 -28t29 -68z" />
<glyph unicode="&#xf0d1;" d="M997 -268h-446v114h446v-114zM0 1881z" />
<glyph unicode="&#xf0d2;" d="M872 -553q0 -40 -28 -68t-68 -28t-69 28t-29 68q0 29 88 285h-211v114h449v-114h-222q90 -238 90 -285z" />
<glyph unicode="&#xf0d3;" d="M872 -553q0 -40 -28 -68t-68 -28t-69 28t-29 68q0 29 88 285h-211v114h449v-114h-222q90 -238 90 -285z" />
<glyph unicode="&#xf0d4;" d="M1034 -244q0 -38 -28 -66t-66 -28q-37 0 -63.5 28t-26.5 66q0 37 26.5 63.5t63.5 26.5q38 0 66 -26.5t28 -63.5zM700 -244q0 -38 -27.5 -66t-66.5 -28q-37 0 -63.5 28t-26.5 66q0 37 26.5 63.5t63.5 26.5q39 0 66.5 -26.5t27.5 -63.5z" />
<glyph unicode="&#xf0d5;" d="M1034 -244q0 -38 -28 -66t-66 -28q-37 0 -63.5 28t-26.5 66q0 37 26.5 63.5t63.5 26.5q38 0 66 -26.5t28 -63.5zM700 -244q0 -38 -27.5 -66t-66.5 -28q-37 0 -63.5 28t-26.5 66q0 37 26.5 63.5t63.5 26.5q39 0 66.5 -26.5t27.5 -63.5zM868 -557q0 -37 -28.5 -64.5 t-65.5 -27.5q-38 0 -64 27.5t-26 64.5q0 38 26 64t64 26t66 -26t28 -64z" />
<glyph unicode="&#xf0d6;" d="M868 -244q0 -38 -28.5 -66t-65.5 -28q-38 0 -65 28t-27 66q0 37 27 63.5t65 26.5q37 0 65.5 -26.5t28.5 -63.5z" />
<glyph unicode="&#xf0d7;" d="M-203 1642q0 -39 -29 -68.5t-69 -29.5t-67 29t-27 69t27 67.5t67 27.5t69 -27.5t29 -67.5z" />
<glyph unicode="&#xf0d8;" d="M666 -233q0 -34 -25.5 -59t-58.5 -25q-34 0 -58 25t-24 59q0 33 24 57t58 24t59 -24t25 -57zM858 -489q0 -34 -25 -59t-59 -25q-33 0 -57.5 25t-24.5 59q0 33 24 57t58 24t59 -24t25 -57zM1053 -745q0 -34 -25 -58t-59 -24t-58 24t-24 58q0 33 24 57t58 24t59 -24t25 -57 z" />
<glyph unicode="&#xf0d9;" d="M868 -244q0 -38 -28.5 -66t-65.5 -28q-38 0 -64 27.5t-26 66.5q0 38 26 64t64 26q37 0 65.5 -26.5t28.5 -63.5zM868 -557q0 -37 -28.5 -64.5t-65.5 -27.5q-38 0 -64 27.5t-26 64.5q0 38 26 64t64 26t66 -26t28 -64z" />
<glyph unicode="&#xf0da;" d="M868 -244q0 -38 -28.5 -66t-65.5 -28q-38 0 -64 27.5t-26 66.5q0 38 26 64t64 26q37 0 65.5 -26.5t28.5 -63.5zM868 -557q0 -37 -28.5 -64.5t-65.5 -27.5q-38 0 -64 27.5t-26 64.5q0 38 26 64t64 26t66 -26t28 -64z" />
<glyph unicode="&#xf0db;" d="M1202 -244q0 -38 -27 -66t-65 -28t-64 27.5t-26 66.5q0 38 26 64t64 26t65 -26.5t27 -63.5zM1202 -557q0 -37 -27 -64.5t-65 -27.5t-64 27.5t-26 64.5q0 38 26 64t64 26q39 0 65.5 -26t26.5 -64zM868 -244q0 -38 -28.5 -66t-65.5 -28q-38 0 -64 27.5t-26 66.5q0 38 26 64 t64 26q37 0 65.5 -26.5t28.5 -63.5zM535 -244q0 -38 -28.5 -66t-66.5 -28t-65 28t-27 66q0 37 27 63.5t65 26.5t66.5 -26.5t28.5 -63.5zM700 -557q0 -37 -27.5 -64.5t-64.5 -27.5q-38 0 -65 27.5t-27 64.5q0 38 27 64t65 26t65 -26t27 -64z" />
<glyph unicode="&#xf0dc;" d="M1147 -244q0 -38 -28 -66t-66 -28q-37 0 -63.5 28t-26.5 66q0 37 26.5 63.5t63.5 26.5q38 0 66 -26.5t28 -63.5zM1147 -557q0 -37 -28 -64.5t-66 -27.5q-37 0 -63.5 27.5t-26.5 64.5q0 38 26 64t64 26t66 -26t28 -64zM852 -268h-449v114h449v-114z" />
<glyph unicode="&#xf0dd;" d="M1147 -244q0 -38 -28 -66t-66 -28q-37 0 -63.5 28t-26.5 66q0 37 26.5 63.5t63.5 26.5q38 0 66 -26.5t28 -63.5zM1147 -557q0 -37 -28 -64.5t-66 -27.5q-37 0 -63.5 27.5t-26.5 64.5q0 38 26 64t64 26t66 -26t28 -64zM721 -553q0 -40 -29 -68t-69 -28t-68.5 28t-28.5 68 q0 45 88 285h-211v114h449v-114h-221q90 -246 90 -285z" />
<glyph unicode="&#xf0de;" d="M1214 -268h-446v114h446v-114zM0 1881z" />
<glyph unicode="&#xf0df;" d="M1133 -553q0 -40 -28 -68t-69 -28q-40 0 -68 28t-28 68q0 45 88 285h-211v114h449v-114h-222q89 -240 89 -285z" />
<glyph unicode="&#xf0e0;" d="M1133 -553q0 -40 -28 -68t-69 -28q-40 0 -68 28t-28 68q0 45 88 285h-211v114h449v-114h-222q89 -240 89 -285z" />
<glyph unicode="&#xf0e1;" d="M999 -244q0 -38 -27.5 -66t-66.5 -28q-37 0 -63.5 28t-26.5 66q0 37 26.5 63.5t63.5 26.5q39 0 66.5 -26.5t27.5 -63.5zM999 -557q0 -37 -28 -64.5t-66 -27.5q-36 0 -63 27.5t-27 64.5q0 38 26.5 64t63.5 26q39 0 66.5 -26t27.5 -64zM705 -268h-449v114h449v-114z" />
<glyph unicode="&#xf0e2;" horiz-adv-x="1" />
<glyph unicode="&#xf0e3;" d="M1370 -244q0 -38 -28 -66t-66 -28q-37 0 -63.5 28t-26.5 66q0 37 26.5 63.5t63.5 26.5q38 0 66 -26.5t28 -63.5zM1036 -244q0 -38 -28.5 -66t-65.5 -28q-38 0 -64 27.5t-26 66.5q0 38 26 64t64 26q37 0 65.5 -26.5t28.5 -63.5z" />
<glyph unicode="&#xf0e4;" horiz-adv-x="1343" d="M2081 -553q0 -40 -28.5 -68t-67.5 -28q-40 0 -68.5 28t-28.5 68q0 53 88 285h-211v114h449v-114h-223q90 -238 90 -285zM1280 1188q0 -75 -39.5 -122.5t-91.5 -47.5h-8l53 -854q1 -22 -55 -93t-72 -71q-27 0 -27 43q0 176 21 975h-817q-79 0 -110 54q-28 50 -28 171 q0 201 58 201q10 0 28.5 -43t71.5 -43h881q59 0 97 -47t38 -123zM330 319q0 -201 -31 -233q-21 -22 -69 -52q-53 -34 -74 -34q-39 0 -39 41q0 25 15.5 52.5t32.5 54.5q23 54 23 163q0 35 -3 96t-3 117q0 65 41 136q39 67 66 67q26 0 26 -18q0 -8 -9 -38.5t-9 -68.5 q0 -30 16.5 -109t16.5 -174z" />
<glyph unicode="&#xf0e5;" d="M1370 -244q0 -38 -28 -66t-66 -28q-37 0 -63.5 28t-26.5 66q0 37 26.5 63.5t63.5 26.5q38 0 66 -26.5t28 -63.5zM1036 -244q0 -38 -28.5 -66t-65.5 -28q-38 0 -64 27.5t-26 66.5q0 38 26 64t64 26q37 0 65.5 -26.5t28.5 -63.5zM1202 -557q0 -37 -27 -64.5t-65 -27.5 t-64 27.5t-26 64.5q0 38 26 64t64 26q39 0 65.5 -26t26.5 -64z" />
<glyph unicode="&#xf0e6;" d="M1221 -244q0 -38 -28.5 -66t-66.5 -28t-64 27.5t-26 66.5q0 38 26 64t64 26t66.5 -26.5t28.5 -63.5z" />
<glyph unicode="&#xf0e7;" d="M975 -233q0 -34 -25 -59t-59 -25t-58 25t-24 59t23.5 57.5t58.5 23.5q34 0 59 -24t25 -57zM1167 -489q0 -34 -25 -59t-59 -25q-33 0 -57.5 25t-24.5 59q0 33 24.5 57t57.5 24q34 0 59 -24t25 -57zM1362 -745q0 -34 -26 -58t-60 -24t-58 24t-24 58q0 33 24 57t58 24 t60 -24t26 -57z" />
<glyph unicode="&#xf0e8;" d="M1221 -244q0 -38 -28.5 -66t-66.5 -28t-64 27.5t-26 66.5q0 38 26 64t64 26t66.5 -26.5t28.5 -63.5zM1221 -557q0 -37 -29 -64.5t-66 -27.5t-63.5 27.5t-26.5 64.5q0 38 26 64t64 26t66.5 -26t28.5 -64z" />
<glyph unicode="&#xf0e9;" d="M1069 -244q0 -38 -28 -66t-66 -28q-37 0 -63.5 28t-26.5 66q0 37 26.5 63.5t63.5 26.5q38 0 66 -26.5t28 -63.5zM1069 -557q0 -37 -28 -64.5t-66 -27.5q-37 0 -63.5 27.5t-26.5 64.5q0 38 26.5 64t63.5 26q39 0 66.5 -26t27.5 -64zM733 -244q0 -38 -27.5 -66t-64.5 -28 q-38 0 -65 28t-27 66q0 37 26.5 63.5t63.5 26.5q38 0 66 -26.5t28 -63.5zM399 -244q0 -38 -27.5 -66t-66.5 -28q-37 0 -63.5 28t-26.5 66q0 37 26.5 63.5t63.5 26.5q39 0 66.5 -26.5t27.5 -63.5zM567 -557q0 -37 -28 -64.5t-66 -27.5q-37 0 -63.5 27.5t-26.5 64.5 q0 38 26.5 64t63.5 26q39 0 66.5 -26t27.5 -64z" />
<glyph unicode="&#xf0ea;" horiz-adv-x="602" d="M541 1061q0 -147 -20 -262q-21 -121 -52 -121q-26 0 -31 15v32q0 6 9.5 68.5t9.5 107.5q0 117 -164 117h-100q-79 0 -110 54q-28 50 -28 171q0 201 58 201q10 0 28.5 -43t71.5 -43h61q265 0 267 -297zM1491 -244q0 -38 -27.5 -66t-64.5 -28q-38 0 -65 28t-27 66 q0 37 27 63.5t65 26.5q37 0 64.5 -26.5t27.5 -63.5zM1157 -244q0 -38 -27.5 -66t-64.5 -28q-38 0 -65 28t-27 66q0 37 27 63.5t65 26.5q37 0 64.5 -26.5t27.5 -63.5zM1325 -557q0 -37 -28 -64.5t-66 -27.5q-37 0 -63.5 27.5t-26.5 64.5q0 38 26.5 64t63.5 26q39 0 66.5 -26 t27.5 -64z" />
<glyph unicode="&#xf0eb;" horiz-adv-x="1343" d="M2243 -244q0 -38 -28 -66t-67 -28q-36 0 -63 28t-27 66q0 37 26.5 63.5t63.5 26.5q39 0 67 -26.5t28 -63.5zM1909 -244q0 -38 -28 -66t-66 -28q-37 0 -64 28t-27 66q0 37 27 63.5t64 26.5q38 0 66 -26.5t28 -63.5zM2077 -557q0 -37 -28 -64.5t-67 -27.5q-36 0 -63 27.5 t-27 64.5q0 38 26.5 64t63.5 26q39 0 67 -26t28 -64zM1280 1188q0 -75 -39.5 -122.5t-91.5 -47.5h-8l53 -854q1 -22 -55 -93t-72 -71q-27 0 -27 43q0 176 21 975h-817q-79 0 -110 54q-28 50 -28 171q0 201 58 201q10 0 28.5 -43t71.5 -43h881q59 0 97 -47t38 -123zM330 319 q0 -201 -31 -233q-21 -22 -69 -52q-53 -34 -74 -34q-39 0 -39 41q0 25 15.5 52.5t32.5 54.5q23 54 23 163q0 35 -3 96t-3 117q0 65 41 136q39 67 66 67q26 0 26 -18q0 -8 -9 -38.5t-9 -68.5q0 -30 16.5 -109t16.5 -174z" />
<glyph unicode="&#xf0ec;" d="M743 -244q0 -38 -27.5 -66t-66.5 -28q-37 0 -63.5 28t-26.5 66q0 37 26.5 63.5t63.5 26.5q39 0 66.5 -26.5t27.5 -63.5zM743 -557q0 -37 -28 -64.5t-66 -27.5q-36 0 -63 27.5t-27 64.5q0 38 26.5 64t63.5 26q39 0 66.5 -26t27.5 -64zM317 -553q0 -40 -28.5 -68t-69.5 -28 q-40 0 -68 28t-28 68q0 45 88 285h-211v114h449v-114h-222q90 -246 90 -285z" />
<glyph unicode="&#xf0ed;" d="M1221 -244q0 -38 -28.5 -66t-66.5 -28t-64 27.5t-26 66.5q0 38 26 64t64 26t66.5 -26.5t28.5 -63.5zM1221 -557q0 -37 -29 -64.5t-66 -27.5t-63.5 27.5t-26.5 64.5q0 38 26 64t64 26t66.5 -26t28.5 -64z" />
<glyph unicode="&#xf0ee;" horiz-adv-x="602" d="M541 1061q0 -147 -20 -262q-21 -121 -52 -121q-26 0 -31 15v32q0 6 9.5 68.5t9.5 107.5q0 117 -164 117h-100q-79 0 -110 54q-28 50 -28 171q0 201 58 201q10 0 28.5 -43t71.5 -43h61q265 0 267 -297zM1335 -244q0 -38 -27.5 -66t-64.5 -28q-38 0 -65 28t-27 66 q0 37 27 63.5t65 26.5q37 0 64.5 -26.5t27.5 -63.5z" />
<glyph unicode="&#xf0ef;" d="M1370 -244q0 -38 -28 -66t-66 -28q-37 0 -63.5 28t-26.5 66q0 37 26.5 63.5t63.5 26.5q38 0 66 -26.5t28 -63.5zM1370 -557q0 -37 -28 -64.5t-66 -27.5q-37 0 -63.5 27.5t-26.5 64.5q0 38 26.5 64t63.5 26q39 0 66.5 -26t27.5 -64zM1034 -244q0 -38 -28 -66t-66 -28 q-37 0 -63.5 28t-26.5 66q0 37 26.5 63.5t63.5 26.5q38 0 66 -26.5t28 -63.5zM700 -244q0 -38 -27.5 -66t-66.5 -28q-37 0 -63.5 28t-26.5 66q0 37 26.5 63.5t63.5 26.5q39 0 66.5 -26.5t27.5 -63.5zM868 -557q0 -37 -28 -64.5t-66 -27.5q-37 0 -63.5 27.5t-26.5 64.5 q0 38 26.5 64t63.5 26q39 0 66.5 -26t27.5 -64z" />
<glyph unicode="&#xf0f0;" d="M1370 -244q0 -38 -28 -66t-66 -28q-37 0 -63.5 28t-26.5 66q0 37 26.5 63.5t63.5 26.5q38 0 66 -26.5t28 -63.5zM1370 -557q0 -37 -28 -64.5t-66 -27.5q-37 0 -63.5 27.5t-26.5 64.5q0 38 26.5 64t63.5 26q39 0 66.5 -26t27.5 -64zM1073 -268h-446v114h446v-114z" />
<glyph unicode="&#xf0f1;" d="M1370 -244q0 -38 -28 -66t-66 -28q-37 0 -63.5 28t-26.5 66q0 37 26.5 63.5t63.5 26.5q38 0 66 -26.5t28 -63.5zM1370 -557q0 -37 -28 -64.5t-66 -27.5q-37 0 -63.5 27.5t-26.5 64.5q0 38 26.5 64t63.5 26q39 0 66.5 -26t27.5 -64zM942 -553q0 -40 -28 -68t-68 -28 t-68 28t-28 68q0 45 88 285h-211v114h446v-114h-219q88 -240 88 -285z" />
<glyph unicode="&#xf0f2;" d="M928 -532l-97 -66l-169 242l-170 -242l-97 66l267 378z" />
<glyph unicode="&#xf0f3;" d="M999 -244q0 -38 -27.5 -66t-66.5 -28q-37 0 -63.5 28t-26.5 66q0 37 26.5 63.5t63.5 26.5q39 0 66.5 -26.5t27.5 -63.5zM999 -557q0 -37 -28 -64.5t-66 -27.5q-36 0 -63 27.5t-27 64.5q0 38 26.5 64t63.5 26q39 0 66.5 -26t27.5 -64zM573 -553q0 -40 -28.5 -68t-69.5 -28 q-40 0 -68 28t-28 68q0 45 88 285h-211v114h449v-114h-222q90 -246 90 -285z" />
<glyph unicode="&#xf0f4;" horiz-adv-x="690" d="M567 1638q0 -38 -27.5 -65t-66.5 -27q-37 0 -63.5 27t-26.5 65q0 37 26.5 64t63.5 27q39 0 66.5 -27t27.5 -64zM567 164q0 -23 -56.5 -93.5t-72.5 -70.5q-24 0 -24 43q0 27 34.5 394.5t34.5 463.5q0 117 -127 117h-137q-79 0 -109 54q-28 50 -28 171q0 201 55 201 q12 0 30 -43t71 -43h127q200 0 200 -297z" />
<glyph unicode="&#xf0f5;" d="M1200 -203l-219 -469l-104 49l219 469z" />
<glyph unicode="&#xf0f6;" horiz-adv-x="1343" d="M1729 1640q0 -39 -29 -67.5t-69 -28.5q-38 0 -66 28.5t-28 67.5q0 40 28 68.5t66 28.5q40 0 69 -28.5t29 -68.5zM1280 1188q0 -75 -39.5 -122.5t-91.5 -47.5h-8l53 -854q1 -22 -55 -93t-72 -71q-27 0 -27 43q0 176 21 975h-817q-79 0 -110 54q-28 50 -28 171 q0 201 58 201q10 0 28.5 -43t71.5 -43h881q59 0 97 -47t38 -123zM330 319q0 -201 -31 -233q-21 -22 -69 -52q-53 -34 -74 -34q-39 0 -39 41q0 25 15.5 52.5t32.5 54.5q23 54 23 163q0 35 -3 96t-3 117q0 65 41 136q39 67 66 67q26 0 26 -18q0 -8 -9 -38.5t-9 -68.5 q0 -30 16.5 -109t16.5 -174z" />
<glyph unicode="&#xf0f7;" d="M1337 -623l-104 -49l-219 469l104 49z" />
<glyph unicode="&#xf0f8;" d="M733 -244q0 -38 -27.5 -66t-64.5 -28q-38 0 -65 28t-27 66q0 37 26.5 63.5t63.5 26.5q38 0 66 -26.5t28 -63.5zM733 -557q0 -37 -27.5 -64.5t-64.5 -27.5q-38 0 -65 27.5t-27 64.5q0 38 26.5 64t63.5 26q39 0 66.5 -26t27.5 -64z" />
<glyph unicode="&#xf0f9;" d="M1190 -657h-504v131h375v372h129v-503z" />
<glyph unicode="&#xf0fa;" d="M1194 -604q0 -79 -60.5 -139t-140.5 -60h-245v117h251q36 0 59 23q19 19 19 42q0 61 -88 78q-150 28 -165 35q-89 40 -89 158q0 77 60.5 136.5t140.5 59.5h244v-114h-250q-36 0 -56 -21.5t-20 -46.5q0 -61 88 -78q150 -27 164 -33q88 -40 88 -157z" />
<glyph unicode="&#xf0fb;" horiz-adv-x="690" d="M567 164q0 -23 -56.5 -93.5t-72.5 -70.5q-24 0 -24 43q0 27 34.5 394.5t34.5 463.5q0 117 -127 117h-137q-79 0 -109 54q-28 50 -28 171q0 201 55 201q12 0 30 -43t71 -43h127q200 0 200 -297zM319 678q0 -40 -30 -68t-70 -28q-38 0 -66 28t-28 68t28 68t66 28 q40 0 70 -28.5t30 -67.5z" />
<glyph unicode="&#xf0fc;" d="M733 -244q0 -38 -27.5 -66t-64.5 -28q-38 0 -65 28t-27 66q0 37 26.5 63.5t63.5 26.5q38 0 66 -26.5t28 -63.5zM733 -557q0 -37 -27.5 -64.5t-64.5 -27.5q-38 0 -65 27.5t-27 64.5q0 38 26.5 64t63.5 26q39 0 66.5 -26t27.5 -64z" />
<glyph unicode="&#xf0fd;" d="M1327 -532l-94 -66l-170 242l-170 -242l-96 66l266 378z" />
<glyph unicode="&#xf0fe;" d="M1044 -244q0 -38 -27.5 -66t-66.5 -28q-37 0 -63.5 28t-26.5 66q0 37 26.5 63.5t63.5 26.5q39 0 66.5 -26.5t27.5 -63.5zM1044 -557q0 -37 -27.5 -64.5t-66.5 -27.5q-36 0 -63 27.5t-27 64.5q0 38 26.5 64t63.5 26q39 0 66.5 -26t27.5 -64zM764 -649h-117v495h117v-495z M551 -268h-449v114h449v-114z" />
<glyph unicode="&#xf0ff;" horiz-adv-x="90" />
</font>
</defs>
</svg>
